G04 #@! TF.GenerationSoftware,KiCad,Pcbnew,(6.0.7)*
G04 #@! TF.CreationDate,2022-12-26T23:05:37-05:00*
G04 #@! TF.ProjectId,Micromouse-kicad,4d696372-6f6d-46f7-9573-652d6b696361,rev?*
G04 #@! TF.SameCoordinates,Original*
G04 #@! TF.FileFunction,Paste,Top*
G04 #@! TF.FilePolarity,Positive*
%FSLAX46Y46*%
G04 Gerber Fmt 4.6, Leading zero omitted, Abs format (unit mm)*
G04 Created by KiCad (PCBNEW (6.0.7)) date 2022-12-26 23:05:37*
%MOMM*%
%LPD*%
G01*
G04 APERTURE LIST*
G04 Aperture macros list*
%AMRoundRect*
0 Rectangle with rounded corners*
0 $1 Rounding radius*
0 $2 $3 $4 $5 $6 $7 $8 $9 X,Y pos of 4 corners*
0 Add a 4 corners polygon primitive as box body*
4,1,4,$2,$3,$4,$5,$6,$7,$8,$9,$2,$3,0*
0 Add four circle primitives for the rounded corners*
1,1,$1+$1,$2,$3*
1,1,$1+$1,$4,$5*
1,1,$1+$1,$6,$7*
1,1,$1+$1,$8,$9*
0 Add four rect primitives between the rounded corners*
20,1,$1+$1,$2,$3,$4,$5,0*
20,1,$1+$1,$4,$5,$6,$7,0*
20,1,$1+$1,$6,$7,$8,$9,0*
20,1,$1+$1,$8,$9,$2,$3,0*%
G04 Aperture macros list end*
%ADD10C,0.010000*%
%ADD11RoundRect,0.135000X0.035355X-0.226274X0.226274X-0.035355X-0.035355X0.226274X-0.226274X0.035355X0*%
%ADD12RoundRect,0.135000X0.135000X0.185000X-0.135000X0.185000X-0.135000X-0.185000X0.135000X-0.185000X0*%
%ADD13RoundRect,0.140000X0.140000X0.170000X-0.140000X0.170000X-0.140000X-0.170000X0.140000X-0.170000X0*%
%ADD14RoundRect,0.140000X-0.140000X-0.170000X0.140000X-0.170000X0.140000X0.170000X-0.140000X0.170000X0*%
%ADD15R,1.500000X2.000000*%
%ADD16R,3.800000X2.000000*%
%ADD17RoundRect,0.135000X-0.185000X0.135000X-0.185000X-0.135000X0.185000X-0.135000X0.185000X0.135000X0*%
%ADD18RoundRect,0.140000X0.170000X-0.140000X0.170000X0.140000X-0.170000X0.140000X-0.170000X-0.140000X0*%
%ADD19RoundRect,0.135000X-0.135000X-0.185000X0.135000X-0.185000X0.135000X0.185000X-0.135000X0.185000X0*%
%ADD20RoundRect,0.218750X0.218750X0.256250X-0.218750X0.256250X-0.218750X-0.256250X0.218750X-0.256250X0*%
%ADD21RoundRect,0.006600X0.313400X0.103400X-0.313400X0.103400X-0.313400X-0.103400X0.313400X-0.103400X0*%
%ADD22RoundRect,0.006600X-0.103400X0.313400X-0.103400X-0.313400X0.103400X-0.313400X0.103400X0.313400X0*%
%ADD23R,2.100000X0.400000*%
%ADD24R,1.000000X1.500000*%
%ADD25R,1.900000X1.900000*%
%ADD26O,2.400000X1.100000*%
%ADD27RoundRect,0.200000X0.200000X0.275000X-0.200000X0.275000X-0.200000X-0.275000X0.200000X-0.275000X0*%
%ADD28R,1.600000X0.300000*%
%ADD29R,2.460000X2.310000*%
%ADD30RoundRect,0.147500X-0.147500X-0.172500X0.147500X-0.172500X0.147500X0.172500X-0.147500X0.172500X0*%
%ADD31RoundRect,0.135000X-0.226274X-0.035355X-0.035355X-0.226274X0.226274X0.035355X0.035355X0.226274X0*%
%ADD32RoundRect,0.250000X-0.325000X-0.650000X0.325000X-0.650000X0.325000X0.650000X-0.325000X0.650000X0*%
%ADD33RoundRect,0.135000X0.185000X-0.135000X0.185000X0.135000X-0.185000X0.135000X-0.185000X-0.135000X0*%
%ADD34RoundRect,0.218750X0.218750X0.381250X-0.218750X0.381250X-0.218750X-0.381250X0.218750X-0.381250X0*%
%ADD35R,2.000000X2.400000*%
%ADD36RoundRect,0.140000X0.021213X-0.219203X0.219203X-0.021213X-0.021213X0.219203X-0.219203X0.021213X0*%
%ADD37RoundRect,0.218750X0.381250X-0.218750X0.381250X0.218750X-0.381250X0.218750X-0.381250X-0.218750X0*%
%ADD38RoundRect,0.218750X0.256250X-0.218750X0.256250X0.218750X-0.256250X0.218750X-0.256250X-0.218750X0*%
%ADD39RoundRect,0.140000X-0.170000X0.140000X-0.170000X-0.140000X0.170000X-0.140000X0.170000X0.140000X0*%
%ADD40RoundRect,0.150000X0.512500X0.150000X-0.512500X0.150000X-0.512500X-0.150000X0.512500X-0.150000X0*%
%ADD41RoundRect,0.200000X-0.275000X0.200000X-0.275000X-0.200000X0.275000X-0.200000X0.275000X0.200000X0*%
%ADD42R,1.200000X0.900000*%
%ADD43R,0.300000X1.200000*%
%ADD44R,1.200000X0.300000*%
%ADD45RoundRect,0.200000X-0.200000X-0.275000X0.200000X-0.275000X0.200000X0.275000X-0.200000X0.275000X0*%
%ADD46RoundRect,0.135000X-0.035355X0.226274X-0.226274X0.035355X0.035355X-0.226274X0.226274X-0.035355X0*%
G04 APERTURE END LIST*
G36*
X142725000Y-103156000D02*
G01*
X141755000Y-103156000D01*
X141755000Y-102076000D01*
X142725000Y-102076000D01*
X142725000Y-103156000D01*
G37*
D10*
X142725000Y-103156000D02*
X141755000Y-103156000D01*
X141755000Y-102076000D01*
X142725000Y-102076000D01*
X142725000Y-103156000D01*
G36*
X193991000Y-101450000D02*
G01*
X192091000Y-101450000D01*
X192091000Y-99550000D01*
X193991000Y-99550000D01*
X193991000Y-101450000D01*
G37*
G36*
X191291000Y-105550000D02*
G01*
X190291000Y-105550000D01*
X190291000Y-104050000D01*
X191291000Y-104050000D01*
X191291000Y-105550000D01*
G37*
G36*
X191041000Y-102450000D02*
G01*
X188941000Y-102450000D01*
X188941000Y-102050000D01*
X191041000Y-102050000D01*
X191041000Y-102450000D01*
G37*
G36*
X191041000Y-103100000D02*
G01*
X188941000Y-103100000D01*
X188941000Y-102700000D01*
X191041000Y-102700000D01*
X191041000Y-103100000D01*
G37*
G36*
X191041000Y-100500000D02*
G01*
X188941000Y-100500000D01*
X188941000Y-100100000D01*
X191041000Y-100100000D01*
X191041000Y-100500000D01*
G37*
G36*
X191291000Y-99150000D02*
G01*
X190291000Y-99150000D01*
X190291000Y-97650000D01*
X191291000Y-97650000D01*
X191291000Y-99150000D01*
G37*
G36*
X191041000Y-101150000D02*
G01*
X188941000Y-101150000D01*
X188941000Y-100750000D01*
X191041000Y-100750000D01*
X191041000Y-101150000D01*
G37*
G36*
X193991000Y-103650000D02*
G01*
X192091000Y-103650000D01*
X192091000Y-101750000D01*
X193991000Y-101750000D01*
X193991000Y-103650000D01*
G37*
G36*
X191041000Y-101800000D02*
G01*
X188941000Y-101800000D01*
X188941000Y-101400000D01*
X191041000Y-101400000D01*
X191041000Y-101800000D01*
G37*
D11*
X165589376Y-86360624D03*
X166310624Y-85639376D03*
D12*
X121986000Y-76156000D03*
X120966000Y-76156000D03*
D13*
X190776800Y-116332000D03*
X189816800Y-116332000D03*
X124115000Y-76156000D03*
X123155000Y-76156000D03*
D14*
X177320000Y-119634000D03*
X178280000Y-119634000D03*
D15*
X120636000Y-105385000D03*
D16*
X122936000Y-99085000D03*
D15*
X122936000Y-105385000D03*
X125236000Y-105385000D03*
D17*
X172339000Y-102868000D03*
X172339000Y-103888000D03*
D18*
X159207200Y-95526800D03*
X159207200Y-94566800D03*
D19*
X150493000Y-103505000D03*
X151513000Y-103505000D03*
D14*
X138585000Y-101473000D03*
X139545000Y-101473000D03*
X169093000Y-95631000D03*
X170053000Y-95631000D03*
D12*
X115362000Y-86393000D03*
X114342000Y-86393000D03*
D20*
X133121500Y-102235000D03*
X131546500Y-102235000D03*
D21*
X143785000Y-103616000D03*
X143785000Y-103216000D03*
X143785000Y-102816000D03*
X143785000Y-102416000D03*
X143785000Y-102016000D03*
X143785000Y-101616000D03*
D22*
X143240000Y-101071000D03*
X142840000Y-101071000D03*
X142440000Y-101071000D03*
X142040000Y-101071000D03*
X141640000Y-101071000D03*
X141240000Y-101071000D03*
D21*
X140695000Y-101616000D03*
X140695000Y-102016000D03*
X140695000Y-102416000D03*
X140695000Y-102816000D03*
X140695000Y-103216000D03*
X140695000Y-103616000D03*
D22*
X141240000Y-104161000D03*
X141640000Y-104161000D03*
X142040000Y-104161000D03*
X142440000Y-104161000D03*
X142840000Y-104161000D03*
X143240000Y-104161000D03*
D23*
X189991000Y-102900000D03*
X189991000Y-102250000D03*
X189991000Y-101600000D03*
X189991000Y-100950000D03*
X189991000Y-100300000D03*
D24*
X190791000Y-104800000D03*
D25*
X193041000Y-102700000D03*
D26*
X193041000Y-104425000D03*
X193041000Y-98775000D03*
D25*
X193041000Y-100500000D03*
D24*
X190791000Y-98400000D03*
D18*
X181000400Y-84249200D03*
X181000400Y-83289200D03*
D27*
X187413400Y-102717600D03*
X185763400Y-102717600D03*
D28*
X189140400Y-84489600D03*
X189140400Y-83839600D03*
X189140400Y-83189600D03*
X189140400Y-82539600D03*
X189140400Y-81889600D03*
X189140400Y-81239600D03*
X189140400Y-80589600D03*
X189140400Y-79939600D03*
X183540400Y-79939600D03*
X183540400Y-80589600D03*
X183540400Y-81239600D03*
X183540400Y-81889600D03*
X183540400Y-82539600D03*
X183540400Y-83189600D03*
X183540400Y-83839600D03*
X183540400Y-84489600D03*
D29*
X186340400Y-82214600D03*
D30*
X156868000Y-96647000D03*
X157838000Y-96647000D03*
D18*
X158115000Y-95504000D03*
X158115000Y-94544000D03*
D17*
X109585836Y-113429164D03*
X109585836Y-114449164D03*
D18*
X172339000Y-96718000D03*
X172339000Y-95758000D03*
D31*
X110989376Y-123189376D03*
X111710624Y-123910624D03*
D18*
X126549500Y-129760000D03*
X126549500Y-128800000D03*
D14*
X125314000Y-76156000D03*
X126274000Y-76156000D03*
D32*
X127606000Y-99314000D03*
X130556000Y-99314000D03*
D33*
X143205200Y-99722400D03*
X143205200Y-98702400D03*
D12*
X156821600Y-103784400D03*
X155801600Y-103784400D03*
X126304000Y-73870000D03*
X125284000Y-73870000D03*
D17*
X114056236Y-117739164D03*
X114056236Y-118759164D03*
D34*
X126162500Y-87400000D03*
X124037500Y-87400000D03*
D27*
X187413400Y-101142800D03*
X185763400Y-101142800D03*
D13*
X113050000Y-89822000D03*
X112090000Y-89822000D03*
D35*
X166442000Y-92456000D03*
X162742000Y-92456000D03*
D17*
X122866500Y-128516000D03*
X122866500Y-129536000D03*
D36*
X171460589Y-83789411D03*
X172139411Y-83110589D03*
D12*
X190857600Y-125984000D03*
X189837600Y-125984000D03*
D37*
X183134000Y-117648500D03*
X183134000Y-115523500D03*
D18*
X114056236Y-114784164D03*
X114056236Y-113824164D03*
D14*
X189867600Y-127203200D03*
X190827600Y-127203200D03*
D38*
X164750000Y-117187500D03*
X164750000Y-115612500D03*
D12*
X115360000Y-85250000D03*
X114340000Y-85250000D03*
D32*
X125271000Y-96520000D03*
X128221000Y-96520000D03*
D39*
X126549500Y-130832000D03*
X126549500Y-131792000D03*
D15*
X125236000Y-109499000D03*
D16*
X122936000Y-115799000D03*
D15*
X122936000Y-109499000D03*
X120636000Y-109499000D03*
D14*
X114094000Y-89822000D03*
X115054000Y-89822000D03*
X169220000Y-110109000D03*
X170180000Y-110109000D03*
D19*
X189786800Y-117754400D03*
X190806800Y-117754400D03*
D40*
X186049500Y-106207600D03*
X186049500Y-105257600D03*
X186049500Y-104307600D03*
X183774500Y-104307600D03*
X183774500Y-105257600D03*
X183774500Y-106207600D03*
D41*
X164750000Y-112450000D03*
X164750000Y-114100000D03*
D12*
X157837600Y-105714800D03*
X156817600Y-105714800D03*
D18*
X142138400Y-99692400D03*
X142138400Y-98732400D03*
X181000400Y-82217200D03*
X181000400Y-81257200D03*
D13*
X157886400Y-106781600D03*
X156926400Y-106781600D03*
D12*
X111046000Y-89822000D03*
X110026000Y-89822000D03*
D17*
X168402000Y-122121200D03*
X168402000Y-123141200D03*
D42*
X188722000Y-108965000D03*
X188722000Y-105665000D03*
D12*
X126304000Y-72600000D03*
X125284000Y-72600000D03*
D39*
X114056236Y-115739164D03*
X114056236Y-116699164D03*
D12*
X127508000Y-89408000D03*
X126488000Y-89408000D03*
D19*
X126490000Y-90551000D03*
X127510000Y-90551000D03*
D43*
X168850000Y-97120000D03*
X168350000Y-97120000D03*
X167850000Y-97120000D03*
X167350000Y-97120000D03*
X166850000Y-97120000D03*
X166350000Y-97120000D03*
X165850000Y-97120000D03*
X165350000Y-97120000D03*
X164850000Y-97120000D03*
X164350000Y-97120000D03*
X163850000Y-97120000D03*
X163350000Y-97120000D03*
X162850000Y-97120000D03*
X162350000Y-97120000D03*
X161850000Y-97120000D03*
X161350000Y-97120000D03*
D44*
X159350000Y-99120000D03*
X159350000Y-99620000D03*
X159350000Y-100120000D03*
X159350000Y-100620000D03*
X159350000Y-101120000D03*
X159350000Y-101620000D03*
X159350000Y-102120000D03*
X159350000Y-102620000D03*
X159350000Y-103120000D03*
X159350000Y-103620000D03*
X159350000Y-104120000D03*
X159350000Y-104620000D03*
X159350000Y-105120000D03*
X159350000Y-105620000D03*
X159350000Y-106120000D03*
X159350000Y-106620000D03*
D43*
X161350000Y-108620000D03*
X161850000Y-108620000D03*
X162350000Y-108620000D03*
X162850000Y-108620000D03*
X163350000Y-108620000D03*
X163850000Y-108620000D03*
X164350000Y-108620000D03*
X164850000Y-108620000D03*
X165350000Y-108620000D03*
X165850000Y-108620000D03*
X166350000Y-108620000D03*
X166850000Y-108620000D03*
X167350000Y-108620000D03*
X167850000Y-108620000D03*
X168350000Y-108620000D03*
X168850000Y-108620000D03*
D44*
X170850000Y-106620000D03*
X170850000Y-106120000D03*
X170850000Y-105620000D03*
X170850000Y-105120000D03*
X170850000Y-104620000D03*
X170850000Y-104120000D03*
X170850000Y-103620000D03*
X170850000Y-103120000D03*
X170850000Y-102620000D03*
X170850000Y-102120000D03*
X170850000Y-101620000D03*
X170850000Y-101120000D03*
X170850000Y-100620000D03*
X170850000Y-100120000D03*
X170850000Y-99620000D03*
X170850000Y-99120000D03*
D14*
X166271000Y-89916000D03*
X167231000Y-89916000D03*
D32*
X120392400Y-96570800D03*
X123342400Y-96570800D03*
D17*
X110906636Y-113429164D03*
X110906636Y-114449164D03*
D45*
X128207000Y-102235000D03*
X129857000Y-102235000D03*
D12*
X119210000Y-70450000D03*
X118190000Y-70450000D03*
D33*
X179882800Y-82247200D03*
X179882800Y-81227200D03*
D19*
X115890000Y-134850000D03*
X116910000Y-134850000D03*
D14*
X162969000Y-89916000D03*
X163929000Y-89916000D03*
D32*
X128016000Y-112776000D03*
X130966000Y-112776000D03*
D17*
X121596500Y-128514000D03*
X121596500Y-129534000D03*
D39*
X144272000Y-98732400D03*
X144272000Y-99692400D03*
X172212000Y-98862000D03*
X172212000Y-99822000D03*
D17*
X126549500Y-132961000D03*
X126549500Y-133981000D03*
D46*
X113260624Y-79439376D03*
X112539376Y-80160624D03*
D18*
X157861000Y-100302000D03*
X157861000Y-99342000D03*
D42*
X177546000Y-114936000D03*
X177546000Y-118236000D03*
M02*
