G04 #@! TF.GenerationSoftware,KiCad,Pcbnew,(6.0.7)*
G04 #@! TF.CreationDate,2022-12-27T10:26:11-05:00*
G04 #@! TF.ProjectId,Micromouse-kicad,4d696372-6f6d-46f7-9573-652d6b696361,rev?*
G04 #@! TF.SameCoordinates,Original*
G04 #@! TF.FileFunction,Legend,Bot*
G04 #@! TF.FilePolarity,Positive*
%FSLAX46Y46*%
G04 Gerber Fmt 4.6, Leading zero omitted, Abs format (unit mm)*
G04 Created by KiCad (PCBNEW (6.0.7)) date 2022-12-27 10:26:11*
%MOMM*%
%LPD*%
G01*
G04 APERTURE LIST*
G04 Aperture macros list*
%AMRoundRect*
0 Rectangle with rounded corners*
0 $1 Rounding radius*
0 $2 $3 $4 $5 $6 $7 $8 $9 X,Y pos of 4 corners*
0 Add a 4 corners polygon primitive as box body*
4,1,4,$2,$3,$4,$5,$6,$7,$8,$9,$2,$3,0*
0 Add four circle primitives for the rounded corners*
1,1,$1+$1,$2,$3*
1,1,$1+$1,$4,$5*
1,1,$1+$1,$6,$7*
1,1,$1+$1,$8,$9*
0 Add four rect primitives between the rounded corners*
20,1,$1+$1,$2,$3,$4,$5,0*
20,1,$1+$1,$4,$5,$6,$7,0*
20,1,$1+$1,$6,$7,$8,$9,0*
20,1,$1+$1,$8,$9,$2,$3,0*%
%AMRotRect*
0 Rectangle, with rotation*
0 The origin of the aperture is its center*
0 $1 length*
0 $2 width*
0 $3 Rotation angle, in degrees counterclockwise*
0 Add horizontal line*
21,1,$1,$2,0,0,$3*%
G04 Aperture macros list end*
%ADD10C,2.000000*%
%ADD11R,1.000000X1.500000*%
%ADD12O,1.000000X1.500000*%
%ADD13C,0.600000*%
%ADD14O,2.400000X1.100000*%
%ADD15C,0.380000*%
%ADD16R,1.500000X1.000000*%
%ADD17O,1.500000X1.000000*%
%ADD18R,1.500000X1.800000*%
%ADD19C,1.500000*%
%ADD20R,5.516000X5.516000*%
%ADD21C,5.516000*%
%ADD22R,1.900000X1.900000*%
%ADD23C,1.900000*%
%ADD24C,2.400000*%
%ADD25R,1.700000X1.700000*%
%ADD26O,1.700000X1.700000*%
%ADD27RoundRect,0.250000X-0.600000X-0.725000X0.600000X-0.725000X0.600000X0.725000X-0.600000X0.725000X0*%
%ADD28O,1.700000X1.950000*%
%ADD29RotRect,1.500000X1.800000X225.000000*%
%ADD30RotRect,1.500000X1.800000X315.000000*%
G04 APERTURE END LIST*
%LPC*%
D10*
X188148400Y-113742400D03*
X188148400Y-120242400D03*
X192648400Y-120242400D03*
X192648400Y-113742400D03*
D11*
X111770236Y-116733164D03*
D12*
X110500236Y-116733164D03*
X109230236Y-116733164D03*
D13*
X190941000Y-99600000D03*
X190941000Y-103600000D03*
D14*
X193041000Y-104425000D03*
X193041000Y-98775000D03*
D15*
X185590400Y-80714600D03*
X187090400Y-83714600D03*
X187090400Y-82214600D03*
X185590400Y-82214600D03*
X187090400Y-80714600D03*
X185590400Y-83714600D03*
D16*
X123000000Y-73870000D03*
D17*
X123000000Y-72600000D03*
X123000000Y-71330000D03*
D18*
X116210900Y-136754900D03*
D19*
X118750900Y-136754900D03*
D18*
X123576900Y-136754900D03*
D19*
X126116900Y-136754900D03*
D16*
X112052000Y-87536000D03*
D17*
X112052000Y-86266000D03*
X112052000Y-84996000D03*
D20*
X133477000Y-89749500D03*
D21*
X133477000Y-82549500D03*
D22*
X171348400Y-125722400D03*
D23*
X171348400Y-123222400D03*
X171348400Y-120722400D03*
D24*
X161534000Y-123661000D03*
X143774000Y-123661000D03*
D25*
X120929000Y-119101000D03*
D26*
X123469000Y-119101000D03*
X126009000Y-119101000D03*
X128549000Y-119101000D03*
X131089000Y-119101000D03*
X133629000Y-119101000D03*
D27*
X179678000Y-88781400D03*
D28*
X182178000Y-88781400D03*
X184678000Y-88781400D03*
X187178000Y-88781400D03*
X189678000Y-88781400D03*
X192178000Y-88781400D03*
D29*
X111599199Y-78345975D03*
D19*
X109803148Y-80142026D03*
D29*
X106390651Y-83554523D03*
D19*
X104594600Y-85350575D03*
D25*
X95275000Y-95270000D03*
D26*
X95275000Y-97810000D03*
X95275000Y-100350000D03*
X95275000Y-102890000D03*
X95275000Y-105430000D03*
X95275000Y-107970000D03*
X95275000Y-110510000D03*
D10*
X188097600Y-124004000D03*
X188097600Y-130504000D03*
X192597600Y-124004000D03*
X192597600Y-130504000D03*
D27*
X179678000Y-73846200D03*
D28*
X182178000Y-73846200D03*
X184678000Y-73846200D03*
X187178000Y-73846200D03*
X189678000Y-73846200D03*
X192178000Y-73846200D03*
D22*
X126695200Y-84574400D03*
D23*
X126695200Y-82074400D03*
X126695200Y-79574400D03*
D10*
X168650000Y-84500000D03*
X173246194Y-79903806D03*
X171831981Y-87681981D03*
X176428175Y-83085786D03*
D18*
X118779500Y-68387500D03*
D19*
X116239500Y-68387500D03*
D18*
X126145500Y-68387500D03*
D19*
X123605500Y-68387500D03*
D24*
X161534000Y-81571000D03*
X143774000Y-81571000D03*
D30*
X109781577Y-125003349D03*
D19*
X111577629Y-126799400D03*
D30*
X104573029Y-119794801D03*
D19*
X106369080Y-121590852D03*
D11*
X124136500Y-131953000D03*
D12*
X122866500Y-131953000D03*
X121596500Y-131953000D03*
D25*
X179120800Y-129794000D03*
D26*
X179120800Y-132334000D03*
X179120800Y-134874000D03*
X179120800Y-137414000D03*
M02*
