M48
; DRILL file {KiCad 7.0.1} date Wed Jun  7 22:50:28 2023
; FORMAT={2:4/ absolute / inch / keep zeros}
; #@! TF.CreationDate,2023-06-07T22:50:28-05:00
; #@! TF.GenerationSoftware,Kicad,Pcbnew,7.0.1
; #@! TF.FileFunction,Plated,1,4,PTH
FMAT,2
INCH
; #@! TA.AperFunction,Plated,PTH,ComponentDrill
T1C0.0130
; #@! TA.AperFunction,Plated,PTH,ViaDrill
T2C0.0157
; #@! TA.AperFunction,Plated,PTH,ComponentDrill
T3C0.0217
; #@! TA.AperFunction,Plated,PTH,ComponentDrill
T4C0.0236
; #@! TA.AperFunction,Plated,PTH,ComponentDrill
T5C0.0354
; #@! TA.AperFunction,Plated,PTH,ComponentDrill
T6C0.0374
; #@! TA.AperFunction,Plated,PTH,ComponentDrill
T7C0.0394
; #@! TA.AperFunction,Plated,PTH,ComponentDrill
T8C0.0433
; #@! TA.AperFunction,Plated,PTH,ComponentDrill
T9C0.0866
; #@! TA.AperFunction,Plated,PTH,ComponentDrill
T10C0.1772
%
G90
G05
T1
X073067Y-031777
X073067Y-032368
X073067Y-032959
X073658Y-031777
X073658Y-032368
X073658Y-032959
T2
X043754Y-044356
X043867Y-035613
X044291Y-048858
X044370Y-031909
X044617Y-035563
X044754Y-044656
X045209Y-045851
X045289Y-045051
X045467Y-035463
X046457Y-028091
X046535Y-052992
X046791Y-037028
X047340Y-041060
X047340Y-045360
X048373Y-050398
X048525Y-030233
X048583Y-043484
X048720Y-039740
X048740Y-047440
X049311Y-043937
X049370Y-044488
X049406Y-030194
X049440Y-035800
X049662Y-035063
X049800Y-047520
X049925Y-029233
X050023Y-050548
X050059Y-026024
X050173Y-052298
X050340Y-039460
X050460Y-042400
X050810Y-043110
X050925Y-049941
X051640Y-038780
X053913Y-049611
X054500Y-048720
X054940Y-040320
X054940Y-040980
X055650Y-041457
X056102Y-037736
X057120Y-038820
X057200Y-039360
X057780Y-041606
X058280Y-041074
X060050Y-040700
X060709Y-038543
X060880Y-040720
X061360Y-041740
X061575Y-037421
X061680Y-042280
X061882Y-038258
X061969Y-039193
X062120Y-037100
X062200Y-039600
X062200Y-042300
X062598Y-038789
X062800Y-037120
X063300Y-036300
X063300Y-037100
X063350Y-035500
X063524Y-039075
X064040Y-037320
X064075Y-041890
X064154Y-039055
X064250Y-034550
X064567Y-043996
X064587Y-041870
X064650Y-035250
X064744Y-033976
X064853Y-037836
X065000Y-038878
X065022Y-043285
X065354Y-046319
X065420Y-042320
X065420Y-043460
X065472Y-038720
X065650Y-034550
X065840Y-038740
X065950Y-035250
X066100Y-042260
X066120Y-044180
X066200Y-043451
X066250Y-037250
X066280Y-039440
X066320Y-038900
X066400Y-036750
X066550Y-035300
X066600Y-043400
X066640Y-037840
X066673Y-047244
X066700Y-034200
X066800Y-038780
X066940Y-036860
X067000Y-037920
X067100Y-043500
X067820Y-046700
X067860Y-039720
X067900Y-038900
X067900Y-039300
X067972Y-032480
X067980Y-037560
X068000Y-038200
X068100Y-040420
X068120Y-042300
X068340Y-049340
X068600Y-039660
X068720Y-042220
X068840Y-041300
X068860Y-047080
X069287Y-041267
X069300Y-042180
X070140Y-045060
X070280Y-043820
X070380Y-043260
X070600Y-054960
X070820Y-032660
X070840Y-032940
X071120Y-040520
X071720Y-031720
X071784Y-033104
X071800Y-033414
X071800Y-041560
X072480Y-046480
X072580Y-045120
X072900Y-041380
X073362Y-032368
X073980Y-046240
X074320Y-045660
X074460Y-039380
X074820Y-031974
X074823Y-032762
X074980Y-043020
T3
X043004Y-045958
X043504Y-045958
X044004Y-045958
X044115Y-033463
X044115Y-033963
X044115Y-034463
X047873Y-051950
X048373Y-051950
X048425Y-028083
X048425Y-028583
X048425Y-029083
X048873Y-051950
T5
X049880Y-031329
X049880Y-032313
X049880Y-033297
X067460Y-047529
X067460Y-048513
X067460Y-049497
T6
X070739Y-029073
X070739Y-034953
X071724Y-029073
X071724Y-034953
X072708Y-029073
X072708Y-034953
X073692Y-029073
X073692Y-034953
X074676Y-029073
X074676Y-034953
X075661Y-029073
X075661Y-034953
T7
X039480Y-037560
X039480Y-038560
X039480Y-039560
X039480Y-040560
X039480Y-041560
X039480Y-042560
X039480Y-043560
X041170Y-047163
X041179Y-033603
X041878Y-047870
X041886Y-032895
X043221Y-049214
X043230Y-031552
X043928Y-049921
X043937Y-030845
X045752Y-053841
X045764Y-026924
X046752Y-053841
X046764Y-026924
X047610Y-046890
X048610Y-046890
X048652Y-053841
X048664Y-026924
X049610Y-046890
X049652Y-053841
X049664Y-026924
X050610Y-046890
X051610Y-046890
X052610Y-046890
X070520Y-051100
X070520Y-052100
X070520Y-053100
X070520Y-054100
T8
X066398Y-033268
X067650Y-034520
X068207Y-031458
X069460Y-032711
X074054Y-048820
X074054Y-051380
X074074Y-044780
X074074Y-047340
X075826Y-048820
X075826Y-051380
X075846Y-044780
X075846Y-047340
T9
X056604Y-032115
X056604Y-048685
X063596Y-032115
X063596Y-048685
T10
X052550Y-032500
X052550Y-035334
T4
X075764Y-038888G85X076237Y-038888
G05
X075764Y-041112G85X076237Y-041112
G05
T0
M30
