M48
; DRILL file {KiCad (6.0.7)} date Mon Dec 26 23:07:11 2022
; FORMAT={-:-/ absolute / metric / decimal}
; #@! TF.CreationDate,2022-12-26T23:07:11-05:00
; #@! TF.GenerationSoftware,Kicad,Pcbnew,(6.0.7)
; #@! TF.FileFunction,Plated,1,4,PTH
FMAT,2
METRIC
; #@! TA.AperFunction,Plated,PTH,ComponentDrill
T1C0.330
; #@! TA.AperFunction,Plated,PTH,ViaDrill
T2C0.400
; #@! TA.AperFunction,Plated,PTH,ComponentDrill
T3C0.550
; #@! TA.AperFunction,Plated,PTH,ComponentDrill
T4C0.600
; #@! TA.AperFunction,Plated,PTH,ComponentDrill
T5C0.900
; #@! TA.AperFunction,Plated,PTH,ComponentDrill
T6C0.950
; #@! TA.AperFunction,Plated,PTH,ComponentDrill
T7C1.000
; #@! TA.AperFunction,Plated,PTH,ComponentDrill
T8C1.100
; #@! TA.AperFunction,Plated,PTH,ComponentDrill
T9C2.200
; #@! TA.AperFunction,Plated,PTH,ComponentDrill
T10C4.500
%
G90
G05
T1
X185.59Y-80.715
X185.59Y-82.215
X185.59Y-83.715
X187.09Y-80.715
X187.09Y-82.215
X187.09Y-83.715
T2
X111.135Y-112.663
X111.423Y-90.457
X112.5Y-124.1
X112.7Y-81.05
X113.328Y-90.33
X113.675Y-113.425
X114.15Y-109.1
X114.831Y-116.46
X115.034Y-114.428
X115.487Y-90.076
X116.05Y-105.6
X118.0Y-71.35
X118.2Y-134.6
X118.85Y-94.05
X120.244Y-104.292
X120.244Y-115.214
X122.866Y-128.01
X123.254Y-76.791
X123.4Y-110.45
X123.749Y-100.94
X123.8Y-120.498
X125.25Y-111.6
X125.4Y-113.0
X125.491Y-76.692
X125.578Y-90.932
X126.141Y-89.061
X126.492Y-120.701
X126.81Y-74.251
X127.057Y-128.391
X127.15Y-66.1
X127.438Y-132.836
X127.864Y-100.228
X129.057Y-109.499
X129.35Y-126.85
X131.166Y-98.501
X136.939Y-126.011
X138.43Y-123.749
X139.548Y-102.413
X139.548Y-104.089
X139.75Y-106.9
X141.35Y-105.3
X142.5Y-95.85
X145.085Y-98.603
X145.288Y-99.974
X146.761Y-105.678
X148.031Y-104.329
X152.527Y-103.378
X154.2Y-97.9
X154.635Y-103.429
X155.854Y-106.02
X156.4Y-95.05
X156.667Y-107.391
X157.18Y-97.175
X157.4Y-99.55
X157.785Y-94.234
X157.988Y-100.584
X157.988Y-107.442
X159.0Y-98.524
X159.512Y-94.285
X160.782Y-92.202
X160.782Y-94.234
X160.909Y-90.17
X161.35Y-99.25
X162.662Y-94.793
X162.75Y-106.4
X162.95Y-99.2
X163.195Y-87.757
X164.0Y-111.75
X164.05Y-106.35
X164.211Y-89.535
X164.45Y-86.3
X164.726Y-96.103
X165.1Y-98.75
X165.156Y-109.944
X166.0Y-117.65
X166.167Y-107.493
X166.167Y-110.388
X166.3Y-98.35
X166.751Y-87.757
X167.234Y-98.4
X167.513Y-89.535
X167.894Y-107.34
X167.945Y-112.217
X168.148Y-110.365
X168.275Y-94.615
X168.351Y-100.178
X168.453Y-98.806
X168.656Y-93.345
X169.037Y-89.662
X169.164Y-110.236
X169.266Y-96.114
X169.35Y-120.0
X169.418Y-86.868
X169.672Y-98.501
X170.028Y-93.624
X170.18Y-96.317
X170.434Y-110.49
X172.263Y-118.618
X172.364Y-100.889
X172.466Y-98.806
X172.466Y-99.822
X172.65Y-82.5
X172.669Y-95.402
X172.72Y-97.028
X172.974Y-102.667
X173.025Y-107.442
X173.584Y-125.324
X174.244Y-100.736
X174.549Y-107.239
X174.854Y-104.902
X174.904Y-119.583
X175.99Y-104.819
X176.022Y-107.137
X178.156Y-114.452
X178.511Y-111.303
X178.765Y-109.88
X179.324Y-139.598
X179.883Y-82.956
X179.934Y-83.668
X180.645Y-102.921
X182.169Y-80.569
X182.331Y-84.084
X182.372Y-84.872
X182.372Y-105.562
X184.099Y-118.059
X184.353Y-114.605
X185.166Y-105.105
X186.34Y-82.215
X187.909Y-117.45
X188.773Y-115.976
X189.128Y-100.025
X190.043Y-81.214
X190.051Y-83.215
X190.449Y-109.271
T3
X109.23Y-116.733
X110.5Y-116.733
X111.77Y-116.733
X112.052Y-84.996
X112.052Y-86.266
X112.052Y-87.536
X121.596Y-131.953
X122.866Y-131.953
X123.0Y-71.33
X123.0Y-72.6
X123.0Y-73.87
X124.136Y-131.953
T5
X126.695Y-79.574
X126.695Y-82.074
X126.695Y-84.574
X171.348Y-120.722
X171.348Y-123.222
X171.348Y-125.722
T6
X179.678Y-73.846
X179.678Y-88.781
X182.178Y-73.846
X182.178Y-88.781
X184.678Y-73.846
X184.678Y-88.781
X187.178Y-73.846
X187.178Y-88.781
X189.678Y-73.846
X189.678Y-88.781
X192.178Y-73.846
X192.178Y-88.781
T7
X95.275Y-95.27
X95.275Y-97.81
X95.275Y-100.35
X95.275Y-102.89
X95.275Y-105.43
X95.275Y-107.97
X95.275Y-110.51
X104.573Y-119.795
X104.595Y-85.351
X106.369Y-121.591
X106.391Y-83.555
X109.782Y-125.003
X109.803Y-80.142
X111.578Y-126.799
X111.599Y-78.346
X116.211Y-136.755
X116.239Y-68.388
X118.751Y-136.755
X118.779Y-68.388
X120.929Y-119.101
X123.469Y-119.101
X123.577Y-136.755
X123.605Y-68.388
X126.009Y-119.101
X126.117Y-136.755
X126.145Y-68.388
X128.549Y-119.101
X131.089Y-119.101
X133.629Y-119.101
X179.121Y-129.794
X179.121Y-132.334
X179.121Y-134.874
X179.121Y-137.414
T8
X168.65Y-84.5
X171.832Y-87.682
X173.246Y-79.904
X176.428Y-83.086
X188.098Y-124.004
X188.098Y-130.504
X188.148Y-113.742
X188.148Y-120.242
X192.598Y-124.004
X192.598Y-130.504
X192.648Y-113.742
X192.648Y-120.242
T9
X143.774Y-81.571
X143.774Y-123.661
X161.534Y-81.571
X161.534Y-123.661
T10
X133.477Y-82.549
X133.477Y-89.749
T4
X192.441Y-98.775G85X193.641Y-98.775
G05
X192.441Y-104.425G85X193.641Y-104.425
G05
T0
M30
