G04 #@! TF.GenerationSoftware,KiCad,Pcbnew,7.0.1*
G04 #@! TF.CreationDate,2023-06-07T22:50:18-05:00*
G04 #@! TF.ProjectId,Micromouse-kicad,4d696372-6f6d-46f7-9573-652d6b696361,rev?*
G04 #@! TF.SameCoordinates,Original*
G04 #@! TF.FileFunction,Profile,NP*
%FSLAX46Y46*%
G04 Gerber Fmt 4.6, Leading zero omitted, Abs format (unit mm)*
G04 Created by KiCad (PCBNEW 7.0.1) date 2023-06-07 22:50:18*
%MOMM*%
%LPD*%
G01*
G04 APERTURE LIST*
G04 #@! TA.AperFunction,Profile*
%ADD10C,0.200000*%
G04 #@! TD*
G04 #@! TA.AperFunction,Profile*
%ADD11C,0.100000*%
G04 #@! TD*
G04 APERTURE END LIST*
D10*
X166116000Y-128016000D02*
X160274000Y-128016000D01*
X160274000Y-68326000D02*
X145034000Y-68326000D01*
D11*
X128778000Y-77216000D02*
X139192000Y-77216000D01*
X193802000Y-152019000D02*
G75*
G03*
X195326000Y-150495000I0J1524000D01*
G01*
X176530000Y-54225140D02*
X176530000Y-77216000D01*
D10*
X160274000Y-128016000D02*
X160274000Y-136906000D01*
D11*
X128788736Y-58455248D02*
G75*
G03*
X128905000Y-146811999I13451284J-44160752D01*
G01*
X177673000Y-53082140D02*
X193802000Y-53086000D01*
X195326000Y-54610000D02*
G75*
G03*
X193802000Y-53086000I-1524000J0D01*
G01*
X176530000Y-128016000D02*
X176539026Y-150739974D01*
X176539026Y-150739974D02*
G75*
G03*
X177809026Y-152009974I1269974J-26D01*
G01*
X166116000Y-128016000D02*
X176530000Y-128016000D01*
D10*
X145034000Y-77216000D02*
X139192000Y-77216000D01*
X145034000Y-128016000D02*
X139192000Y-128016000D01*
D11*
X177809026Y-152009974D02*
X193802000Y-152019000D01*
X128905000Y-146812000D02*
X128778000Y-128016000D01*
D10*
X166116000Y-77216000D02*
X160274000Y-77216000D01*
D11*
X177673000Y-53082100D02*
G75*
G03*
X176530000Y-54225140I0J-1143000D01*
G01*
D10*
X160274000Y-136906000D02*
X145034000Y-136906000D01*
X160274000Y-77216000D02*
X160274000Y-68326000D01*
X145034000Y-136906000D02*
X145034000Y-128016000D01*
D11*
X166116000Y-77216000D02*
X176530000Y-77216000D01*
X128778000Y-77216000D02*
X128788736Y-58455248D01*
D10*
X145034000Y-68326000D02*
X145034000Y-77216000D01*
D11*
X128778000Y-128016000D02*
X139192000Y-128016000D01*
X195326000Y-54610000D02*
X195326000Y-150495000D01*
M02*
