G04 #@! TF.GenerationSoftware,KiCad,Pcbnew,7.0.1*
G04 #@! TF.CreationDate,2023-06-08T13:00:15-05:00*
G04 #@! TF.ProjectId,Micromouse-kicad,4d696372-6f6d-46f7-9573-652d6b696361,rev?*
G04 #@! TF.SameCoordinates,Original*
G04 #@! TF.FileFunction,Copper,L3,Inr*
G04 #@! TF.FilePolarity,Positive*
%FSLAX46Y46*%
G04 Gerber Fmt 4.6, Leading zero omitted, Abs format (unit mm)*
G04 Created by KiCad (PCBNEW 7.0.1) date 2023-06-08 13:00:15*
%MOMM*%
%LPD*%
G01*
G04 APERTURE LIST*
G04 Aperture macros list*
%AMRotRect*
0 Rectangle, with rotation*
0 The origin of the aperture is its center*
0 $1 length*
0 $2 width*
0 $3 Rotation angle, in degrees counterclockwise*
0 Add horizontal line*
21,1,$1,$2,0,0,$3*%
G04 Aperture macros list end*
G04 #@! TA.AperFunction,ComponentPad*
%ADD10C,2.400000*%
G04 #@! TD*
G04 #@! TA.AperFunction,ComponentPad*
%ADD11C,2.000000*%
G04 #@! TD*
G04 #@! TA.AperFunction,ComponentPad*
%ADD12R,1.000000X1.500000*%
G04 #@! TD*
G04 #@! TA.AperFunction,ComponentPad*
%ADD13O,1.000000X1.500000*%
G04 #@! TD*
G04 #@! TA.AperFunction,ComponentPad*
%ADD14O,2.400000X1.100000*%
G04 #@! TD*
G04 #@! TA.AperFunction,ComponentPad*
%ADD15C,0.380000*%
G04 #@! TD*
G04 #@! TA.AperFunction,ComponentPad*
%ADD16R,1.500000X1.000000*%
G04 #@! TD*
G04 #@! TA.AperFunction,ComponentPad*
%ADD17O,1.500000X1.000000*%
G04 #@! TD*
G04 #@! TA.AperFunction,ComponentPad*
%ADD18R,1.500000X1.800000*%
G04 #@! TD*
G04 #@! TA.AperFunction,ComponentPad*
%ADD19C,1.500000*%
G04 #@! TD*
G04 #@! TA.AperFunction,ComponentPad*
%ADD20R,5.516000X5.516000*%
G04 #@! TD*
G04 #@! TA.AperFunction,ComponentPad*
%ADD21C,5.516000*%
G04 #@! TD*
G04 #@! TA.AperFunction,ComponentPad*
%ADD22R,1.900000X1.900000*%
G04 #@! TD*
G04 #@! TA.AperFunction,ComponentPad*
%ADD23C,1.900000*%
G04 #@! TD*
G04 #@! TA.AperFunction,ComponentPad*
%ADD24R,1.700000X1.700000*%
G04 #@! TD*
G04 #@! TA.AperFunction,ComponentPad*
%ADD25O,1.700000X1.700000*%
G04 #@! TD*
G04 #@! TA.AperFunction,ComponentPad*
%ADD26RotRect,1.500000X1.800000X225.000000*%
G04 #@! TD*
G04 #@! TA.AperFunction,ComponentPad*
%ADD27RotRect,1.500000X1.800000X315.000000*%
G04 #@! TD*
G04 #@! TA.AperFunction,ViaPad*
%ADD28C,0.800000*%
G04 #@! TD*
G04 #@! TA.AperFunction,ViaPad*
%ADD29C,0.550000*%
G04 #@! TD*
G04 APERTURE END LIST*
D10*
X109575600Y-99822000D03*
X186690000Y-61772800D03*
X186690000Y-144729200D03*
D11*
X188148400Y-120242400D03*
X188148400Y-113742400D03*
X192648400Y-120242400D03*
X192648400Y-113742400D03*
D12*
X111770236Y-116733164D03*
D13*
X110500236Y-116733164D03*
X109230236Y-116733164D03*
D14*
X193041000Y-98775000D03*
X193041000Y-104425000D03*
D15*
X185590400Y-83714600D03*
X187090400Y-83714600D03*
X185590400Y-82214600D03*
X187090400Y-82214600D03*
X185590400Y-80714600D03*
X187090400Y-80714600D03*
D16*
X123000000Y-73870000D03*
D17*
X123000000Y-72600000D03*
X123000000Y-71330000D03*
D18*
X116210900Y-136754900D03*
D19*
X118750900Y-136754900D03*
D18*
X123576900Y-136754900D03*
D19*
X126116900Y-136754900D03*
D16*
X112052000Y-87536000D03*
D17*
X112052000Y-86266000D03*
X112052000Y-84996000D03*
D20*
X133477000Y-89749500D03*
D21*
X133477000Y-82549500D03*
D22*
X171348400Y-125722400D03*
D23*
X171348400Y-123222400D03*
X171348400Y-120722400D03*
D10*
X143774000Y-123661000D03*
X161534000Y-123661000D03*
D24*
X120929000Y-119101000D03*
D25*
X123469000Y-119101000D03*
X126009000Y-119101000D03*
X128549000Y-119101000D03*
X131089000Y-119101000D03*
X133629000Y-119101000D03*
D26*
X111599199Y-78345975D03*
D19*
X109803148Y-80142026D03*
D26*
X106390651Y-83554523D03*
D19*
X104594600Y-85350575D03*
D25*
X100279200Y-95326200D03*
X100279200Y-97866200D03*
X100279200Y-100406200D03*
X100279200Y-102946200D03*
X100279200Y-105486200D03*
X100279200Y-108026200D03*
D24*
X100279200Y-110566200D03*
D11*
X188097600Y-130504000D03*
X188097600Y-124004000D03*
X192597600Y-130504000D03*
X192597600Y-124004000D03*
D22*
X126695200Y-84574400D03*
D23*
X126695200Y-82074400D03*
X126695200Y-79574400D03*
D11*
X168650000Y-84500000D03*
X173246194Y-79903806D03*
X171831981Y-87681981D03*
X176428175Y-83085786D03*
D18*
X118779500Y-68387500D03*
D19*
X116239500Y-68387500D03*
D18*
X126145500Y-68387500D03*
D19*
X123605500Y-68387500D03*
D10*
X143774000Y-81571000D03*
X161534000Y-81571000D03*
D27*
X109781577Y-125003349D03*
D19*
X111577629Y-126799400D03*
D27*
X104573029Y-119794801D03*
D19*
X106369080Y-121590852D03*
D12*
X124136500Y-131953000D03*
D13*
X122866500Y-131953000D03*
X121596500Y-131953000D03*
D24*
X179120800Y-129794000D03*
D25*
X179120800Y-132334000D03*
X179120800Y-134874000D03*
X179120800Y-137414000D03*
D28*
X167436800Y-115519200D03*
D29*
X164592000Y-112090200D03*
D28*
X164058600Y-114173000D03*
X183083200Y-92481400D03*
X183694788Y-90711973D03*
X186639200Y-92760800D03*
X186842400Y-90297000D03*
X182880000Y-74269600D03*
X183184800Y-72618600D03*
X186283600Y-72415400D03*
X186283600Y-74752200D03*
D29*
X169418000Y-86868000D03*
X174853600Y-104902000D03*
X170027600Y-93624400D03*
X174548800Y-107238800D03*
X175990067Y-104819267D03*
X166166800Y-107492800D03*
X167233600Y-98399600D03*
X176022000Y-107137200D03*
D28*
X162075000Y-115366800D03*
X163125000Y-115366800D03*
X169974694Y-118617793D03*
X169232230Y-117875329D03*
X177613800Y-108605900D03*
X176563800Y-108605900D03*
X180863140Y-104892724D03*
X180120676Y-104150260D03*
X162560000Y-104140000D03*
X163576000Y-102108000D03*
X156899500Y-98685433D03*
X149860000Y-108204000D03*
X160794500Y-105156000D03*
D29*
X153411000Y-99055000D03*
X169350000Y-120000000D03*
D28*
X112500000Y-124100000D03*
D29*
X127863600Y-100228400D03*
X169164000Y-110236000D03*
X172466000Y-98806000D03*
X157988000Y-100584000D03*
D28*
X187909200Y-117449600D03*
D29*
X172720000Y-97028000D03*
D28*
X139547600Y-102412800D03*
X152527000Y-103378000D03*
X115034136Y-114428464D03*
X127150000Y-66100000D03*
X172262800Y-118618000D03*
X118000000Y-71350000D03*
X112700000Y-81050000D03*
D29*
X169265600Y-96113600D03*
X164450000Y-86300000D03*
D28*
X174904400Y-119583200D03*
X113328000Y-90330000D03*
X118200000Y-134600000D03*
D29*
X123748800Y-100939600D03*
D28*
X145288000Y-99974400D03*
X155854400Y-106019600D03*
X157988000Y-107442000D03*
D29*
X157180452Y-97175500D03*
D28*
X125491269Y-76691729D03*
D29*
X160782000Y-94234000D03*
X167513000Y-89535000D03*
X157400000Y-99550000D03*
D28*
X154635200Y-103428800D03*
X123254000Y-76791000D03*
X111423000Y-90457000D03*
D29*
X190042800Y-81214100D03*
D28*
X139547600Y-104089200D03*
D29*
X172466000Y-99822000D03*
D28*
X115487000Y-90076000D03*
D29*
X185166000Y-105105200D03*
X170434000Y-110490000D03*
D28*
X126810000Y-74251000D03*
D29*
X189128400Y-100025200D03*
X160909000Y-90170000D03*
D28*
X179324000Y-139598400D03*
D29*
X164211000Y-89535000D03*
X190050712Y-83215100D03*
X172650000Y-82500000D03*
X129057000Y-109499000D03*
X157784800Y-94234000D03*
X120243600Y-104292400D03*
D28*
X145084800Y-98602800D03*
X141350000Y-105300000D03*
X188772800Y-115976400D03*
X111135236Y-112663164D03*
X156667200Y-107391200D03*
D29*
X159512000Y-94284800D03*
X162661600Y-94792800D03*
D28*
X173583600Y-125323600D03*
X114830936Y-116460464D03*
D29*
X131165600Y-98501200D03*
D28*
X127057500Y-128391000D03*
X125577600Y-90932000D03*
D29*
X166751000Y-87757000D03*
X168656000Y-93345000D03*
X160782000Y-92202000D03*
X172669200Y-95402400D03*
D28*
X127438500Y-132836000D03*
D29*
X126492000Y-120700800D03*
D28*
X122866500Y-128010000D03*
D29*
X168275000Y-94615000D03*
X169037000Y-89662000D03*
X163195000Y-87757000D03*
X186340400Y-82214600D03*
X170180000Y-96316800D03*
D28*
X113675236Y-113425164D03*
D29*
X156400000Y-95050000D03*
X166166800Y-110388400D03*
X179933600Y-83667600D03*
X126140700Y-89060700D03*
X179882800Y-82956400D03*
X120243600Y-115214400D03*
X184099200Y-118059200D03*
X123799600Y-120497600D03*
D28*
X123400000Y-110450000D03*
X177895944Y-103727944D03*
D29*
X166300000Y-98350000D03*
X178155600Y-114452400D03*
X184353200Y-114604800D03*
X182372000Y-105562400D03*
X190449200Y-109270800D03*
D28*
X168148000Y-110365500D03*
X178511200Y-111302800D03*
X173024800Y-107442000D03*
X178765200Y-109880400D03*
X146761200Y-105678100D03*
X148031200Y-104329100D03*
X128422400Y-104876600D03*
D29*
X165155840Y-109944160D03*
X125250000Y-111600000D03*
D28*
X136939023Y-126010977D03*
X162750000Y-106400000D03*
D29*
X125400000Y-113000000D03*
X165100000Y-98750000D03*
D28*
X129350000Y-126850000D03*
X164050000Y-106350000D03*
D29*
X142500000Y-95850000D03*
X118850000Y-94050000D03*
X164725634Y-96102578D03*
X162950000Y-99200000D03*
X154200000Y-97900000D03*
D28*
X167944800Y-112217200D03*
X167894000Y-107340400D03*
D29*
X174244000Y-100736400D03*
X182372000Y-84871900D03*
X172364400Y-100888800D03*
X182330989Y-84083789D03*
X168351200Y-100177600D03*
X169672000Y-98501200D03*
X168452800Y-98806000D03*
X182168800Y-80568800D03*
G04 #@! TA.AperFunction,Conductor*
G36*
X126692915Y-133426191D02*
G01*
X126743281Y-133437404D01*
X126784931Y-133467870D01*
X126827245Y-133514864D01*
X126827247Y-133514866D01*
X126981748Y-133627118D01*
X127156212Y-133704794D01*
X127343013Y-133744500D01*
X127533985Y-133744500D01*
X127533987Y-133744500D01*
X127720788Y-133704794D01*
X127895252Y-133627118D01*
X128049753Y-133514866D01*
X128075015Y-133486808D01*
X128118137Y-133455688D01*
X128170257Y-133445131D01*
X128429373Y-133448453D01*
X128490574Y-133465219D01*
X128535843Y-133509688D01*
X128553697Y-133570582D01*
X128888855Y-144501917D01*
X128888911Y-144504927D01*
X128903323Y-146637868D01*
X128889975Y-146695166D01*
X128852067Y-146740158D01*
X128797864Y-146763034D01*
X128739183Y-146758807D01*
X127630557Y-146406684D01*
X127627090Y-146405527D01*
X126366514Y-145964498D01*
X126363082Y-145963241D01*
X125287316Y-145551472D01*
X125287315Y-145551471D01*
X125110696Y-145483697D01*
X125107401Y-145482379D01*
X124306467Y-145148863D01*
X124164860Y-145089896D01*
X124127602Y-145074330D01*
X123867614Y-144965711D01*
X123864396Y-144964314D01*
X123000935Y-144575000D01*
X123000785Y-144574875D01*
X123000764Y-144574922D01*
X122640138Y-144411672D01*
X122637000Y-144410200D01*
X121826674Y-144016172D01*
X121826466Y-144016071D01*
X121429408Y-143822097D01*
X121426353Y-143820552D01*
X120656556Y-143418218D01*
X120656314Y-143418091D01*
X120236344Y-143197432D01*
X120233371Y-143195819D01*
X119496347Y-142782964D01*
X119496073Y-142782810D01*
X119062043Y-142538255D01*
X119059155Y-142536577D01*
X118349880Y-142111779D01*
X118349573Y-142111595D01*
X117907455Y-141845096D01*
X117904653Y-141843356D01*
X117220041Y-141405860D01*
X117219705Y-141405645D01*
X116773596Y-141118568D01*
X116770881Y-141116771D01*
X116108606Y-140665972D01*
X116108242Y-140665723D01*
X115661392Y-140359265D01*
X115658765Y-140357413D01*
X115589271Y-140307099D01*
X115017304Y-139892994D01*
X114798201Y-139733078D01*
X114571834Y-139567860D01*
X114569296Y-139565958D01*
X113948240Y-139088254D01*
X113947824Y-139087933D01*
X113505838Y-138745025D01*
X113503389Y-138743076D01*
X113019839Y-138348296D01*
X113011007Y-137703538D01*
X114952400Y-137703538D01*
X114958911Y-137764100D01*
X115010011Y-137901105D01*
X115097638Y-138018161D01*
X115214694Y-138105788D01*
X115214695Y-138105788D01*
X115214696Y-138105789D01*
X115351699Y-138156889D01*
X115412262Y-138163400D01*
X117009538Y-138163400D01*
X117070101Y-138156889D01*
X117207104Y-138105789D01*
X117324161Y-138018161D01*
X117411789Y-137901104D01*
X117462889Y-137764101D01*
X117469400Y-137703538D01*
X117469400Y-137518477D01*
X117485198Y-137457391D01*
X117528630Y-137411623D01*
X117588805Y-137392650D01*
X117650634Y-137405229D01*
X117698613Y-137446206D01*
X117783153Y-137566941D01*
X117938858Y-137722646D01*
X117938861Y-137722648D01*
X117938862Y-137722649D01*
X118119246Y-137848956D01*
X118318824Y-137942020D01*
X118412607Y-137967149D01*
X118531524Y-137999014D01*
X118531525Y-137999014D01*
X118531529Y-137999015D01*
X118750900Y-138018207D01*
X118970271Y-137999015D01*
X119182976Y-137942020D01*
X119382554Y-137848956D01*
X119562938Y-137722649D01*
X119718649Y-137566938D01*
X119844956Y-137386554D01*
X119938020Y-137186976D01*
X119985736Y-137008900D01*
X122318900Y-137008900D01*
X122318900Y-137703489D01*
X122325405Y-137763993D01*
X122376454Y-137900862D01*
X122463995Y-138017804D01*
X122580937Y-138105345D01*
X122717806Y-138156394D01*
X122778311Y-138162900D01*
X123322900Y-138162900D01*
X123322900Y-137008900D01*
X122318900Y-137008900D01*
X119985736Y-137008900D01*
X119995015Y-136974271D01*
X120014207Y-136754900D01*
X119995015Y-136535529D01*
X119985736Y-136500900D01*
X122318900Y-136500900D01*
X123322900Y-136500900D01*
X123322900Y-135346900D01*
X123830900Y-135346900D01*
X123830900Y-138162900D01*
X124375489Y-138162900D01*
X124435993Y-138156394D01*
X124572862Y-138105345D01*
X124689804Y-138017804D01*
X124777345Y-137900862D01*
X124828394Y-137763993D01*
X124834900Y-137703489D01*
X124834900Y-137517763D01*
X124850698Y-137456677D01*
X124894130Y-137410909D01*
X124954305Y-137391936D01*
X125016134Y-137404515D01*
X125064113Y-137445492D01*
X125149153Y-137566941D01*
X125304858Y-137722646D01*
X125304861Y-137722648D01*
X125304862Y-137722649D01*
X125485246Y-137848956D01*
X125684824Y-137942020D01*
X125778607Y-137967149D01*
X125897524Y-137999014D01*
X125897525Y-137999014D01*
X125897529Y-137999015D01*
X126116900Y-138018207D01*
X126336271Y-137999015D01*
X126548976Y-137942020D01*
X126748554Y-137848956D01*
X126928938Y-137722649D01*
X127084649Y-137566938D01*
X127210956Y-137386554D01*
X127304020Y-137186976D01*
X127361015Y-136974271D01*
X127380207Y-136754900D01*
X127361015Y-136535529D01*
X127304020Y-136322824D01*
X127210956Y-136123247D01*
X127084649Y-135942862D01*
X127084648Y-135942861D01*
X127084646Y-135942858D01*
X126928941Y-135787153D01*
X126748553Y-135660843D01*
X126548974Y-135567779D01*
X126336275Y-135510785D01*
X126116900Y-135491593D01*
X125897524Y-135510785D01*
X125684825Y-135567779D01*
X125485247Y-135660843D01*
X125304858Y-135787153D01*
X125149153Y-135942858D01*
X125064113Y-136064309D01*
X125016135Y-136105286D01*
X124954306Y-136117865D01*
X124894130Y-136098892D01*
X124850698Y-136053124D01*
X124834900Y-135992038D01*
X124834900Y-135806311D01*
X124828394Y-135745806D01*
X124777345Y-135608937D01*
X124689804Y-135491995D01*
X124572862Y-135404454D01*
X124435993Y-135353405D01*
X124375489Y-135346900D01*
X123830900Y-135346900D01*
X123322900Y-135346900D01*
X122778311Y-135346900D01*
X122717806Y-135353405D01*
X122580937Y-135404454D01*
X122463995Y-135491995D01*
X122376454Y-135608937D01*
X122325405Y-135745806D01*
X122318900Y-135806311D01*
X122318900Y-136500900D01*
X119985736Y-136500900D01*
X119938020Y-136322824D01*
X119844956Y-136123247D01*
X119718649Y-135942862D01*
X119718648Y-135942861D01*
X119718646Y-135942858D01*
X119562941Y-135787153D01*
X119382553Y-135660843D01*
X119182974Y-135567779D01*
X118970275Y-135510785D01*
X118750900Y-135491593D01*
X118531524Y-135510785D01*
X118318825Y-135567779D01*
X118119247Y-135660843D01*
X117938858Y-135787153D01*
X117783153Y-135942858D01*
X117698613Y-136063595D01*
X117650635Y-136104572D01*
X117588806Y-136117151D01*
X117528630Y-136098178D01*
X117485198Y-136052410D01*
X117469400Y-135991324D01*
X117469400Y-135806262D01*
X117462889Y-135745699D01*
X117411789Y-135608696D01*
X117338494Y-135510785D01*
X117324161Y-135491638D01*
X117207105Y-135404011D01*
X117138602Y-135378461D01*
X117070101Y-135352911D01*
X117009538Y-135346400D01*
X115412262Y-135346400D01*
X115351699Y-135352911D01*
X115214694Y-135404011D01*
X115097638Y-135491638D01*
X115010011Y-135608694D01*
X114958911Y-135745699D01*
X114952400Y-135806262D01*
X114952400Y-137703538D01*
X113011007Y-137703538D01*
X112950000Y-133250000D01*
X126692915Y-133426191D01*
G37*
G04 #@! TD.AperFunction*
G04 #@! TA.AperFunction,Conductor*
G36*
X143039386Y-125203521D02*
G01*
X143148064Y-125255858D01*
X143202635Y-125272690D01*
X143392757Y-125331335D01*
X143645966Y-125369500D01*
X143902032Y-125369500D01*
X143902034Y-125369500D01*
X144155243Y-125331335D01*
X144399935Y-125255858D01*
X144481297Y-125216676D01*
X169765054Y-125447357D01*
X169827563Y-125464617D01*
X169873210Y-125510683D01*
X169889900Y-125573351D01*
X169889900Y-126721038D01*
X169896411Y-126781600D01*
X169947511Y-126918605D01*
X170035138Y-127035661D01*
X170152194Y-127123288D01*
X170152195Y-127123288D01*
X170152196Y-127123289D01*
X170289199Y-127174389D01*
X170349762Y-127180900D01*
X172347038Y-127180900D01*
X172407601Y-127174389D01*
X172544604Y-127123289D01*
X172661661Y-127035661D01*
X172749289Y-126918604D01*
X172800389Y-126781601D01*
X172806900Y-126721038D01*
X172806900Y-126129551D01*
X172825467Y-126063716D01*
X172875697Y-126017284D01*
X172942786Y-126003939D01*
X173006961Y-126027615D01*
X173126848Y-126114718D01*
X173301312Y-126192394D01*
X173488113Y-126232100D01*
X173679085Y-126232100D01*
X173679087Y-126232100D01*
X173865888Y-126192394D01*
X174040352Y-126114718D01*
X174194853Y-126002466D01*
X174322640Y-125860544D01*
X174418127Y-125695156D01*
X174456090Y-125578316D01*
X174482543Y-125532659D01*
X174525375Y-125501838D01*
X174577066Y-125491260D01*
X185315169Y-125589231D01*
X185362510Y-127672929D01*
X185362509Y-127672930D01*
X185597046Y-137995807D01*
X185581314Y-138059695D01*
X185535522Y-138106943D01*
X185472156Y-138124664D01*
X180467683Y-138167449D01*
X180407348Y-138152650D01*
X180361418Y-138110820D01*
X180341059Y-138052127D01*
X180351218Y-137990845D01*
X180410096Y-137856616D01*
X180465364Y-137638368D01*
X180483956Y-137414000D01*
X180465364Y-137189632D01*
X180410096Y-136971384D01*
X180319660Y-136765209D01*
X180196522Y-136576732D01*
X180044040Y-136411094D01*
X180044039Y-136411093D01*
X180044037Y-136411091D01*
X179866379Y-136272813D01*
X179866377Y-136272812D01*
X179866376Y-136272811D01*
X179833117Y-136254812D01*
X179784847Y-136208498D01*
X179767088Y-136144000D01*
X179784847Y-136079502D01*
X179833117Y-136033187D01*
X179866376Y-136015189D01*
X180044040Y-135876906D01*
X180196522Y-135711268D01*
X180319660Y-135522791D01*
X180410096Y-135316616D01*
X180465364Y-135098368D01*
X180483956Y-134874000D01*
X180465364Y-134649632D01*
X180410096Y-134431384D01*
X180319660Y-134225209D01*
X180196522Y-134036732D01*
X180044040Y-133871094D01*
X180044039Y-133871093D01*
X180044037Y-133871091D01*
X179866379Y-133732813D01*
X179866377Y-133732812D01*
X179866376Y-133732811D01*
X179833117Y-133714812D01*
X179784847Y-133668498D01*
X179767088Y-133604000D01*
X179784847Y-133539502D01*
X179833117Y-133493187D01*
X179866376Y-133475189D01*
X180044040Y-133336906D01*
X180196522Y-133171268D01*
X180319660Y-132982791D01*
X180410096Y-132776616D01*
X180465364Y-132558368D01*
X180483956Y-132334000D01*
X180465364Y-132109632D01*
X180410096Y-131891384D01*
X180319660Y-131685209D01*
X180196522Y-131496732D01*
X180053323Y-131341178D01*
X180024087Y-131287575D01*
X180023484Y-131226519D01*
X180051659Y-131172348D01*
X180101988Y-131137787D01*
X180217004Y-131094889D01*
X180334061Y-131007261D01*
X180421689Y-130890204D01*
X180472789Y-130753201D01*
X180479300Y-130692638D01*
X180479300Y-128895362D01*
X180472789Y-128834799D01*
X180421689Y-128697796D01*
X180421688Y-128697794D01*
X180334061Y-128580738D01*
X180217005Y-128493111D01*
X180148502Y-128467561D01*
X180080001Y-128442011D01*
X180019438Y-128435500D01*
X178222162Y-128435500D01*
X178161599Y-128442011D01*
X178024594Y-128493111D01*
X177907538Y-128580738D01*
X177819911Y-128697794D01*
X177768811Y-128834799D01*
X177762300Y-128895362D01*
X177762300Y-130692638D01*
X177768811Y-130753200D01*
X177819911Y-130890205D01*
X177907538Y-131007261D01*
X178024594Y-131094888D01*
X178024595Y-131094888D01*
X178024596Y-131094889D01*
X178139609Y-131137787D01*
X178189940Y-131172348D01*
X178218115Y-131226519D01*
X178217512Y-131287574D01*
X178188275Y-131341178D01*
X178045081Y-131496728D01*
X177921939Y-131685209D01*
X177831502Y-131891388D01*
X177776237Y-132109627D01*
X177776236Y-132109632D01*
X177757644Y-132334000D01*
X177776236Y-132558368D01*
X177776236Y-132558371D01*
X177776237Y-132558372D01*
X177831502Y-132776611D01*
X177921939Y-132982790D01*
X178045078Y-133171268D01*
X178197562Y-133336908D01*
X178375218Y-133475185D01*
X178375220Y-133475186D01*
X178375224Y-133475189D01*
X178408482Y-133493187D01*
X178456752Y-133539503D01*
X178474511Y-133604000D01*
X178456752Y-133668497D01*
X178408482Y-133714812D01*
X178383594Y-133728281D01*
X178375218Y-133732814D01*
X178197562Y-133871091D01*
X178045078Y-134036731D01*
X177921939Y-134225209D01*
X177831502Y-134431388D01*
X177776237Y-134649627D01*
X177776236Y-134649632D01*
X177757644Y-134874000D01*
X177776236Y-135098368D01*
X177776236Y-135098371D01*
X177776237Y-135098372D01*
X177831502Y-135316611D01*
X177921939Y-135522790D01*
X178045078Y-135711268D01*
X178197562Y-135876908D01*
X178375218Y-136015185D01*
X178375220Y-136015186D01*
X178375224Y-136015189D01*
X178408482Y-136033187D01*
X178456752Y-136079503D01*
X178474511Y-136144000D01*
X178456752Y-136208497D01*
X178408482Y-136254812D01*
X178383594Y-136268281D01*
X178375218Y-136272814D01*
X178197562Y-136411091D01*
X178045078Y-136576731D01*
X177921939Y-136765209D01*
X177831502Y-136971388D01*
X177776237Y-137189627D01*
X177776236Y-137189632D01*
X177757644Y-137414000D01*
X177776236Y-137638368D01*
X177831504Y-137856616D01*
X177882984Y-137973980D01*
X177900436Y-138013767D01*
X177910640Y-138074517D01*
X177890824Y-138132844D01*
X177845726Y-138174807D01*
X177786125Y-138190375D01*
X176661571Y-138199989D01*
X176598131Y-138183479D01*
X176551572Y-138137334D01*
X176534495Y-138074047D01*
X176530509Y-128041178D01*
X176530545Y-128041014D01*
X176530524Y-128041014D01*
X176530539Y-128016002D01*
X176530541Y-128016000D01*
X176530383Y-128015617D01*
X176530381Y-128015616D01*
X176530380Y-128015615D01*
X176530305Y-128015584D01*
X176530096Y-128015498D01*
X176530002Y-128015459D01*
X176505048Y-128015459D01*
X176504842Y-128015500D01*
X166116099Y-128015500D01*
X160299158Y-128015500D01*
X160298952Y-128015459D01*
X160273998Y-128015459D01*
X160273901Y-128015499D01*
X160273696Y-128015584D01*
X160273618Y-128015615D01*
X160273617Y-128015617D01*
X160273459Y-128016000D01*
X160273476Y-128041014D01*
X160273471Y-128041014D01*
X160273500Y-128041158D01*
X160273500Y-136779500D01*
X160256619Y-136842500D01*
X160210500Y-136888619D01*
X160147500Y-136905500D01*
X145160500Y-136905500D01*
X145097500Y-136888619D01*
X145051381Y-136842500D01*
X145034500Y-136779500D01*
X145034500Y-128041158D01*
X145034528Y-128041014D01*
X145034524Y-128041014D01*
X145034539Y-128016002D01*
X145034541Y-128016000D01*
X145034383Y-128015617D01*
X145034381Y-128015616D01*
X145034380Y-128015615D01*
X145034305Y-128015584D01*
X145034096Y-128015498D01*
X145034002Y-128015459D01*
X145009048Y-128015459D01*
X145008842Y-128015500D01*
X139481708Y-128015500D01*
X139496800Y-125171200D01*
X143039386Y-125203521D01*
G37*
G04 #@! TD.AperFunction*
G04 #@! TA.AperFunction,Conductor*
G36*
X195131687Y-97045959D02*
G01*
X195178491Y-97092140D01*
X195195658Y-97155611D01*
X195198977Y-115951917D01*
X195182094Y-116014944D01*
X195135949Y-116061075D01*
X195072917Y-116077939D01*
X189810101Y-116075415D01*
X189750972Y-116060647D01*
X189705691Y-116019856D01*
X189684852Y-115962588D01*
X189666342Y-115786472D01*
X189607327Y-115604844D01*
X189607327Y-115604843D01*
X189511841Y-115439457D01*
X189384052Y-115297533D01*
X189229553Y-115185283D01*
X189229552Y-115185282D01*
X189117625Y-115135449D01*
X189068411Y-115096390D01*
X189044178Y-115038422D01*
X189050950Y-114975958D01*
X189087044Y-114924531D01*
X189218369Y-114812369D01*
X189218369Y-114812368D01*
X189372576Y-114631816D01*
X189496640Y-114429363D01*
X189587505Y-114209994D01*
X189642935Y-113979111D01*
X189661565Y-113742400D01*
X191135235Y-113742400D01*
X191153864Y-113979111D01*
X191209295Y-114209994D01*
X191300161Y-114429366D01*
X191424223Y-114631815D01*
X191578430Y-114812369D01*
X191758984Y-114966576D01*
X191961433Y-115090638D01*
X191961435Y-115090638D01*
X191961437Y-115090640D01*
X192180806Y-115181505D01*
X192356257Y-115223627D01*
X192411688Y-115236935D01*
X192428958Y-115238294D01*
X192648400Y-115255565D01*
X192885111Y-115236935D01*
X193115994Y-115181505D01*
X193335363Y-115090640D01*
X193537816Y-114966576D01*
X193718369Y-114812369D01*
X193872576Y-114631816D01*
X193996640Y-114429363D01*
X194087505Y-114209994D01*
X194142935Y-113979111D01*
X194161565Y-113742400D01*
X194142935Y-113505689D01*
X194087505Y-113274806D01*
X193996640Y-113055437D01*
X193872576Y-112852984D01*
X193718369Y-112672430D01*
X193537815Y-112518223D01*
X193335366Y-112394161D01*
X193115994Y-112303295D01*
X192885111Y-112247864D01*
X192648400Y-112229235D01*
X192411688Y-112247864D01*
X192180805Y-112303295D01*
X191961433Y-112394161D01*
X191758984Y-112518223D01*
X191578430Y-112672430D01*
X191424223Y-112852984D01*
X191300161Y-113055433D01*
X191209295Y-113274805D01*
X191153864Y-113505688D01*
X191135235Y-113742400D01*
X189661565Y-113742400D01*
X189642935Y-113505689D01*
X189587505Y-113274806D01*
X189496640Y-113055437D01*
X189372576Y-112852984D01*
X189218369Y-112672430D01*
X189037815Y-112518223D01*
X188835366Y-112394161D01*
X188615994Y-112303295D01*
X188385111Y-112247864D01*
X188148400Y-112229235D01*
X187911688Y-112247864D01*
X187680805Y-112303295D01*
X187461433Y-112394161D01*
X187258984Y-112518223D01*
X187078430Y-112672430D01*
X186924223Y-112852984D01*
X186800161Y-113055433D01*
X186709295Y-113274805D01*
X186653864Y-113505688D01*
X186635235Y-113742400D01*
X186653864Y-113979111D01*
X186709295Y-114209994D01*
X186800161Y-114429366D01*
X186924223Y-114631815D01*
X187078430Y-114812369D01*
X187258984Y-114966576D01*
X187461433Y-115090638D01*
X187461435Y-115090638D01*
X187461437Y-115090640D01*
X187680806Y-115181505D01*
X187856257Y-115223627D01*
X187911688Y-115236935D01*
X187916560Y-115237318D01*
X187941249Y-115239261D01*
X188006010Y-115263364D01*
X188048320Y-115317998D01*
X188055454Y-115386731D01*
X188036503Y-115425748D01*
X188040381Y-115427987D01*
X187938272Y-115604843D01*
X187879258Y-115786470D01*
X187860852Y-115961591D01*
X187839989Y-116018895D01*
X187794660Y-116059690D01*
X187735482Y-116074420D01*
X177040399Y-116069293D01*
X176977923Y-116052679D01*
X176931909Y-116007269D01*
X176914471Y-115945018D01*
X176909813Y-115604843D01*
X176827135Y-109566677D01*
X176835871Y-109518829D01*
X176862087Y-109477849D01*
X176901867Y-109449859D01*
X177020552Y-109397018D01*
X177020553Y-109397017D01*
X177032651Y-109391631D01*
X177033258Y-109392995D01*
X177062602Y-109379931D01*
X177114998Y-109379931D01*
X177144342Y-109392996D01*
X177144950Y-109391631D01*
X177157045Y-109397016D01*
X177157048Y-109397018D01*
X177331512Y-109474694D01*
X177518313Y-109514400D01*
X177709285Y-109514400D01*
X177709287Y-109514400D01*
X177731689Y-109509638D01*
X177796818Y-109513050D01*
X177851519Y-109548571D01*
X177881131Y-109606684D01*
X177877719Y-109671817D01*
X177871658Y-109690472D01*
X177854760Y-109851243D01*
X177851696Y-109880399D01*
X177871658Y-110070329D01*
X177930672Y-110251956D01*
X178016164Y-110400031D01*
X178032968Y-110458633D01*
X178020293Y-110518265D01*
X177981107Y-110564966D01*
X177899948Y-110623932D01*
X177772158Y-110765857D01*
X177676672Y-110931243D01*
X177617658Y-111112870D01*
X177597696Y-111302800D01*
X177617658Y-111492729D01*
X177676672Y-111674356D01*
X177772158Y-111839742D01*
X177772160Y-111839744D01*
X177899947Y-111981666D01*
X178054448Y-112093918D01*
X178228912Y-112171594D01*
X178415713Y-112211300D01*
X178606685Y-112211300D01*
X178606687Y-112211300D01*
X178793488Y-112171594D01*
X178967952Y-112093918D01*
X179122453Y-111981666D01*
X179250240Y-111839744D01*
X179345727Y-111674356D01*
X179404742Y-111492728D01*
X179424704Y-111302800D01*
X179404742Y-111112872D01*
X179345727Y-110931244D01*
X179260234Y-110783167D01*
X179243431Y-110724565D01*
X179256106Y-110664933D01*
X179295292Y-110618233D01*
X179376453Y-110559266D01*
X179504240Y-110417344D01*
X179599727Y-110251956D01*
X179658742Y-110070328D01*
X179678704Y-109880400D01*
X179658742Y-109690472D01*
X179612635Y-109548571D01*
X179599727Y-109508843D01*
X179504241Y-109343457D01*
X179376452Y-109201533D01*
X179221953Y-109089283D01*
X179221952Y-109089282D01*
X179047488Y-109011606D01*
X178860687Y-108971900D01*
X178669713Y-108971900D01*
X178647310Y-108976662D01*
X178582177Y-108973248D01*
X178527477Y-108937725D01*
X178497867Y-108879610D01*
X178501281Y-108814478D01*
X178507342Y-108795828D01*
X178527304Y-108605900D01*
X178507342Y-108415972D01*
X178448327Y-108234344D01*
X178448327Y-108234343D01*
X178352841Y-108068957D01*
X178225052Y-107927033D01*
X178115689Y-107847576D01*
X178070552Y-107814782D01*
X177896088Y-107737106D01*
X177709287Y-107697400D01*
X177518313Y-107697400D01*
X177393779Y-107723870D01*
X177331511Y-107737106D01*
X177255638Y-107770886D01*
X177157048Y-107814782D01*
X177157045Y-107814783D01*
X177144950Y-107820169D01*
X177144342Y-107818804D01*
X177114993Y-107831870D01*
X177062607Y-107831870D01*
X177033257Y-107818804D01*
X177032650Y-107820169D01*
X177020554Y-107814783D01*
X177020552Y-107814782D01*
X176924652Y-107772084D01*
X176875449Y-107750178D01*
X176821498Y-107704417D01*
X176800710Y-107636799D01*
X176795776Y-107276390D01*
X176796553Y-107260604D01*
X176810458Y-107137200D01*
X176792267Y-106975751D01*
X176791490Y-106963423D01*
X176764016Y-104956922D01*
X176764795Y-104941125D01*
X176778525Y-104819267D01*
X176760556Y-104659791D01*
X176759779Y-104647452D01*
X176749827Y-103920605D01*
X176764922Y-103859061D01*
X176808070Y-103812646D01*
X176868356Y-103793106D01*
X176930529Y-103805385D01*
X176978860Y-103846376D01*
X177001123Y-103905710D01*
X177002401Y-103917869D01*
X177061416Y-104099500D01*
X177156902Y-104264886D01*
X177156904Y-104264888D01*
X177284691Y-104406810D01*
X177439192Y-104519062D01*
X177613656Y-104596738D01*
X177800457Y-104636444D01*
X177991429Y-104636444D01*
X177991431Y-104636444D01*
X178178232Y-104596738D01*
X178352696Y-104519062D01*
X178507197Y-104406810D01*
X178634984Y-104264888D01*
X178701165Y-104150260D01*
X179207172Y-104150260D01*
X179227134Y-104340189D01*
X179286148Y-104521816D01*
X179381634Y-104687202D01*
X179381636Y-104687204D01*
X179509423Y-104829126D01*
X179663924Y-104941378D01*
X179838388Y-105019054D01*
X179885979Y-105029169D01*
X179944091Y-105058780D01*
X179979614Y-105113479D01*
X180028613Y-105264281D01*
X180124098Y-105429666D01*
X180124100Y-105429668D01*
X180251887Y-105571590D01*
X180406388Y-105683842D01*
X180580852Y-105761518D01*
X180767653Y-105801224D01*
X180958625Y-105801224D01*
X180958627Y-105801224D01*
X181145428Y-105761518D01*
X181319892Y-105683842D01*
X181474393Y-105571590D01*
X181602180Y-105429668D01*
X181697667Y-105264280D01*
X181749356Y-105105200D01*
X184377542Y-105105200D01*
X184397310Y-105280650D01*
X184455623Y-105447298D01*
X184549560Y-105596798D01*
X184674401Y-105721639D01*
X184674403Y-105721640D01*
X184674404Y-105721641D01*
X184823901Y-105815576D01*
X184990552Y-105873890D01*
X185166000Y-105893658D01*
X185341448Y-105873890D01*
X185508099Y-105815576D01*
X185657596Y-105721641D01*
X185782441Y-105596796D01*
X185876376Y-105447299D01*
X185934690Y-105280648D01*
X185954458Y-105105200D01*
X185934690Y-104929752D01*
X185876376Y-104763101D01*
X185782441Y-104613604D01*
X185782440Y-104613603D01*
X185782439Y-104613601D01*
X185657598Y-104488760D01*
X185508098Y-104394823D01*
X185341450Y-104336510D01*
X185166000Y-104316742D01*
X184990549Y-104336510D01*
X184823901Y-104394823D01*
X184674401Y-104488760D01*
X184549560Y-104613601D01*
X184455623Y-104763101D01*
X184397310Y-104929749D01*
X184377542Y-105105200D01*
X181749356Y-105105200D01*
X181756682Y-105082652D01*
X181776644Y-104892724D01*
X181756682Y-104702796D01*
X181697667Y-104521168D01*
X181697667Y-104521167D01*
X181602181Y-104355781D01*
X181474392Y-104213857D01*
X181397142Y-104157732D01*
X181319892Y-104101606D01*
X181194818Y-104045920D01*
X181145424Y-104023928D01*
X181097836Y-104013813D01*
X181039723Y-103984203D01*
X181004201Y-103929503D01*
X180955203Y-103778703D01*
X180873922Y-103637921D01*
X190386619Y-103637921D01*
X190417408Y-103786085D01*
X190417409Y-103786088D01*
X190487027Y-103920445D01*
X190590319Y-104031044D01*
X190719615Y-104109671D01*
X190719617Y-104109671D01*
X190719618Y-104109672D01*
X190865335Y-104150500D01*
X190978658Y-104150500D01*
X190978661Y-104150500D01*
X191034788Y-104142785D01*
X191090920Y-104135070D01*
X191171178Y-104100208D01*
X191235194Y-104090537D01*
X191295565Y-104113935D01*
X191336345Y-104164225D01*
X191346767Y-104228127D01*
X191327377Y-104424999D01*
X191347814Y-104632497D01*
X191347814Y-104632499D01*
X191347815Y-104632502D01*
X191404469Y-104819266D01*
X191408342Y-104832034D01*
X191506630Y-105015916D01*
X191638905Y-105177094D01*
X191745142Y-105264280D01*
X191800083Y-105309369D01*
X191983969Y-105407659D01*
X192183498Y-105468185D01*
X192272353Y-105476936D01*
X192338992Y-105483500D01*
X192338995Y-105483500D01*
X193743005Y-105483500D01*
X193743008Y-105483500D01*
X193801316Y-105477756D01*
X193898502Y-105468185D01*
X194098031Y-105407659D01*
X194281917Y-105309369D01*
X194443094Y-105177094D01*
X194575369Y-105015917D01*
X194673659Y-104832031D01*
X194734185Y-104632502D01*
X194754622Y-104425000D01*
X194734185Y-104217498D01*
X194673659Y-104017969D01*
X194575369Y-103834083D01*
X194541740Y-103793106D01*
X194443094Y-103672905D01*
X194281916Y-103540630D01*
X194098034Y-103442342D01*
X194098031Y-103442341D01*
X193898502Y-103381815D01*
X193898499Y-103381814D01*
X193898497Y-103381814D01*
X193743008Y-103366500D01*
X193743005Y-103366500D01*
X192338995Y-103366500D01*
X192338992Y-103366500D01*
X192183502Y-103381814D01*
X192183499Y-103381814D01*
X192183498Y-103381815D01*
X192083733Y-103412078D01*
X191983965Y-103442342D01*
X191800083Y-103540630D01*
X191696904Y-103625307D01*
X191638777Y-103652006D01*
X191575029Y-103646722D01*
X191522091Y-103610816D01*
X191493607Y-103553545D01*
X191464592Y-103413915D01*
X191447959Y-103381814D01*
X191394972Y-103279554D01*
X191291680Y-103168955D01*
X191162384Y-103090328D01*
X191065237Y-103063109D01*
X191016665Y-103049500D01*
X190903342Y-103049500D01*
X190903339Y-103049500D01*
X190791083Y-103064929D01*
X190791081Y-103064929D01*
X190791080Y-103064930D01*
X190734034Y-103089708D01*
X190652279Y-103125220D01*
X190534891Y-103220723D01*
X190447623Y-103344352D01*
X190439752Y-103366500D01*
X190396946Y-103486944D01*
X190386619Y-103637921D01*
X180873922Y-103637921D01*
X180859717Y-103613317D01*
X180731928Y-103471393D01*
X180652811Y-103413911D01*
X180577428Y-103359142D01*
X180402964Y-103281466D01*
X180216163Y-103241760D01*
X180025189Y-103241760D01*
X179900655Y-103268230D01*
X179838387Y-103281466D01*
X179663922Y-103359143D01*
X179509423Y-103471393D01*
X179381634Y-103613317D01*
X179286148Y-103778703D01*
X179227134Y-103960330D01*
X179207172Y-104150260D01*
X178701165Y-104150260D01*
X178730471Y-104099500D01*
X178789486Y-103917872D01*
X178809448Y-103727944D01*
X178789486Y-103538016D01*
X178738733Y-103381815D01*
X178730471Y-103356387D01*
X178634985Y-103191001D01*
X178507196Y-103049077D01*
X178352697Y-102936827D01*
X178352696Y-102936826D01*
X178178232Y-102859150D01*
X177991431Y-102819444D01*
X177800457Y-102819444D01*
X177675923Y-102845914D01*
X177613655Y-102859150D01*
X177439190Y-102936827D01*
X177284691Y-103049077D01*
X177156902Y-103191001D01*
X177061416Y-103356387D01*
X177002402Y-103538014D01*
X176996498Y-103594189D01*
X176974565Y-103653053D01*
X176926938Y-103694012D01*
X176865454Y-103706886D01*
X176805396Y-103688476D01*
X176761690Y-103643356D01*
X176745200Y-103582745D01*
X176696488Y-100025200D01*
X188339942Y-100025200D01*
X188359710Y-100200650D01*
X188418023Y-100367298D01*
X188511960Y-100516798D01*
X188636801Y-100641639D01*
X188636803Y-100641640D01*
X188636804Y-100641641D01*
X188786301Y-100735576D01*
X188952952Y-100793890D01*
X189128400Y-100813658D01*
X189303848Y-100793890D01*
X189470499Y-100735576D01*
X189619996Y-100641641D01*
X189744841Y-100516796D01*
X189838776Y-100367299D01*
X189897090Y-100200648D01*
X189916858Y-100025200D01*
X189897090Y-99849752D01*
X189838776Y-99683101D01*
X189810388Y-99637921D01*
X190386619Y-99637921D01*
X190411501Y-99757657D01*
X190417409Y-99786088D01*
X190487027Y-99920445D01*
X190590319Y-100031044D01*
X190719615Y-100109671D01*
X190719617Y-100109671D01*
X190719618Y-100109672D01*
X190865335Y-100150500D01*
X190978658Y-100150500D01*
X190978661Y-100150500D01*
X191026770Y-100143887D01*
X191090920Y-100135070D01*
X191229720Y-100074780D01*
X191347108Y-99979278D01*
X191434377Y-99855647D01*
X191485054Y-99713056D01*
X191488594Y-99661299D01*
X191511438Y-99597130D01*
X191564346Y-99554225D01*
X191631855Y-99545129D01*
X191694232Y-99572500D01*
X191800083Y-99659369D01*
X191983969Y-99757659D01*
X192183498Y-99818185D01*
X192272353Y-99826936D01*
X192338992Y-99833500D01*
X192338995Y-99833500D01*
X193743005Y-99833500D01*
X193743008Y-99833500D01*
X193801316Y-99827756D01*
X193898502Y-99818185D01*
X194098031Y-99757659D01*
X194281917Y-99659369D01*
X194443094Y-99527094D01*
X194575369Y-99365917D01*
X194673659Y-99182031D01*
X194734185Y-98982502D01*
X194754622Y-98775000D01*
X194734185Y-98567498D01*
X194673659Y-98367969D01*
X194575369Y-98184083D01*
X194575368Y-98184082D01*
X194443094Y-98022905D01*
X194281916Y-97890630D01*
X194098034Y-97792342D01*
X194098031Y-97792341D01*
X193898502Y-97731815D01*
X193898499Y-97731814D01*
X193898497Y-97731814D01*
X193743008Y-97716500D01*
X193743005Y-97716500D01*
X192338995Y-97716500D01*
X192338992Y-97716500D01*
X192183502Y-97731814D01*
X192183499Y-97731814D01*
X192183498Y-97731815D01*
X192083733Y-97762078D01*
X191983965Y-97792342D01*
X191800083Y-97890630D01*
X191638905Y-98022905D01*
X191506630Y-98184083D01*
X191408342Y-98367965D01*
X191347814Y-98567502D01*
X191327377Y-98775000D01*
X191346192Y-98966033D01*
X191333944Y-99033829D01*
X191287870Y-99085048D01*
X191221744Y-99104379D01*
X191179685Y-99092766D01*
X191179059Y-99095001D01*
X191162382Y-99090328D01*
X191016665Y-99049500D01*
X190903342Y-99049500D01*
X190903339Y-99049500D01*
X190791083Y-99064929D01*
X190791081Y-99064929D01*
X190791080Y-99064930D01*
X190744764Y-99085048D01*
X190652279Y-99125220D01*
X190534891Y-99220723D01*
X190447623Y-99344352D01*
X190447623Y-99344353D01*
X190396946Y-99486944D01*
X190386619Y-99637921D01*
X189810388Y-99637921D01*
X189744841Y-99533604D01*
X189744840Y-99533603D01*
X189744839Y-99533601D01*
X189619998Y-99408760D01*
X189470498Y-99314823D01*
X189303850Y-99256510D01*
X189128400Y-99236742D01*
X188952949Y-99256510D01*
X188786301Y-99314823D01*
X188636801Y-99408760D01*
X188511960Y-99533601D01*
X188418023Y-99683101D01*
X188359710Y-99849749D01*
X188339942Y-100025200D01*
X176696488Y-100025200D01*
X176660533Y-97399276D01*
X176676559Y-97336038D01*
X176722066Y-97289289D01*
X176784853Y-97271566D01*
X195067994Y-97029644D01*
X195131687Y-97045959D01*
G37*
G04 #@! TD.AperFunction*
G04 #@! TA.AperFunction,Conductor*
G36*
X179195580Y-92841257D02*
G01*
X179195579Y-92841258D01*
X175387000Y-96519999D01*
X175386999Y-96520000D01*
X175466712Y-104132618D01*
X175449744Y-104197100D01*
X175402244Y-104243894D01*
X175337516Y-104259896D01*
X175273684Y-104240625D01*
X175240729Y-104219918D01*
X175195699Y-104191624D01*
X175195698Y-104191623D01*
X175195697Y-104191623D01*
X175029050Y-104133310D01*
X174853600Y-104113542D01*
X174678149Y-104133310D01*
X174511501Y-104191623D01*
X174362001Y-104285560D01*
X174237160Y-104410401D01*
X174143223Y-104559901D01*
X174084910Y-104726549D01*
X174071395Y-104846504D01*
X174065142Y-104902000D01*
X174068269Y-104929752D01*
X174084910Y-105077450D01*
X174143223Y-105244098D01*
X174237160Y-105393598D01*
X174362001Y-105518439D01*
X174362003Y-105518440D01*
X174362004Y-105518441D01*
X174446590Y-105571590D01*
X174511501Y-105612376D01*
X174669658Y-105667718D01*
X174678152Y-105670690D01*
X174853600Y-105690458D01*
X175029048Y-105670690D01*
X175195699Y-105612376D01*
X175289664Y-105553333D01*
X175352835Y-105534080D01*
X175417069Y-105549425D01*
X175464718Y-105595153D01*
X175482692Y-105658702D01*
X175491565Y-106506080D01*
X175482232Y-106555006D01*
X175454669Y-106596493D01*
X175405558Y-106645604D01*
X175378259Y-106689052D01*
X175357836Y-106721556D01*
X175357681Y-106721802D01*
X175318030Y-106761453D01*
X175265102Y-106779974D01*
X175209379Y-106773695D01*
X175161899Y-106743861D01*
X175040398Y-106622360D01*
X174890898Y-106528423D01*
X174724250Y-106470110D01*
X174548800Y-106450342D01*
X174373349Y-106470110D01*
X174206701Y-106528423D01*
X174057201Y-106622360D01*
X173932361Y-106747200D01*
X173893405Y-106809198D01*
X173852351Y-106849717D01*
X173797542Y-106867695D01*
X173740465Y-106859365D01*
X173693083Y-106826472D01*
X173636053Y-106763134D01*
X173636052Y-106763133D01*
X173636051Y-106763132D01*
X173481553Y-106650883D01*
X173481552Y-106650882D01*
X173307088Y-106573206D01*
X173120287Y-106533500D01*
X172929313Y-106533500D01*
X172828136Y-106555006D01*
X172742511Y-106573206D01*
X172568046Y-106650883D01*
X172413547Y-106763133D01*
X172285758Y-106905057D01*
X172190272Y-107070443D01*
X172131258Y-107252070D01*
X172111296Y-107441999D01*
X172131258Y-107631929D01*
X172190272Y-107813556D01*
X172285758Y-107978942D01*
X172403078Y-108109239D01*
X172413547Y-108120866D01*
X172568048Y-108233118D01*
X172742512Y-108310794D01*
X172929313Y-108350500D01*
X173120285Y-108350500D01*
X173120287Y-108350500D01*
X173307088Y-108310794D01*
X173481552Y-108233118D01*
X173636053Y-108120866D01*
X173763840Y-107978944D01*
X173834394Y-107856740D01*
X173873511Y-107814976D01*
X173927067Y-107794819D01*
X173984014Y-107800428D01*
X174032608Y-107830646D01*
X174057201Y-107855239D01*
X174057203Y-107855240D01*
X174057204Y-107855241D01*
X174206701Y-107949176D01*
X174373352Y-108007490D01*
X174548800Y-108027258D01*
X174724248Y-108007490D01*
X174890899Y-107949176D01*
X175040396Y-107855241D01*
X175165241Y-107730396D01*
X175213119Y-107654197D01*
X175252769Y-107614547D01*
X175305698Y-107596026D01*
X175361420Y-107602304D01*
X175408901Y-107632137D01*
X175467999Y-107691236D01*
X175495057Y-107731502D01*
X175504895Y-107779010D01*
X175639644Y-120647540D01*
X175622860Y-120711703D01*
X175575818Y-120758455D01*
X175511551Y-120774842D01*
X172926064Y-120731750D01*
X172866967Y-120715908D01*
X172822300Y-120674095D01*
X172802594Y-120616172D01*
X172791442Y-120481594D01*
X172732128Y-120247367D01*
X172635068Y-120026093D01*
X172543725Y-119886283D01*
X172543724Y-119886283D01*
X171718384Y-120711623D01*
X170965871Y-120699081D01*
X170153073Y-119886283D01*
X170061733Y-120026089D01*
X169964671Y-120247367D01*
X169905357Y-120481593D01*
X169898562Y-120563588D01*
X169878090Y-120622682D01*
X169831726Y-120664654D01*
X169770892Y-120679164D01*
X168048462Y-120650457D01*
X167996216Y-120638151D01*
X162217100Y-117875328D01*
X168318726Y-117875328D01*
X168338688Y-118065258D01*
X168397702Y-118246885D01*
X168493188Y-118412271D01*
X168505224Y-118425638D01*
X168620977Y-118554195D01*
X168775478Y-118666447D01*
X168949942Y-118744123D01*
X168997533Y-118754238D01*
X169055645Y-118783849D01*
X169091168Y-118838548D01*
X169140167Y-118989350D01*
X169235652Y-119154735D01*
X169235654Y-119154737D01*
X169363441Y-119296659D01*
X169517942Y-119408911D01*
X169692406Y-119486587D01*
X169879207Y-119526293D01*
X170070179Y-119526293D01*
X170070181Y-119526293D01*
X170256982Y-119486587D01*
X170331331Y-119453484D01*
X170394408Y-119443147D01*
X170454443Y-119465094D01*
X170478864Y-119493655D01*
X171348399Y-120363190D01*
X171348400Y-120363190D01*
X172185347Y-119526242D01*
X172185346Y-119526241D01*
X172148588Y-119497631D01*
X171936075Y-119382624D01*
X171707547Y-119304171D01*
X171469211Y-119264400D01*
X171227589Y-119264400D01*
X170989252Y-119304171D01*
X170855651Y-119350036D01*
X170790166Y-119354444D01*
X170731349Y-119325319D01*
X170695158Y-119270566D01*
X170691414Y-119205040D01*
X170710223Y-119168001D01*
X170707113Y-119166206D01*
X170809221Y-118989349D01*
X170845845Y-118876632D01*
X170868236Y-118807721D01*
X170888198Y-118617793D01*
X170868236Y-118427865D01*
X170809221Y-118246237D01*
X170809221Y-118246236D01*
X170713735Y-118080850D01*
X170585946Y-117938926D01*
X170431447Y-117826676D01*
X170431446Y-117826675D01*
X170256982Y-117748999D01*
X170256978Y-117748997D01*
X170209390Y-117738882D01*
X170151277Y-117709272D01*
X170115755Y-117654572D01*
X170066757Y-117503772D01*
X169971271Y-117338386D01*
X169843482Y-117196462D01*
X169688983Y-117084212D01*
X169688982Y-117084211D01*
X169514518Y-117006535D01*
X169327717Y-116966829D01*
X169136743Y-116966829D01*
X169012208Y-116993299D01*
X168949941Y-117006535D01*
X168775476Y-117084212D01*
X168620977Y-117196462D01*
X168493188Y-117338386D01*
X168397702Y-117503772D01*
X168338688Y-117685399D01*
X168318726Y-117875328D01*
X162217100Y-117875328D01*
X156969903Y-115366800D01*
X161161496Y-115366800D01*
X161181458Y-115556729D01*
X161240472Y-115738356D01*
X161335958Y-115903742D01*
X161463746Y-116045665D01*
X161463747Y-116045666D01*
X161618248Y-116157918D01*
X161792712Y-116235594D01*
X161979513Y-116275300D01*
X162170485Y-116275300D01*
X162170487Y-116275300D01*
X162357288Y-116235594D01*
X162531752Y-116157918D01*
X162531754Y-116157916D01*
X162543850Y-116152531D01*
X162544457Y-116153896D01*
X162573789Y-116140833D01*
X162626185Y-116140828D01*
X162655542Y-116153896D01*
X162656150Y-116152531D01*
X162668245Y-116157916D01*
X162668248Y-116157918D01*
X162842712Y-116235594D01*
X163029513Y-116275300D01*
X163220485Y-116275300D01*
X163220487Y-116275300D01*
X163407288Y-116235594D01*
X163581752Y-116157918D01*
X163736253Y-116045666D01*
X163864040Y-115903744D01*
X163959527Y-115738356D01*
X164018542Y-115556728D01*
X164022486Y-115519200D01*
X166523296Y-115519200D01*
X166543258Y-115709129D01*
X166602272Y-115890756D01*
X166697758Y-116056142D01*
X166697760Y-116056144D01*
X166825547Y-116198066D01*
X166980048Y-116310318D01*
X167154512Y-116387994D01*
X167341313Y-116427700D01*
X167532285Y-116427700D01*
X167532287Y-116427700D01*
X167719088Y-116387994D01*
X167893552Y-116310318D01*
X168048053Y-116198066D01*
X168175840Y-116056144D01*
X168271327Y-115890756D01*
X168330342Y-115709128D01*
X168350304Y-115519200D01*
X168330342Y-115329272D01*
X168271327Y-115147644D01*
X168271327Y-115147643D01*
X168175841Y-114982257D01*
X168048052Y-114840333D01*
X167893553Y-114728083D01*
X167893552Y-114728082D01*
X167719088Y-114650406D01*
X167532287Y-114610700D01*
X167341313Y-114610700D01*
X167216778Y-114637170D01*
X167154511Y-114650406D01*
X166980046Y-114728083D01*
X166825547Y-114840333D01*
X166697758Y-114982257D01*
X166602272Y-115147643D01*
X166543258Y-115329270D01*
X166523296Y-115519200D01*
X164022486Y-115519200D01*
X164038504Y-115366800D01*
X164018542Y-115176872D01*
X163959527Y-114995244D01*
X163959527Y-114995243D01*
X163864041Y-114829857D01*
X163736252Y-114687933D01*
X163621829Y-114604800D01*
X163581752Y-114575682D01*
X163407288Y-114498006D01*
X163220487Y-114458300D01*
X163029513Y-114458300D01*
X162842712Y-114498006D01*
X162842710Y-114498006D01*
X162842709Y-114498007D01*
X162656150Y-114581068D01*
X162655542Y-114579703D01*
X162626183Y-114592771D01*
X162573796Y-114592767D01*
X162544457Y-114579704D01*
X162543850Y-114581069D01*
X162531754Y-114575683D01*
X162531752Y-114575682D01*
X162357288Y-114498006D01*
X162170487Y-114458300D01*
X161979513Y-114458300D01*
X161854979Y-114484770D01*
X161792711Y-114498006D01*
X161618246Y-114575683D01*
X161463747Y-114687933D01*
X161335958Y-114829857D01*
X161240472Y-114995243D01*
X161181458Y-115176870D01*
X161161496Y-115366800D01*
X156969903Y-115366800D01*
X150116095Y-112090199D01*
X163803542Y-112090199D01*
X163823310Y-112265650D01*
X163881623Y-112432298D01*
X163975560Y-112581798D01*
X164100401Y-112706639D01*
X164100403Y-112706640D01*
X164100404Y-112706641D01*
X164249901Y-112800576D01*
X164416552Y-112858890D01*
X164592000Y-112878658D01*
X164767448Y-112858890D01*
X164934099Y-112800576D01*
X165083596Y-112706641D01*
X165208441Y-112581796D01*
X165302376Y-112432299D01*
X165360690Y-112265648D01*
X165366149Y-112217199D01*
X167031296Y-112217199D01*
X167051258Y-112407129D01*
X167110272Y-112588756D01*
X167205758Y-112754142D01*
X167294853Y-112853092D01*
X167333547Y-112896066D01*
X167488048Y-113008318D01*
X167662512Y-113085994D01*
X167849313Y-113125700D01*
X168040285Y-113125700D01*
X168040287Y-113125700D01*
X168227088Y-113085994D01*
X168401552Y-113008318D01*
X168556053Y-112896066D01*
X168683840Y-112754144D01*
X168779327Y-112588756D01*
X168838342Y-112407128D01*
X168858304Y-112217200D01*
X168838342Y-112027272D01*
X168779327Y-111845644D01*
X168779327Y-111845643D01*
X168683841Y-111680257D01*
X168556052Y-111538333D01*
X168425355Y-111443376D01*
X168384309Y-111392689D01*
X168374106Y-111328269D01*
X168397480Y-111267379D01*
X168448164Y-111226334D01*
X168604752Y-111156618D01*
X168759253Y-111044366D01*
X168887040Y-110902444D01*
X168982527Y-110737056D01*
X169041542Y-110555428D01*
X169048419Y-110490000D01*
X169645542Y-110490000D01*
X169665310Y-110665450D01*
X169723623Y-110832098D01*
X169817560Y-110981598D01*
X169942401Y-111106439D01*
X169942403Y-111106440D01*
X169942404Y-111106441D01*
X170091901Y-111200376D01*
X170258552Y-111258690D01*
X170434000Y-111278458D01*
X170609448Y-111258690D01*
X170776099Y-111200376D01*
X170925596Y-111106441D01*
X171050441Y-110981596D01*
X171144376Y-110832099D01*
X171202690Y-110665448D01*
X171222458Y-110490000D01*
X171202690Y-110314552D01*
X171144376Y-110147901D01*
X171050441Y-109998404D01*
X171050440Y-109998403D01*
X171050439Y-109998401D01*
X170925598Y-109873560D01*
X170776098Y-109779623D01*
X170609450Y-109721310D01*
X170434000Y-109701542D01*
X170258549Y-109721310D01*
X170091901Y-109779623D01*
X169942401Y-109873560D01*
X169817560Y-109998401D01*
X169723623Y-110147901D01*
X169665310Y-110314549D01*
X169645542Y-110490000D01*
X169048419Y-110490000D01*
X169061504Y-110365500D01*
X169041542Y-110175572D01*
X168999539Y-110046301D01*
X168982527Y-109993943D01*
X168887041Y-109828557D01*
X168759252Y-109686633D01*
X168669329Y-109621300D01*
X168604752Y-109574382D01*
X168430288Y-109496706D01*
X168243487Y-109457000D01*
X168052513Y-109457000D01*
X167969270Y-109474694D01*
X167865711Y-109496706D01*
X167691246Y-109574383D01*
X167536747Y-109686633D01*
X167408958Y-109828557D01*
X167313472Y-109993943D01*
X167254458Y-110175570D01*
X167234496Y-110365499D01*
X167254458Y-110555429D01*
X167313472Y-110737056D01*
X167408958Y-110902442D01*
X167481996Y-110983559D01*
X167536747Y-111044366D01*
X167624887Y-111108404D01*
X167667444Y-111139323D01*
X167708490Y-111190010D01*
X167718693Y-111254429D01*
X167695319Y-111315320D01*
X167644632Y-111356365D01*
X167488050Y-111426080D01*
X167333547Y-111538333D01*
X167205758Y-111680257D01*
X167110272Y-111845643D01*
X167051258Y-112027270D01*
X167031296Y-112217199D01*
X165366149Y-112217199D01*
X165380458Y-112090200D01*
X165360690Y-111914752D01*
X165302376Y-111748101D01*
X165208441Y-111598604D01*
X165208440Y-111598603D01*
X165208439Y-111598601D01*
X165083598Y-111473760D01*
X164934098Y-111379823D01*
X164767450Y-111321510D01*
X164592000Y-111301742D01*
X164416549Y-111321510D01*
X164249901Y-111379823D01*
X164100401Y-111473760D01*
X163975560Y-111598601D01*
X163881623Y-111748101D01*
X163823310Y-111914749D01*
X163803542Y-112090199D01*
X150116095Y-112090199D01*
X145627133Y-109944160D01*
X164367382Y-109944160D01*
X164387150Y-110119610D01*
X164445463Y-110286258D01*
X164539400Y-110435758D01*
X164664241Y-110560599D01*
X164813741Y-110654536D01*
X164862272Y-110671518D01*
X164980392Y-110712850D01*
X165155840Y-110732618D01*
X165331288Y-110712850D01*
X165331289Y-110712849D01*
X165345396Y-110711260D01*
X165345431Y-110711576D01*
X165385654Y-110707044D01*
X165438584Y-110725564D01*
X165478237Y-110765216D01*
X165550359Y-110879997D01*
X165675201Y-111004839D01*
X165675203Y-111004840D01*
X165675204Y-111004841D01*
X165824701Y-111098776D01*
X165991352Y-111157090D01*
X166166800Y-111176858D01*
X166342248Y-111157090D01*
X166508899Y-111098776D01*
X166658396Y-111004841D01*
X166783241Y-110879996D01*
X166877176Y-110730499D01*
X166935490Y-110563848D01*
X166955258Y-110388400D01*
X166935490Y-110212952D01*
X166877176Y-110046301D01*
X166783241Y-109896804D01*
X166783240Y-109896803D01*
X166783239Y-109896801D01*
X166658398Y-109771960D01*
X166508898Y-109678023D01*
X166342250Y-109619710D01*
X166166800Y-109599942D01*
X165991352Y-109619710D01*
X165991350Y-109619710D01*
X165977244Y-109621300D01*
X165977208Y-109620983D01*
X165936977Y-109625514D01*
X165884051Y-109606993D01*
X165844402Y-109567343D01*
X165772280Y-109452562D01*
X165647438Y-109327720D01*
X165497938Y-109233783D01*
X165331290Y-109175470D01*
X165155840Y-109155702D01*
X164980389Y-109175470D01*
X164813741Y-109233783D01*
X164664241Y-109327720D01*
X164539400Y-109452561D01*
X164445463Y-109602061D01*
X164387150Y-109768709D01*
X164367382Y-109944160D01*
X145627133Y-109944160D01*
X141987165Y-108204000D01*
X148946496Y-108204000D01*
X148966458Y-108393929D01*
X149025472Y-108575556D01*
X149120958Y-108740942D01*
X149120960Y-108740944D01*
X149248747Y-108882866D01*
X149403248Y-108995118D01*
X149577712Y-109072794D01*
X149764513Y-109112500D01*
X149955485Y-109112500D01*
X149955487Y-109112500D01*
X150142288Y-109072794D01*
X150316752Y-108995118D01*
X150471253Y-108882866D01*
X150599040Y-108740944D01*
X150694527Y-108575556D01*
X150753542Y-108393928D01*
X150773504Y-108204000D01*
X150753542Y-108014072D01*
X150709116Y-107877344D01*
X150694527Y-107832443D01*
X150599041Y-107667057D01*
X150471252Y-107525133D01*
X150394002Y-107469007D01*
X150316752Y-107412882D01*
X150268051Y-107391199D01*
X155753696Y-107391199D01*
X155773658Y-107581129D01*
X155832672Y-107762756D01*
X155928158Y-107928142D01*
X156054948Y-108068956D01*
X156055947Y-108070066D01*
X156210448Y-108182318D01*
X156384912Y-108259994D01*
X156571713Y-108299700D01*
X156762685Y-108299700D01*
X156762687Y-108299700D01*
X156949488Y-108259994D01*
X157123952Y-108182318D01*
X157278453Y-108070066D01*
X157406240Y-107928144D01*
X157501727Y-107762756D01*
X157560742Y-107581128D01*
X157570026Y-107492799D01*
X165378342Y-107492799D01*
X165398110Y-107668250D01*
X165456423Y-107834898D01*
X165550360Y-107984398D01*
X165675201Y-108109239D01*
X165824701Y-108203176D01*
X165841896Y-108209193D01*
X165991352Y-108261490D01*
X166166800Y-108281258D01*
X166342248Y-108261490D01*
X166508899Y-108203176D01*
X166658396Y-108109241D01*
X166783241Y-107984396D01*
X166877176Y-107834899D01*
X166882038Y-107821004D01*
X166923329Y-107763380D01*
X166989201Y-107737170D01*
X167058797Y-107750675D01*
X167110085Y-107799620D01*
X167154958Y-107877342D01*
X167278070Y-108014072D01*
X167282747Y-108019266D01*
X167437248Y-108131518D01*
X167611712Y-108209194D01*
X167798513Y-108248900D01*
X167989485Y-108248900D01*
X167989487Y-108248900D01*
X168176288Y-108209194D01*
X168350752Y-108131518D01*
X168505253Y-108019266D01*
X168633040Y-107877344D01*
X168728527Y-107711956D01*
X168787542Y-107530328D01*
X168807504Y-107340400D01*
X168787542Y-107150472D01*
X168755514Y-107051901D01*
X168728527Y-106968843D01*
X168633041Y-106803457D01*
X168505252Y-106661533D01*
X168415732Y-106596493D01*
X168350752Y-106549282D01*
X168176288Y-106471606D01*
X167989487Y-106431900D01*
X167798513Y-106431900D01*
X167711751Y-106450342D01*
X167611711Y-106471606D01*
X167437246Y-106549283D01*
X167282747Y-106661533D01*
X167154958Y-106803457D01*
X167059472Y-106968843D01*
X167041616Y-107023801D01*
X167001989Y-107082040D01*
X166937294Y-107109907D01*
X166867751Y-107098692D01*
X166815097Y-107051902D01*
X166783241Y-107001204D01*
X166783238Y-107001201D01*
X166783237Y-107001199D01*
X166658398Y-106876360D01*
X166508898Y-106782423D01*
X166342250Y-106724110D01*
X166166800Y-106704342D01*
X165991349Y-106724110D01*
X165824701Y-106782423D01*
X165675201Y-106876360D01*
X165550360Y-107001201D01*
X165456423Y-107150701D01*
X165398110Y-107317349D01*
X165378342Y-107492799D01*
X157570026Y-107492799D01*
X157580704Y-107391200D01*
X157560742Y-107201272D01*
X157512208Y-107051901D01*
X157501727Y-107019643D01*
X157406241Y-106854257D01*
X157286978Y-106721802D01*
X157278453Y-106712334D01*
X157123952Y-106600082D01*
X156949488Y-106522406D01*
X156762687Y-106482700D01*
X156571713Y-106482700D01*
X156447179Y-106509170D01*
X156384911Y-106522406D01*
X156210446Y-106600083D01*
X156055947Y-106712333D01*
X155928158Y-106854257D01*
X155832672Y-107019643D01*
X155773658Y-107201270D01*
X155753696Y-107391199D01*
X150268051Y-107391199D01*
X150142288Y-107335206D01*
X149955487Y-107295500D01*
X149764513Y-107295500D01*
X149661722Y-107317349D01*
X149577711Y-107335206D01*
X149403246Y-107412883D01*
X149248747Y-107525133D01*
X149120958Y-107667057D01*
X149025472Y-107832443D01*
X148966458Y-108014070D01*
X148946496Y-108204000D01*
X141987165Y-108204000D01*
X139064998Y-106806999D01*
X115409905Y-106964567D01*
X115409904Y-106964568D01*
X101235297Y-107058986D01*
X101202440Y-107023294D01*
X101202439Y-107023293D01*
X101202437Y-107023291D01*
X101024779Y-106885013D01*
X101024777Y-106885012D01*
X101024776Y-106885011D01*
X100991517Y-106867012D01*
X100943247Y-106820698D01*
X100925488Y-106756200D01*
X100943247Y-106691702D01*
X100991517Y-106645387D01*
X101024776Y-106627389D01*
X101202440Y-106489106D01*
X101354922Y-106323468D01*
X101478060Y-106134991D01*
X101568496Y-105928816D01*
X101623764Y-105710568D01*
X101642356Y-105486200D01*
X101623764Y-105261832D01*
X101568496Y-105043584D01*
X101478060Y-104837409D01*
X101354922Y-104648932D01*
X101202440Y-104483294D01*
X101202439Y-104483293D01*
X101202437Y-104483291D01*
X101024779Y-104345013D01*
X101024777Y-104345012D01*
X101024776Y-104345011D01*
X100991517Y-104327012D01*
X100955442Y-104292399D01*
X119455142Y-104292399D01*
X119474910Y-104467850D01*
X119533223Y-104634498D01*
X119627160Y-104783998D01*
X119752001Y-104908839D01*
X119752003Y-104908840D01*
X119752004Y-104908841D01*
X119811077Y-104945959D01*
X119901501Y-105002776D01*
X119918696Y-105008793D01*
X120068152Y-105061090D01*
X120243600Y-105080858D01*
X120419048Y-105061090D01*
X120585699Y-105002776D01*
X120735196Y-104908841D01*
X120767438Y-104876599D01*
X127508896Y-104876599D01*
X127528858Y-105066529D01*
X127587872Y-105248156D01*
X127683358Y-105413542D01*
X127708532Y-105441500D01*
X127811147Y-105555466D01*
X127965648Y-105667718D01*
X128140112Y-105745394D01*
X128326913Y-105785100D01*
X128517885Y-105785100D01*
X128517887Y-105785100D01*
X128704688Y-105745394D01*
X128879152Y-105667718D01*
X129033653Y-105555466D01*
X129161440Y-105413544D01*
X129226995Y-105300000D01*
X140436496Y-105300000D01*
X140456458Y-105489929D01*
X140515472Y-105671556D01*
X140610958Y-105836942D01*
X140610960Y-105836944D01*
X140738747Y-105978866D01*
X140893248Y-106091118D01*
X141067712Y-106168794D01*
X141254513Y-106208500D01*
X141445485Y-106208500D01*
X141445487Y-106208500D01*
X141632288Y-106168794D01*
X141806752Y-106091118D01*
X141961253Y-105978866D01*
X142089040Y-105836944D01*
X142180749Y-105678100D01*
X145847696Y-105678100D01*
X145851109Y-105710572D01*
X145867658Y-105868029D01*
X145926672Y-106049656D01*
X146022158Y-106215042D01*
X146022160Y-106215044D01*
X146149947Y-106356966D01*
X146304448Y-106469218D01*
X146478912Y-106546894D01*
X146665713Y-106586600D01*
X146856685Y-106586600D01*
X146856687Y-106586600D01*
X147043488Y-106546894D01*
X147217952Y-106469218D01*
X147313222Y-106400000D01*
X161836496Y-106400000D01*
X161856458Y-106589929D01*
X161915472Y-106771556D01*
X162010958Y-106936942D01*
X162010960Y-106936944D01*
X162138747Y-107078866D01*
X162293248Y-107191118D01*
X162467712Y-107268794D01*
X162654513Y-107308500D01*
X162845485Y-107308500D01*
X162845487Y-107308500D01*
X163032288Y-107268794D01*
X163206752Y-107191118D01*
X163360349Y-107079522D01*
X163408212Y-107058212D01*
X163460606Y-107058212D01*
X163508470Y-107079523D01*
X163593248Y-107141118D01*
X163767712Y-107218794D01*
X163954513Y-107258500D01*
X164145485Y-107258500D01*
X164145487Y-107258500D01*
X164332288Y-107218794D01*
X164506752Y-107141118D01*
X164661253Y-107028866D01*
X164789040Y-106886944D01*
X164884527Y-106721556D01*
X164943542Y-106539928D01*
X164963504Y-106350000D01*
X164943542Y-106160072D01*
X164884527Y-105978444D01*
X164884527Y-105978443D01*
X164789041Y-105813057D01*
X164661252Y-105671133D01*
X164558936Y-105596796D01*
X164506752Y-105558882D01*
X164332288Y-105481206D01*
X164145487Y-105441500D01*
X163954513Y-105441500D01*
X163829978Y-105467970D01*
X163767711Y-105481206D01*
X163648954Y-105534080D01*
X163600921Y-105555466D01*
X163593246Y-105558883D01*
X163439651Y-105670477D01*
X163391787Y-105691788D01*
X163339393Y-105691788D01*
X163291531Y-105670478D01*
X163206752Y-105608882D01*
X163032288Y-105531206D01*
X162845487Y-105491500D01*
X162654513Y-105491500D01*
X162529978Y-105517970D01*
X162467711Y-105531206D01*
X162293246Y-105608883D01*
X162138747Y-105721133D01*
X162010958Y-105863057D01*
X161915472Y-106028443D01*
X161856458Y-106210070D01*
X161836496Y-106400000D01*
X147313222Y-106400000D01*
X147372453Y-106356966D01*
X147500240Y-106215044D01*
X147595727Y-106049656D01*
X147654742Y-105868028D01*
X147674704Y-105678100D01*
X147654742Y-105488172D01*
X147613879Y-105362412D01*
X147610466Y-105297281D01*
X147640077Y-105239168D01*
X147694777Y-105203645D01*
X147759907Y-105200231D01*
X147935713Y-105237600D01*
X148126685Y-105237600D01*
X148126687Y-105237600D01*
X148313488Y-105197894D01*
X148407586Y-105155999D01*
X159880996Y-105155999D01*
X159900958Y-105345929D01*
X159959972Y-105527556D01*
X160055458Y-105692942D01*
X160152956Y-105801224D01*
X160183247Y-105834866D01*
X160337748Y-105947118D01*
X160512212Y-106024794D01*
X160699013Y-106064500D01*
X160889985Y-106064500D01*
X160889987Y-106064500D01*
X161076788Y-106024794D01*
X161251252Y-105947118D01*
X161405753Y-105834866D01*
X161533540Y-105692944D01*
X161629027Y-105527556D01*
X161688042Y-105345928D01*
X161708004Y-105156000D01*
X161688042Y-104966072D01*
X161655540Y-104866042D01*
X161649192Y-104846504D01*
X161646354Y-104778795D01*
X161679002Y-104719410D01*
X161737690Y-104685526D01*
X161805443Y-104686946D01*
X161862660Y-104723256D01*
X161934960Y-104803554D01*
X161948748Y-104818867D01*
X161974269Y-104837409D01*
X162103248Y-104931118D01*
X162277712Y-105008794D01*
X162464513Y-105048500D01*
X162655485Y-105048500D01*
X162655487Y-105048500D01*
X162842288Y-105008794D01*
X163016752Y-104931118D01*
X163171253Y-104818866D01*
X163299040Y-104676944D01*
X163394527Y-104511556D01*
X163453542Y-104329928D01*
X163473504Y-104140000D01*
X163453542Y-103950072D01*
X163422931Y-103855862D01*
X163394527Y-103768443D01*
X163299041Y-103603057D01*
X163171252Y-103461133D01*
X163071709Y-103388811D01*
X163016752Y-103348882D01*
X162842288Y-103271206D01*
X162655487Y-103231500D01*
X162464513Y-103231500D01*
X162339978Y-103257970D01*
X162277711Y-103271206D01*
X162103246Y-103348883D01*
X161948747Y-103461133D01*
X161820958Y-103603057D01*
X161725472Y-103768443D01*
X161666458Y-103950070D01*
X161664811Y-103965742D01*
X161646496Y-104140000D01*
X161666458Y-104329928D01*
X161666459Y-104329931D01*
X161705307Y-104449496D01*
X161708145Y-104517204D01*
X161675497Y-104576589D01*
X161616808Y-104610473D01*
X161549055Y-104609053D01*
X161491838Y-104572742D01*
X161405753Y-104477134D01*
X161405752Y-104477133D01*
X161405751Y-104477132D01*
X161251253Y-104364883D01*
X161251252Y-104364882D01*
X161076788Y-104287206D01*
X160889987Y-104247500D01*
X160699013Y-104247500D01*
X160574479Y-104273970D01*
X160512211Y-104287206D01*
X160337746Y-104364883D01*
X160183247Y-104477133D01*
X160055458Y-104619057D01*
X159959972Y-104784443D01*
X159900958Y-104966070D01*
X159880996Y-105155999D01*
X148407586Y-105155999D01*
X148487952Y-105120218D01*
X148642453Y-105007966D01*
X148770240Y-104866044D01*
X148865727Y-104700656D01*
X148924742Y-104519028D01*
X148944704Y-104329100D01*
X148924742Y-104139172D01*
X148882058Y-104007806D01*
X148865727Y-103957543D01*
X148770241Y-103792157D01*
X148642452Y-103650233D01*
X148548569Y-103582023D01*
X148487952Y-103537982D01*
X148313488Y-103460306D01*
X148165265Y-103428800D01*
X153721696Y-103428800D01*
X153741658Y-103618729D01*
X153800672Y-103800356D01*
X153896158Y-103965742D01*
X154007319Y-104089199D01*
X154023947Y-104107666D01*
X154178448Y-104219918D01*
X154352912Y-104297594D01*
X154539713Y-104337300D01*
X154730685Y-104337300D01*
X154730687Y-104337300D01*
X154917488Y-104297594D01*
X155091952Y-104219918D01*
X155246453Y-104107666D01*
X155374240Y-103965744D01*
X155469727Y-103800356D01*
X155528742Y-103618728D01*
X155548704Y-103428800D01*
X155528742Y-103238872D01*
X155469727Y-103057244D01*
X155469727Y-103057243D01*
X155374241Y-102891857D01*
X155246452Y-102749933D01*
X155091953Y-102637683D01*
X155091952Y-102637682D01*
X154917488Y-102560006D01*
X154730687Y-102520300D01*
X154539713Y-102520300D01*
X154415178Y-102546770D01*
X154352911Y-102560006D01*
X154178446Y-102637683D01*
X154023947Y-102749933D01*
X153896158Y-102891857D01*
X153800672Y-103057243D01*
X153741658Y-103238870D01*
X153721696Y-103428800D01*
X148165265Y-103428800D01*
X148126687Y-103420600D01*
X147935713Y-103420600D01*
X147811178Y-103447070D01*
X147748911Y-103460306D01*
X147574446Y-103537983D01*
X147419947Y-103650233D01*
X147292158Y-103792157D01*
X147196672Y-103957543D01*
X147137658Y-104139170D01*
X147117696Y-104329100D01*
X147137658Y-104519029D01*
X147178519Y-104644785D01*
X147181933Y-104709918D01*
X147152322Y-104768031D01*
X147097622Y-104803554D01*
X147032489Y-104806968D01*
X146856687Y-104769600D01*
X146665713Y-104769600D01*
X146552285Y-104793710D01*
X146478911Y-104809306D01*
X146382965Y-104852024D01*
X146327767Y-104876600D01*
X146304446Y-104886983D01*
X146149947Y-104999233D01*
X146022158Y-105141157D01*
X145926672Y-105306543D01*
X145867658Y-105488170D01*
X145854971Y-105608882D01*
X145847696Y-105678100D01*
X142180749Y-105678100D01*
X142184527Y-105671556D01*
X142243542Y-105489928D01*
X142263504Y-105300000D01*
X142243542Y-105110072D01*
X142210634Y-105008793D01*
X142184527Y-104928443D01*
X142089041Y-104763057D01*
X141986282Y-104648932D01*
X141961253Y-104621134D01*
X141958394Y-104619057D01*
X141823662Y-104521168D01*
X141806752Y-104508882D01*
X141632288Y-104431206D01*
X141445487Y-104391500D01*
X141254513Y-104391500D01*
X141129978Y-104417970D01*
X141067711Y-104431206D01*
X140950720Y-104483294D01*
X140901869Y-104505044D01*
X140893246Y-104508883D01*
X140738747Y-104621133D01*
X140610958Y-104763057D01*
X140515472Y-104928443D01*
X140456458Y-105110070D01*
X140436496Y-105300000D01*
X129226995Y-105300000D01*
X129256927Y-105248156D01*
X129315942Y-105066528D01*
X129335904Y-104876600D01*
X129315942Y-104686672D01*
X129259043Y-104511556D01*
X129256927Y-104505043D01*
X129161441Y-104339657D01*
X129069781Y-104237858D01*
X129033653Y-104197734D01*
X129032780Y-104197100D01*
X128944029Y-104132618D01*
X128884269Y-104089200D01*
X138634096Y-104089200D01*
X138654058Y-104279129D01*
X138713072Y-104460756D01*
X138808558Y-104626142D01*
X138875651Y-104700656D01*
X138936347Y-104768066D01*
X139090848Y-104880318D01*
X139265312Y-104957994D01*
X139452113Y-104997700D01*
X139643085Y-104997700D01*
X139643087Y-104997700D01*
X139829888Y-104957994D01*
X140004352Y-104880318D01*
X140158853Y-104768066D01*
X140286640Y-104626144D01*
X140382127Y-104460756D01*
X140441142Y-104279128D01*
X140461104Y-104089200D01*
X140441142Y-103899272D01*
X140382127Y-103717644D01*
X140382127Y-103717643D01*
X140286641Y-103552257D01*
X140175480Y-103428800D01*
X140158853Y-103410334D01*
X140004352Y-103298082D01*
X139829888Y-103220406D01*
X139643087Y-103180700D01*
X139452113Y-103180700D01*
X139327579Y-103207170D01*
X139265311Y-103220406D01*
X139090846Y-103298083D01*
X138936347Y-103410333D01*
X138808558Y-103552257D01*
X138713072Y-103717643D01*
X138654058Y-103899270D01*
X138634096Y-104089200D01*
X128884269Y-104089200D01*
X128879152Y-104085482D01*
X128704688Y-104007806D01*
X128517887Y-103968100D01*
X128326913Y-103968100D01*
X128202378Y-103994570D01*
X128140111Y-104007806D01*
X127965646Y-104085483D01*
X127811147Y-104197733D01*
X127683358Y-104339657D01*
X127587872Y-104505043D01*
X127528858Y-104686670D01*
X127508896Y-104876599D01*
X120767438Y-104876599D01*
X120860041Y-104783996D01*
X120953976Y-104634499D01*
X121012290Y-104467848D01*
X121032058Y-104292400D01*
X121012290Y-104116952D01*
X121001278Y-104085483D01*
X120953976Y-103950301D01*
X120860039Y-103800801D01*
X120735198Y-103675960D01*
X120585698Y-103582023D01*
X120419050Y-103523710D01*
X120243600Y-103503942D01*
X120068149Y-103523710D01*
X119901501Y-103582023D01*
X119752001Y-103675960D01*
X119627160Y-103800801D01*
X119533223Y-103950301D01*
X119474910Y-104116949D01*
X119455142Y-104292399D01*
X100955442Y-104292399D01*
X100943247Y-104280698D01*
X100925488Y-104216200D01*
X100943247Y-104151702D01*
X100991517Y-104105387D01*
X101024776Y-104087389D01*
X101202440Y-103949106D01*
X101354922Y-103783468D01*
X101478060Y-103594991D01*
X101568496Y-103388816D01*
X101623764Y-103170568D01*
X101642356Y-102946200D01*
X101623764Y-102721832D01*
X101568496Y-102503584D01*
X101478060Y-102297409D01*
X101354922Y-102108932D01*
X101354064Y-102108000D01*
X162662496Y-102108000D01*
X162682458Y-102297929D01*
X162741472Y-102479556D01*
X162836958Y-102644942D01*
X162836960Y-102644944D01*
X162964747Y-102786866D01*
X163119248Y-102899118D01*
X163293712Y-102976794D01*
X163480513Y-103016500D01*
X163671485Y-103016500D01*
X163671487Y-103016500D01*
X163858288Y-102976794D01*
X164032752Y-102899118D01*
X164187253Y-102786866D01*
X164315040Y-102644944D01*
X164410527Y-102479556D01*
X164469542Y-102297928D01*
X164489504Y-102108000D01*
X164469542Y-101918072D01*
X164426957Y-101787011D01*
X164410527Y-101736443D01*
X164315041Y-101571057D01*
X164187252Y-101429133D01*
X164032753Y-101316883D01*
X164032752Y-101316882D01*
X163858288Y-101239206D01*
X163671487Y-101199500D01*
X163480513Y-101199500D01*
X163355978Y-101225970D01*
X163293711Y-101239206D01*
X163119246Y-101316883D01*
X162964747Y-101429133D01*
X162836958Y-101571057D01*
X162741472Y-101736443D01*
X162682458Y-101918070D01*
X162662496Y-102108000D01*
X101354064Y-102108000D01*
X101202440Y-101943294D01*
X101202439Y-101943293D01*
X101202437Y-101943291D01*
X101024779Y-101805013D01*
X101024777Y-101805012D01*
X101024776Y-101805011D01*
X100991517Y-101787012D01*
X100943247Y-101740698D01*
X100925488Y-101676200D01*
X100943247Y-101611702D01*
X100991517Y-101565387D01*
X101024776Y-101547389D01*
X101202440Y-101409106D01*
X101354922Y-101243468D01*
X101478060Y-101054991D01*
X101568496Y-100848816D01*
X101623764Y-100630568D01*
X101642356Y-100406200D01*
X101623764Y-100181832D01*
X101568496Y-99963584D01*
X101506392Y-99821999D01*
X107862309Y-99821999D01*
X107881445Y-100077354D01*
X107938426Y-100327002D01*
X108031978Y-100565369D01*
X108160013Y-100787131D01*
X108319665Y-100987330D01*
X108507384Y-101161508D01*
X108609163Y-101230899D01*
X108718955Y-101305754D01*
X108742063Y-101316882D01*
X108949664Y-101416858D01*
X108989460Y-101429133D01*
X109194357Y-101492335D01*
X109447566Y-101530500D01*
X109703632Y-101530500D01*
X109703634Y-101530500D01*
X109956843Y-101492335D01*
X110201535Y-101416858D01*
X110432246Y-101305754D01*
X110643819Y-101161505D01*
X110831531Y-100987334D01*
X110991187Y-100787131D01*
X111119222Y-100565369D01*
X111212774Y-100327001D01*
X111269755Y-100077353D01*
X111288891Y-99822000D01*
X111269755Y-99566647D01*
X111212774Y-99316999D01*
X111119222Y-99078631D01*
X110991187Y-98856869D01*
X110905962Y-98750000D01*
X110831534Y-98656669D01*
X110752740Y-98583559D01*
X110663978Y-98501200D01*
X130377142Y-98501200D01*
X130396910Y-98676650D01*
X130455223Y-98843298D01*
X130549160Y-98992798D01*
X130674001Y-99117639D01*
X130674003Y-99117640D01*
X130674004Y-99117641D01*
X130786071Y-99188057D01*
X130823501Y-99211576D01*
X130909298Y-99241598D01*
X130990152Y-99269890D01*
X131165600Y-99289658D01*
X131341048Y-99269890D01*
X131507699Y-99211576D01*
X131657196Y-99117641D01*
X131782041Y-98992796D01*
X131875976Y-98843299D01*
X131934290Y-98676648D01*
X131954058Y-98501200D01*
X131934290Y-98325752D01*
X131875976Y-98159101D01*
X131782041Y-98009604D01*
X131782040Y-98009603D01*
X131782039Y-98009601D01*
X131657198Y-97884760D01*
X131507698Y-97790823D01*
X131341050Y-97732510D01*
X131165600Y-97712742D01*
X130990149Y-97732510D01*
X130823501Y-97790823D01*
X130674001Y-97884760D01*
X130549160Y-98009601D01*
X130455223Y-98159101D01*
X130396910Y-98325749D01*
X130377142Y-98501200D01*
X110663978Y-98501200D01*
X110643819Y-98482495D01*
X110432246Y-98338246D01*
X110432245Y-98338245D01*
X110432243Y-98338244D01*
X110201535Y-98227141D01*
X109995798Y-98163681D01*
X109956843Y-98151665D01*
X109703634Y-98113500D01*
X109447566Y-98113500D01*
X109194357Y-98151665D01*
X109194353Y-98151666D01*
X109194354Y-98151666D01*
X108949664Y-98227141D01*
X108718954Y-98338246D01*
X108507384Y-98482491D01*
X108319665Y-98656669D01*
X108160013Y-98856868D01*
X108031978Y-99078630D01*
X107938426Y-99316997D01*
X107881445Y-99566645D01*
X107862309Y-99821999D01*
X101506392Y-99821999D01*
X101478060Y-99757409D01*
X101354922Y-99568932D01*
X101202440Y-99403294D01*
X101202439Y-99403293D01*
X101202437Y-99403291D01*
X101024779Y-99265013D01*
X101024777Y-99265012D01*
X101024776Y-99265011D01*
X100991517Y-99247012D01*
X100943247Y-99200698D01*
X100925488Y-99136200D01*
X100943247Y-99071702D01*
X100991517Y-99025387D01*
X101024776Y-99007389D01*
X101202440Y-98869106D01*
X101354922Y-98703468D01*
X101478060Y-98514991D01*
X101568496Y-98308816D01*
X101623764Y-98090568D01*
X101642356Y-97866200D01*
X101623764Y-97641832D01*
X101568496Y-97423584D01*
X101478060Y-97217409D01*
X101354922Y-97028932D01*
X101202440Y-96863294D01*
X101202439Y-96863293D01*
X101202437Y-96863291D01*
X101024778Y-96725012D01*
X100991517Y-96707012D01*
X100943246Y-96660695D01*
X100925488Y-96596197D01*
X100943249Y-96531699D01*
X100991517Y-96485387D01*
X101024776Y-96467389D01*
X101202440Y-96329106D01*
X101354922Y-96163468D01*
X101478060Y-95974991D01*
X101568496Y-95768816D01*
X101623764Y-95550568D01*
X101642356Y-95326200D01*
X101623764Y-95101832D01*
X101568496Y-94883584D01*
X101548352Y-94837659D01*
X117978403Y-94200878D01*
X118030664Y-94210032D01*
X118074527Y-94239894D01*
X118102206Y-94285166D01*
X118139624Y-94392099D01*
X118233560Y-94541598D01*
X118358401Y-94666439D01*
X118507901Y-94760376D01*
X118589477Y-94788921D01*
X118674552Y-94818690D01*
X118850000Y-94838458D01*
X119025448Y-94818690D01*
X119192099Y-94760376D01*
X119341596Y-94666441D01*
X119466441Y-94541596D01*
X119560376Y-94392099D01*
X119618690Y-94225448D01*
X119618690Y-94225447D01*
X119621625Y-94217060D01*
X119647091Y-94174173D01*
X119687202Y-94144528D01*
X119735668Y-94132771D01*
X127570004Y-93829134D01*
X127608000Y-93833470D01*
X127642944Y-93849006D01*
X135839200Y-99110800D01*
X135839201Y-99110799D01*
X135839202Y-99110800D01*
X137483146Y-98602800D01*
X144171296Y-98602800D01*
X144176958Y-98656669D01*
X144191258Y-98792729D01*
X144250272Y-98974356D01*
X144345758Y-99139742D01*
X144442346Y-99247014D01*
X144473547Y-99281666D01*
X144628048Y-99393918D01*
X144802512Y-99471594D01*
X144989313Y-99511300D01*
X145180285Y-99511300D01*
X145180287Y-99511300D01*
X145367088Y-99471594D01*
X145541552Y-99393918D01*
X145696053Y-99281666D01*
X145823840Y-99139744D01*
X145872767Y-99055000D01*
X152622542Y-99055000D01*
X152624424Y-99071702D01*
X152642310Y-99230450D01*
X152700623Y-99397098D01*
X152794560Y-99546598D01*
X152919401Y-99671439D01*
X152919403Y-99671440D01*
X152919404Y-99671441D01*
X153068901Y-99765376D01*
X153235552Y-99823690D01*
X153411000Y-99843458D01*
X153586448Y-99823690D01*
X153753099Y-99765376D01*
X153902596Y-99671441D01*
X154027441Y-99546596D01*
X154121376Y-99397099D01*
X154179690Y-99230448D01*
X154199458Y-99055000D01*
X154179690Y-98879552D01*
X154168312Y-98847036D01*
X154162034Y-98791319D01*
X154180554Y-98738389D01*
X154220206Y-98698738D01*
X154258228Y-98685433D01*
X155985996Y-98685433D01*
X156005958Y-98875362D01*
X156064972Y-99056989D01*
X156160458Y-99222375D01*
X156198850Y-99265014D01*
X156288247Y-99364299D01*
X156442748Y-99476551D01*
X156545860Y-99522459D01*
X156596268Y-99563123D01*
X156619818Y-99623457D01*
X156631310Y-99725450D01*
X156689623Y-99892098D01*
X156783560Y-100041598D01*
X156908401Y-100166439D01*
X156908403Y-100166440D01*
X156908404Y-100166441D01*
X157057901Y-100260376D01*
X157224552Y-100318690D01*
X157400000Y-100338458D01*
X157575448Y-100318690D01*
X157742099Y-100260376D01*
X157891596Y-100166441D01*
X158016441Y-100041596D01*
X158110376Y-99892099D01*
X158168690Y-99725448D01*
X158188458Y-99550000D01*
X158168690Y-99374552D01*
X158122167Y-99241599D01*
X158110376Y-99207901D01*
X158105411Y-99200000D01*
X162161542Y-99200000D01*
X162181310Y-99375450D01*
X162239623Y-99542098D01*
X162333560Y-99691598D01*
X162458401Y-99816439D01*
X162458403Y-99816440D01*
X162458404Y-99816441D01*
X162607901Y-99910376D01*
X162774552Y-99968690D01*
X162950000Y-99988458D01*
X163125448Y-99968690D01*
X163292099Y-99910376D01*
X163441596Y-99816441D01*
X163566441Y-99691596D01*
X163660376Y-99542099D01*
X163718690Y-99375448D01*
X163738458Y-99200000D01*
X163718690Y-99024552D01*
X163660376Y-98857901D01*
X163566441Y-98708404D01*
X163566440Y-98708403D01*
X163566439Y-98708401D01*
X163441598Y-98583560D01*
X163292098Y-98489623D01*
X163125450Y-98431310D01*
X162950000Y-98411542D01*
X162774549Y-98431310D01*
X162607901Y-98489623D01*
X162458401Y-98583560D01*
X162333560Y-98708401D01*
X162239623Y-98857901D01*
X162181310Y-99024549D01*
X162161542Y-99200000D01*
X158105411Y-99200000D01*
X158066742Y-99138458D01*
X158016441Y-99058404D01*
X158016440Y-99058403D01*
X158016439Y-99058401D01*
X157891599Y-98933561D01*
X157859889Y-98913636D01*
X157813609Y-98862042D01*
X157801616Y-98793778D01*
X157813004Y-98685433D01*
X157793042Y-98495505D01*
X157759280Y-98391596D01*
X157734027Y-98313876D01*
X157638541Y-98148490D01*
X157520635Y-98017542D01*
X157510753Y-98006567D01*
X157356252Y-97894315D01*
X157181788Y-97816639D01*
X156994987Y-97776933D01*
X156804013Y-97776933D01*
X156679479Y-97803403D01*
X156617211Y-97816639D01*
X156442746Y-97894316D01*
X156288247Y-98006566D01*
X156160458Y-98148490D01*
X156064972Y-98313876D01*
X156005958Y-98495503D01*
X155985996Y-98685433D01*
X154258228Y-98685433D01*
X154273131Y-98680218D01*
X154375448Y-98668690D01*
X154542099Y-98610376D01*
X154691596Y-98516441D01*
X154816441Y-98391596D01*
X154910376Y-98242099D01*
X154968690Y-98075448D01*
X154988458Y-97900000D01*
X154968690Y-97724552D01*
X154964557Y-97712742D01*
X154910376Y-97557901D01*
X154816439Y-97408401D01*
X154691598Y-97283560D01*
X154542098Y-97189623D01*
X154375450Y-97131310D01*
X154200000Y-97111542D01*
X154024549Y-97131310D01*
X153857901Y-97189623D01*
X153708401Y-97283560D01*
X153583560Y-97408401D01*
X153489623Y-97557901D01*
X153431310Y-97724549D01*
X153411542Y-97899999D01*
X153431310Y-98075450D01*
X153442686Y-98107959D01*
X153448965Y-98163681D01*
X153430444Y-98216610D01*
X153390793Y-98256261D01*
X153337865Y-98274782D01*
X153235549Y-98286310D01*
X153068901Y-98344623D01*
X152919401Y-98438560D01*
X152794560Y-98563401D01*
X152700623Y-98712901D01*
X152642310Y-98879549D01*
X152623224Y-99048944D01*
X152622542Y-99055000D01*
X145872767Y-99055000D01*
X145919327Y-98974356D01*
X145978342Y-98792728D01*
X145998304Y-98602800D01*
X145978342Y-98412872D01*
X145934499Y-98277937D01*
X145919327Y-98231243D01*
X145823841Y-98065857D01*
X145696052Y-97923933D01*
X145605856Y-97858402D01*
X145541552Y-97811682D01*
X145367088Y-97734006D01*
X145180287Y-97694300D01*
X144989313Y-97694300D01*
X144902551Y-97712742D01*
X144802511Y-97734006D01*
X144628046Y-97811683D01*
X144473547Y-97923933D01*
X144345758Y-98065857D01*
X144250272Y-98231243D01*
X144191258Y-98412870D01*
X144175437Y-98563401D01*
X144171296Y-98602800D01*
X137483146Y-98602800D01*
X144393588Y-96467384D01*
X147675600Y-95453200D01*
X147749177Y-95050000D01*
X155611542Y-95050000D01*
X155631310Y-95225450D01*
X155689623Y-95392098D01*
X155783560Y-95541598D01*
X155908401Y-95666439D01*
X155908403Y-95666440D01*
X155908404Y-95666441D01*
X156057901Y-95760376D01*
X156224552Y-95818690D01*
X156400000Y-95838458D01*
X156575448Y-95818690D01*
X156742099Y-95760376D01*
X156891596Y-95666441D01*
X157016441Y-95541596D01*
X157110376Y-95392099D01*
X157168690Y-95225448D01*
X157188458Y-95050000D01*
X157185573Y-95024398D01*
X157197259Y-94955624D01*
X157243745Y-94903606D01*
X157310781Y-94884293D01*
X157377814Y-94903605D01*
X157442701Y-94944376D01*
X157609352Y-95002690D01*
X157784800Y-95022458D01*
X157960248Y-95002690D01*
X158126899Y-94944376D01*
X158276396Y-94850441D01*
X158401241Y-94725596D01*
X158495176Y-94576099D01*
X158520583Y-94503489D01*
X158554504Y-94452102D01*
X158608725Y-94422924D01*
X158670299Y-94422924D01*
X158724520Y-94452102D01*
X158758440Y-94503488D01*
X158796531Y-94612343D01*
X158801624Y-94626899D01*
X158895560Y-94776398D01*
X159020401Y-94901239D01*
X159020403Y-94901240D01*
X159020404Y-94901241D01*
X159169901Y-94995176D01*
X159336552Y-95053490D01*
X159512000Y-95073258D01*
X159687448Y-95053490D01*
X159854099Y-94995176D01*
X160003596Y-94901241D01*
X160030288Y-94874549D01*
X160083305Y-94821533D01*
X160139789Y-94788921D01*
X160205011Y-94788921D01*
X160261495Y-94821533D01*
X160290401Y-94850439D01*
X160290403Y-94850440D01*
X160290404Y-94850441D01*
X160439901Y-94944376D01*
X160606552Y-95002690D01*
X160782000Y-95022458D01*
X160957448Y-95002690D01*
X161124099Y-94944376D01*
X161273596Y-94850441D01*
X161398441Y-94725596D01*
X161468598Y-94613942D01*
X161479560Y-94596496D01*
X161520617Y-94555974D01*
X161575430Y-94537997D01*
X161632510Y-94546333D01*
X161799734Y-94612343D01*
X161844873Y-94642814D01*
X161872935Y-94689489D01*
X161878679Y-94743647D01*
X161873142Y-94792797D01*
X161873142Y-94792800D01*
X161879636Y-94850439D01*
X161892910Y-94968250D01*
X161951223Y-95134898D01*
X162045160Y-95284398D01*
X162170001Y-95409239D01*
X162170003Y-95409240D01*
X162170004Y-95409241D01*
X162291429Y-95485537D01*
X162319501Y-95503176D01*
X162429298Y-95541596D01*
X162486152Y-95561490D01*
X162661600Y-95581258D01*
X162837048Y-95561490D01*
X163003699Y-95503176D01*
X163153196Y-95409241D01*
X163278041Y-95284396D01*
X163278042Y-95284393D01*
X163283042Y-95279394D01*
X163323271Y-95252351D01*
X163370732Y-95242497D01*
X163418396Y-95251288D01*
X164011829Y-95485537D01*
X164057251Y-95516310D01*
X164085290Y-95563470D01*
X164090628Y-95618076D01*
X164072253Y-95669770D01*
X164015258Y-95760479D01*
X164015257Y-95760480D01*
X164015256Y-95760483D01*
X163956944Y-95927127D01*
X163937176Y-96102578D01*
X163956944Y-96278028D01*
X164015257Y-96444676D01*
X164109194Y-96594176D01*
X164234035Y-96719017D01*
X164234037Y-96719018D01*
X164234038Y-96719019D01*
X164383535Y-96812954D01*
X164550186Y-96871268D01*
X164725634Y-96891036D01*
X164901082Y-96871268D01*
X165067733Y-96812954D01*
X165217230Y-96719019D01*
X165342075Y-96594174D01*
X165436010Y-96444677D01*
X165494324Y-96278026D01*
X165498263Y-96243063D01*
X165517447Y-96189091D01*
X165558546Y-96149188D01*
X165613064Y-96131603D01*
X165669730Y-96139972D01*
X165915680Y-96237058D01*
X165970795Y-96279435D01*
X165995045Y-96344593D01*
X166083647Y-97496427D01*
X166075932Y-97550503D01*
X166046056Y-97596231D01*
X165999635Y-97625020D01*
X165957899Y-97639624D01*
X165808402Y-97733559D01*
X165683559Y-97858402D01*
X165600153Y-97991143D01*
X165560502Y-98030794D01*
X165507573Y-98049315D01*
X165451851Y-98043036D01*
X165275450Y-97981310D01*
X165100000Y-97961542D01*
X164924549Y-97981310D01*
X164757901Y-98039623D01*
X164608401Y-98133560D01*
X164483560Y-98258401D01*
X164389623Y-98407901D01*
X164331310Y-98574549D01*
X164318817Y-98685432D01*
X164311542Y-98750000D01*
X164316356Y-98792728D01*
X164331310Y-98925450D01*
X164389623Y-99092098D01*
X164483560Y-99241598D01*
X164608401Y-99366439D01*
X164608403Y-99366440D01*
X164608404Y-99366441D01*
X164757901Y-99460376D01*
X164924552Y-99518690D01*
X165100000Y-99538458D01*
X165275448Y-99518690D01*
X165442099Y-99460376D01*
X165591596Y-99366441D01*
X165716441Y-99241596D01*
X165799848Y-99108853D01*
X165839497Y-99069205D01*
X165892425Y-99050684D01*
X165948149Y-99056963D01*
X165957898Y-99060374D01*
X165957901Y-99060376D01*
X166124552Y-99118690D01*
X166300000Y-99138458D01*
X166475448Y-99118690D01*
X166642099Y-99060376D01*
X166660294Y-99048942D01*
X166727327Y-99029629D01*
X166794365Y-99048941D01*
X166886825Y-99107038D01*
X166891501Y-99109976D01*
X166966444Y-99136200D01*
X167058152Y-99168290D01*
X167233600Y-99188058D01*
X167409048Y-99168290D01*
X167553800Y-99117639D01*
X167589100Y-99105287D01*
X167589712Y-99107038D01*
X167633691Y-99093471D01*
X167697280Y-99107984D01*
X167745093Y-99152347D01*
X167836359Y-99297597D01*
X167895465Y-99356703D01*
X167925299Y-99404182D01*
X167931578Y-99459903D01*
X167913059Y-99512831D01*
X167873410Y-99552483D01*
X167859602Y-99561159D01*
X167734760Y-99686001D01*
X167640823Y-99835501D01*
X167582510Y-100002149D01*
X167562742Y-100177600D01*
X167582510Y-100353050D01*
X167640823Y-100519698D01*
X167734760Y-100669198D01*
X167859601Y-100794039D01*
X167859603Y-100794040D01*
X167859604Y-100794041D01*
X168009101Y-100887976D01*
X168175752Y-100946290D01*
X168351200Y-100966058D01*
X168526648Y-100946290D01*
X168690944Y-100888800D01*
X171575942Y-100888800D01*
X171595710Y-101064250D01*
X171654023Y-101230898D01*
X171747960Y-101380398D01*
X171872801Y-101505239D01*
X171872803Y-101505240D01*
X171872804Y-101505241D01*
X172022301Y-101599176D01*
X172188952Y-101657490D01*
X172364400Y-101677258D01*
X172539848Y-101657490D01*
X172706499Y-101599176D01*
X172855996Y-101505241D01*
X172980841Y-101380396D01*
X173074776Y-101230899D01*
X173133090Y-101064248D01*
X173152858Y-100888800D01*
X173135687Y-100736399D01*
X173455542Y-100736399D01*
X173475310Y-100911850D01*
X173533623Y-101078498D01*
X173627560Y-101227998D01*
X173752401Y-101352839D01*
X173752403Y-101352840D01*
X173752404Y-101352841D01*
X173901901Y-101446776D01*
X174068552Y-101505090D01*
X174244000Y-101524858D01*
X174419448Y-101505090D01*
X174586099Y-101446776D01*
X174735596Y-101352841D01*
X174860441Y-101227996D01*
X174954376Y-101078499D01*
X175012690Y-100911848D01*
X175032458Y-100736400D01*
X175012690Y-100560952D01*
X174954376Y-100394301D01*
X174860441Y-100244804D01*
X174860440Y-100244803D01*
X174860439Y-100244801D01*
X174735598Y-100119960D01*
X174586098Y-100026023D01*
X174419450Y-99967710D01*
X174244000Y-99947942D01*
X174068549Y-99967710D01*
X173901901Y-100026023D01*
X173752401Y-100119960D01*
X173627560Y-100244801D01*
X173533623Y-100394301D01*
X173475310Y-100560949D01*
X173455542Y-100736399D01*
X173135687Y-100736399D01*
X173133090Y-100713352D01*
X173104122Y-100630568D01*
X173074776Y-100546701D01*
X173057809Y-100519698D01*
X173041241Y-100493331D01*
X173022721Y-100440404D01*
X173029000Y-100384680D01*
X173058833Y-100337203D01*
X173082441Y-100313596D01*
X173176376Y-100164099D01*
X173234690Y-99997448D01*
X173254458Y-99822000D01*
X173234690Y-99646552D01*
X173176376Y-99479901D01*
X173082441Y-99330404D01*
X173082440Y-99330403D01*
X173082439Y-99330401D01*
X172957598Y-99205560D01*
X172808098Y-99111623D01*
X172641450Y-99053310D01*
X172466000Y-99033542D01*
X172290549Y-99053310D01*
X172123901Y-99111623D01*
X171974401Y-99205560D01*
X171849560Y-99330401D01*
X171755623Y-99479901D01*
X171697310Y-99646549D01*
X171678168Y-99816441D01*
X171677542Y-99822000D01*
X171679063Y-99835501D01*
X171697310Y-99997450D01*
X171755623Y-100164098D01*
X171789157Y-100217466D01*
X171807678Y-100270394D01*
X171801400Y-100326116D01*
X171771567Y-100373596D01*
X171747958Y-100397204D01*
X171654023Y-100546701D01*
X171595710Y-100713349D01*
X171575942Y-100888800D01*
X168690944Y-100888800D01*
X168693299Y-100887976D01*
X168842796Y-100794041D01*
X168967641Y-100669196D01*
X169061576Y-100519699D01*
X169119890Y-100353048D01*
X169139658Y-100177600D01*
X169119890Y-100002152D01*
X169061576Y-99835501D01*
X168967641Y-99686004D01*
X168967640Y-99686003D01*
X168967639Y-99686001D01*
X168908534Y-99626896D01*
X168878700Y-99579416D01*
X168872421Y-99523693D01*
X168890942Y-99470764D01*
X168930593Y-99431113D01*
X168944396Y-99422441D01*
X169069241Y-99297596D01*
X169114738Y-99225186D01*
X169162547Y-99180826D01*
X169226134Y-99166312D01*
X169288458Y-99185535D01*
X169329901Y-99211576D01*
X169496552Y-99269890D01*
X169672000Y-99289658D01*
X169847448Y-99269890D01*
X170014099Y-99211576D01*
X170163596Y-99117641D01*
X170288441Y-98992796D01*
X170382376Y-98843299D01*
X170440690Y-98676648D01*
X170460458Y-98501200D01*
X170440690Y-98325752D01*
X170382376Y-98159101D01*
X170288441Y-98009604D01*
X170288440Y-98009603D01*
X170288439Y-98009601D01*
X170163598Y-97884760D01*
X170014098Y-97790823D01*
X169847450Y-97732510D01*
X169672000Y-97712742D01*
X169496549Y-97732510D01*
X169329901Y-97790823D01*
X169180401Y-97884760D01*
X169055559Y-98009602D01*
X169010062Y-98082011D01*
X168962251Y-98126373D01*
X168898664Y-98140887D01*
X168836340Y-98121663D01*
X168829226Y-98117193D01*
X168794899Y-98095624D01*
X168794898Y-98095623D01*
X168794897Y-98095623D01*
X168628250Y-98037310D01*
X168452800Y-98017542D01*
X168277349Y-98037310D01*
X168097301Y-98100313D01*
X168096688Y-98098562D01*
X168052696Y-98112128D01*
X167989114Y-98097612D01*
X167941307Y-98053252D01*
X167850040Y-97908002D01*
X167725198Y-97783160D01*
X167597531Y-97702942D01*
X167550668Y-97650135D01*
X167539568Y-97580416D01*
X167699745Y-96316800D01*
X169391542Y-96316800D01*
X169411310Y-96492250D01*
X169469623Y-96658898D01*
X169563560Y-96808398D01*
X169688401Y-96933239D01*
X169688403Y-96933240D01*
X169688404Y-96933241D01*
X169837901Y-97027176D01*
X170004552Y-97085490D01*
X170180000Y-97105258D01*
X170355448Y-97085490D01*
X170522099Y-97027176D01*
X170671596Y-96933241D01*
X170796441Y-96808396D01*
X170890376Y-96658899D01*
X170948690Y-96492248D01*
X170968458Y-96316800D01*
X170948690Y-96141352D01*
X170890376Y-95974701D01*
X170796441Y-95825204D01*
X170796440Y-95825203D01*
X170796439Y-95825201D01*
X170671598Y-95700360D01*
X170522098Y-95606423D01*
X170355450Y-95548110D01*
X170180000Y-95528342D01*
X170004549Y-95548110D01*
X169837901Y-95606423D01*
X169688401Y-95700360D01*
X169563560Y-95825201D01*
X169469623Y-95974701D01*
X169411310Y-96141349D01*
X169391542Y-96316800D01*
X167699745Y-96316800D01*
X167810395Y-95443890D01*
X167829411Y-95391595D01*
X167869101Y-95352589D01*
X167921722Y-95334483D01*
X167977007Y-95340809D01*
X168099552Y-95383690D01*
X168275000Y-95403458D01*
X168284390Y-95402400D01*
X171880742Y-95402400D01*
X171900510Y-95577850D01*
X171958823Y-95744498D01*
X172052760Y-95893998D01*
X172177601Y-96018839D01*
X172327101Y-96112776D01*
X172408757Y-96141349D01*
X172493752Y-96171090D01*
X172669200Y-96190858D01*
X172844648Y-96171090D01*
X173011299Y-96112776D01*
X173160796Y-96018841D01*
X173285641Y-95893996D01*
X173379576Y-95744499D01*
X173437890Y-95577848D01*
X173457658Y-95402400D01*
X173437890Y-95226952D01*
X173379576Y-95060301D01*
X173285641Y-94910804D01*
X173285640Y-94910803D01*
X173285639Y-94910801D01*
X173160798Y-94785960D01*
X173011298Y-94692023D01*
X172844650Y-94633710D01*
X172727682Y-94620531D01*
X172669200Y-94613942D01*
X172669199Y-94613942D01*
X172493749Y-94633710D01*
X172327101Y-94692023D01*
X172177601Y-94785960D01*
X172052760Y-94910801D01*
X171958823Y-95060301D01*
X171900510Y-95226949D01*
X171880742Y-95402400D01*
X168284390Y-95402400D01*
X168450448Y-95383690D01*
X168617099Y-95325376D01*
X168766596Y-95231441D01*
X168891441Y-95106596D01*
X168985376Y-94957099D01*
X169043690Y-94790448D01*
X169063458Y-94615000D01*
X169043690Y-94439552D01*
X168985376Y-94272901D01*
X168958019Y-94229363D01*
X168938796Y-94167043D01*
X168953309Y-94103455D01*
X168997672Y-94055644D01*
X169006655Y-94050000D01*
X169137635Y-93967700D01*
X169159617Y-93953888D01*
X169161209Y-93956422D01*
X169185492Y-93941137D01*
X169241240Y-93934823D01*
X169294202Y-93953334D01*
X169333875Y-93992999D01*
X169398516Y-94095875D01*
X169411161Y-94115999D01*
X169536001Y-94240839D01*
X169536003Y-94240840D01*
X169536004Y-94240841D01*
X169685501Y-94334776D01*
X169852152Y-94393090D01*
X170027600Y-94412858D01*
X170203048Y-94393090D01*
X170369699Y-94334776D01*
X170519196Y-94240841D01*
X170644041Y-94115996D01*
X170737976Y-93966499D01*
X170796290Y-93799848D01*
X170816058Y-93624400D01*
X170796290Y-93448952D01*
X170737976Y-93282301D01*
X170644041Y-93132804D01*
X170644040Y-93132803D01*
X170644039Y-93132801D01*
X170519198Y-93007960D01*
X170369698Y-92914023D01*
X170203050Y-92855710D01*
X170027600Y-92835942D01*
X169852149Y-92855710D01*
X169685501Y-92914023D01*
X169523983Y-93015512D01*
X169522393Y-93012982D01*
X169497942Y-93028319D01*
X169442244Y-93034562D01*
X169389349Y-93016033D01*
X169349723Y-92976397D01*
X169272440Y-92853402D01*
X169147598Y-92728560D01*
X168998098Y-92634623D01*
X168831450Y-92576310D01*
X168656000Y-92556542D01*
X168480549Y-92576310D01*
X168351883Y-92621333D01*
X168288731Y-92626550D01*
X168231026Y-92600367D01*
X168193363Y-92549407D01*
X168185268Y-92486559D01*
X168243579Y-92026549D01*
X168446257Y-90427644D01*
X168469260Y-90369514D01*
X168517376Y-90329594D01*
X168578758Y-90317717D01*
X168638291Y-90336805D01*
X168694901Y-90372376D01*
X168861552Y-90430690D01*
X169037000Y-90450458D01*
X169212448Y-90430690D01*
X169379099Y-90372376D01*
X169528596Y-90278441D01*
X169653441Y-90153596D01*
X169747376Y-90004099D01*
X169805690Y-89837448D01*
X169825458Y-89662000D01*
X169805690Y-89486552D01*
X169747376Y-89319901D01*
X169653441Y-89170404D01*
X169653440Y-89170403D01*
X169653439Y-89170401D01*
X169528598Y-89045560D01*
X169379098Y-88951623D01*
X169212450Y-88893310D01*
X169037000Y-88873542D01*
X168861552Y-88893310D01*
X168822725Y-88906896D01*
X168759570Y-88912111D01*
X168701862Y-88885923D01*
X168679250Y-88855322D01*
X168649976Y-88820532D01*
X167740674Y-88778975D01*
X167704816Y-88772037D01*
X167688449Y-88766310D01*
X167629965Y-88759720D01*
X167513000Y-88746542D01*
X167512999Y-88746542D01*
X167383803Y-88761098D01*
X167363944Y-88761759D01*
X167030769Y-88746532D01*
X166965633Y-88724830D01*
X166921545Y-88672201D01*
X166911593Y-88604270D01*
X166938733Y-88541206D01*
X166994903Y-88501736D01*
X167093099Y-88467376D01*
X167242596Y-88373441D01*
X167367441Y-88248596D01*
X167461376Y-88099099D01*
X167519690Y-87932448D01*
X167539458Y-87757000D01*
X167531005Y-87681980D01*
X170318816Y-87681980D01*
X170337445Y-87918692D01*
X170392876Y-88149575D01*
X170483742Y-88368947D01*
X170607804Y-88571396D01*
X170762011Y-88751950D01*
X170942565Y-88906157D01*
X171145014Y-89030219D01*
X171145016Y-89030219D01*
X171145018Y-89030221D01*
X171364387Y-89121086D01*
X171539838Y-89163208D01*
X171595269Y-89176516D01*
X171612539Y-89177875D01*
X171831981Y-89195146D01*
X172068692Y-89176516D01*
X172299575Y-89121086D01*
X172518944Y-89030221D01*
X172721397Y-88906157D01*
X172901950Y-88751950D01*
X173056157Y-88571397D01*
X173180221Y-88368944D01*
X173271086Y-88149575D01*
X173326516Y-87918692D01*
X173345146Y-87681981D01*
X173326516Y-87445270D01*
X173271086Y-87214387D01*
X173180221Y-86995018D01*
X173176110Y-86988310D01*
X173056157Y-86792565D01*
X172901950Y-86612011D01*
X172721396Y-86457804D01*
X172518947Y-86333742D01*
X172299575Y-86242876D01*
X172068692Y-86187445D01*
X171831981Y-86168816D01*
X171595269Y-86187445D01*
X171364386Y-86242876D01*
X171145014Y-86333742D01*
X170942565Y-86457804D01*
X170762011Y-86612011D01*
X170607804Y-86792565D01*
X170483742Y-86995014D01*
X170397847Y-87202384D01*
X170392088Y-87209961D01*
X170392216Y-87217133D01*
X170337446Y-87445269D01*
X170318816Y-87681980D01*
X167531005Y-87681980D01*
X167519690Y-87581552D01*
X167461376Y-87414901D01*
X167367441Y-87265404D01*
X167367440Y-87265403D01*
X167367439Y-87265401D01*
X167242598Y-87140560D01*
X167093098Y-87046623D01*
X166926450Y-86988310D01*
X166751000Y-86968542D01*
X166575549Y-86988310D01*
X166408901Y-87046623D01*
X166259401Y-87140560D01*
X166134560Y-87265401D01*
X166040623Y-87414901D01*
X165982310Y-87581549D01*
X165962542Y-87757000D01*
X165982310Y-87932450D01*
X166040623Y-88099098D01*
X166134560Y-88248598D01*
X166259401Y-88373439D01*
X166259403Y-88373440D01*
X166259404Y-88373441D01*
X166408901Y-88467376D01*
X166421309Y-88471718D01*
X166478917Y-88512989D01*
X166505137Y-88578827D01*
X166491675Y-88648405D01*
X166442788Y-88699711D01*
X166373941Y-88716515D01*
X163761231Y-88597113D01*
X163705718Y-88581346D01*
X163663056Y-88542484D01*
X163642195Y-88488678D01*
X163647511Y-88431215D01*
X163677888Y-88382148D01*
X163686593Y-88373442D01*
X163686596Y-88373441D01*
X163811441Y-88248596D01*
X163905376Y-88099099D01*
X163963690Y-87932448D01*
X163983458Y-87757000D01*
X163963690Y-87581552D01*
X163905376Y-87414901D01*
X163811441Y-87265404D01*
X163811440Y-87265403D01*
X163811439Y-87265401D01*
X163686598Y-87140560D01*
X163537098Y-87046623D01*
X163370450Y-86988310D01*
X163195000Y-86968542D01*
X163019549Y-86988310D01*
X162852901Y-87046623D01*
X162703401Y-87140560D01*
X162578560Y-87265401D01*
X162484623Y-87414901D01*
X162426310Y-87581549D01*
X162406542Y-87757000D01*
X162426310Y-87932450D01*
X162484623Y-88099098D01*
X162578560Y-88248598D01*
X162657327Y-88327365D01*
X162688416Y-88378620D01*
X162692300Y-88438441D01*
X162668101Y-88493286D01*
X162621296Y-88530741D01*
X162562480Y-88542329D01*
X162122776Y-88522234D01*
X162052000Y-88519000D01*
X162051999Y-88519000D01*
X161656170Y-89558052D01*
X161620438Y-89608852D01*
X161564778Y-89636410D01*
X161502716Y-89634031D01*
X161449330Y-89602292D01*
X161400598Y-89553560D01*
X161251098Y-89459623D01*
X161084450Y-89401310D01*
X160909000Y-89381542D01*
X160733549Y-89401310D01*
X160566901Y-89459623D01*
X160417401Y-89553560D01*
X160292560Y-89678401D01*
X160198623Y-89827901D01*
X160140310Y-89994549D01*
X160120542Y-90170000D01*
X160140310Y-90345450D01*
X160198623Y-90512098D01*
X160292560Y-90661598D01*
X160417401Y-90786439D01*
X160417403Y-90786440D01*
X160417404Y-90786441D01*
X160566901Y-90880376D01*
X160733552Y-90938690D01*
X160909000Y-90958458D01*
X160926809Y-90956451D01*
X160989928Y-90965583D01*
X161040491Y-91004455D01*
X161065542Y-91063107D01*
X161058661Y-91126513D01*
X161036000Y-91186000D01*
X161040425Y-91296641D01*
X161031028Y-91349669D01*
X161000347Y-91393930D01*
X160953988Y-91421337D01*
X160900419Y-91426884D01*
X160782000Y-91413542D01*
X160606549Y-91433310D01*
X160439901Y-91491623D01*
X160290401Y-91585560D01*
X160165560Y-91710401D01*
X160071623Y-91859901D01*
X160013310Y-92026549D01*
X159993542Y-92201999D01*
X160013310Y-92377450D01*
X160071623Y-92544098D01*
X160165560Y-92693598D01*
X160290401Y-92818439D01*
X160290403Y-92818440D01*
X160290404Y-92818441D01*
X160439901Y-92912376D01*
X160606552Y-92970690D01*
X160782000Y-92990458D01*
X160957448Y-92970690D01*
X160957449Y-92970689D01*
X160971557Y-92969100D01*
X160971924Y-92972357D01*
X161002529Y-92969172D01*
X161057034Y-92989892D01*
X161096373Y-93032933D01*
X161112122Y-93089076D01*
X161122174Y-93340369D01*
X161109903Y-93399854D01*
X161071228Y-93446687D01*
X161015137Y-93469985D01*
X160971666Y-93465923D01*
X160971556Y-93466900D01*
X160957449Y-93465310D01*
X160957448Y-93465310D01*
X160782000Y-93445542D01*
X160606549Y-93465310D01*
X160439901Y-93523623D01*
X160290401Y-93617560D01*
X160210695Y-93697267D01*
X160154211Y-93729879D01*
X160088989Y-93729879D01*
X160032505Y-93697267D01*
X160003598Y-93668360D01*
X159854098Y-93574423D01*
X159687450Y-93516110D01*
X159512000Y-93496342D01*
X159336549Y-93516110D01*
X159169901Y-93574423D01*
X159020401Y-93668360D01*
X158895560Y-93793201D01*
X158801625Y-93942699D01*
X158801624Y-93942701D01*
X158796823Y-93956422D01*
X158776216Y-94015311D01*
X158742294Y-94066698D01*
X158688073Y-94095875D01*
X158626499Y-94095875D01*
X158572278Y-94066697D01*
X158538359Y-94015310D01*
X158495176Y-93891901D01*
X158401241Y-93742404D01*
X158401240Y-93742403D01*
X158401239Y-93742401D01*
X158276398Y-93617560D01*
X158126898Y-93523623D01*
X157960250Y-93465310D01*
X157784800Y-93445542D01*
X157609349Y-93465310D01*
X157442701Y-93523623D01*
X157293201Y-93617560D01*
X157168360Y-93742401D01*
X157074423Y-93891901D01*
X157016110Y-94058549D01*
X156996342Y-94234000D01*
X156999226Y-94259601D01*
X156987539Y-94328377D01*
X156941053Y-94380394D01*
X156874017Y-94399706D01*
X156806983Y-94380393D01*
X156773679Y-94359467D01*
X156742098Y-94339623D01*
X156575450Y-94281310D01*
X156400000Y-94261542D01*
X156224549Y-94281310D01*
X156057901Y-94339623D01*
X155908401Y-94433560D01*
X155783560Y-94558401D01*
X155689623Y-94707901D01*
X155631310Y-94874549D01*
X155611542Y-95050000D01*
X147749177Y-95050000D01*
X148909561Y-88691090D01*
X148927939Y-88644936D01*
X148962730Y-88609473D01*
X149008520Y-88590215D01*
X162547207Y-85850716D01*
X162571532Y-85848216D01*
X167882304Y-85820941D01*
X167948785Y-85839507D01*
X167963033Y-85848238D01*
X167963035Y-85848238D01*
X167963037Y-85848240D01*
X168182406Y-85939105D01*
X168357857Y-85981227D01*
X168413288Y-85994535D01*
X168431917Y-85996001D01*
X168650000Y-86013165D01*
X168886711Y-85994535D01*
X168886712Y-85994534D01*
X168889135Y-85994344D01*
X168954199Y-86006680D01*
X169004021Y-86050307D01*
X169024838Y-86113173D01*
X169010900Y-86177913D01*
X168966057Y-86226643D01*
X168926402Y-86251559D01*
X168801560Y-86376401D01*
X168707623Y-86525901D01*
X168649310Y-86692549D01*
X168629542Y-86867999D01*
X168649310Y-87043450D01*
X168707623Y-87210098D01*
X168801560Y-87359598D01*
X168926401Y-87484439D01*
X168926403Y-87484440D01*
X168926404Y-87484441D01*
X169075901Y-87578376D01*
X169242552Y-87636690D01*
X169418000Y-87656458D01*
X169593448Y-87636690D01*
X169760099Y-87578376D01*
X169909596Y-87484441D01*
X170034441Y-87359596D01*
X170128376Y-87210099D01*
X170150770Y-87146100D01*
X170161060Y-87130730D01*
X170162508Y-87112553D01*
X170186690Y-87043448D01*
X170206458Y-86868000D01*
X170186690Y-86692552D01*
X170128376Y-86525901D01*
X170034441Y-86376404D01*
X170034440Y-86376403D01*
X170034439Y-86376401D01*
X169909598Y-86251560D01*
X169760098Y-86157623D01*
X169593450Y-86099310D01*
X169530913Y-86092264D01*
X169418000Y-86079542D01*
X169417998Y-86079542D01*
X169403893Y-86077953D01*
X169404006Y-86076946D01*
X169352860Y-86068786D01*
X169301333Y-86025473D01*
X169279458Y-85961813D01*
X169293478Y-85895976D01*
X169339391Y-85846752D01*
X169351214Y-85839507D01*
X169364180Y-85831560D01*
X169429365Y-85812996D01*
X186563000Y-85725000D01*
X179195580Y-92841257D01*
G37*
G04 #@! TD.AperFunction*
G04 #@! TA.AperFunction,Conductor*
G36*
X98954736Y-95022458D02*
G01*
X98934636Y-95101832D01*
X98916044Y-95326200D01*
X98934636Y-95550568D01*
X98934636Y-95550571D01*
X98934637Y-95550572D01*
X98989902Y-95768811D01*
X99080339Y-95974990D01*
X99113305Y-96025448D01*
X99203478Y-96163468D01*
X99344631Y-96316800D01*
X99355962Y-96329108D01*
X99375857Y-96344593D01*
X99533624Y-96467389D01*
X99566882Y-96485387D01*
X99615151Y-96531700D01*
X99632911Y-96596197D01*
X99615153Y-96660694D01*
X99566883Y-96707011D01*
X99533623Y-96725010D01*
X99355962Y-96863291D01*
X99203478Y-97028931D01*
X99080339Y-97217409D01*
X98989902Y-97423588D01*
X98938893Y-97625020D01*
X98934636Y-97641832D01*
X98916044Y-97866200D01*
X98934636Y-98090568D01*
X98934636Y-98090571D01*
X98934637Y-98090572D01*
X98989902Y-98308811D01*
X98989903Y-98308814D01*
X98989904Y-98308816D01*
X98997333Y-98325752D01*
X99080339Y-98514990D01*
X99191695Y-98685433D01*
X99203478Y-98703468D01*
X99335648Y-98847042D01*
X99355962Y-98869108D01*
X99533618Y-99007385D01*
X99533620Y-99007386D01*
X99533624Y-99007389D01*
X99566882Y-99025387D01*
X99615152Y-99071703D01*
X99632911Y-99136200D01*
X99615152Y-99200697D01*
X99566882Y-99247012D01*
X99541994Y-99260481D01*
X99533618Y-99265014D01*
X99355962Y-99403291D01*
X99203478Y-99568931D01*
X99080339Y-99757409D01*
X98989902Y-99963588D01*
X98934637Y-100181827D01*
X98934636Y-100181832D01*
X98916044Y-100406200D01*
X98934636Y-100630568D01*
X98934636Y-100630571D01*
X98934637Y-100630572D01*
X98989902Y-100848811D01*
X98989903Y-100848814D01*
X98989904Y-100848816D01*
X99013056Y-100901598D01*
X99080339Y-101054990D01*
X99203478Y-101243468D01*
X99355962Y-101409108D01*
X99404358Y-101446776D01*
X99533624Y-101547389D01*
X99566882Y-101565387D01*
X99615151Y-101611700D01*
X99632911Y-101676197D01*
X99615153Y-101740694D01*
X99566883Y-101787011D01*
X99533623Y-101805010D01*
X99355962Y-101943291D01*
X99203478Y-102108931D01*
X99080339Y-102297409D01*
X98989902Y-102503588D01*
X98934637Y-102721827D01*
X98934636Y-102721832D01*
X98916044Y-102946200D01*
X98934636Y-103170568D01*
X98934636Y-103170571D01*
X98934637Y-103170572D01*
X98989902Y-103388811D01*
X98989903Y-103388814D01*
X98989904Y-103388816D01*
X99013056Y-103441598D01*
X99080339Y-103594990D01*
X99203478Y-103783468D01*
X99355962Y-103949108D01*
X99431377Y-104007806D01*
X99533624Y-104087389D01*
X99566882Y-104105387D01*
X99615151Y-104151700D01*
X99632911Y-104216197D01*
X99615153Y-104280694D01*
X99566883Y-104327011D01*
X99533623Y-104345010D01*
X99355962Y-104483291D01*
X99203478Y-104648931D01*
X99080339Y-104837409D01*
X98989902Y-105043588D01*
X98938099Y-105248156D01*
X98934636Y-105261832D01*
X98916044Y-105486200D01*
X98934636Y-105710568D01*
X98934636Y-105710571D01*
X98934637Y-105710572D01*
X98989902Y-105928811D01*
X99080339Y-106134990D01*
X99128366Y-106208500D01*
X99203478Y-106323468D01*
X99244942Y-106368510D01*
X99355962Y-106489108D01*
X99533618Y-106627385D01*
X99533620Y-106627386D01*
X99533624Y-106627389D01*
X99566882Y-106645387D01*
X99615152Y-106691703D01*
X99632911Y-106756200D01*
X99615152Y-106820697D01*
X99566882Y-106867012D01*
X99549612Y-106876359D01*
X99533618Y-106885014D01*
X99355962Y-107023291D01*
X99311303Y-107071802D01*
X96859565Y-107088134D01*
X96858812Y-95019414D01*
X98976289Y-94937346D01*
X98954736Y-95022458D01*
G37*
G04 #@! TD.AperFunction*
G04 #@! TA.AperFunction,Conductor*
G36*
X146743061Y-123361553D02*
G01*
X146790080Y-123410509D01*
X146804877Y-123476754D01*
X146711559Y-125237023D01*
X146711560Y-125237023D01*
X146566602Y-127971412D01*
X142550953Y-128015500D01*
X139192099Y-128015500D01*
X128802474Y-128015500D01*
X128801520Y-128015315D01*
X128777993Y-128015459D01*
X128777730Y-128015569D01*
X128777616Y-128015616D01*
X128777520Y-128015852D01*
X128777458Y-128016000D01*
X128777464Y-128039506D01*
X128777664Y-128040503D01*
X128777669Y-128041258D01*
X128761296Y-128104209D01*
X128715709Y-128150606D01*
X128653055Y-128168084D01*
X128035456Y-128174865D01*
X127983668Y-128164352D01*
X127940746Y-128133525D01*
X127914240Y-128087808D01*
X127892027Y-128019444D01*
X127796541Y-127854057D01*
X127668752Y-127712133D01*
X127571008Y-127641118D01*
X127514252Y-127599882D01*
X127339788Y-127522206D01*
X127152987Y-127482500D01*
X126962013Y-127482500D01*
X126837479Y-127508970D01*
X126775211Y-127522206D01*
X126600746Y-127599883D01*
X126446247Y-127712133D01*
X126318458Y-127854057D01*
X126222973Y-128019443D01*
X126193766Y-128109330D01*
X126167877Y-128154361D01*
X126126023Y-128185122D01*
X126075316Y-128196385D01*
X123899222Y-128220277D01*
X123831853Y-128201625D01*
X123784794Y-128149934D01*
X123772529Y-128081116D01*
X123780004Y-128010000D01*
X123760042Y-127820072D01*
X123701896Y-127641118D01*
X123701027Y-127638443D01*
X123605541Y-127473057D01*
X123477752Y-127331133D01*
X123323253Y-127218883D01*
X123323252Y-127218882D01*
X123148788Y-127141206D01*
X122961987Y-127101500D01*
X122771013Y-127101500D01*
X122646478Y-127127970D01*
X122584211Y-127141206D01*
X122409746Y-127218883D01*
X122255247Y-127331133D01*
X122127458Y-127473057D01*
X122031972Y-127638443D01*
X121972958Y-127820070D01*
X121952996Y-128010000D01*
X121962847Y-128103737D01*
X121950986Y-128171727D01*
X121905087Y-128223269D01*
X121838920Y-128242898D01*
X118101955Y-128283926D01*
X118039253Y-128268007D01*
X117992715Y-128223072D01*
X117974608Y-128160966D01*
X117974552Y-128158647D01*
X117943052Y-126850000D01*
X128436496Y-126850000D01*
X128456458Y-127039929D01*
X128515472Y-127221556D01*
X128610958Y-127386942D01*
X128688496Y-127473057D01*
X128738747Y-127528866D01*
X128893248Y-127641118D01*
X129067712Y-127718794D01*
X129254513Y-127758500D01*
X129445485Y-127758500D01*
X129445487Y-127758500D01*
X129632288Y-127718794D01*
X129806752Y-127641118D01*
X129961253Y-127528866D01*
X130089040Y-127386944D01*
X130184527Y-127221556D01*
X130243542Y-127039928D01*
X130263504Y-126850000D01*
X130243542Y-126660072D01*
X130184527Y-126478444D01*
X130184527Y-126478443D01*
X130089041Y-126313057D01*
X129961252Y-126171133D01*
X129806753Y-126058883D01*
X129806752Y-126058882D01*
X129699155Y-126010977D01*
X136025519Y-126010977D01*
X136045481Y-126200906D01*
X136104495Y-126382533D01*
X136199981Y-126547919D01*
X136199983Y-126547921D01*
X136327770Y-126689843D01*
X136482271Y-126802095D01*
X136656735Y-126879771D01*
X136843536Y-126919477D01*
X137034508Y-126919477D01*
X137034510Y-126919477D01*
X137221311Y-126879771D01*
X137395775Y-126802095D01*
X137550276Y-126689843D01*
X137678063Y-126547921D01*
X137773550Y-126382533D01*
X137832565Y-126200905D01*
X137852527Y-126010977D01*
X137832565Y-125821049D01*
X137773550Y-125639421D01*
X137773550Y-125639420D01*
X137678064Y-125474034D01*
X137550275Y-125332110D01*
X137395776Y-125219860D01*
X137395775Y-125219859D01*
X137221311Y-125142183D01*
X137034510Y-125102477D01*
X136843536Y-125102477D01*
X136719002Y-125128947D01*
X136656734Y-125142183D01*
X136482269Y-125219860D01*
X136327770Y-125332110D01*
X136199981Y-125474034D01*
X136104495Y-125639420D01*
X136045481Y-125821047D01*
X136025519Y-126010977D01*
X129699155Y-126010977D01*
X129632288Y-125981206D01*
X129445487Y-125941500D01*
X129254513Y-125941500D01*
X129129978Y-125967970D01*
X129067711Y-125981206D01*
X128893246Y-126058883D01*
X128738747Y-126171133D01*
X128610958Y-126313057D01*
X128515472Y-126478443D01*
X128456458Y-126660070D01*
X128436496Y-126850000D01*
X117943052Y-126850000D01*
X117870466Y-123834494D01*
X117886058Y-123770685D01*
X117931647Y-123723393D01*
X117973216Y-123711605D01*
X117979027Y-123705672D01*
X141942610Y-123403750D01*
X142008987Y-123421676D01*
X142056073Y-123471786D01*
X142069840Y-123539154D01*
X142060709Y-123660999D01*
X142079845Y-123916354D01*
X142136826Y-124166002D01*
X142230378Y-124404369D01*
X142358413Y-124626131D01*
X142518065Y-124826330D01*
X142705784Y-125000508D01*
X142855346Y-125102477D01*
X142917355Y-125144754D01*
X143036960Y-125202352D01*
X143148064Y-125255858D01*
X143202635Y-125272690D01*
X143392757Y-125331335D01*
X143645966Y-125369500D01*
X143902032Y-125369500D01*
X143902034Y-125369500D01*
X144155243Y-125331335D01*
X144399935Y-125255858D01*
X144630646Y-125144754D01*
X144842219Y-125000505D01*
X145029931Y-124826334D01*
X145189587Y-124626131D01*
X145317622Y-124404369D01*
X145411174Y-124166001D01*
X145468155Y-123916353D01*
X145487291Y-123661000D01*
X145474707Y-123493087D01*
X145487991Y-123426664D01*
X145533753Y-123376716D01*
X145598765Y-123357685D01*
X146677470Y-123344094D01*
X146743061Y-123361553D01*
G37*
G04 #@! TD.AperFunction*
G04 #@! TA.AperFunction,Conductor*
G36*
X129327563Y-107814923D02*
G01*
X129375320Y-107859639D01*
X130502145Y-109674450D01*
X137560869Y-121042898D01*
X139446000Y-124079000D01*
X117983000Y-124206000D01*
X117949616Y-119999638D01*
X119570500Y-119999638D01*
X119577011Y-120060201D01*
X119586022Y-120084359D01*
X119628111Y-120197205D01*
X119715738Y-120314261D01*
X119832794Y-120401888D01*
X119832795Y-120401888D01*
X119832796Y-120401889D01*
X119969799Y-120452989D01*
X120030362Y-120459500D01*
X121827638Y-120459500D01*
X121888201Y-120452989D01*
X122025204Y-120401889D01*
X122142261Y-120314261D01*
X122229889Y-120197204D01*
X122274195Y-120078414D01*
X122310726Y-120026377D01*
X122368017Y-119998801D01*
X122431479Y-120002711D01*
X122484951Y-120037112D01*
X122546096Y-120103533D01*
X122723697Y-120241766D01*
X122921631Y-120348883D01*
X123134485Y-120421955D01*
X123215000Y-120435391D01*
X123723000Y-120435391D01*
X123803514Y-120421955D01*
X124016368Y-120348883D01*
X124214302Y-120241766D01*
X124391903Y-120103533D01*
X124544323Y-119937960D01*
X124633217Y-119801899D01*
X124678730Y-119760000D01*
X124738700Y-119744814D01*
X124798669Y-119760000D01*
X124844183Y-119801898D01*
X124933278Y-119938268D01*
X125062295Y-120078417D01*
X125085762Y-120103908D01*
X125263421Y-120242187D01*
X125263424Y-120242189D01*
X125461426Y-120349342D01*
X125637039Y-120409630D01*
X125684868Y-120439355D01*
X125714971Y-120486951D01*
X125721332Y-120542908D01*
X125703542Y-120700799D01*
X125723310Y-120876250D01*
X125781623Y-121042898D01*
X125875560Y-121192398D01*
X126000401Y-121317239D01*
X126000403Y-121317240D01*
X126000404Y-121317241D01*
X126149901Y-121411176D01*
X126316552Y-121469490D01*
X126492000Y-121489258D01*
X126667448Y-121469490D01*
X126834099Y-121411176D01*
X126983596Y-121317241D01*
X127108441Y-121192396D01*
X127202376Y-121042899D01*
X127260690Y-120876248D01*
X127280458Y-120700800D01*
X127260690Y-120525352D01*
X127202376Y-120358701D01*
X127108441Y-120209204D01*
X127108440Y-120209203D01*
X127108439Y-120209201D01*
X127051712Y-120152474D01*
X127019561Y-120097663D01*
X127018248Y-120034132D01*
X127048104Y-119978044D01*
X127084722Y-119938268D01*
X127173518Y-119802354D01*
X127219031Y-119760458D01*
X127279000Y-119745272D01*
X127338969Y-119760458D01*
X127384481Y-119802354D01*
X127473278Y-119938268D01*
X127602295Y-120078417D01*
X127625762Y-120103908D01*
X127803421Y-120242187D01*
X127803424Y-120242189D01*
X128001426Y-120349342D01*
X128214365Y-120422444D01*
X128436431Y-120459500D01*
X128661566Y-120459500D01*
X128661569Y-120459500D01*
X128883635Y-120422444D01*
X129096574Y-120349342D01*
X129294576Y-120242189D01*
X129472240Y-120103906D01*
X129624722Y-119938268D01*
X129713518Y-119802354D01*
X129759031Y-119760458D01*
X129819000Y-119745272D01*
X129878969Y-119760458D01*
X129924481Y-119802354D01*
X130013278Y-119938268D01*
X130142295Y-120078417D01*
X130165762Y-120103908D01*
X130343421Y-120242187D01*
X130343424Y-120242189D01*
X130541426Y-120349342D01*
X130754365Y-120422444D01*
X130976431Y-120459500D01*
X131201566Y-120459500D01*
X131201569Y-120459500D01*
X131423635Y-120422444D01*
X131636574Y-120349342D01*
X131834576Y-120242189D01*
X132012240Y-120103906D01*
X132164722Y-119938268D01*
X132253518Y-119802354D01*
X132299031Y-119760458D01*
X132359000Y-119745272D01*
X132418969Y-119760458D01*
X132464481Y-119802354D01*
X132553278Y-119938268D01*
X132682295Y-120078417D01*
X132705762Y-120103908D01*
X132883421Y-120242187D01*
X132883424Y-120242189D01*
X133081426Y-120349342D01*
X133294365Y-120422444D01*
X133516431Y-120459500D01*
X133741566Y-120459500D01*
X133741569Y-120459500D01*
X133963635Y-120422444D01*
X134176574Y-120349342D01*
X134374576Y-120242189D01*
X134552240Y-120103906D01*
X134704722Y-119938268D01*
X134827860Y-119749791D01*
X134918296Y-119543616D01*
X134973564Y-119325368D01*
X134992156Y-119101000D01*
X134973564Y-118876632D01*
X134918296Y-118658384D01*
X134827860Y-118452209D01*
X134704722Y-118263732D01*
X134552240Y-118098094D01*
X134552239Y-118098093D01*
X134552237Y-118098091D01*
X134374578Y-117959812D01*
X134176573Y-117852657D01*
X133965056Y-117780044D01*
X133963635Y-117779556D01*
X133741569Y-117742500D01*
X133516431Y-117742500D01*
X133294365Y-117779556D01*
X133294362Y-117779556D01*
X133294362Y-117779557D01*
X133081426Y-117852657D01*
X132883421Y-117959812D01*
X132705762Y-118098091D01*
X132553278Y-118263731D01*
X132464483Y-118399643D01*
X132418969Y-118441541D01*
X132359000Y-118456727D01*
X132299031Y-118441541D01*
X132253517Y-118399643D01*
X132164721Y-118263731D01*
X132108226Y-118202362D01*
X132012240Y-118098094D01*
X132012239Y-118098093D01*
X132012237Y-118098091D01*
X131834578Y-117959812D01*
X131636573Y-117852657D01*
X131425056Y-117780044D01*
X131423635Y-117779556D01*
X131201569Y-117742500D01*
X130976431Y-117742500D01*
X130754365Y-117779556D01*
X130754362Y-117779556D01*
X130754362Y-117779557D01*
X130541426Y-117852657D01*
X130343421Y-117959812D01*
X130165762Y-118098091D01*
X130013278Y-118263731D01*
X129924483Y-118399643D01*
X129878969Y-118441541D01*
X129819000Y-118456727D01*
X129759031Y-118441541D01*
X129713517Y-118399643D01*
X129624721Y-118263731D01*
X129568226Y-118202362D01*
X129472240Y-118098094D01*
X129472239Y-118098093D01*
X129472237Y-118098091D01*
X129294578Y-117959812D01*
X129096573Y-117852657D01*
X128885056Y-117780044D01*
X128883635Y-117779556D01*
X128661569Y-117742500D01*
X128436431Y-117742500D01*
X128214365Y-117779556D01*
X128214362Y-117779556D01*
X128214362Y-117779557D01*
X128001426Y-117852657D01*
X127803421Y-117959812D01*
X127625762Y-118098091D01*
X127473278Y-118263731D01*
X127384483Y-118399643D01*
X127338969Y-118441541D01*
X127279000Y-118456727D01*
X127219031Y-118441541D01*
X127173517Y-118399643D01*
X127084721Y-118263731D01*
X127028226Y-118202362D01*
X126932240Y-118098094D01*
X126932239Y-118098093D01*
X126932237Y-118098091D01*
X126754578Y-117959812D01*
X126556573Y-117852657D01*
X126345056Y-117780044D01*
X126343635Y-117779556D01*
X126121569Y-117742500D01*
X125896431Y-117742500D01*
X125674365Y-117779556D01*
X125674362Y-117779556D01*
X125674362Y-117779557D01*
X125461426Y-117852657D01*
X125263421Y-117959812D01*
X125085762Y-118098091D01*
X124933275Y-118263735D01*
X124844182Y-118400101D01*
X124798669Y-118441999D01*
X124738700Y-118457185D01*
X124678731Y-118441999D01*
X124633217Y-118400101D01*
X124544321Y-118264037D01*
X124391903Y-118098466D01*
X124214302Y-117960233D01*
X124016368Y-117853116D01*
X123803514Y-117780044D01*
X123723000Y-117766609D01*
X123723000Y-120435391D01*
X123215000Y-120435391D01*
X123215000Y-117766609D01*
X123134485Y-117780044D01*
X122921631Y-117853116D01*
X122723697Y-117960233D01*
X122546099Y-118098463D01*
X122484951Y-118164888D01*
X122431478Y-118199288D01*
X122368017Y-118203198D01*
X122310726Y-118175622D01*
X122274194Y-118123582D01*
X122264687Y-118098094D01*
X122229889Y-118004796D01*
X122229888Y-118004794D01*
X122142261Y-117887738D01*
X122025205Y-117800111D01*
X121956702Y-117774561D01*
X121888201Y-117749011D01*
X121827638Y-117742500D01*
X120030362Y-117742500D01*
X119969799Y-117749011D01*
X119832794Y-117800111D01*
X119715738Y-117887738D01*
X119628111Y-118004794D01*
X119583806Y-118123582D01*
X119577011Y-118141799D01*
X119570500Y-118202362D01*
X119570500Y-119999638D01*
X117949616Y-119999638D01*
X117882952Y-111599999D01*
X124461542Y-111599999D01*
X124481310Y-111775450D01*
X124539623Y-111942098D01*
X124633560Y-112091598D01*
X124758399Y-112216437D01*
X124758401Y-112216438D01*
X124758404Y-112216441D01*
X124819373Y-112254750D01*
X124859022Y-112294399D01*
X124877543Y-112347328D01*
X124871265Y-112403050D01*
X124841431Y-112450531D01*
X124783558Y-112508404D01*
X124689623Y-112657901D01*
X124631310Y-112824549D01*
X124611542Y-113000000D01*
X124631310Y-113175450D01*
X124689623Y-113342098D01*
X124783560Y-113491598D01*
X124908401Y-113616439D01*
X124908403Y-113616440D01*
X124908404Y-113616441D01*
X125057901Y-113710376D01*
X125224552Y-113768690D01*
X125400000Y-113788458D01*
X125575448Y-113768690D01*
X125742099Y-113710376D01*
X125891596Y-113616441D01*
X126016441Y-113491596D01*
X126110376Y-113342099D01*
X126168690Y-113175448D01*
X126188458Y-113000000D01*
X126168690Y-112824552D01*
X126110376Y-112657901D01*
X126016441Y-112508404D01*
X126016440Y-112508403D01*
X126016439Y-112508401D01*
X125891597Y-112383559D01*
X125830628Y-112345250D01*
X125790977Y-112305599D01*
X125772456Y-112252670D01*
X125778735Y-112196947D01*
X125808567Y-112149469D01*
X125866441Y-112091596D01*
X125960376Y-111942099D01*
X126018690Y-111775448D01*
X126038458Y-111600000D01*
X126018690Y-111424552D01*
X125960376Y-111257901D01*
X125866441Y-111108404D01*
X125866440Y-111108403D01*
X125866439Y-111108401D01*
X125741598Y-110983560D01*
X125592098Y-110889623D01*
X125425450Y-110831310D01*
X125308482Y-110818131D01*
X125250000Y-110811542D01*
X125249999Y-110811542D01*
X125074549Y-110831310D01*
X124907901Y-110889623D01*
X124758401Y-110983560D01*
X124633560Y-111108401D01*
X124539623Y-111257901D01*
X124481310Y-111424549D01*
X124461542Y-111599999D01*
X117882952Y-111599999D01*
X117866277Y-109498999D01*
X128268542Y-109498999D01*
X128288310Y-109674450D01*
X128346623Y-109841098D01*
X128440560Y-109990598D01*
X128565401Y-110115439D01*
X128565403Y-110115440D01*
X128565404Y-110115441D01*
X128714901Y-110209376D01*
X128881552Y-110267690D01*
X129057000Y-110287458D01*
X129232448Y-110267690D01*
X129399099Y-110209376D01*
X129548596Y-110115441D01*
X129673441Y-109990596D01*
X129767376Y-109841099D01*
X129825690Y-109674448D01*
X129845458Y-109499000D01*
X129825690Y-109323552D01*
X129767376Y-109156901D01*
X129673441Y-109007404D01*
X129673440Y-109007403D01*
X129673439Y-109007401D01*
X129548598Y-108882560D01*
X129399098Y-108788623D01*
X129232450Y-108730310D01*
X129115482Y-108717131D01*
X129057000Y-108710542D01*
X129056999Y-108710542D01*
X128881549Y-108730310D01*
X128714901Y-108788623D01*
X128565401Y-108882560D01*
X128440560Y-109007401D01*
X128346623Y-109156901D01*
X128288310Y-109323549D01*
X128268542Y-109498999D01*
X117866277Y-109498999D01*
X117856972Y-108326580D01*
X117872788Y-108264457D01*
X117917127Y-108218155D01*
X117978509Y-108199663D01*
X129263821Y-107800183D01*
X129327563Y-107814923D01*
G37*
G04 #@! TD.AperFunction*
G04 #@! TA.AperFunction,Conductor*
G36*
X128736429Y-58526896D02*
G01*
X128774484Y-58571620D01*
X128788136Y-58628735D01*
X128778053Y-76246973D01*
X128762107Y-76308254D01*
X128718365Y-76354040D01*
X128657876Y-76372766D01*
X124237222Y-76577280D01*
X124183721Y-76568046D01*
X124139073Y-76537158D01*
X124111566Y-76490351D01*
X124088527Y-76419443D01*
X123993041Y-76254057D01*
X123865252Y-76112133D01*
X123710753Y-75999883D01*
X123710752Y-75999882D01*
X123536288Y-75922206D01*
X123349487Y-75882500D01*
X123158513Y-75882500D01*
X123033979Y-75908970D01*
X122971711Y-75922206D01*
X122797246Y-75999883D01*
X122642747Y-76112133D01*
X122514958Y-76254057D01*
X122419473Y-76419442D01*
X122366600Y-76582168D01*
X122341691Y-76626089D01*
X122301538Y-76656704D01*
X122252590Y-76669096D01*
X115726459Y-76971016D01*
X115726459Y-76971017D01*
X115726458Y-76971017D01*
X115100000Y-77000000D01*
X115017603Y-72600000D01*
X121736619Y-72600000D01*
X121756091Y-72797701D01*
X121817361Y-72999679D01*
X121815476Y-73000250D01*
X121826783Y-73053959D01*
X121802015Y-73119915D01*
X121799112Y-73123792D01*
X121748011Y-73260800D01*
X121741500Y-73321362D01*
X121741500Y-74418638D01*
X121748011Y-74479200D01*
X121799111Y-74616205D01*
X121886738Y-74733261D01*
X122003794Y-74820888D01*
X122003795Y-74820888D01*
X122003796Y-74820889D01*
X122140799Y-74871989D01*
X122201362Y-74878500D01*
X123798638Y-74878500D01*
X123859201Y-74871989D01*
X123996204Y-74820889D01*
X124113261Y-74733261D01*
X124200889Y-74616204D01*
X124251989Y-74479201D01*
X124258500Y-74418638D01*
X124258500Y-74250999D01*
X125896496Y-74250999D01*
X125916458Y-74440929D01*
X125975472Y-74622556D01*
X126070958Y-74787942D01*
X126070960Y-74787944D01*
X126198747Y-74929866D01*
X126353248Y-75042118D01*
X126527712Y-75119794D01*
X126714513Y-75159500D01*
X126905485Y-75159500D01*
X126905487Y-75159500D01*
X127092288Y-75119794D01*
X127266752Y-75042118D01*
X127421253Y-74929866D01*
X127549040Y-74787944D01*
X127644527Y-74622556D01*
X127703542Y-74440928D01*
X127723504Y-74251000D01*
X127703542Y-74061072D01*
X127644527Y-73879444D01*
X127644527Y-73879443D01*
X127549041Y-73714057D01*
X127421252Y-73572133D01*
X127266753Y-73459883D01*
X127266752Y-73459882D01*
X127092288Y-73382206D01*
X126905487Y-73342500D01*
X126714513Y-73342500D01*
X126589979Y-73368970D01*
X126527711Y-73382206D01*
X126353246Y-73459883D01*
X126198747Y-73572133D01*
X126070958Y-73714057D01*
X125975472Y-73879443D01*
X125916458Y-74061070D01*
X125896496Y-74250999D01*
X124258500Y-74250999D01*
X124258500Y-73321362D01*
X124251989Y-73260799D01*
X124200889Y-73123796D01*
X124197984Y-73119915D01*
X124173216Y-73053952D01*
X124184525Y-73000252D01*
X124182638Y-72999680D01*
X124186239Y-72987806D01*
X124186241Y-72987804D01*
X124243908Y-72797701D01*
X124263380Y-72600000D01*
X124243908Y-72402299D01*
X124186241Y-72212196D01*
X124092595Y-72036996D01*
X124086745Y-72026051D01*
X124089163Y-72024758D01*
X124073802Y-71993623D01*
X124073802Y-71936377D01*
X124089163Y-71905241D01*
X124086745Y-71903949D01*
X124102587Y-71874309D01*
X124186241Y-71717804D01*
X124243908Y-71527701D01*
X124263380Y-71330000D01*
X124243908Y-71132299D01*
X124186241Y-70942196D01*
X124092595Y-70766996D01*
X124092593Y-70766992D01*
X123966568Y-70613431D01*
X123813007Y-70487406D01*
X123637802Y-70393758D01*
X123447701Y-70336091D01*
X123299550Y-70321500D01*
X123299547Y-70321500D01*
X122700453Y-70321500D01*
X122700450Y-70321500D01*
X122552298Y-70336091D01*
X122362197Y-70393758D01*
X122186992Y-70487406D01*
X122033431Y-70613431D01*
X121907406Y-70766992D01*
X121813758Y-70942197D01*
X121756091Y-71132298D01*
X121736619Y-71329999D01*
X121756091Y-71527701D01*
X121813758Y-71717802D01*
X121913255Y-71903948D01*
X121910839Y-71905238D01*
X121926201Y-71936389D01*
X121926201Y-71993611D01*
X121910839Y-72024761D01*
X121913255Y-72026052D01*
X121907405Y-72036995D01*
X121907405Y-72036996D01*
X121871829Y-72103552D01*
X121813758Y-72212197D01*
X121756091Y-72402298D01*
X121736619Y-72600000D01*
X115017603Y-72600000D01*
X114938717Y-68387499D01*
X114976193Y-68387499D01*
X114995385Y-68606875D01*
X115052379Y-68819574D01*
X115145443Y-69019153D01*
X115271753Y-69199541D01*
X115427458Y-69355246D01*
X115427461Y-69355248D01*
X115427462Y-69355249D01*
X115607846Y-69481556D01*
X115807424Y-69574620D01*
X115901207Y-69599749D01*
X116020124Y-69631614D01*
X116020125Y-69631614D01*
X116020129Y-69631615D01*
X116239500Y-69650807D01*
X116458871Y-69631615D01*
X116671576Y-69574620D01*
X116871154Y-69481556D01*
X117051538Y-69355249D01*
X117207249Y-69199538D01*
X117291786Y-69078806D01*
X117339766Y-69037829D01*
X117401595Y-69025250D01*
X117461770Y-69044223D01*
X117505202Y-69089991D01*
X117521000Y-69151077D01*
X117521000Y-69336138D01*
X117527511Y-69396700D01*
X117578611Y-69533705D01*
X117666238Y-69650761D01*
X117783294Y-69738388D01*
X117783295Y-69738388D01*
X117783296Y-69738389D01*
X117920299Y-69789489D01*
X117980862Y-69796000D01*
X119578138Y-69796000D01*
X119638701Y-69789489D01*
X119775704Y-69738389D01*
X119892761Y-69650761D01*
X119980389Y-69533704D01*
X120031489Y-69396701D01*
X120038000Y-69336138D01*
X120038000Y-68387499D01*
X122342193Y-68387499D01*
X122361385Y-68606875D01*
X122418379Y-68819574D01*
X122511443Y-69019153D01*
X122637753Y-69199541D01*
X122793458Y-69355246D01*
X122793461Y-69355248D01*
X122793462Y-69355249D01*
X122973846Y-69481556D01*
X123173424Y-69574620D01*
X123267207Y-69599749D01*
X123386124Y-69631614D01*
X123386125Y-69631614D01*
X123386129Y-69631615D01*
X123605500Y-69650807D01*
X123824871Y-69631615D01*
X124037576Y-69574620D01*
X124237154Y-69481556D01*
X124417538Y-69355249D01*
X124573249Y-69199538D01*
X124658286Y-69078092D01*
X124706266Y-69037115D01*
X124768095Y-69024536D01*
X124828270Y-69043509D01*
X124871702Y-69089277D01*
X124887500Y-69150363D01*
X124887500Y-69336089D01*
X124894005Y-69396593D01*
X124945054Y-69533462D01*
X125032595Y-69650404D01*
X125149537Y-69737945D01*
X125286406Y-69788994D01*
X125346911Y-69795500D01*
X125891500Y-69795500D01*
X125891500Y-68641500D01*
X126399500Y-68641500D01*
X126399500Y-69795500D01*
X126944089Y-69795500D01*
X127004593Y-69788994D01*
X127141462Y-69737945D01*
X127258404Y-69650404D01*
X127345945Y-69533462D01*
X127396994Y-69396593D01*
X127403500Y-69336089D01*
X127403500Y-68641500D01*
X126399500Y-68641500D01*
X125891500Y-68641500D01*
X125891500Y-66979500D01*
X126399500Y-66979500D01*
X126399500Y-68133500D01*
X127403500Y-68133500D01*
X127403500Y-67438911D01*
X127396994Y-67378406D01*
X127345945Y-67241537D01*
X127258404Y-67124595D01*
X127141462Y-67037054D01*
X127004593Y-66986005D01*
X126944089Y-66979500D01*
X126399500Y-66979500D01*
X125891500Y-66979500D01*
X125346911Y-66979500D01*
X125286406Y-66986005D01*
X125149537Y-67037054D01*
X125032595Y-67124595D01*
X124945054Y-67241537D01*
X124894005Y-67378406D01*
X124887500Y-67438911D01*
X124887500Y-67624638D01*
X124871702Y-67685724D01*
X124828270Y-67731492D01*
X124768094Y-67750465D01*
X124706265Y-67737886D01*
X124658287Y-67696909D01*
X124573246Y-67575458D01*
X124417541Y-67419753D01*
X124237153Y-67293443D01*
X124037574Y-67200379D01*
X123824875Y-67143385D01*
X123605500Y-67124193D01*
X123386124Y-67143385D01*
X123173425Y-67200379D01*
X122973847Y-67293443D01*
X122793458Y-67419753D01*
X122637753Y-67575458D01*
X122511443Y-67755847D01*
X122418379Y-67955425D01*
X122361385Y-68168124D01*
X122342193Y-68387499D01*
X120038000Y-68387499D01*
X120038000Y-67438862D01*
X120031489Y-67378299D01*
X119980389Y-67241296D01*
X119907094Y-67143385D01*
X119892761Y-67124238D01*
X119775705Y-67036611D01*
X119707202Y-67011060D01*
X119638701Y-66985511D01*
X119578138Y-66979000D01*
X117980862Y-66979000D01*
X117920299Y-66985511D01*
X117783294Y-67036611D01*
X117666238Y-67124238D01*
X117578611Y-67241294D01*
X117527511Y-67378299D01*
X117521000Y-67438862D01*
X117521000Y-67623924D01*
X117505202Y-67685010D01*
X117461770Y-67730778D01*
X117401594Y-67749751D01*
X117339765Y-67737172D01*
X117291787Y-67696195D01*
X117207246Y-67575458D01*
X117051541Y-67419753D01*
X116871153Y-67293443D01*
X116671574Y-67200379D01*
X116458875Y-67143385D01*
X116239500Y-67124193D01*
X116020124Y-67143385D01*
X115807425Y-67200379D01*
X115607847Y-67293443D01*
X115427458Y-67419753D01*
X115271753Y-67575458D01*
X115145443Y-67755847D01*
X115052379Y-67955425D01*
X114995385Y-68168124D01*
X114976193Y-68387499D01*
X114938717Y-68387499D01*
X114883465Y-65437073D01*
X114919187Y-65410857D01*
X115559671Y-64944571D01*
X115562069Y-64942871D01*
X116008225Y-64635158D01*
X116669719Y-64182339D01*
X116672325Y-64180605D01*
X117117697Y-63892341D01*
X117801627Y-63452741D01*
X117804163Y-63451158D01*
X118245558Y-63183508D01*
X118954292Y-62756496D01*
X118956920Y-62754960D01*
X119390427Y-62509192D01*
X120126732Y-62094190D01*
X120129559Y-62092647D01*
X120549162Y-61870771D01*
X120549266Y-61870716D01*
X120549295Y-61870771D01*
X120549495Y-61870595D01*
X121318070Y-61466321D01*
X121320920Y-61464870D01*
X121717652Y-61269760D01*
X121718034Y-61269573D01*
X121718058Y-61269622D01*
X121718230Y-61269477D01*
X122527168Y-60873489D01*
X122530130Y-60872089D01*
X122889779Y-60708139D01*
X122890315Y-60707896D01*
X122890495Y-60707855D01*
X122890480Y-60707821D01*
X123753107Y-60316146D01*
X123756141Y-60314820D01*
X124052688Y-60190010D01*
X124053269Y-60189766D01*
X124053282Y-60189798D01*
X124053393Y-60189714D01*
X124994698Y-59794834D01*
X124997881Y-59793551D01*
X125174463Y-59725258D01*
X126249091Y-59310680D01*
X126252466Y-59309434D01*
X127511919Y-58865074D01*
X127515331Y-58863925D01*
X128623682Y-58508675D01*
X128682236Y-58504277D01*
X128736429Y-58526896D01*
G37*
G04 #@! TD.AperFunction*
G04 #@! TA.AperFunction,Conductor*
G36*
X115829642Y-67194425D02*
G01*
X115807425Y-67200379D01*
X115607847Y-67293443D01*
X115427458Y-67419753D01*
X115271753Y-67575458D01*
X115145443Y-67755847D01*
X115052379Y-67955425D01*
X114995385Y-68168124D01*
X114976193Y-68387499D01*
X114995385Y-68606875D01*
X115052379Y-68819574D01*
X115145443Y-69019153D01*
X115271753Y-69199541D01*
X115427458Y-69355246D01*
X115427461Y-69355248D01*
X115427462Y-69355249D01*
X115607846Y-69481556D01*
X115804534Y-69573272D01*
X115726459Y-76971016D01*
X115599052Y-89042830D01*
X115581732Y-89105266D01*
X115535675Y-89150840D01*
X115473059Y-89167500D01*
X115391513Y-89167500D01*
X115266978Y-89193970D01*
X115204711Y-89207206D01*
X115030246Y-89284883D01*
X114875747Y-89397133D01*
X114747958Y-89539057D01*
X114652472Y-89704443D01*
X114593458Y-89886070D01*
X114593457Y-89886072D01*
X114593458Y-89886072D01*
X114573496Y-90076000D01*
X114574489Y-90085444D01*
X114593458Y-90265929D01*
X114652472Y-90447556D01*
X114747958Y-90612942D01*
X114747960Y-90612944D01*
X114875747Y-90754866D01*
X115030248Y-90867118D01*
X115204712Y-90944794D01*
X115391513Y-90984500D01*
X115391515Y-90984500D01*
X115451223Y-90984500D01*
X115514606Y-91001603D01*
X115560783Y-91048269D01*
X115577215Y-91111829D01*
X115543618Y-94295243D01*
X115409905Y-106964567D01*
X115409904Y-106964567D01*
X115319916Y-115491005D01*
X115304175Y-115550671D01*
X115261989Y-115595708D01*
X115203478Y-115615312D01*
X115142675Y-115604782D01*
X115113226Y-115591671D01*
X115113224Y-115591670D01*
X114926423Y-115551964D01*
X114735449Y-115551964D01*
X114610914Y-115578434D01*
X114548647Y-115591670D01*
X114374182Y-115669347D01*
X114219683Y-115781597D01*
X114091894Y-115923521D01*
X113996408Y-116088907D01*
X113937394Y-116270534D01*
X113917432Y-116460464D01*
X113937394Y-116650393D01*
X113996408Y-116832020D01*
X114091894Y-116997406D01*
X114219682Y-117139329D01*
X114219683Y-117139330D01*
X114374184Y-117251582D01*
X114548648Y-117329258D01*
X114735449Y-117368964D01*
X114926421Y-117368964D01*
X114926423Y-117368964D01*
X115113224Y-117329258D01*
X115122085Y-117325312D01*
X115183550Y-117314834D01*
X115242514Y-117335109D01*
X115284537Y-117381175D01*
X115299327Y-117441749D01*
X115132190Y-133277975D01*
X115108916Y-135483194D01*
X115097638Y-135491638D01*
X115010011Y-135608694D01*
X114958911Y-135745699D01*
X114952400Y-135806262D01*
X114952400Y-137703538D01*
X114958911Y-137764100D01*
X115010011Y-137901105D01*
X115082377Y-137997775D01*
X115062033Y-139925377D01*
X115017643Y-139893239D01*
X115017400Y-139893062D01*
X114785367Y-139723710D01*
X114571834Y-139567860D01*
X114569296Y-139565958D01*
X113948240Y-139088254D01*
X113947824Y-139087933D01*
X113505838Y-138745025D01*
X113503389Y-138743076D01*
X112901397Y-138251597D01*
X112900959Y-138251237D01*
X112464319Y-137891468D01*
X112461959Y-137889475D01*
X111878912Y-137384581D01*
X111878453Y-137384182D01*
X111448105Y-137007865D01*
X111445836Y-137005832D01*
X110881222Y-136487493D01*
X110880744Y-136487051D01*
X110458120Y-136095020D01*
X110455942Y-136092951D01*
X109909771Y-135561537D01*
X109909275Y-135561052D01*
X109495195Y-135153701D01*
X109493109Y-135151600D01*
X108965200Y-134607268D01*
X108964689Y-134606738D01*
X108560125Y-134184687D01*
X108558129Y-134182556D01*
X108048538Y-133625661D01*
X108048015Y-133625086D01*
X107653729Y-133188826D01*
X107651824Y-133186669D01*
X107160499Y-132617427D01*
X107159966Y-132616805D01*
X106776794Y-132166987D01*
X106774979Y-132164807D01*
X106302001Y-131583553D01*
X106301460Y-131582884D01*
X105930022Y-131119988D01*
X105928298Y-131117789D01*
X105473757Y-130524860D01*
X105473341Y-130524315D01*
X105114101Y-130048677D01*
X105112526Y-130046543D01*
X104676754Y-129442589D01*
X104676204Y-129441821D01*
X104329847Y-128954123D01*
X104328302Y-128951897D01*
X103911267Y-128337085D01*
X103910964Y-128336634D01*
X103577808Y-127837099D01*
X103576398Y-127834934D01*
X103178410Y-127209913D01*
X103177860Y-127209043D01*
X102858739Y-126698725D01*
X102857371Y-126696484D01*
X102478495Y-126061551D01*
X102477949Y-126060629D01*
X102270020Y-125705343D01*
X102173138Y-125539803D01*
X102171873Y-125537588D01*
X102013702Y-125254146D01*
X101932937Y-125109415D01*
X108101121Y-125109415D01*
X108121931Y-125254146D01*
X108182674Y-125387158D01*
X108220899Y-125434592D01*
X109350333Y-126564026D01*
X109350338Y-126564030D01*
X109350339Y-126564031D01*
X109397768Y-126602252D01*
X109530777Y-126662994D01*
X109675511Y-126683804D01*
X109820245Y-126662994D01*
X109953254Y-126602252D01*
X110000683Y-126564031D01*
X110128687Y-126436026D01*
X110185169Y-126403416D01*
X110250392Y-126403416D01*
X110306876Y-126436027D01*
X110339488Y-126492512D01*
X110339488Y-126557734D01*
X110333514Y-126580028D01*
X110314322Y-126799399D01*
X110333514Y-127018775D01*
X110390508Y-127231474D01*
X110483572Y-127431053D01*
X110609882Y-127611441D01*
X110765587Y-127767146D01*
X110765590Y-127767148D01*
X110765591Y-127767149D01*
X110945975Y-127893456D01*
X111145553Y-127986520D01*
X111239336Y-128011649D01*
X111358253Y-128043514D01*
X111358254Y-128043514D01*
X111358258Y-128043515D01*
X111577629Y-128062707D01*
X111797000Y-128043515D01*
X112009705Y-127986520D01*
X112209283Y-127893456D01*
X112389667Y-127767149D01*
X112545378Y-127611438D01*
X112671685Y-127431054D01*
X112764749Y-127231476D01*
X112821744Y-127018771D01*
X112840936Y-126799400D01*
X112821744Y-126580029D01*
X112817457Y-126564031D01*
X112764749Y-126367325D01*
X112721282Y-126274110D01*
X112671685Y-126167747D01*
X112545378Y-125987362D01*
X112545377Y-125987361D01*
X112545375Y-125987358D01*
X112389670Y-125831653D01*
X112209282Y-125705343D01*
X112009703Y-125612279D01*
X111797004Y-125555285D01*
X111577629Y-125536093D01*
X111358257Y-125555285D01*
X111335963Y-125561259D01*
X111270741Y-125561259D01*
X111214256Y-125528647D01*
X111181645Y-125472163D01*
X111181645Y-125406940D01*
X111214255Y-125350458D01*
X111342259Y-125222455D01*
X111380480Y-125175026D01*
X111441222Y-125042017D01*
X111462032Y-124897283D01*
X111441222Y-124752549D01*
X111380480Y-124619540D01*
X111342259Y-124572111D01*
X111342258Y-124572110D01*
X111342254Y-124572105D01*
X110212820Y-123442671D01*
X110165386Y-123404446D01*
X110032377Y-123343704D01*
X110032375Y-123343703D01*
X110032374Y-123343703D01*
X109887643Y-123322893D01*
X109742911Y-123343703D01*
X109609899Y-123404446D01*
X109562465Y-123442671D01*
X108220899Y-124784237D01*
X108182674Y-124831671D01*
X108121931Y-124964683D01*
X108101121Y-125109415D01*
X101932937Y-125109415D01*
X101812187Y-124893031D01*
X101811670Y-124892094D01*
X101735409Y-124752551D01*
X101521657Y-124361424D01*
X101520473Y-124359204D01*
X101180246Y-123705659D01*
X101179717Y-123704632D01*
X101026926Y-123404446D01*
X100904824Y-123164555D01*
X100903755Y-123162403D01*
X100583034Y-122500103D01*
X100582627Y-122499252D01*
X100323161Y-121950206D01*
X100322139Y-121947985D01*
X100100358Y-121453962D01*
X100021268Y-121277786D01*
X100020777Y-121276677D01*
X99969236Y-121158777D01*
X99886716Y-120970012D01*
X103757027Y-120970012D01*
X104142111Y-121355095D01*
X104189493Y-121393278D01*
X104322373Y-121453962D01*
X104466963Y-121474751D01*
X104611552Y-121453962D01*
X104744432Y-121393278D01*
X104791814Y-121355095D01*
X104920394Y-121226515D01*
X104976878Y-121193904D01*
X105042100Y-121193903D01*
X105098584Y-121226513D01*
X105131196Y-121282997D01*
X105131197Y-121348219D01*
X105124965Y-121371476D01*
X105105773Y-121590851D01*
X105124965Y-121810227D01*
X105181959Y-122022926D01*
X105275023Y-122222505D01*
X105401333Y-122402893D01*
X105557038Y-122558598D01*
X105557041Y-122558600D01*
X105557042Y-122558601D01*
X105737426Y-122684908D01*
X105937004Y-122777972D01*
X106030787Y-122803101D01*
X106149704Y-122834966D01*
X106149705Y-122834966D01*
X106149709Y-122834967D01*
X106369080Y-122854159D01*
X106588451Y-122834967D01*
X106801156Y-122777972D01*
X107000734Y-122684908D01*
X107181118Y-122558601D01*
X107336829Y-122402890D01*
X107463136Y-122222506D01*
X107556200Y-122022928D01*
X107613195Y-121810223D01*
X107632387Y-121590852D01*
X107613195Y-121371481D01*
X107608804Y-121355095D01*
X107574350Y-121226513D01*
X107556200Y-121158776D01*
X107463136Y-120959199D01*
X107336829Y-120778814D01*
X107336828Y-120778813D01*
X107336826Y-120778810D01*
X107181121Y-120623105D01*
X107000733Y-120496795D01*
X106801154Y-120403731D01*
X106588455Y-120346737D01*
X106369080Y-120327545D01*
X106149704Y-120346737D01*
X106126447Y-120352969D01*
X106061225Y-120352968D01*
X106004741Y-120320356D01*
X105972131Y-120263872D01*
X105972132Y-120198650D01*
X106004743Y-120142166D01*
X106133323Y-120013586D01*
X106171506Y-119966204D01*
X106232190Y-119833324D01*
X106252979Y-119688734D01*
X106232190Y-119544145D01*
X106171506Y-119411265D01*
X106133323Y-119363883D01*
X105748240Y-118978799D01*
X104573030Y-120154011D01*
X104573027Y-120154012D01*
X103757027Y-120970012D01*
X99886716Y-120970012D01*
X99777169Y-120719424D01*
X99776268Y-120717312D01*
X99495186Y-120039202D01*
X99494887Y-120038469D01*
X99439483Y-119900867D01*
X102893078Y-119900867D01*
X102913867Y-120045456D01*
X102974551Y-120178336D01*
X103012734Y-120225718D01*
X103397817Y-120610801D01*
X104213819Y-119794801D01*
X104213819Y-119794800D01*
X103503884Y-119084865D01*
X103503883Y-119084865D01*
X103012734Y-119576015D01*
X102974551Y-119623397D01*
X102913867Y-119756277D01*
X102893078Y-119900867D01*
X99439483Y-119900867D01*
X99267314Y-119473269D01*
X99266453Y-119471071D01*
X99005619Y-118786305D01*
X99005154Y-118785066D01*
X98983236Y-118725656D01*
X103863093Y-118725656D01*
X104573028Y-119435591D01*
X104573029Y-119435591D01*
X105389030Y-118619589D01*
X105003946Y-118234506D01*
X104956564Y-118196323D01*
X104823684Y-118135639D01*
X104679095Y-118114850D01*
X104534505Y-118135639D01*
X104401625Y-118196323D01*
X104354243Y-118234506D01*
X103863093Y-118725655D01*
X103863093Y-118725656D01*
X98983236Y-118725656D01*
X98794025Y-118212792D01*
X98793238Y-118210597D01*
X98717040Y-117991664D01*
X98552526Y-117518984D01*
X98552157Y-117517901D01*
X98389163Y-117032714D01*
X108221736Y-117032714D01*
X108236327Y-117180865D01*
X108293994Y-117370966D01*
X108387642Y-117546171D01*
X108513667Y-117699732D01*
X108667228Y-117825757D01*
X108667232Y-117825759D01*
X108842432Y-117919405D01*
X108937483Y-117948238D01*
X109032534Y-117977072D01*
X109230236Y-117996544D01*
X109427937Y-117977072D01*
X109618040Y-117919405D01*
X109793240Y-117825759D01*
X109793239Y-117825759D01*
X109804185Y-117819909D01*
X109805477Y-117822327D01*
X109836613Y-117806966D01*
X109893859Y-117806966D01*
X109924994Y-117822327D01*
X109926287Y-117819909D01*
X109937232Y-117825759D01*
X110112432Y-117919405D01*
X110207483Y-117948238D01*
X110302534Y-117977072D01*
X110500236Y-117996544D01*
X110697937Y-117977072D01*
X110888040Y-117919405D01*
X110888042Y-117919403D01*
X110899916Y-117915802D01*
X110900488Y-117917689D01*
X110954188Y-117906380D01*
X111020153Y-117931149D01*
X111024032Y-117934053D01*
X111161035Y-117985153D01*
X111221598Y-117991664D01*
X112318874Y-117991664D01*
X112379437Y-117985153D01*
X112516440Y-117934053D01*
X112633497Y-117846425D01*
X112721125Y-117729368D01*
X112772225Y-117592365D01*
X112778736Y-117531802D01*
X112778736Y-115934526D01*
X112772225Y-115873963D01*
X112721125Y-115736960D01*
X112721124Y-115736958D01*
X112633497Y-115619902D01*
X112516441Y-115532275D01*
X112447938Y-115506724D01*
X112379437Y-115481175D01*
X112318874Y-115474664D01*
X111221598Y-115474664D01*
X111161035Y-115481175D01*
X111101953Y-115503211D01*
X111024028Y-115532276D01*
X111020151Y-115535179D01*
X110954195Y-115559947D01*
X110900486Y-115548640D01*
X110899915Y-115550525D01*
X110697937Y-115489255D01*
X110500236Y-115469783D01*
X110302534Y-115489255D01*
X110112433Y-115546922D01*
X110044508Y-115583229D01*
X109937232Y-115640569D01*
X109937231Y-115640569D01*
X109926288Y-115646419D01*
X109924997Y-115644003D01*
X109893847Y-115659365D01*
X109836625Y-115659365D01*
X109805474Y-115644003D01*
X109804184Y-115646419D01*
X109793241Y-115640569D01*
X109793240Y-115640569D01*
X109618040Y-115546923D01*
X109618039Y-115546922D01*
X109618038Y-115546922D01*
X109427937Y-115489255D01*
X109230236Y-115469783D01*
X109032534Y-115489255D01*
X108842433Y-115546922D01*
X108667228Y-115640570D01*
X108513667Y-115766595D01*
X108387642Y-115920156D01*
X108293994Y-116095361D01*
X108236327Y-116285462D01*
X108221736Y-116433614D01*
X108221736Y-117032714D01*
X98389163Y-117032714D01*
X98357668Y-116938962D01*
X98357050Y-116937067D01*
X98136662Y-116239277D01*
X98136307Y-116238128D01*
X97958684Y-115653060D01*
X97958092Y-115651046D01*
X97758236Y-114947855D01*
X97757923Y-114946728D01*
X97597381Y-114356108D01*
X97596832Y-114354017D01*
X97417640Y-113646048D01*
X97417300Y-113644669D01*
X97274051Y-113049163D01*
X97273589Y-113047174D01*
X97188164Y-112663163D01*
X110221732Y-112663163D01*
X110241694Y-112853093D01*
X110300708Y-113034720D01*
X110396194Y-113200106D01*
X110427825Y-113235236D01*
X110523983Y-113342030D01*
X110678484Y-113454282D01*
X110852948Y-113531958D01*
X111039749Y-113571664D01*
X111230721Y-113571664D01*
X111230723Y-113571664D01*
X111417524Y-113531958D01*
X111591988Y-113454282D01*
X111632065Y-113425164D01*
X112761732Y-113425164D01*
X112781694Y-113615093D01*
X112840708Y-113796720D01*
X112936194Y-113962106D01*
X112936196Y-113962108D01*
X113063983Y-114104030D01*
X113218484Y-114216282D01*
X113392948Y-114293958D01*
X113579749Y-114333664D01*
X113770721Y-114333664D01*
X113770723Y-114333664D01*
X113957524Y-114293958D01*
X114131988Y-114216282D01*
X114286489Y-114104030D01*
X114414276Y-113962108D01*
X114509763Y-113796720D01*
X114568778Y-113615092D01*
X114588740Y-113425164D01*
X114568778Y-113235236D01*
X114509763Y-113053608D01*
X114509763Y-113053607D01*
X114414277Y-112888221D01*
X114286488Y-112746297D01*
X114172064Y-112663163D01*
X114131988Y-112634046D01*
X113957524Y-112556370D01*
X113770723Y-112516664D01*
X113579749Y-112516664D01*
X113455214Y-112543134D01*
X113392947Y-112556370D01*
X113218482Y-112634047D01*
X113063983Y-112746297D01*
X112936194Y-112888221D01*
X112840708Y-113053607D01*
X112781694Y-113235234D01*
X112761732Y-113425164D01*
X111632065Y-113425164D01*
X111746489Y-113342030D01*
X111874276Y-113200108D01*
X111969763Y-113034720D01*
X112028778Y-112853092D01*
X112048740Y-112663164D01*
X112028778Y-112473236D01*
X111969763Y-112291608D01*
X111969763Y-112291607D01*
X111874277Y-112126221D01*
X111746488Y-111984297D01*
X111591989Y-111872047D01*
X111591988Y-111872046D01*
X111417524Y-111794370D01*
X111230723Y-111754664D01*
X111039749Y-111754664D01*
X110915215Y-111781134D01*
X110852947Y-111794370D01*
X110678482Y-111872047D01*
X110523983Y-111984297D01*
X110396194Y-112126221D01*
X110300708Y-112291607D01*
X110241694Y-112473234D01*
X110221732Y-112663163D01*
X97188164Y-112663163D01*
X97115074Y-112334604D01*
X97114762Y-112333155D01*
X97106049Y-112291607D01*
X96988946Y-111733221D01*
X96988582Y-111731412D01*
X96850879Y-111014938D01*
X96850626Y-111013578D01*
X96815961Y-110820200D01*
X98921200Y-110820200D01*
X98921200Y-111464789D01*
X98927705Y-111525293D01*
X98978754Y-111662162D01*
X99066295Y-111779104D01*
X99183237Y-111866645D01*
X99320106Y-111917694D01*
X99380611Y-111924200D01*
X100025200Y-111924200D01*
X100025200Y-110820200D01*
X100533200Y-110820200D01*
X100533200Y-111924200D01*
X101177789Y-111924200D01*
X101238293Y-111917694D01*
X101375162Y-111866645D01*
X101492104Y-111779104D01*
X101579645Y-111662162D01*
X101630694Y-111525293D01*
X101637200Y-111464789D01*
X101637200Y-110820200D01*
X100533200Y-110820200D01*
X100025200Y-110820200D01*
X98921200Y-110820200D01*
X96815961Y-110820200D01*
X96742375Y-110409703D01*
X96742062Y-110407872D01*
X96625250Y-109688026D01*
X96625043Y-109686694D01*
X96534493Y-109079482D01*
X96534256Y-109077798D01*
X96438412Y-108355162D01*
X96438228Y-108353708D01*
X96399173Y-108026200D01*
X98916044Y-108026200D01*
X98934636Y-108250568D01*
X98934636Y-108250571D01*
X98934637Y-108250572D01*
X98989902Y-108468811D01*
X99080339Y-108674990D01*
X99203478Y-108863468D01*
X99347041Y-109019417D01*
X99376278Y-109073021D01*
X99376881Y-109134077D01*
X99348707Y-109188247D01*
X99298373Y-109222811D01*
X99183236Y-109265754D01*
X99066295Y-109353295D01*
X98978754Y-109470237D01*
X98927705Y-109607106D01*
X98921200Y-109667611D01*
X98921200Y-110312200D01*
X101637200Y-110312200D01*
X101637200Y-109667611D01*
X101630694Y-109607106D01*
X101579645Y-109470237D01*
X101492104Y-109353295D01*
X101375162Y-109265754D01*
X101260027Y-109222811D01*
X101209692Y-109188247D01*
X101181518Y-109134077D01*
X101182121Y-109073021D01*
X101211355Y-109019420D01*
X101354922Y-108863468D01*
X101478060Y-108674991D01*
X101568496Y-108468816D01*
X101623764Y-108250568D01*
X101642356Y-108026200D01*
X101623764Y-107801832D01*
X101568496Y-107583584D01*
X101478060Y-107377409D01*
X101354922Y-107188932D01*
X101202440Y-107023294D01*
X101202439Y-107023293D01*
X101202437Y-107023291D01*
X101024779Y-106885013D01*
X101024777Y-106885012D01*
X101024776Y-106885011D01*
X100991517Y-106867012D01*
X100943247Y-106820698D01*
X100925488Y-106756200D01*
X100943247Y-106691702D01*
X100991517Y-106645387D01*
X101024776Y-106627389D01*
X101202440Y-106489106D01*
X101354922Y-106323468D01*
X101478060Y-106134991D01*
X101568496Y-105928816D01*
X101623764Y-105710568D01*
X101642356Y-105486200D01*
X101623764Y-105261832D01*
X101568496Y-105043584D01*
X101478060Y-104837409D01*
X101354922Y-104648932D01*
X101202440Y-104483294D01*
X101202439Y-104483293D01*
X101202437Y-104483291D01*
X101024779Y-104345013D01*
X101024777Y-104345012D01*
X101024776Y-104345011D01*
X100991517Y-104327012D01*
X100943247Y-104280698D01*
X100925488Y-104216200D01*
X100943247Y-104151702D01*
X100991517Y-104105387D01*
X101024776Y-104087389D01*
X101202440Y-103949106D01*
X101354922Y-103783468D01*
X101478060Y-103594991D01*
X101568496Y-103388816D01*
X101623764Y-103170568D01*
X101642356Y-102946200D01*
X101623764Y-102721832D01*
X101568496Y-102503584D01*
X101478060Y-102297409D01*
X101354922Y-102108932D01*
X101202440Y-101943294D01*
X101202439Y-101943293D01*
X101202437Y-101943291D01*
X101024779Y-101805013D01*
X101024777Y-101805012D01*
X101024776Y-101805011D01*
X100991517Y-101787012D01*
X100943247Y-101740698D01*
X100925488Y-101676200D01*
X100943247Y-101611702D01*
X100991517Y-101565387D01*
X101024776Y-101547389D01*
X101202440Y-101409106D01*
X101354922Y-101243468D01*
X101478060Y-101054991D01*
X101568496Y-100848816D01*
X101623764Y-100630568D01*
X101642356Y-100406200D01*
X101623764Y-100181832D01*
X101568496Y-99963584D01*
X101506392Y-99821999D01*
X107862309Y-99821999D01*
X107881445Y-100077354D01*
X107938426Y-100327002D01*
X108031978Y-100565369D01*
X108160013Y-100787131D01*
X108319665Y-100987330D01*
X108319668Y-100987332D01*
X108319669Y-100987334D01*
X108358691Y-101023541D01*
X108507384Y-101161508D01*
X108627598Y-101243468D01*
X108718955Y-101305754D01*
X108785300Y-101337704D01*
X108949664Y-101416858D01*
X109004235Y-101433690D01*
X109194357Y-101492335D01*
X109447566Y-101530500D01*
X109703632Y-101530500D01*
X109703634Y-101530500D01*
X109956843Y-101492335D01*
X110201535Y-101416858D01*
X110432246Y-101305754D01*
X110643819Y-101161505D01*
X110831531Y-100987334D01*
X110991187Y-100787131D01*
X111119222Y-100565369D01*
X111212774Y-100327001D01*
X111269755Y-100077353D01*
X111288891Y-99822000D01*
X111269755Y-99566647D01*
X111212774Y-99316999D01*
X111119222Y-99078631D01*
X110991187Y-98856869D01*
X110951273Y-98806818D01*
X110831534Y-98656669D01*
X110678840Y-98514990D01*
X110643819Y-98482495D01*
X110432246Y-98338246D01*
X110432245Y-98338245D01*
X110432243Y-98338244D01*
X110201535Y-98227141D01*
X110024618Y-98172570D01*
X109956843Y-98151665D01*
X109703634Y-98113500D01*
X109447566Y-98113500D01*
X109194357Y-98151665D01*
X109194353Y-98151666D01*
X109194354Y-98151666D01*
X108949664Y-98227141D01*
X108718954Y-98338246D01*
X108507384Y-98482491D01*
X108319665Y-98656669D01*
X108160013Y-98856868D01*
X108031978Y-99078630D01*
X107938426Y-99316997D01*
X107881445Y-99566645D01*
X107862309Y-99821999D01*
X101506392Y-99821999D01*
X101478060Y-99757409D01*
X101354922Y-99568932D01*
X101202440Y-99403294D01*
X101202439Y-99403293D01*
X101202437Y-99403291D01*
X101024779Y-99265013D01*
X101024777Y-99265012D01*
X101024776Y-99265011D01*
X100991517Y-99247012D01*
X100943247Y-99200698D01*
X100925488Y-99136200D01*
X100943247Y-99071702D01*
X100991517Y-99025387D01*
X101024776Y-99007389D01*
X101202440Y-98869106D01*
X101354922Y-98703468D01*
X101478060Y-98514991D01*
X101568496Y-98308816D01*
X101623764Y-98090568D01*
X101642356Y-97866200D01*
X101623764Y-97641832D01*
X101568496Y-97423584D01*
X101478060Y-97217409D01*
X101354922Y-97028932D01*
X101202440Y-96863294D01*
X101202439Y-96863293D01*
X101202437Y-96863291D01*
X101024778Y-96725012D01*
X100991517Y-96707012D01*
X100943246Y-96660695D01*
X100925488Y-96596197D01*
X100943249Y-96531699D01*
X100991517Y-96485387D01*
X101024776Y-96467389D01*
X101202440Y-96329106D01*
X101354922Y-96163468D01*
X101478060Y-95974991D01*
X101568496Y-95768816D01*
X101623764Y-95550568D01*
X101642356Y-95326200D01*
X101623764Y-95101832D01*
X101568496Y-94883584D01*
X101478060Y-94677409D01*
X101354922Y-94488932D01*
X101202440Y-94323294D01*
X101202439Y-94323293D01*
X101202437Y-94323291D01*
X101024778Y-94185012D01*
X100826773Y-94077857D01*
X100682627Y-94028372D01*
X100613835Y-94004756D01*
X100391769Y-93967700D01*
X100166631Y-93967700D01*
X99944565Y-94004756D01*
X99944562Y-94004756D01*
X99944562Y-94004757D01*
X99731626Y-94077857D01*
X99533621Y-94185012D01*
X99355962Y-94323291D01*
X99203478Y-94488931D01*
X99080339Y-94677409D01*
X98989902Y-94883588D01*
X98974607Y-94943989D01*
X98934636Y-95101832D01*
X98916044Y-95326200D01*
X98934636Y-95550568D01*
X98934636Y-95550571D01*
X98934637Y-95550572D01*
X98989902Y-95768811D01*
X99080339Y-95974990D01*
X99203478Y-96163468D01*
X99355962Y-96329108D01*
X99457811Y-96408381D01*
X99533624Y-96467389D01*
X99566882Y-96485387D01*
X99615151Y-96531700D01*
X99632911Y-96596197D01*
X99615153Y-96660694D01*
X99566883Y-96707011D01*
X99533623Y-96725010D01*
X99355962Y-96863291D01*
X99203478Y-97028931D01*
X99080339Y-97217409D01*
X98989902Y-97423588D01*
X98942984Y-97608865D01*
X98934636Y-97641832D01*
X98916044Y-97866200D01*
X98934636Y-98090568D01*
X98934636Y-98090571D01*
X98934637Y-98090572D01*
X98989902Y-98308811D01*
X99080339Y-98514990D01*
X99203478Y-98703468D01*
X99355962Y-98869108D01*
X99533618Y-99007385D01*
X99533620Y-99007386D01*
X99533624Y-99007389D01*
X99566882Y-99025387D01*
X99615152Y-99071703D01*
X99632911Y-99136200D01*
X99615152Y-99200697D01*
X99566882Y-99247012D01*
X99541994Y-99260481D01*
X99533618Y-99265014D01*
X99355962Y-99403291D01*
X99203478Y-99568931D01*
X99080339Y-99757409D01*
X98989902Y-99963588D01*
X98961093Y-100077354D01*
X98934636Y-100181832D01*
X98916044Y-100406200D01*
X98934636Y-100630568D01*
X98934636Y-100630571D01*
X98934637Y-100630572D01*
X98989902Y-100848811D01*
X99080339Y-101054990D01*
X99203478Y-101243468D01*
X99355962Y-101409108D01*
X99457811Y-101488381D01*
X99533624Y-101547389D01*
X99566882Y-101565387D01*
X99615151Y-101611700D01*
X99632911Y-101676197D01*
X99615153Y-101740694D01*
X99566883Y-101787011D01*
X99533623Y-101805010D01*
X99355962Y-101943291D01*
X99203478Y-102108931D01*
X99080339Y-102297409D01*
X98989902Y-102503588D01*
X98934637Y-102721827D01*
X98934636Y-102721832D01*
X98916044Y-102946200D01*
X98934636Y-103170568D01*
X98934636Y-103170571D01*
X98934637Y-103170572D01*
X98989902Y-103388811D01*
X99080339Y-103594990D01*
X99203478Y-103783468D01*
X99355962Y-103949108D01*
X99441561Y-104015733D01*
X99533624Y-104087389D01*
X99566882Y-104105387D01*
X99615151Y-104151700D01*
X99632911Y-104216197D01*
X99615153Y-104280694D01*
X99566883Y-104327011D01*
X99533623Y-104345010D01*
X99355962Y-104483291D01*
X99203478Y-104648931D01*
X99080339Y-104837409D01*
X98989902Y-105043588D01*
X98934637Y-105261827D01*
X98934636Y-105261832D01*
X98916044Y-105486200D01*
X98934636Y-105710568D01*
X98934636Y-105710571D01*
X98934637Y-105710572D01*
X98989902Y-105928811D01*
X99080339Y-106134990D01*
X99203478Y-106323468D01*
X99355962Y-106489108D01*
X99533618Y-106627385D01*
X99533620Y-106627386D01*
X99533624Y-106627389D01*
X99566882Y-106645387D01*
X99615152Y-106691703D01*
X99632911Y-106756200D01*
X99615152Y-106820697D01*
X99566882Y-106867012D01*
X99541994Y-106880481D01*
X99533618Y-106885014D01*
X99355962Y-107023291D01*
X99203478Y-107188931D01*
X99080339Y-107377409D01*
X98989902Y-107583588D01*
X98949313Y-107743873D01*
X98934636Y-107801832D01*
X98916044Y-108026200D01*
X96399173Y-108026200D01*
X96365506Y-107743873D01*
X96365311Y-107742114D01*
X96290488Y-107017199D01*
X96290358Y-107015844D01*
X96235545Y-106403995D01*
X96235406Y-106402295D01*
X96181649Y-105675614D01*
X96181543Y-105674022D01*
X96144701Y-105060763D01*
X96144619Y-105059189D01*
X96111962Y-104331238D01*
X96111912Y-104329911D01*
X96093070Y-103715552D01*
X96093034Y-103713990D01*
X96081509Y-102985583D01*
X96081496Y-102984065D01*
X96080687Y-102369436D01*
X96080697Y-102367864D01*
X96090304Y-101639486D01*
X96090335Y-101637946D01*
X96107560Y-101023541D01*
X96107613Y-101022039D01*
X96138341Y-100294290D01*
X96138434Y-100292440D01*
X96144787Y-100181827D01*
X96173669Y-99678944D01*
X96173748Y-99677727D01*
X96225592Y-98950898D01*
X96225735Y-98949100D01*
X96278949Y-98336967D01*
X96279052Y-98335870D01*
X96351996Y-97610463D01*
X96352170Y-97608865D01*
X96423295Y-96998780D01*
X96423449Y-96997531D01*
X96517404Y-96274540D01*
X96517648Y-96272774D01*
X96606599Y-95665332D01*
X96606775Y-95664176D01*
X96721712Y-94943904D01*
X96722028Y-94942024D01*
X96828680Y-94337920D01*
X96828923Y-94336592D01*
X96964762Y-93619645D01*
X96965105Y-93617916D01*
X97089407Y-93017335D01*
X97089611Y-93016379D01*
X97246297Y-92303179D01*
X97246717Y-92301346D01*
X97388465Y-91705181D01*
X97388738Y-91704062D01*
X97566139Y-90995336D01*
X97566582Y-90993627D01*
X97710933Y-90457000D01*
X110509496Y-90457000D01*
X110529458Y-90646929D01*
X110588472Y-90828556D01*
X110683958Y-90993942D01*
X110683960Y-90993944D01*
X110811747Y-91135866D01*
X110966248Y-91248118D01*
X111140712Y-91325794D01*
X111327513Y-91365500D01*
X111518485Y-91365500D01*
X111518487Y-91365500D01*
X111705288Y-91325794D01*
X111879752Y-91248118D01*
X112034253Y-91135866D01*
X112162040Y-90993944D01*
X112257527Y-90828556D01*
X112316542Y-90646928D01*
X112336504Y-90457000D01*
X112316542Y-90267072D01*
X112257527Y-90085444D01*
X112257527Y-90085443D01*
X112162041Y-89920057D01*
X112034252Y-89778133D01*
X111932826Y-89704443D01*
X111879752Y-89665882D01*
X111705288Y-89588206D01*
X111518487Y-89548500D01*
X111327513Y-89548500D01*
X111202978Y-89574970D01*
X111140711Y-89588206D01*
X110966246Y-89665883D01*
X110811747Y-89778133D01*
X110683958Y-89920057D01*
X110588472Y-90085443D01*
X110529458Y-90267070D01*
X110509496Y-90457000D01*
X97710933Y-90457000D01*
X97725660Y-90402252D01*
X97725933Y-90401258D01*
X97923952Y-89697494D01*
X97924512Y-89695570D01*
X98100661Y-89109817D01*
X98100941Y-89108904D01*
X98319462Y-88410629D01*
X98320113Y-88408613D01*
X98513131Y-87829001D01*
X98513503Y-87827907D01*
X98752389Y-87135676D01*
X98753088Y-87133711D01*
X98962786Y-86560674D01*
X98963108Y-86559809D01*
X99222286Y-85873969D01*
X99223031Y-85872051D01*
X99431406Y-85350575D01*
X103331293Y-85350575D01*
X103350485Y-85569950D01*
X103407479Y-85782649D01*
X103500543Y-85982228D01*
X103626853Y-86162616D01*
X103782558Y-86318321D01*
X103782561Y-86318323D01*
X103782562Y-86318324D01*
X103962946Y-86444631D01*
X104162524Y-86537695D01*
X104256307Y-86562824D01*
X104375224Y-86594689D01*
X104375225Y-86594689D01*
X104375229Y-86594690D01*
X104594600Y-86613882D01*
X104813971Y-86594690D01*
X105026676Y-86537695D01*
X105226254Y-86444631D01*
X105406638Y-86318324D01*
X105458963Y-86265999D01*
X110788619Y-86265999D01*
X110808091Y-86463701D01*
X110869361Y-86665679D01*
X110867476Y-86666250D01*
X110878783Y-86719959D01*
X110854015Y-86785915D01*
X110851112Y-86789792D01*
X110800011Y-86926800D01*
X110793500Y-86987362D01*
X110793500Y-88084638D01*
X110800011Y-88145200D01*
X110851111Y-88282205D01*
X110938738Y-88399261D01*
X111055794Y-88486888D01*
X111055795Y-88486888D01*
X111055796Y-88486889D01*
X111192799Y-88537989D01*
X111253362Y-88544500D01*
X112850638Y-88544500D01*
X112911201Y-88537989D01*
X113048204Y-88486889D01*
X113165261Y-88399261D01*
X113252889Y-88282204D01*
X113303989Y-88145201D01*
X113310500Y-88084638D01*
X113310500Y-86987362D01*
X113303989Y-86926799D01*
X113252889Y-86789796D01*
X113249984Y-86785915D01*
X113225216Y-86719952D01*
X113236525Y-86666252D01*
X113234638Y-86665680D01*
X113238239Y-86653806D01*
X113238241Y-86653804D01*
X113295908Y-86463701D01*
X113315380Y-86266000D01*
X113305197Y-86162616D01*
X113295908Y-86068298D01*
X113238241Y-85878197D01*
X113238241Y-85878196D01*
X113144595Y-85702996D01*
X113138745Y-85692051D01*
X113141163Y-85690758D01*
X113125802Y-85659623D01*
X113125802Y-85602377D01*
X113141163Y-85571241D01*
X113138745Y-85569949D01*
X113154587Y-85540309D01*
X113238241Y-85383804D01*
X113295908Y-85193701D01*
X113315380Y-84996000D01*
X113314418Y-84986237D01*
X113295908Y-84798298D01*
X113238241Y-84608197D01*
X113238241Y-84608196D01*
X113144595Y-84432996D01*
X113144593Y-84432992D01*
X113018568Y-84279431D01*
X112865007Y-84153406D01*
X112689802Y-84059758D01*
X112499701Y-84002091D01*
X112351550Y-83987500D01*
X112351547Y-83987500D01*
X111752453Y-83987500D01*
X111752450Y-83987500D01*
X111604298Y-84002091D01*
X111414197Y-84059758D01*
X111238992Y-84153406D01*
X111085431Y-84279431D01*
X110959406Y-84432992D01*
X110865758Y-84608197D01*
X110808091Y-84798298D01*
X110788619Y-84995999D01*
X110808091Y-85193701D01*
X110865758Y-85383802D01*
X110965255Y-85569948D01*
X110962838Y-85571239D01*
X110978192Y-85602352D01*
X110978209Y-85659574D01*
X110962840Y-85690761D01*
X110965255Y-85692052D01*
X110865758Y-85878197D01*
X110808091Y-86068298D01*
X110788619Y-86265999D01*
X105458963Y-86265999D01*
X105562349Y-86162613D01*
X105688656Y-85982229D01*
X105781720Y-85782651D01*
X105838715Y-85569946D01*
X105857907Y-85350575D01*
X105838715Y-85131204D01*
X105832481Y-85107942D01*
X105832481Y-85042722D01*
X105865091Y-84986237D01*
X105921576Y-84953625D01*
X105986799Y-84953624D01*
X106043283Y-84986236D01*
X106171860Y-85114813D01*
X106219247Y-85153000D01*
X106352127Y-85213684D01*
X106496717Y-85234473D01*
X106641306Y-85213684D01*
X106774186Y-85153000D01*
X106821570Y-85114816D01*
X107206652Y-84729734D01*
X106390651Y-83913734D01*
X106390651Y-83913733D01*
X106031442Y-83554524D01*
X106749861Y-83554524D01*
X107565861Y-84370524D01*
X107565862Y-84370524D01*
X107950944Y-83985442D01*
X107989128Y-83938058D01*
X108049812Y-83805178D01*
X108070601Y-83660589D01*
X108049812Y-83515999D01*
X107989128Y-83383119D01*
X107950945Y-83335737D01*
X107459796Y-82844587D01*
X106749861Y-83554523D01*
X106749861Y-83554524D01*
X106031442Y-83554524D01*
X105215440Y-82738521D01*
X105215439Y-82738521D01*
X104830356Y-83123605D01*
X104792173Y-83170987D01*
X104731489Y-83303867D01*
X104710700Y-83448457D01*
X104731489Y-83593046D01*
X104792173Y-83725926D01*
X104830360Y-83773313D01*
X104958938Y-83901891D01*
X104991550Y-83958375D01*
X104991550Y-84023597D01*
X104958938Y-84080082D01*
X104902454Y-84112693D01*
X104837233Y-84112693D01*
X104813971Y-84106460D01*
X104594600Y-84087268D01*
X104375224Y-84106460D01*
X104162525Y-84163454D01*
X103962947Y-84256518D01*
X103782558Y-84382828D01*
X103626853Y-84538533D01*
X103500543Y-84718922D01*
X103407479Y-84918500D01*
X103350485Y-85131199D01*
X103331293Y-85350575D01*
X99431406Y-85350575D01*
X99449201Y-85306041D01*
X99449560Y-85305157D01*
X99728813Y-84626417D01*
X99729589Y-84624580D01*
X99971935Y-84066217D01*
X99972199Y-84065615D01*
X100271472Y-83394253D01*
X100272387Y-83392253D01*
X100530488Y-82842354D01*
X100530805Y-82841687D01*
X100753212Y-82379312D01*
X105574649Y-82379312D01*
X106390650Y-83195313D01*
X106390651Y-83195313D01*
X107100586Y-82485377D01*
X106609436Y-81994228D01*
X106562054Y-81956045D01*
X106429174Y-81895361D01*
X106284585Y-81874572D01*
X106139995Y-81895361D01*
X106007115Y-81956045D01*
X105959733Y-81994228D01*
X105574649Y-82379311D01*
X105574649Y-82379312D01*
X100753212Y-82379312D01*
X100849856Y-82178393D01*
X100850878Y-82176320D01*
X101124503Y-81635216D01*
X101124632Y-81634962D01*
X101463468Y-80979887D01*
X101464507Y-80977926D01*
X101753286Y-80446195D01*
X101753643Y-80445545D01*
X101921972Y-80142025D01*
X108539841Y-80142025D01*
X108559033Y-80361401D01*
X108616027Y-80574100D01*
X108709091Y-80773679D01*
X108835401Y-80954067D01*
X108991106Y-81109772D01*
X108991109Y-81109774D01*
X108991110Y-81109775D01*
X109171494Y-81236082D01*
X109371072Y-81329146D01*
X109464855Y-81354275D01*
X109583772Y-81386140D01*
X109583773Y-81386140D01*
X109583777Y-81386141D01*
X109803148Y-81405333D01*
X110022519Y-81386141D01*
X110235224Y-81329146D01*
X110434802Y-81236082D01*
X110615186Y-81109775D01*
X110770897Y-80954064D01*
X110897204Y-80773680D01*
X110990268Y-80574102D01*
X111047263Y-80361397D01*
X111066455Y-80142026D01*
X111047263Y-79922655D01*
X111041289Y-79900363D01*
X111041289Y-79835141D01*
X111073900Y-79778656D01*
X111130384Y-79746045D01*
X111195607Y-79746044D01*
X111252091Y-79778656D01*
X111380087Y-79906652D01*
X111380092Y-79906656D01*
X111380093Y-79906657D01*
X111427522Y-79944878D01*
X111560531Y-80005620D01*
X111705265Y-80026430D01*
X111849999Y-80005620D01*
X111983008Y-79944878D01*
X112030437Y-79906657D01*
X113159881Y-78777213D01*
X113198102Y-78729784D01*
X113258844Y-78596775D01*
X113279654Y-78452041D01*
X113258844Y-78307307D01*
X113198102Y-78174298D01*
X113159881Y-78126869D01*
X113159880Y-78126868D01*
X113159876Y-78126863D01*
X111818310Y-76785297D01*
X111770876Y-76747072D01*
X111637867Y-76686330D01*
X111637865Y-76686329D01*
X111637864Y-76686329D01*
X111493133Y-76665519D01*
X111348401Y-76686329D01*
X111215389Y-76747072D01*
X111167955Y-76785297D01*
X110038521Y-77914731D01*
X110000296Y-77962165D01*
X109939553Y-78095177D01*
X109918743Y-78239909D01*
X109939553Y-78384640D01*
X110000296Y-78517652D01*
X110038521Y-78565086D01*
X110166517Y-78693082D01*
X110199129Y-78749566D01*
X110199129Y-78814788D01*
X110166518Y-78871272D01*
X110110034Y-78903883D01*
X110044812Y-78903884D01*
X110022521Y-78897911D01*
X109803148Y-78878719D01*
X109583772Y-78897911D01*
X109371073Y-78954905D01*
X109171495Y-79047969D01*
X108991106Y-79174279D01*
X108835401Y-79329984D01*
X108709091Y-79510373D01*
X108616027Y-79709951D01*
X108559033Y-79922650D01*
X108539841Y-80142025D01*
X101921972Y-80142025D01*
X102111788Y-79799762D01*
X102112901Y-79797803D01*
X102416568Y-79275781D01*
X102794241Y-78639061D01*
X102795400Y-78637151D01*
X103113400Y-78125638D01*
X103113627Y-78125276D01*
X103510244Y-77498776D01*
X103511526Y-77496797D01*
X103843436Y-76996279D01*
X104259245Y-76379788D01*
X104260594Y-76377834D01*
X104605968Y-75888798D01*
X105040539Y-75283158D01*
X105042031Y-75281126D01*
X105400217Y-74804281D01*
X105400219Y-74804278D01*
X105853507Y-74209748D01*
X105855021Y-74207808D01*
X106225607Y-73743475D01*
X106697423Y-73160522D01*
X106699042Y-73158568D01*
X107081451Y-72707245D01*
X107571582Y-72136356D01*
X107573304Y-72134396D01*
X107966678Y-71696834D01*
X108475244Y-71138114D01*
X108477070Y-71136154D01*
X108880780Y-70712769D01*
X108880819Y-70712728D01*
X109407692Y-70166594D01*
X109409514Y-70164748D01*
X109822806Y-69756025D01*
X110368063Y-69222701D01*
X110369987Y-69220862D01*
X110791995Y-68827331D01*
X111355530Y-68307243D01*
X111357592Y-68305386D01*
X111787292Y-67927634D01*
X112369348Y-67420913D01*
X112371462Y-67419118D01*
X112807527Y-67057890D01*
X113408499Y-66564603D01*
X113410802Y-66562761D01*
X113851896Y-66218680D01*
X114472257Y-65738908D01*
X114474666Y-65737093D01*
X114919205Y-65410843D01*
X115559677Y-64944566D01*
X115562074Y-64942867D01*
X115855542Y-64740464D01*
X115829642Y-67194425D01*
G37*
G04 #@! TD.AperFunction*
G04 #@! TA.AperFunction,Conductor*
G36*
X181675641Y-76795988D02*
G01*
X181723707Y-76844677D01*
X181739241Y-76911307D01*
X181598086Y-79984932D01*
X181587492Y-80030027D01*
X181561317Y-80068245D01*
X181552361Y-80077201D01*
X181552359Y-80077203D01*
X181552359Y-80077204D01*
X181458424Y-80226701D01*
X181458423Y-80226702D01*
X181458422Y-80226705D01*
X181400110Y-80393349D01*
X181380342Y-80568800D01*
X181400110Y-80744250D01*
X181458423Y-80910898D01*
X181527956Y-81021559D01*
X181543113Y-81056501D01*
X181547136Y-81094375D01*
X181412297Y-84030481D01*
X181393663Y-84090860D01*
X181348060Y-84134600D01*
X181286956Y-84150700D01*
X177761301Y-84165417D01*
X177697403Y-84148321D01*
X177650969Y-84101213D01*
X177634797Y-84037075D01*
X177653343Y-83973583D01*
X177776413Y-83772752D01*
X177776412Y-83772752D01*
X177776415Y-83772749D01*
X177867280Y-83553380D01*
X177922710Y-83322497D01*
X177941340Y-83085786D01*
X177922710Y-82849075D01*
X177867280Y-82618192D01*
X177776415Y-82398823D01*
X177730901Y-82324552D01*
X177652351Y-82196370D01*
X177498144Y-82015816D01*
X177317590Y-81861609D01*
X177115141Y-81737547D01*
X176895769Y-81646681D01*
X176664886Y-81591250D01*
X176428175Y-81572621D01*
X176191463Y-81591250D01*
X175960580Y-81646681D01*
X175741208Y-81737547D01*
X175538759Y-81861609D01*
X175358205Y-82015816D01*
X175203998Y-82196370D01*
X175079936Y-82398819D01*
X174989070Y-82618191D01*
X174933639Y-82849074D01*
X174915010Y-83085785D01*
X174933639Y-83322497D01*
X174989070Y-83553380D01*
X175079936Y-83772752D01*
X175209180Y-83983657D01*
X175206031Y-83985586D01*
X175227414Y-84033107D01*
X175217162Y-84103018D01*
X175170889Y-84156419D01*
X175103148Y-84176514D01*
X170228444Y-84196863D01*
X170173990Y-84184740D01*
X170130108Y-84150294D01*
X170105399Y-84100277D01*
X170103138Y-84090860D01*
X170089105Y-84032406D01*
X169998240Y-83813037D01*
X169973553Y-83772752D01*
X169874176Y-83610584D01*
X169719969Y-83430030D01*
X169539415Y-83275823D01*
X169336966Y-83151761D01*
X169117594Y-83060895D01*
X168886711Y-83005464D01*
X168667269Y-82988194D01*
X168650000Y-82986835D01*
X168649999Y-82986835D01*
X168413288Y-83005464D01*
X168182405Y-83060895D01*
X167963033Y-83151761D01*
X167760584Y-83275823D01*
X167580030Y-83430030D01*
X167425823Y-83610584D01*
X167301761Y-83813033D01*
X167210893Y-84032408D01*
X167191433Y-84113466D01*
X167166945Y-84163209D01*
X167123476Y-84197625D01*
X167069441Y-84210050D01*
X138815088Y-84328000D01*
X138815087Y-84328000D01*
X135840331Y-86459423D01*
X135805485Y-86476961D01*
X135766945Y-86483000D01*
X130670362Y-86483000D01*
X130609799Y-86489511D01*
X130472794Y-86540611D01*
X130355738Y-86628238D01*
X130268111Y-86745294D01*
X130217011Y-86882299D01*
X130210500Y-86942862D01*
X130210500Y-90428488D01*
X130196577Y-90486061D01*
X130157886Y-90530911D01*
X128720751Y-91560621D01*
X128674009Y-91581349D01*
X128622879Y-91581796D01*
X126580533Y-91177180D01*
X126524923Y-91150848D01*
X126488413Y-91101321D01*
X126479709Y-91040413D01*
X126491104Y-90932000D01*
X126471142Y-90742072D01*
X126412127Y-90560444D01*
X126412127Y-90560443D01*
X126316641Y-90395057D01*
X126188852Y-90253133D01*
X126034353Y-90140883D01*
X126034352Y-90140882D01*
X125859888Y-90063206D01*
X125673087Y-90023500D01*
X125482113Y-90023500D01*
X125357579Y-90049970D01*
X125295311Y-90063206D01*
X125120846Y-90140883D01*
X124966347Y-90253133D01*
X124838558Y-90395057D01*
X124743073Y-90560442D01*
X124700500Y-90691468D01*
X124668611Y-90742763D01*
X124616515Y-90773324D01*
X124556181Y-90776129D01*
X123400649Y-90547204D01*
X123346148Y-90521774D01*
X123309642Y-90473979D01*
X123299450Y-90414711D01*
X123694941Y-84828400D01*
X125237200Y-84828400D01*
X125237200Y-85572989D01*
X125243705Y-85633493D01*
X125294754Y-85770362D01*
X125382295Y-85887304D01*
X125499237Y-85974845D01*
X125636106Y-86025894D01*
X125696611Y-86032400D01*
X126441200Y-86032400D01*
X126441200Y-84828400D01*
X126949200Y-84828400D01*
X126949200Y-86032400D01*
X127693789Y-86032400D01*
X127754293Y-86025894D01*
X127891162Y-85974845D01*
X128008104Y-85887304D01*
X128095645Y-85770362D01*
X128146694Y-85633493D01*
X128153200Y-85572989D01*
X128153200Y-84828400D01*
X126949200Y-84828400D01*
X126441200Y-84828400D01*
X125237200Y-84828400D01*
X123694941Y-84828400D01*
X124099166Y-79118717D01*
X124121025Y-79056231D01*
X124171544Y-79013451D01*
X124926630Y-78660910D01*
X124975775Y-78649149D01*
X125328172Y-78637515D01*
X125394125Y-78653642D01*
X125442136Y-78701655D01*
X125458258Y-78767613D01*
X125437811Y-78832360D01*
X125408090Y-78877851D01*
X125310996Y-79099204D01*
X125251662Y-79333511D01*
X125251661Y-79333516D01*
X125231701Y-79574400D01*
X125251661Y-79815284D01*
X125251661Y-79815287D01*
X125251662Y-79815288D01*
X125310996Y-80049595D01*
X125408089Y-80270946D01*
X125408091Y-80270949D01*
X125540294Y-80473300D01*
X125540297Y-80473303D01*
X125648434Y-80590772D01*
X125703999Y-80651131D01*
X125798865Y-80724968D01*
X125834671Y-80769061D01*
X125847474Y-80824400D01*
X125834671Y-80879739D01*
X125798865Y-80923832D01*
X125703995Y-80997672D01*
X125540297Y-81175496D01*
X125408089Y-81377853D01*
X125310996Y-81599204D01*
X125251662Y-81833511D01*
X125251661Y-81833516D01*
X125231701Y-82074400D01*
X125251661Y-82315284D01*
X125251661Y-82315287D01*
X125251662Y-82315288D01*
X125310996Y-82549595D01*
X125408089Y-82770946D01*
X125408091Y-82770949D01*
X125540294Y-82973300D01*
X125540363Y-82973375D01*
X125540460Y-82973553D01*
X125546005Y-82982040D01*
X125545329Y-82982481D01*
X125569598Y-83026974D01*
X125570203Y-83088026D01*
X125542034Y-83142195D01*
X125513014Y-83162126D01*
X125513741Y-83163097D01*
X125382295Y-83261495D01*
X125294754Y-83378437D01*
X125243705Y-83515306D01*
X125237200Y-83575811D01*
X125237200Y-84320400D01*
X128153200Y-84320400D01*
X128153200Y-83575811D01*
X128146694Y-83515306D01*
X128095645Y-83378437D01*
X128008104Y-83261495D01*
X127876659Y-83163097D01*
X127877385Y-83162126D01*
X127848365Y-83142196D01*
X127820195Y-83088024D01*
X127820802Y-83026968D01*
X127845070Y-82982481D01*
X127844395Y-82982040D01*
X127849950Y-82973537D01*
X127850041Y-82973370D01*
X127850106Y-82973300D01*
X127982309Y-82770949D01*
X128079403Y-82549597D01*
X128079428Y-82549500D01*
X130205701Y-82549500D01*
X130217708Y-82770946D01*
X130224878Y-82903190D01*
X130255180Y-83088024D01*
X130282183Y-83252732D01*
X130376942Y-83594026D01*
X130435777Y-83741690D01*
X130508050Y-83923082D01*
X130540165Y-83983657D01*
X130673963Y-84236028D01*
X130692447Y-84263289D01*
X130872742Y-84529205D01*
X131102052Y-84799170D01*
X131359207Y-85042759D01*
X131641190Y-85257117D01*
X131944696Y-85439731D01*
X131944698Y-85439732D01*
X131944700Y-85439733D01*
X132099913Y-85511542D01*
X132266168Y-85588460D01*
X132399822Y-85633493D01*
X132601834Y-85701559D01*
X132704584Y-85724176D01*
X132947763Y-85777704D01*
X133035795Y-85787277D01*
X133299892Y-85816000D01*
X133299895Y-85816000D01*
X133654105Y-85816000D01*
X133654108Y-85816000D01*
X133865384Y-85793022D01*
X134006237Y-85777704D01*
X134352165Y-85701559D01*
X134687832Y-85588460D01*
X135009304Y-85439731D01*
X135312810Y-85257117D01*
X135594793Y-85042759D01*
X135851948Y-84799170D01*
X136081258Y-84529205D01*
X136280035Y-84236030D01*
X136445950Y-83923082D01*
X136577056Y-83594030D01*
X136671817Y-83252732D01*
X136729122Y-82903190D01*
X136748298Y-82549500D01*
X136729122Y-82195810D01*
X136671817Y-81846268D01*
X136595389Y-81571000D01*
X142060709Y-81571000D01*
X142070277Y-81698676D01*
X142079845Y-81826354D01*
X142136826Y-82076002D01*
X142230378Y-82314369D01*
X142358413Y-82536131D01*
X142518065Y-82736330D01*
X142705784Y-82910508D01*
X142798255Y-82973553D01*
X142917355Y-83054754D01*
X143036959Y-83112352D01*
X143148064Y-83165858D01*
X143202635Y-83182690D01*
X143392757Y-83241335D01*
X143645966Y-83279500D01*
X143902032Y-83279500D01*
X143902034Y-83279500D01*
X144155243Y-83241335D01*
X144399935Y-83165858D01*
X144630646Y-83054754D01*
X144842219Y-82910505D01*
X145029931Y-82736334D01*
X145189587Y-82536131D01*
X145317622Y-82314369D01*
X145411174Y-82076001D01*
X145468155Y-81826353D01*
X145487291Y-81571000D01*
X159820709Y-81571000D01*
X159830277Y-81698676D01*
X159839845Y-81826354D01*
X159896826Y-82076002D01*
X159990378Y-82314369D01*
X160118413Y-82536131D01*
X160278065Y-82736330D01*
X160465784Y-82910508D01*
X160558255Y-82973553D01*
X160677355Y-83054754D01*
X160796959Y-83112352D01*
X160908064Y-83165858D01*
X160962635Y-83182690D01*
X161152757Y-83241335D01*
X161405966Y-83279500D01*
X161662032Y-83279500D01*
X161662034Y-83279500D01*
X161915243Y-83241335D01*
X162159935Y-83165858D01*
X162390646Y-83054754D01*
X162602219Y-82910505D01*
X162789931Y-82736334D01*
X162949587Y-82536131D01*
X162970448Y-82499999D01*
X171861542Y-82499999D01*
X171881310Y-82675450D01*
X171939623Y-82842098D01*
X172033560Y-82991598D01*
X172158401Y-83116439D01*
X172158403Y-83116440D01*
X172158404Y-83116441D01*
X172307901Y-83210376D01*
X172474552Y-83268690D01*
X172650000Y-83288458D01*
X172825448Y-83268690D01*
X172992099Y-83210376D01*
X173141596Y-83116441D01*
X173266441Y-82991596D01*
X173360376Y-82842099D01*
X173418690Y-82675448D01*
X173438458Y-82500000D01*
X173418690Y-82324552D01*
X173360376Y-82157901D01*
X173266441Y-82008404D01*
X173266440Y-82008403D01*
X173266439Y-82008401D01*
X173141598Y-81883560D01*
X172992098Y-81789623D01*
X172825450Y-81731310D01*
X172650000Y-81711542D01*
X172474549Y-81731310D01*
X172307901Y-81789623D01*
X172158401Y-81883560D01*
X172033560Y-82008401D01*
X171939623Y-82157901D01*
X171881310Y-82324549D01*
X171861542Y-82499999D01*
X162970448Y-82499999D01*
X163077622Y-82314369D01*
X163171174Y-82076001D01*
X163228155Y-81826353D01*
X163247291Y-81571000D01*
X163228155Y-81315647D01*
X163171174Y-81065999D01*
X163077622Y-80827631D01*
X162949587Y-80605869D01*
X162843867Y-80473300D01*
X162789934Y-80405669D01*
X162789931Y-80405666D01*
X162602219Y-80231495D01*
X162390646Y-80087246D01*
X162390645Y-80087245D01*
X162390643Y-80087244D01*
X162159935Y-79976141D01*
X161983018Y-79921570D01*
X161925423Y-79903805D01*
X171733029Y-79903805D01*
X171751658Y-80140517D01*
X171807089Y-80371400D01*
X171897955Y-80590772D01*
X172022017Y-80793221D01*
X172176224Y-80973775D01*
X172356778Y-81127982D01*
X172559227Y-81252044D01*
X172559229Y-81252044D01*
X172559231Y-81252046D01*
X172778600Y-81342911D01*
X172954051Y-81385033D01*
X173009482Y-81398341D01*
X173026752Y-81399700D01*
X173246194Y-81416971D01*
X173482905Y-81398341D01*
X173713788Y-81342911D01*
X173933157Y-81252046D01*
X174135610Y-81127982D01*
X174316163Y-80973775D01*
X174470370Y-80793222D01*
X174594434Y-80590769D01*
X174685299Y-80371400D01*
X174740729Y-80140517D01*
X174759359Y-79903806D01*
X174740729Y-79667095D01*
X174738849Y-79659266D01*
X174718475Y-79574400D01*
X174685299Y-79436212D01*
X174594434Y-79216843D01*
X174522344Y-79099204D01*
X174470370Y-79014390D01*
X174316163Y-78833836D01*
X174135609Y-78679629D01*
X173933160Y-78555567D01*
X173713788Y-78464701D01*
X173482905Y-78409270D01*
X173246194Y-78390641D01*
X173009482Y-78409270D01*
X172778599Y-78464701D01*
X172559227Y-78555567D01*
X172356778Y-78679629D01*
X172176224Y-78833836D01*
X172022017Y-79014390D01*
X171897955Y-79216839D01*
X171807089Y-79436211D01*
X171751658Y-79667094D01*
X171733029Y-79903805D01*
X161925423Y-79903805D01*
X161915243Y-79900665D01*
X161662034Y-79862500D01*
X161405966Y-79862500D01*
X161152757Y-79900665D01*
X161152753Y-79900666D01*
X161152754Y-79900666D01*
X160908064Y-79976141D01*
X160677354Y-80087246D01*
X160465784Y-80231491D01*
X160278065Y-80405669D01*
X160118413Y-80605868D01*
X159990378Y-80827630D01*
X159896826Y-81065997D01*
X159854361Y-81252046D01*
X159839845Y-81315647D01*
X159820709Y-81571000D01*
X145487291Y-81571000D01*
X145468155Y-81315647D01*
X145411174Y-81065999D01*
X145317622Y-80827631D01*
X145189587Y-80605869D01*
X145083867Y-80473300D01*
X145029934Y-80405669D01*
X145029931Y-80405666D01*
X144842219Y-80231495D01*
X144630646Y-80087246D01*
X144630645Y-80087245D01*
X144630643Y-80087244D01*
X144399935Y-79976141D01*
X144223018Y-79921570D01*
X144155243Y-79900665D01*
X143902034Y-79862500D01*
X143645966Y-79862500D01*
X143392757Y-79900665D01*
X143392753Y-79900666D01*
X143392754Y-79900666D01*
X143148064Y-79976141D01*
X142917354Y-80087246D01*
X142705784Y-80231491D01*
X142518065Y-80405669D01*
X142358413Y-80605868D01*
X142230378Y-80827630D01*
X142136826Y-81065997D01*
X142094361Y-81252046D01*
X142079845Y-81315647D01*
X142060709Y-81571000D01*
X136595389Y-81571000D01*
X136577056Y-81504970D01*
X136445950Y-81175918D01*
X136312302Y-80923832D01*
X136280036Y-80862971D01*
X136199541Y-80744250D01*
X136081258Y-80569795D01*
X135851948Y-80299830D01*
X135594793Y-80056241D01*
X135312810Y-79841883D01*
X135009304Y-79659269D01*
X135009303Y-79659268D01*
X135009299Y-79659266D01*
X134687833Y-79510540D01*
X134352165Y-79397440D01*
X134006235Y-79321295D01*
X133654108Y-79283000D01*
X133654105Y-79283000D01*
X133299895Y-79283000D01*
X133299892Y-79283000D01*
X132947764Y-79321295D01*
X132601834Y-79397440D01*
X132266166Y-79510540D01*
X131944700Y-79659266D01*
X131641191Y-79841882D01*
X131359208Y-80056240D01*
X131326477Y-80087244D01*
X131132542Y-80270949D01*
X131102049Y-80299833D01*
X130872745Y-80569791D01*
X130673963Y-80862971D01*
X130508050Y-81175918D01*
X130376942Y-81504973D01*
X130282183Y-81846267D01*
X130282183Y-81846268D01*
X130244783Y-82074399D01*
X130224878Y-82195811D01*
X130205701Y-82549500D01*
X128079428Y-82549500D01*
X128138739Y-82315284D01*
X128158699Y-82074400D01*
X128138739Y-81833516D01*
X128079403Y-81599203D01*
X127982309Y-81377851D01*
X127850106Y-81175500D01*
X127775425Y-81094375D01*
X127686402Y-80997669D01*
X127591535Y-80923832D01*
X127555728Y-80879739D01*
X127542925Y-80824400D01*
X127555728Y-80769061D01*
X127591535Y-80724968D01*
X127686402Y-80651130D01*
X127696270Y-80640410D01*
X127850106Y-80473300D01*
X127982309Y-80270949D01*
X128079403Y-80049597D01*
X128138739Y-79815284D01*
X128158699Y-79574400D01*
X128138739Y-79333516D01*
X128079403Y-79099203D01*
X127982309Y-78877851D01*
X127895040Y-78744277D01*
X127874680Y-78681611D01*
X127888737Y-78617232D01*
X127933369Y-78568754D01*
X127996364Y-78549435D01*
X168372230Y-77216569D01*
X168376388Y-77216500D01*
X176504842Y-77216500D01*
X176504985Y-77216528D01*
X176504986Y-77216524D01*
X176529997Y-77216539D01*
X176530000Y-77216541D01*
X176530383Y-77216383D01*
X176530500Y-77216099D01*
X176530541Y-77216000D01*
X176530541Y-77191048D01*
X176530500Y-77190842D01*
X176530500Y-77069161D01*
X176546694Y-77007365D01*
X176591115Y-76961454D01*
X176652341Y-76943230D01*
X181609219Y-76779596D01*
X181675641Y-76795988D01*
G37*
G04 #@! TD.AperFunction*
G04 #@! TA.AperFunction,Conductor*
G36*
X184552120Y-117013626D02*
G01*
X185450051Y-117039654D01*
X185511496Y-117057719D01*
X185556123Y-117103658D01*
X185572400Y-117165601D01*
X185572400Y-127541698D01*
X185556750Y-127602517D01*
X185513686Y-127648228D01*
X185453909Y-127667473D01*
X185434361Y-127668640D01*
X185362510Y-127672929D01*
X185362510Y-127672930D01*
X182168800Y-127863600D01*
X181914800Y-127863600D01*
X182065415Y-117069492D01*
X182083498Y-117006194D01*
X182131036Y-116960654D01*
X182195050Y-116945305D01*
X184552120Y-117013626D01*
G37*
G04 #@! TD.AperFunction*
G04 #@! TA.AperFunction,Conductor*
G36*
X190785360Y-70183216D02*
G01*
X190838084Y-70228517D01*
X190858762Y-70294883D01*
X191360826Y-92536344D01*
X191345872Y-92598786D01*
X191302091Y-92645751D01*
X191240851Y-92665045D01*
X189230881Y-92760758D01*
X189229248Y-92760826D01*
X184067355Y-92939536D01*
X184008725Y-92927325D01*
X183962356Y-92889425D01*
X183938721Y-92834398D01*
X183943162Y-92774675D01*
X183947684Y-92760758D01*
X183976742Y-92671328D01*
X183996704Y-92481400D01*
X183976742Y-92291472D01*
X183917727Y-92109844D01*
X183917727Y-92109843D01*
X183822241Y-91944457D01*
X183718281Y-91828998D01*
X183688670Y-91770884D01*
X183692084Y-91705751D01*
X183727607Y-91651051D01*
X183785720Y-91621440D01*
X183790269Y-91620473D01*
X183790275Y-91620473D01*
X183977076Y-91580767D01*
X184151540Y-91503091D01*
X184306041Y-91390839D01*
X184433828Y-91248917D01*
X184529315Y-91083529D01*
X184588330Y-90901901D01*
X184608292Y-90711973D01*
X184588330Y-90522045D01*
X184529315Y-90340417D01*
X184529315Y-90340416D01*
X184433829Y-90175030D01*
X184306040Y-90033106D01*
X184151541Y-89920856D01*
X184151540Y-89920855D01*
X183977076Y-89843179D01*
X183790275Y-89803473D01*
X183599301Y-89803473D01*
X183474767Y-89829943D01*
X183412499Y-89843179D01*
X183238034Y-89920856D01*
X183083535Y-90033106D01*
X182955746Y-90175030D01*
X182860260Y-90340416D01*
X182801246Y-90522043D01*
X182781284Y-90711972D01*
X182801246Y-90901902D01*
X182860260Y-91083529D01*
X182955746Y-91248915D01*
X183059706Y-91364374D01*
X183089317Y-91422488D01*
X183085903Y-91487621D01*
X183050381Y-91542321D01*
X182992267Y-91571932D01*
X182800911Y-91612606D01*
X182626446Y-91690283D01*
X182471947Y-91802533D01*
X182344158Y-91944457D01*
X182248672Y-92109843D01*
X182189658Y-92291470D01*
X182169696Y-92481399D01*
X182189658Y-92671329D01*
X182245036Y-92841764D01*
X182249818Y-92899333D01*
X182228405Y-92952986D01*
X182185300Y-92991444D01*
X182129563Y-93006625D01*
X179286802Y-93105045D01*
X179227956Y-93092730D01*
X179181516Y-93054551D01*
X179158052Y-92999199D01*
X179162908Y-92939275D01*
X181640546Y-85506360D01*
X181675078Y-85453197D01*
X181731130Y-85423578D01*
X181794510Y-85425003D01*
X181849174Y-85457112D01*
X181880401Y-85488339D01*
X181880403Y-85488340D01*
X181880404Y-85488341D01*
X182029901Y-85582276D01*
X182196552Y-85640590D01*
X182372000Y-85660358D01*
X182547448Y-85640590D01*
X182714099Y-85582276D01*
X182863596Y-85488341D01*
X182988441Y-85363496D01*
X183082376Y-85213999D01*
X183140690Y-85047348D01*
X183160458Y-84871900D01*
X183140690Y-84696452D01*
X183082376Y-84529801D01*
X183064961Y-84502086D01*
X183046441Y-84449158D01*
X183052719Y-84393438D01*
X183099679Y-84259237D01*
X183119447Y-84083789D01*
X183099679Y-83908341D01*
X183041365Y-83741690D01*
X183024343Y-83714600D01*
X184886770Y-83714600D01*
X184907215Y-83882988D01*
X184967366Y-84041592D01*
X185063726Y-84181194D01*
X185190689Y-84293674D01*
X185190693Y-84293676D01*
X185340889Y-84372505D01*
X185505587Y-84413100D01*
X185675211Y-84413100D01*
X185675213Y-84413100D01*
X185839911Y-84372505D01*
X185990107Y-84293676D01*
X185990108Y-84293674D01*
X185990110Y-84293674D01*
X186048525Y-84241922D01*
X186117075Y-84181193D01*
X186213433Y-84041593D01*
X186222588Y-84017452D01*
X186256846Y-83967821D01*
X186310246Y-83939794D01*
X186370554Y-83939794D01*
X186423954Y-83967821D01*
X186458212Y-84017453D01*
X186467366Y-84041593D01*
X186563726Y-84181194D01*
X186690689Y-84293674D01*
X186690693Y-84293676D01*
X186840889Y-84372505D01*
X187005587Y-84413100D01*
X187175211Y-84413100D01*
X187175213Y-84413100D01*
X187339911Y-84372505D01*
X187490107Y-84293676D01*
X187490108Y-84293674D01*
X187490110Y-84293674D01*
X187548525Y-84241922D01*
X187617075Y-84181193D01*
X187713433Y-84041593D01*
X187773584Y-83882990D01*
X187794030Y-83714600D01*
X187773584Y-83546210D01*
X187713433Y-83387607D01*
X187617075Y-83248007D01*
X187617073Y-83248005D01*
X187579931Y-83215100D01*
X189262254Y-83215100D01*
X189282022Y-83390550D01*
X189340335Y-83557198D01*
X189434272Y-83706698D01*
X189559113Y-83831539D01*
X189559115Y-83831540D01*
X189559116Y-83831541D01*
X189708613Y-83925476D01*
X189875264Y-83983790D01*
X190050712Y-84003558D01*
X190226160Y-83983790D01*
X190392811Y-83925476D01*
X190542308Y-83831541D01*
X190667153Y-83706696D01*
X190761088Y-83557199D01*
X190819402Y-83390548D01*
X190839170Y-83215100D01*
X190819402Y-83039652D01*
X190761088Y-82873001D01*
X190667153Y-82723504D01*
X190667152Y-82723503D01*
X190667151Y-82723501D01*
X190542310Y-82598660D01*
X190392810Y-82504723D01*
X190226162Y-82446410D01*
X190050712Y-82426642D01*
X189875261Y-82446410D01*
X189708613Y-82504723D01*
X189559113Y-82598660D01*
X189434272Y-82723501D01*
X189340335Y-82873001D01*
X189282022Y-83039649D01*
X189262254Y-83215100D01*
X187579931Y-83215100D01*
X187490110Y-83135525D01*
X187398706Y-83087553D01*
X187377012Y-83076167D01*
X187327740Y-83029785D01*
X187309568Y-82964600D01*
X187327740Y-82899415D01*
X187377012Y-82853032D01*
X187490107Y-82793676D01*
X187490108Y-82793674D01*
X187490110Y-82793674D01*
X187569319Y-82723501D01*
X187617075Y-82681193D01*
X187713433Y-82541593D01*
X187773584Y-82382990D01*
X187794030Y-82214600D01*
X187773584Y-82046210D01*
X187713433Y-81887607D01*
X187617075Y-81748007D01*
X187617073Y-81748005D01*
X187490109Y-81635524D01*
X187377012Y-81576166D01*
X187327739Y-81529783D01*
X187309568Y-81464598D01*
X187327740Y-81399414D01*
X187377012Y-81353032D01*
X187490107Y-81293676D01*
X187490106Y-81293676D01*
X187490109Y-81293675D01*
X187579930Y-81214100D01*
X189254342Y-81214100D01*
X189274110Y-81389550D01*
X189332423Y-81556198D01*
X189426360Y-81705698D01*
X189551201Y-81830539D01*
X189551203Y-81830540D01*
X189551204Y-81830541D01*
X189700701Y-81924476D01*
X189867352Y-81982790D01*
X190042800Y-82002558D01*
X190218248Y-81982790D01*
X190384899Y-81924476D01*
X190534396Y-81830541D01*
X190659241Y-81705696D01*
X190753176Y-81556199D01*
X190811490Y-81389548D01*
X190831258Y-81214100D01*
X190811490Y-81038652D01*
X190753176Y-80872001D01*
X190659241Y-80722504D01*
X190659240Y-80722503D01*
X190659239Y-80722501D01*
X190534398Y-80597660D01*
X190384898Y-80503723D01*
X190218250Y-80445410D01*
X190042800Y-80425642D01*
X189867349Y-80445410D01*
X189700701Y-80503723D01*
X189551201Y-80597660D01*
X189426360Y-80722501D01*
X189332423Y-80872001D01*
X189274110Y-81038649D01*
X189254342Y-81214100D01*
X187579930Y-81214100D01*
X187617075Y-81181193D01*
X187713433Y-81041593D01*
X187773584Y-80882990D01*
X187794030Y-80714600D01*
X187773584Y-80546210D01*
X187713433Y-80387607D01*
X187617075Y-80248007D01*
X187617073Y-80248005D01*
X187490110Y-80135525D01*
X187339911Y-80056695D01*
X187175213Y-80016100D01*
X187005587Y-80016100D01*
X186895788Y-80043163D01*
X186840888Y-80056695D01*
X186690689Y-80135525D01*
X186563726Y-80248005D01*
X186467367Y-80387606D01*
X186458212Y-80411747D01*
X186423953Y-80461378D01*
X186370554Y-80489405D01*
X186310246Y-80489405D01*
X186256847Y-80461378D01*
X186222588Y-80411747D01*
X186213433Y-80387607D01*
X186117075Y-80248007D01*
X186117073Y-80248005D01*
X185990110Y-80135525D01*
X185839911Y-80056695D01*
X185675213Y-80016100D01*
X185505587Y-80016100D01*
X185395788Y-80043163D01*
X185340888Y-80056695D01*
X185190689Y-80135525D01*
X185063726Y-80248005D01*
X184967366Y-80387607D01*
X184907215Y-80546211D01*
X184886770Y-80714600D01*
X184907215Y-80882988D01*
X184967366Y-81041592D01*
X185015546Y-81111393D01*
X185063724Y-81181192D01*
X185063726Y-81181194D01*
X185190689Y-81293673D01*
X185190690Y-81293673D01*
X185190693Y-81293676D01*
X185303787Y-81353032D01*
X185353059Y-81399414D01*
X185371231Y-81464598D01*
X185353060Y-81529783D01*
X185303787Y-81576166D01*
X185190691Y-81635524D01*
X185063726Y-81748005D01*
X184967366Y-81887607D01*
X184907215Y-82046211D01*
X184886770Y-82214599D01*
X184907215Y-82382988D01*
X184967366Y-82541592D01*
X185063726Y-82681194D01*
X185190692Y-82793676D01*
X185303786Y-82853033D01*
X185353059Y-82899416D01*
X185371231Y-82964600D01*
X185353059Y-83029784D01*
X185303786Y-83076167D01*
X185190692Y-83135523D01*
X185063726Y-83248005D01*
X184967366Y-83387607D01*
X184907215Y-83546211D01*
X184886770Y-83714600D01*
X183024343Y-83714600D01*
X182947430Y-83592193D01*
X182947429Y-83592192D01*
X182947428Y-83592190D01*
X182822587Y-83467349D01*
X182673088Y-83373413D01*
X182502292Y-83313648D01*
X182448811Y-83277378D01*
X182420343Y-83219368D01*
X182424373Y-83154878D01*
X186548167Y-70783496D01*
X186587611Y-70726072D01*
X186651539Y-70698385D01*
X190716640Y-70172767D01*
X190785360Y-70183216D01*
G37*
G04 #@! TD.AperFunction*
M02*
