G04 #@! TF.GenerationSoftware,KiCad,Pcbnew,(6.0.7)*
G04 #@! TF.CreationDate,2022-12-26T23:05:37-05:00*
G04 #@! TF.ProjectId,Micromouse-kicad,4d696372-6f6d-46f7-9573-652d6b696361,rev?*
G04 #@! TF.SameCoordinates,Original*
G04 #@! TF.FileFunction,Copper,L4,Bot*
G04 #@! TF.FilePolarity,Positive*
%FSLAX46Y46*%
G04 Gerber Fmt 4.6, Leading zero omitted, Abs format (unit mm)*
G04 Created by KiCad (PCBNEW (6.0.7)) date 2022-12-26 23:05:37*
%MOMM*%
%LPD*%
G01*
G04 APERTURE LIST*
G04 Aperture macros list*
%AMRoundRect*
0 Rectangle with rounded corners*
0 $1 Rounding radius*
0 $2 $3 $4 $5 $6 $7 $8 $9 X,Y pos of 4 corners*
0 Add a 4 corners polygon primitive as box body*
4,1,4,$2,$3,$4,$5,$6,$7,$8,$9,$2,$3,0*
0 Add four circle primitives for the rounded corners*
1,1,$1+$1,$2,$3*
1,1,$1+$1,$4,$5*
1,1,$1+$1,$6,$7*
1,1,$1+$1,$8,$9*
0 Add four rect primitives between the rounded corners*
20,1,$1+$1,$2,$3,$4,$5,0*
20,1,$1+$1,$4,$5,$6,$7,0*
20,1,$1+$1,$6,$7,$8,$9,0*
20,1,$1+$1,$8,$9,$2,$3,0*%
%AMRotRect*
0 Rectangle, with rotation*
0 The origin of the aperture is its center*
0 $1 length*
0 $2 width*
0 $3 Rotation angle, in degrees counterclockwise*
0 Add horizontal line*
21,1,$1,$2,0,0,$3*%
G04 Aperture macros list end*
G04 #@! TA.AperFunction,ComponentPad*
%ADD10C,2.000000*%
G04 #@! TD*
G04 #@! TA.AperFunction,ComponentPad*
%ADD11R,1.000000X1.500000*%
G04 #@! TD*
G04 #@! TA.AperFunction,ComponentPad*
%ADD12O,1.000000X1.500000*%
G04 #@! TD*
G04 #@! TA.AperFunction,ComponentPad*
%ADD13O,2.400000X1.100000*%
G04 #@! TD*
G04 #@! TA.AperFunction,ComponentPad*
%ADD14C,0.380000*%
G04 #@! TD*
G04 #@! TA.AperFunction,SMDPad,CuDef*
%ADD15R,3.400000X5.000000*%
G04 #@! TD*
G04 #@! TA.AperFunction,ComponentPad*
%ADD16R,1.500000X1.000000*%
G04 #@! TD*
G04 #@! TA.AperFunction,ComponentPad*
%ADD17O,1.500000X1.000000*%
G04 #@! TD*
G04 #@! TA.AperFunction,ComponentPad*
%ADD18R,1.500000X1.800000*%
G04 #@! TD*
G04 #@! TA.AperFunction,ComponentPad*
%ADD19C,1.500000*%
G04 #@! TD*
G04 #@! TA.AperFunction,ComponentPad*
%ADD20R,5.516000X5.516000*%
G04 #@! TD*
G04 #@! TA.AperFunction,ComponentPad*
%ADD21C,5.516000*%
G04 #@! TD*
G04 #@! TA.AperFunction,ComponentPad*
%ADD22R,1.900000X1.900000*%
G04 #@! TD*
G04 #@! TA.AperFunction,ComponentPad*
%ADD23C,1.900000*%
G04 #@! TD*
G04 #@! TA.AperFunction,ComponentPad*
%ADD24C,2.400000*%
G04 #@! TD*
G04 #@! TA.AperFunction,ComponentPad*
%ADD25R,1.700000X1.700000*%
G04 #@! TD*
G04 #@! TA.AperFunction,ComponentPad*
%ADD26O,1.700000X1.700000*%
G04 #@! TD*
G04 #@! TA.AperFunction,ComponentPad*
%ADD27RoundRect,0.250000X-0.600000X-0.725000X0.600000X-0.725000X0.600000X0.725000X-0.600000X0.725000X0*%
G04 #@! TD*
G04 #@! TA.AperFunction,ComponentPad*
%ADD28O,1.700000X1.950000*%
G04 #@! TD*
G04 #@! TA.AperFunction,ComponentPad*
%ADD29RotRect,1.500000X1.800000X225.000000*%
G04 #@! TD*
G04 #@! TA.AperFunction,ComponentPad*
%ADD30RotRect,1.500000X1.800000X315.000000*%
G04 #@! TD*
G04 #@! TA.AperFunction,ViaPad*
%ADD31C,0.550000*%
G04 #@! TD*
G04 #@! TA.AperFunction,ViaPad*
%ADD32C,0.800000*%
G04 #@! TD*
G04 #@! TA.AperFunction,Conductor*
%ADD33C,0.500000*%
G04 #@! TD*
G04 #@! TA.AperFunction,Conductor*
%ADD34C,0.300000*%
G04 #@! TD*
G04 #@! TA.AperFunction,Conductor*
%ADD35C,0.150000*%
G04 #@! TD*
G04 #@! TA.AperFunction,Conductor*
%ADD36C,0.261112*%
G04 #@! TD*
G04 APERTURE END LIST*
D10*
X188148400Y-113742400D03*
X188148400Y-120242400D03*
X192648400Y-120242400D03*
X192648400Y-113742400D03*
D11*
X111770236Y-116733164D03*
D12*
X110500236Y-116733164D03*
X109230236Y-116733164D03*
D13*
X193041000Y-104425000D03*
X193041000Y-98775000D03*
D14*
X185590400Y-80714600D03*
X187090400Y-83714600D03*
X187090400Y-82214600D03*
D15*
X186340400Y-82214600D03*
D14*
X185590400Y-82214600D03*
X187090400Y-80714600D03*
X185590400Y-83714600D03*
D16*
X123000000Y-73870000D03*
D17*
X123000000Y-72600000D03*
X123000000Y-71330000D03*
D18*
X116210900Y-136754900D03*
D19*
X118750900Y-136754900D03*
D18*
X123576900Y-136754900D03*
D19*
X126116900Y-136754900D03*
D16*
X112052000Y-87536000D03*
D17*
X112052000Y-86266000D03*
X112052000Y-84996000D03*
D20*
X133477000Y-89749500D03*
D21*
X133477000Y-82549500D03*
D22*
X171348400Y-125722400D03*
D23*
X171348400Y-123222400D03*
X171348400Y-120722400D03*
D24*
X161534000Y-123661000D03*
X143774000Y-123661000D03*
D25*
X120929000Y-119101000D03*
D26*
X123469000Y-119101000D03*
X126009000Y-119101000D03*
X128549000Y-119101000D03*
X131089000Y-119101000D03*
X133629000Y-119101000D03*
D27*
X179678000Y-88781400D03*
D28*
X182178000Y-88781400D03*
X184678000Y-88781400D03*
X187178000Y-88781400D03*
X189678000Y-88781400D03*
X192178000Y-88781400D03*
D29*
X111599199Y-78345975D03*
D19*
X109803148Y-80142026D03*
D29*
X106390651Y-83554523D03*
D19*
X104594600Y-85350575D03*
D25*
X95275000Y-95270000D03*
D26*
X95275000Y-97810000D03*
X95275000Y-100350000D03*
X95275000Y-102890000D03*
X95275000Y-105430000D03*
X95275000Y-107970000D03*
X95275000Y-110510000D03*
D10*
X188097600Y-124004000D03*
X188097600Y-130504000D03*
X192597600Y-124004000D03*
X192597600Y-130504000D03*
D27*
X179678000Y-73846200D03*
D28*
X182178000Y-73846200D03*
X184678000Y-73846200D03*
X187178000Y-73846200D03*
X189678000Y-73846200D03*
X192178000Y-73846200D03*
D22*
X126695200Y-84574400D03*
D23*
X126695200Y-82074400D03*
X126695200Y-79574400D03*
D10*
X168650000Y-84500000D03*
X173246194Y-79903806D03*
X171831981Y-87681981D03*
X176428175Y-83085786D03*
D18*
X118779500Y-68387500D03*
D19*
X116239500Y-68387500D03*
D18*
X126145500Y-68387500D03*
D19*
X123605500Y-68387500D03*
D24*
X143774000Y-81571000D03*
X161534000Y-81571000D03*
D30*
X109781577Y-125003349D03*
D19*
X111577629Y-126799400D03*
D30*
X104573029Y-119794801D03*
D19*
X106369080Y-121590852D03*
D11*
X124136500Y-131953000D03*
D12*
X122866500Y-131953000D03*
X121596500Y-131953000D03*
D25*
X179120800Y-129794000D03*
D26*
X179120800Y-132334000D03*
X179120800Y-134874000D03*
X179120800Y-137414000D03*
D31*
X169350000Y-120000000D03*
D32*
X112500000Y-124100000D03*
D31*
X127863600Y-100228400D03*
X169164000Y-110236000D03*
X172466000Y-98806000D03*
X157988000Y-100584000D03*
D32*
X187909200Y-117449600D03*
D31*
X172720000Y-97028000D03*
D32*
X139547600Y-102412800D03*
X152527000Y-103378000D03*
X115034136Y-114428464D03*
X127150000Y-66100000D03*
D31*
X172974000Y-102666800D03*
D32*
X172262800Y-118618000D03*
X118000000Y-71350000D03*
X112700000Y-81050000D03*
D31*
X169265600Y-96113600D03*
X164450000Y-86300000D03*
D32*
X174904400Y-119583200D03*
X113328000Y-90330000D03*
X118200000Y-134600000D03*
D31*
X123748800Y-100939600D03*
D32*
X145288000Y-99974400D03*
X155854400Y-106019600D03*
X157988000Y-107442000D03*
D31*
X157180452Y-97175500D03*
D32*
X125491269Y-76691729D03*
D31*
X160782000Y-94234000D03*
X167513000Y-89535000D03*
X157400000Y-99550000D03*
D32*
X154635200Y-103428800D03*
D31*
X166000000Y-117650000D03*
D32*
X123254000Y-76791000D03*
X111423000Y-90457000D03*
D31*
X190042800Y-81214100D03*
D32*
X139547600Y-104089200D03*
D31*
X172466000Y-99822000D03*
D32*
X115487000Y-90076000D03*
D31*
X185166000Y-105105200D03*
X170434000Y-110490000D03*
D32*
X126810000Y-74251000D03*
D31*
X189128400Y-100025200D03*
X160909000Y-90170000D03*
D32*
X179324000Y-139598400D03*
D31*
X164211000Y-89535000D03*
X190050712Y-83215100D03*
X172650000Y-82500000D03*
X129057000Y-109499000D03*
X157784800Y-94234000D03*
X120243600Y-104292400D03*
D32*
X145084800Y-98602800D03*
X141350000Y-105300000D03*
X188772800Y-115976400D03*
X111135236Y-112663164D03*
X156667200Y-107391200D03*
D31*
X159512000Y-94284800D03*
X162661600Y-94792800D03*
D32*
X173583600Y-125323600D03*
X114830936Y-116460464D03*
D31*
X131165600Y-98501200D03*
D32*
X127057500Y-128391000D03*
X125577600Y-90932000D03*
D31*
X166751000Y-87757000D03*
X168656000Y-93345000D03*
X160782000Y-92202000D03*
X172669200Y-95402400D03*
D32*
X127438500Y-132836000D03*
D31*
X126492000Y-120700800D03*
D32*
X122866500Y-128010000D03*
D31*
X168275000Y-94615000D03*
X169037000Y-89662000D03*
X163195000Y-87757000D03*
X186340400Y-82214600D03*
X170180000Y-96316800D03*
D32*
X113675236Y-113425164D03*
D31*
X156400000Y-95050000D03*
X166166800Y-110388400D03*
X179933600Y-83667600D03*
X126140700Y-89060700D03*
X179882800Y-82956400D03*
X120243600Y-115214400D03*
X184099200Y-118059200D03*
X123799600Y-120497600D03*
D32*
X123400000Y-110450000D03*
X180644800Y-102920800D03*
D31*
X166300000Y-98350000D03*
X178155600Y-114452400D03*
X184353200Y-114604800D03*
X182372000Y-105562400D03*
X190449200Y-109270800D03*
D32*
X168148000Y-110365500D03*
X178511200Y-111302800D03*
X173024800Y-107442000D03*
X178765200Y-109880400D03*
X138430000Y-123748800D03*
X146761200Y-105678100D03*
X148031200Y-104329100D03*
D31*
X139750000Y-106900000D03*
X116050000Y-105600000D03*
X114150000Y-109100000D03*
X174853600Y-104902000D03*
X174548800Y-107238800D03*
X176022000Y-107137200D03*
X175990067Y-104819267D03*
X166166800Y-107492800D03*
X169418000Y-86868000D03*
X170027600Y-93624400D03*
X167233600Y-98399600D03*
X165155840Y-109944160D03*
X164000000Y-111750000D03*
X125250000Y-111600000D03*
X161350000Y-99250000D03*
D32*
X136939023Y-126010977D03*
X162750000Y-106400000D03*
D31*
X125400000Y-113000000D03*
X165100000Y-98750000D03*
D32*
X129350000Y-126850000D03*
X164050000Y-106350000D03*
D31*
X142500000Y-95850000D03*
X159000000Y-98524500D03*
X118850000Y-94050000D03*
X164725634Y-96102578D03*
X162950000Y-99200000D03*
X154200000Y-97900000D03*
D32*
X167944800Y-112217200D03*
X167894000Y-107340400D03*
D31*
X174244000Y-100736400D03*
X182372000Y-84871900D03*
X172364400Y-100888800D03*
X182330989Y-84083789D03*
X168351200Y-100177600D03*
X169672000Y-98501200D03*
X168452800Y-98806000D03*
X182168800Y-80568800D03*
D33*
X184912000Y-120396000D02*
X187604400Y-117703600D01*
X184200800Y-120396000D02*
X184912000Y-120396000D01*
X187858400Y-117449600D02*
X187909200Y-117449600D01*
X187604400Y-117703600D02*
X187858400Y-117449600D01*
X175717200Y-120396000D02*
X184200800Y-120396000D01*
X174904400Y-119583200D02*
X175717200Y-120396000D01*
D34*
X164100000Y-84500000D02*
X156400000Y-92200000D01*
X156400000Y-92200000D02*
X156400000Y-95050000D01*
X168650000Y-84500000D02*
X164100000Y-84500000D01*
X173246194Y-79903806D02*
X168650000Y-84500000D01*
X188097600Y-124004000D02*
X176588139Y-124004000D01*
X166166800Y-113582661D02*
X166166800Y-110365500D01*
X176588139Y-124004000D02*
X166166800Y-113582661D01*
X169281000Y-103291800D02*
X180273800Y-103291800D01*
X180273800Y-103291800D02*
X180644800Y-102920800D01*
X166300000Y-100310800D02*
X169281000Y-103291800D01*
X166300000Y-98438297D02*
X166300000Y-100310800D01*
X178511200Y-111302800D02*
X169085300Y-111302800D01*
X169085300Y-111302800D02*
X168148000Y-110365500D01*
X178765200Y-109880400D02*
X175463200Y-109880400D01*
X175463200Y-109880400D02*
X173024800Y-107442000D01*
X138430000Y-123748800D02*
X134366000Y-123748800D01*
X134366000Y-123748800D02*
X133196800Y-123748800D01*
X133196800Y-123748800D02*
X128549000Y-119101000D01*
X142727761Y-105678100D02*
X146761200Y-105678100D01*
D35*
X146761200Y-105678100D02*
X148031200Y-104408100D01*
D34*
X95275000Y-107970000D02*
X140435861Y-107970000D01*
D35*
X148031200Y-104408100D02*
X148031200Y-104329100D01*
D34*
X140435861Y-107970000D02*
X142727761Y-105678100D01*
X138450000Y-105600000D02*
X139750000Y-106900000D01*
X116050000Y-105600000D02*
X138450000Y-105600000D01*
X95275000Y-110510000D02*
X96685000Y-109100000D01*
X96685000Y-109100000D02*
X114150000Y-109100000D01*
D36*
X174853600Y-106934000D02*
X174548800Y-107238800D01*
X174853600Y-104902000D02*
X174853600Y-106934000D01*
D35*
X175990067Y-104819267D02*
X175990067Y-107067533D01*
X176022000Y-107099466D02*
X176022000Y-107137200D01*
X175990067Y-107067533D02*
X176022000Y-107099466D01*
X169418000Y-86868000D02*
X167640000Y-88646000D01*
X165750000Y-107076000D02*
X166166800Y-107492800D01*
X165750000Y-88796000D02*
X165750000Y-107076000D01*
X167640000Y-88646000D02*
X165900000Y-88646000D01*
X165900000Y-88646000D02*
X165750000Y-88796000D01*
X170027600Y-93640218D02*
X167233600Y-96434218D01*
X167233600Y-96434218D02*
X167233600Y-98399600D01*
X170027600Y-93624400D02*
X170027600Y-93640218D01*
D34*
X164000000Y-111100000D02*
X164000000Y-111750000D01*
X165155840Y-109944160D02*
X164000000Y-111100000D01*
X125250000Y-111600000D02*
X127839884Y-111600000D01*
X160350000Y-100250000D02*
X161350000Y-99250000D01*
X157300000Y-109350000D02*
X160350000Y-106300000D01*
X160350000Y-106300000D02*
X160350000Y-105800000D01*
X160350000Y-105800000D02*
X160350000Y-100250000D01*
X127839884Y-111600000D02*
X130089884Y-109350000D01*
X130089884Y-109350000D02*
X157300000Y-109350000D01*
X136939023Y-126010977D02*
X144520423Y-126010977D01*
X162750000Y-107781400D02*
X162750000Y-106400000D01*
X144520423Y-126010977D02*
X162750000Y-107781400D01*
X161200000Y-103250000D02*
X163550000Y-100900000D01*
X155450000Y-113000000D02*
X161200000Y-107250000D01*
X165100000Y-99700000D02*
X165100000Y-98750000D01*
X125400000Y-113000000D02*
X155450000Y-113000000D01*
X163900000Y-100900000D02*
X165100000Y-99700000D01*
X163550000Y-100900000D02*
X163900000Y-100900000D01*
X161200000Y-107250000D02*
X161200000Y-103250000D01*
X145400000Y-127000000D02*
X164050000Y-108350000D01*
X164050000Y-108350000D02*
X164050000Y-106350000D01*
X129350000Y-126850000D02*
X129500000Y-127000000D01*
X129500000Y-127000000D02*
X145400000Y-127000000D01*
X156750000Y-99050000D02*
X157365000Y-98435000D01*
X142500000Y-95850000D02*
X150150000Y-95850000D01*
X158910500Y-98435000D02*
X159000000Y-98524500D01*
X150150000Y-95850000D02*
X153350000Y-99050000D01*
X153350000Y-99050000D02*
X156750000Y-99050000D01*
X157365000Y-98435000D02*
X158910500Y-98435000D01*
X164725634Y-96102578D02*
X151109684Y-96102578D01*
X150007106Y-95000000D02*
X119800000Y-95000000D01*
X151109684Y-96102578D02*
X150007106Y-95000000D01*
X119800000Y-95000000D02*
X118850000Y-94050000D01*
X161650000Y-97900000D02*
X162950000Y-99200000D01*
X154200000Y-97900000D02*
X161650000Y-97900000D01*
X167335200Y-111607600D02*
X167335200Y-107899200D01*
X167335200Y-107899200D02*
X167894000Y-107340400D01*
X167944800Y-112217200D02*
X167335200Y-111607600D01*
X174244000Y-100736400D02*
X180878000Y-94102400D01*
X180878000Y-94102400D02*
X180878000Y-86365900D01*
X180878000Y-86365900D02*
X182372000Y-84871900D01*
X172364400Y-100888800D02*
X173345000Y-99908200D01*
X173345000Y-92725116D02*
X181986327Y-84083789D01*
X173345000Y-99908200D02*
X173345000Y-92725116D01*
X181986327Y-84083789D02*
X182330989Y-84083789D01*
X169672000Y-98856800D02*
X168351200Y-100177600D01*
X169672000Y-98501200D02*
X169672000Y-98856800D01*
X168452800Y-96042516D02*
X168452800Y-98806000D01*
X169874410Y-95488600D02*
X169006716Y-95488600D01*
X182168800Y-83458789D02*
X181904221Y-83458789D01*
X182168800Y-80568800D02*
X182168800Y-83458789D01*
X181904221Y-83458789D02*
X169874410Y-95488600D01*
X169006716Y-95488600D02*
X168452800Y-96042516D01*
M02*
