G04 #@! TF.GenerationSoftware,KiCad,Pcbnew,7.0.1*
G04 #@! TF.CreationDate,2023-06-08T13:00:16-05:00*
G04 #@! TF.ProjectId,Micromouse-kicad,4d696372-6f6d-46f7-9573-652d6b696361,rev?*
G04 #@! TF.SameCoordinates,Original*
G04 #@! TF.FileFunction,Soldermask,Top*
G04 #@! TF.FilePolarity,Negative*
%FSLAX46Y46*%
G04 Gerber Fmt 4.6, Leading zero omitted, Abs format (unit mm)*
G04 Created by KiCad (PCBNEW 7.0.1) date 2023-06-08 13:00:16*
%MOMM*%
%LPD*%
G01*
G04 APERTURE LIST*
G04 Aperture macros list*
%AMRoundRect*
0 Rectangle with rounded corners*
0 $1 Rounding radius*
0 $2 $3 $4 $5 $6 $7 $8 $9 X,Y pos of 4 corners*
0 Add a 4 corners polygon primitive as box body*
4,1,4,$2,$3,$4,$5,$6,$7,$8,$9,$2,$3,0*
0 Add four circle primitives for the rounded corners*
1,1,$1+$1,$2,$3*
1,1,$1+$1,$4,$5*
1,1,$1+$1,$6,$7*
1,1,$1+$1,$8,$9*
0 Add four rect primitives between the rounded corners*
20,1,$1+$1,$2,$3,$4,$5,0*
20,1,$1+$1,$4,$5,$6,$7,0*
20,1,$1+$1,$6,$7,$8,$9,0*
20,1,$1+$1,$8,$9,$2,$3,0*%
%AMRotRect*
0 Rectangle, with rotation*
0 The origin of the aperture is its center*
0 $1 length*
0 $2 width*
0 $3 Rotation angle, in degrees counterclockwise*
0 Add horizontal line*
21,1,$1,$2,0,0,$3*%
G04 Aperture macros list end*
%ADD10C,0.300000*%
%ADD11C,0.200000*%
%ADD12C,2.400000*%
%ADD13RoundRect,0.150000X-0.150000X-0.625000X0.150000X-0.625000X0.150000X0.625000X-0.150000X0.625000X0*%
%ADD14RoundRect,0.250000X-0.350000X-0.650000X0.350000X-0.650000X0.350000X0.650000X-0.350000X0.650000X0*%
%ADD15RoundRect,0.135000X0.035355X-0.226274X0.226274X-0.035355X-0.035355X0.226274X-0.226274X0.035355X0*%
%ADD16C,2.000000*%
%ADD17RoundRect,0.135000X0.135000X0.185000X-0.135000X0.185000X-0.135000X-0.185000X0.135000X-0.185000X0*%
%ADD18RoundRect,0.140000X0.140000X0.170000X-0.140000X0.170000X-0.140000X-0.170000X0.140000X-0.170000X0*%
%ADD19RoundRect,0.140000X-0.140000X-0.170000X0.140000X-0.170000X0.140000X0.170000X-0.140000X0.170000X0*%
%ADD20R,1.500000X2.000000*%
%ADD21R,3.800000X2.000000*%
%ADD22R,1.000000X1.500000*%
%ADD23O,1.000000X1.500000*%
%ADD24RoundRect,0.135000X0.185000X-0.135000X0.185000X0.135000X-0.185000X0.135000X-0.185000X-0.135000X0*%
%ADD25RoundRect,0.140000X0.170000X-0.140000X0.170000X0.140000X-0.170000X0.140000X-0.170000X-0.140000X0*%
%ADD26RoundRect,0.135000X-0.135000X-0.185000X0.135000X-0.185000X0.135000X0.185000X-0.135000X0.185000X0*%
%ADD27RoundRect,0.218750X0.218750X0.256250X-0.218750X0.256250X-0.218750X-0.256250X0.218750X-0.256250X0*%
%ADD28R,1.540000X1.700000*%
%ADD29RoundRect,0.006600X-0.103400X0.313400X-0.103400X-0.313400X0.103400X-0.313400X0.103400X0.313400X0*%
%ADD30RoundRect,0.006600X0.313400X0.103400X-0.313400X0.103400X-0.313400X-0.103400X0.313400X-0.103400X0*%
%ADD31O,2.400000X1.100000*%
%ADD32R,1.900000X1.900000*%
%ADD33R,2.100000X0.400000*%
%ADD34C,0.600000*%
%ADD35RoundRect,0.200000X0.200000X0.275000X-0.200000X0.275000X-0.200000X-0.275000X0.200000X-0.275000X0*%
%ADD36RoundRect,0.070000X0.800000X-0.150000X0.800000X0.150000X-0.800000X0.150000X-0.800000X-0.150000X0*%
%ADD37C,0.380000*%
%ADD38RoundRect,0.000100X1.230000X-1.155000X1.230000X1.155000X-1.230000X1.155000X-1.230000X-1.155000X0*%
%ADD39RoundRect,0.147500X-0.147500X-0.172500X0.147500X-0.172500X0.147500X0.172500X-0.147500X0.172500X0*%
%ADD40RoundRect,0.135000X-0.185000X0.135000X-0.185000X-0.135000X0.185000X-0.135000X0.185000X0.135000X0*%
%ADD41R,1.500000X1.000000*%
%ADD42O,1.500000X1.000000*%
%ADD43RoundRect,0.135000X-0.226274X-0.035355X-0.035355X-0.226274X0.226274X0.035355X0.035355X0.226274X0*%
%ADD44R,1.500000X1.800000*%
%ADD45C,1.500000*%
%ADD46R,5.516000X5.516000*%
%ADD47C,5.516000*%
%ADD48RoundRect,0.250000X-0.325000X-0.650000X0.325000X-0.650000X0.325000X0.650000X-0.325000X0.650000X0*%
%ADD49C,1.900000*%
%ADD50RoundRect,0.218750X0.218750X0.381250X-0.218750X0.381250X-0.218750X-0.381250X0.218750X-0.381250X0*%
%ADD51R,2.000000X2.400000*%
%ADD52RoundRect,0.140000X0.021213X-0.219203X0.219203X-0.021213X-0.021213X0.219203X-0.219203X0.021213X0*%
%ADD53R,1.700000X1.700000*%
%ADD54O,1.700000X1.700000*%
%ADD55RoundRect,0.218750X0.381250X-0.218750X0.381250X0.218750X-0.381250X0.218750X-0.381250X-0.218750X0*%
%ADD56RoundRect,0.140000X-0.170000X0.140000X-0.170000X-0.140000X0.170000X-0.140000X0.170000X0.140000X0*%
%ADD57RotRect,1.500000X1.800000X225.000000*%
%ADD58RoundRect,0.150000X0.512500X0.150000X-0.512500X0.150000X-0.512500X-0.150000X0.512500X-0.150000X0*%
%ADD59RoundRect,0.200000X-0.275000X0.200000X-0.275000X-0.200000X0.275000X-0.200000X0.275000X0.200000X0*%
%ADD60R,1.200000X0.900000*%
%ADD61R,1.200000X0.300000*%
%ADD62R,0.300000X1.200000*%
%ADD63RoundRect,0.200000X-0.200000X-0.275000X0.200000X-0.275000X0.200000X0.275000X-0.200000X0.275000X0*%
%ADD64RotRect,1.500000X1.800000X315.000000*%
%ADD65RoundRect,0.135000X-0.035355X0.226274X-0.226274X0.035355X0.035355X-0.226274X0.226274X-0.035355X0*%
G04 APERTURE END LIST*
D10*
X191463928Y-65587142D02*
X191463928Y-65015714D01*
X190963928Y-65372857D02*
X192249642Y-65372857D01*
X192249642Y-65372857D02*
X192392500Y-65301428D01*
X192392500Y-65301428D02*
X192463928Y-65158571D01*
X192463928Y-65158571D02*
X192463928Y-65015714D01*
X191463928Y-63872857D02*
X192463928Y-63872857D01*
X190892500Y-64229999D02*
X191963928Y-64587142D01*
X191963928Y-64587142D02*
X191963928Y-63658571D01*
X192463928Y-62444286D02*
X190963928Y-62444286D01*
X192392500Y-62444286D02*
X192463928Y-62587143D01*
X192463928Y-62587143D02*
X192463928Y-62872857D01*
X192463928Y-62872857D02*
X192392500Y-63015714D01*
X192392500Y-63015714D02*
X192321071Y-63087143D01*
X192321071Y-63087143D02*
X192178214Y-63158571D01*
X192178214Y-63158571D02*
X191749642Y-63158571D01*
X191749642Y-63158571D02*
X191606785Y-63087143D01*
X191606785Y-63087143D02*
X191535357Y-63015714D01*
X191535357Y-63015714D02*
X191463928Y-62872857D01*
X191463928Y-62872857D02*
X191463928Y-62587143D01*
X191463928Y-62587143D02*
X191535357Y-62444286D01*
X191463928Y-61872857D02*
X191463928Y-61087143D01*
X191463928Y-61087143D02*
X192463928Y-61872857D01*
X192463928Y-61872857D02*
X192463928Y-61087143D01*
X192463928Y-60515714D02*
X191463928Y-60515714D01*
X190963928Y-60515714D02*
X191035357Y-60587142D01*
X191035357Y-60587142D02*
X191106785Y-60515714D01*
X191106785Y-60515714D02*
X191035357Y-60444285D01*
X191035357Y-60444285D02*
X190963928Y-60515714D01*
X190963928Y-60515714D02*
X191106785Y-60515714D01*
X190963928Y-59515713D02*
X190963928Y-59372856D01*
X190963928Y-59372856D02*
X191035357Y-59229999D01*
X191035357Y-59229999D02*
X191106785Y-59158571D01*
X191106785Y-59158571D02*
X191249642Y-59087142D01*
X191249642Y-59087142D02*
X191535357Y-59015713D01*
X191535357Y-59015713D02*
X191892500Y-59015713D01*
X191892500Y-59015713D02*
X192178214Y-59087142D01*
X192178214Y-59087142D02*
X192321071Y-59158571D01*
X192321071Y-59158571D02*
X192392500Y-59229999D01*
X192392500Y-59229999D02*
X192463928Y-59372856D01*
X192463928Y-59372856D02*
X192463928Y-59515713D01*
X192463928Y-59515713D02*
X192392500Y-59658571D01*
X192392500Y-59658571D02*
X192321071Y-59729999D01*
X192321071Y-59729999D02*
X192178214Y-59801428D01*
X192178214Y-59801428D02*
X191892500Y-59872856D01*
X191892500Y-59872856D02*
X191535357Y-59872856D01*
X191535357Y-59872856D02*
X191249642Y-59801428D01*
X191249642Y-59801428D02*
X191106785Y-59729999D01*
X191106785Y-59729999D02*
X191035357Y-59658571D01*
X191035357Y-59658571D02*
X190963928Y-59515713D01*
X190963928Y-140465713D02*
X192035357Y-140465713D01*
X192035357Y-140465713D02*
X192249642Y-140537142D01*
X192249642Y-140537142D02*
X192392500Y-140679999D01*
X192392500Y-140679999D02*
X192463928Y-140894285D01*
X192463928Y-140894285D02*
X192463928Y-141037142D01*
X192392500Y-139822856D02*
X192463928Y-139608571D01*
X192463928Y-139608571D02*
X192463928Y-139251428D01*
X192463928Y-139251428D02*
X192392500Y-139108571D01*
X192392500Y-139108571D02*
X192321071Y-139037142D01*
X192321071Y-139037142D02*
X192178214Y-138965713D01*
X192178214Y-138965713D02*
X192035357Y-138965713D01*
X192035357Y-138965713D02*
X191892500Y-139037142D01*
X191892500Y-139037142D02*
X191821071Y-139108571D01*
X191821071Y-139108571D02*
X191749642Y-139251428D01*
X191749642Y-139251428D02*
X191678214Y-139537142D01*
X191678214Y-139537142D02*
X191606785Y-139679999D01*
X191606785Y-139679999D02*
X191535357Y-139751428D01*
X191535357Y-139751428D02*
X191392500Y-139822856D01*
X191392500Y-139822856D02*
X191249642Y-139822856D01*
X191249642Y-139822856D02*
X191106785Y-139751428D01*
X191106785Y-139751428D02*
X191035357Y-139679999D01*
X191035357Y-139679999D02*
X190963928Y-139537142D01*
X190963928Y-139537142D02*
X190963928Y-139179999D01*
X190963928Y-139179999D02*
X191035357Y-138965713D01*
X190963928Y-138037142D02*
X190963928Y-137751428D01*
X190963928Y-137751428D02*
X191035357Y-137608571D01*
X191035357Y-137608571D02*
X191178214Y-137465714D01*
X191178214Y-137465714D02*
X191463928Y-137394285D01*
X191463928Y-137394285D02*
X191963928Y-137394285D01*
X191963928Y-137394285D02*
X192249642Y-137465714D01*
X192249642Y-137465714D02*
X192392500Y-137608571D01*
X192392500Y-137608571D02*
X192463928Y-137751428D01*
X192463928Y-137751428D02*
X192463928Y-138037142D01*
X192463928Y-138037142D02*
X192392500Y-138180000D01*
X192392500Y-138180000D02*
X192249642Y-138322857D01*
X192249642Y-138322857D02*
X191963928Y-138394285D01*
X191963928Y-138394285D02*
X191463928Y-138394285D01*
X191463928Y-138394285D02*
X191178214Y-138322857D01*
X191178214Y-138322857D02*
X191035357Y-138180000D01*
X191035357Y-138180000D02*
X190963928Y-138037142D01*
X192463928Y-135894285D02*
X191749642Y-136394285D01*
X192463928Y-136751428D02*
X190963928Y-136751428D01*
X190963928Y-136751428D02*
X190963928Y-136179999D01*
X190963928Y-136179999D02*
X191035357Y-136037142D01*
X191035357Y-136037142D02*
X191106785Y-135965713D01*
X191106785Y-135965713D02*
X191249642Y-135894285D01*
X191249642Y-135894285D02*
X191463928Y-135894285D01*
X191463928Y-135894285D02*
X191606785Y-135965713D01*
X191606785Y-135965713D02*
X191678214Y-136037142D01*
X191678214Y-136037142D02*
X191749642Y-136179999D01*
X191749642Y-136179999D02*
X191749642Y-136751428D01*
D11*
X109234410Y-102838166D02*
X109110077Y-102179953D01*
X112539798Y-100591998D02*
X112725450Y-100853291D01*
X107622195Y-101594676D02*
X107404183Y-101662471D01*
X107178837Y-101695000D01*
X106936056Y-101719962D01*
X106718416Y-101737356D01*
X106525936Y-101749607D01*
X104924557Y-99932183D02*
X104810796Y-100277392D01*
X109739851Y-103644492D02*
X109711734Y-103847928D01*
X109711460Y-103869740D01*
X106876246Y-102489240D02*
X106682689Y-102338343D01*
X106471467Y-102170755D01*
X106302175Y-102034426D01*
X106117180Y-101883261D01*
X105922553Y-101721416D01*
X105724361Y-101553043D01*
X105528674Y-101382300D01*
X105341562Y-101213340D01*
X105169092Y-101050318D01*
X105017334Y-100897390D01*
X104841809Y-100696010D01*
X104736912Y-100501609D01*
X103982475Y-97383765D02*
X104046560Y-97182797D01*
X104138125Y-96964009D01*
X104239107Y-96765890D01*
X104371361Y-96548738D01*
X104538110Y-96321669D01*
X104670032Y-96169284D01*
X104819672Y-96019247D01*
X104987986Y-95874260D01*
X105175927Y-95737023D01*
X105384452Y-95610240D01*
X105496732Y-95551613D01*
X108920563Y-101691720D02*
X109033401Y-103031251D01*
X107032920Y-101200895D02*
X107138395Y-101018245D01*
X107330870Y-100907756D01*
X107566176Y-100897371D01*
X107718483Y-100930259D01*
X104810796Y-100277392D02*
X104925935Y-100476595D01*
X105105323Y-100679160D01*
X105258151Y-100831943D01*
X105430682Y-100994203D01*
X105617014Y-101161900D01*
X105811246Y-101330993D01*
X106007477Y-101497441D01*
X106199803Y-101657205D01*
X106382325Y-101806243D01*
X106549139Y-101940515D01*
X106757001Y-102105397D01*
X106924092Y-102235846D01*
X106947192Y-102253668D01*
X109033401Y-103031251D02*
X109165080Y-103717514D01*
X105028711Y-95843197D02*
X104840532Y-96023271D01*
X104678614Y-96207603D01*
X104541263Y-96391393D01*
X104426787Y-96569845D01*
X104306811Y-96791185D01*
X104220480Y-96983133D01*
X104145292Y-97191072D01*
X104123239Y-97268914D01*
X111635039Y-103995825D02*
X111614179Y-104202746D01*
X111554352Y-104395474D01*
X111431062Y-104610134D01*
X111261402Y-104788101D01*
X111053435Y-104921310D01*
X110864901Y-104990233D01*
X110661140Y-105021222D01*
X110608305Y-105022558D01*
X109292641Y-103995825D02*
X109307800Y-104196186D01*
X109372475Y-104448192D01*
X109483113Y-104678042D01*
X109634426Y-104880445D01*
X109821121Y-105050111D01*
X110037909Y-105181748D01*
X110279499Y-105270067D01*
X110540601Y-105309776D01*
X110608305Y-105311488D01*
X109574358Y-101803040D02*
X109418615Y-101795174D01*
X108920563Y-101691720D02*
X109033401Y-103031251D01*
X109711460Y-103869740D02*
X109740964Y-104103955D01*
X109824572Y-104316453D01*
X109954921Y-104499875D01*
X110124651Y-104646859D01*
X110326402Y-104750045D01*
X110552813Y-104802074D01*
X110648634Y-104806913D01*
X111009948Y-101195122D02*
X112582675Y-100851932D01*
X110236000Y-101981000D02*
X110487089Y-102543257D01*
X115229976Y-101447110D02*
X112850493Y-103134786D01*
X109418615Y-101795174D02*
X109253905Y-102179442D01*
X104871359Y-99686000D02*
X105540087Y-99789386D01*
X104719847Y-100164034D02*
X104871359Y-99686000D01*
X111995806Y-99826363D02*
X112725450Y-100853291D01*
X110487089Y-102543257D02*
X110602690Y-102537416D01*
X107612941Y-101605775D02*
X107622195Y-101594676D01*
X111508375Y-103995824D02*
G75*
G03*
X111508375Y-103995824I-905121J0D01*
G01*
X109574166Y-98467934D02*
X109371944Y-98483450D01*
X109133199Y-98544040D01*
X108914227Y-98646168D01*
X108719513Y-98785300D01*
X108553538Y-98956904D01*
X108420785Y-99156446D01*
X108358946Y-99287695D01*
X111369657Y-101755491D02*
X111043209Y-102605486D01*
X112691439Y-106320405D02*
X112718405Y-106656063D01*
X110145063Y-102092190D02*
X109766398Y-102329981D01*
X110602690Y-102537416D02*
X110812255Y-102553314D01*
X110933740Y-102576592D01*
X111577464Y-99799742D02*
X111567463Y-100000775D01*
X111527859Y-100243889D01*
X111459912Y-100476217D01*
X111365519Y-100695937D01*
X111246578Y-100901225D01*
X111104986Y-101090260D01*
X111009948Y-101195122D01*
X105496731Y-95551613D02*
X105308413Y-95653839D01*
X105135687Y-95765017D01*
X105028711Y-95843197D01*
X109664696Y-102228279D02*
X110236000Y-101981000D01*
X111923969Y-103995825D02*
X111908809Y-103795462D01*
X111844134Y-103543455D01*
X111733496Y-103313604D01*
X111582183Y-103111201D01*
X111395488Y-102941536D01*
X111178700Y-102809899D01*
X110937110Y-102721581D01*
X110676008Y-102681872D01*
X110608305Y-102680161D01*
X112582675Y-100851932D02*
X112396251Y-100591998D01*
X112296411Y-104352257D02*
X113103087Y-104130359D01*
X105540086Y-99789389D02*
X104871363Y-99686002D01*
X115229976Y-98518512D02*
X111095335Y-98518512D01*
X111415164Y-99779312D02*
X111393951Y-99498945D01*
X111332396Y-99231855D01*
X111233621Y-98981163D01*
X111100751Y-98749992D01*
X110936906Y-98541466D01*
X110745212Y-98358708D01*
X110528791Y-98204841D01*
X110290766Y-98082989D01*
X110034261Y-97996274D01*
X109762398Y-97947819D01*
X109574167Y-97938315D01*
X108319219Y-99602882D02*
X108334329Y-99802592D01*
X108398793Y-100053779D01*
X108509072Y-100282881D01*
X108659892Y-100484624D01*
X108845980Y-100653737D01*
X109062062Y-100784945D01*
X109302864Y-100872975D01*
X109563114Y-100912554D01*
X109630598Y-100914261D01*
X106525938Y-101749609D02*
X106757891Y-101734484D01*
X106983965Y-101715576D01*
X107226666Y-101689101D01*
X107443416Y-101655057D01*
X107622198Y-101594676D01*
X106947192Y-102253668D02*
X107612941Y-101605775D01*
X108239924Y-98327497D02*
X108036699Y-98462365D01*
X107808681Y-98627208D01*
X107647725Y-98749092D01*
X107482993Y-98877303D01*
X107317384Y-99009043D01*
X107153795Y-99141515D01*
X106995124Y-99271921D01*
X106772676Y-99457536D01*
X106577592Y-99622764D01*
X106419651Y-99758163D01*
X106265520Y-99891897D01*
X106250505Y-99905054D01*
X105777666Y-98094451D02*
X105842527Y-98318629D01*
X105886781Y-98558619D01*
X105905717Y-98797563D01*
X105898895Y-99003039D01*
X105864662Y-99212635D01*
X105850969Y-99264747D01*
X110833625Y-99779310D02*
G75*
G03*
X110833625Y-99779310I-1266527J0D01*
G01*
X109253905Y-102179442D02*
X109269389Y-102698343D01*
X115229976Y-106057276D02*
X115229976Y-106923192D01*
X109930059Y-105289058D02*
X109744826Y-105174100D01*
X109579532Y-105033591D01*
X109436771Y-104870205D01*
X109411152Y-104835018D01*
X109574167Y-98342612D02*
X109792961Y-98359166D01*
X110001396Y-98407203D01*
X110197034Y-98484286D01*
X110377437Y-98587978D01*
X110540169Y-98715841D01*
X110682792Y-98865438D01*
X110802869Y-99034331D01*
X110897962Y-99220084D01*
X110965634Y-99420259D01*
X111003448Y-99632418D01*
X111010866Y-99779312D01*
X113239852Y-104062531D02*
X115229976Y-102641230D01*
X111535805Y-99392260D02*
X111566833Y-99592979D01*
X111577464Y-99799742D01*
X115229976Y-106923192D02*
X112718405Y-106656063D01*
X104924558Y-99932186D02*
X105052400Y-100092662D01*
X105193628Y-100268184D01*
X105369886Y-100484939D01*
X105500736Y-100644096D01*
X105637982Y-100809196D01*
X105777955Y-100975286D01*
X105916987Y-101137414D01*
X106051407Y-101290627D01*
X106236367Y-101492896D01*
X106390316Y-101647245D01*
X106525938Y-101749609D01*
X107733170Y-99779312D02*
X107754382Y-100059676D01*
X107815937Y-100326766D01*
X107914712Y-100577457D01*
X108047582Y-100808628D01*
X108211427Y-101017154D01*
X108403121Y-101199912D01*
X108619542Y-101353780D01*
X108857567Y-101475633D01*
X109114072Y-101562349D01*
X109385935Y-101610804D01*
X109574167Y-101620309D01*
X111545479Y-103995825D02*
G75*
G03*
X111545479Y-103995825I-937173J0D01*
G01*
X107718483Y-100930259D02*
X107962666Y-100980787D01*
X109102575Y-105624510D02*
X109033035Y-105802428D01*
X105692938Y-99818885D02*
X106228920Y-99905054D01*
X107181055Y-101555143D02*
X106970139Y-101596404D01*
X106749942Y-101630065D01*
X106560796Y-101624556D01*
X111517091Y-104221057D02*
X111545203Y-104017635D01*
X111545478Y-103995826D01*
X111010866Y-99779312D02*
X110994311Y-99998106D01*
X110946274Y-100206541D01*
X110869191Y-100402179D01*
X110765499Y-100582582D01*
X110637636Y-100745314D01*
X110488039Y-100887937D01*
X110319146Y-101008014D01*
X110133393Y-101103107D01*
X109933219Y-101170779D01*
X109721060Y-101208593D01*
X109574167Y-101216011D01*
X109581572Y-103995825D02*
X109602431Y-103788902D01*
X109662257Y-103596174D01*
X109785546Y-103381514D01*
X109955206Y-103203547D01*
X110163172Y-103070338D01*
X110351707Y-103001415D01*
X110555469Y-102970426D01*
X110608305Y-102969091D01*
X111095335Y-98518512D02*
X111217682Y-98678883D01*
X111323383Y-98851499D01*
X111384343Y-98972713D01*
X106918181Y-100018803D02*
X106821261Y-100992605D01*
X115229976Y-106923192D02*
X112691439Y-106320405D01*
X105540087Y-99789386D02*
X105391253Y-99620168D01*
X105271007Y-99433967D01*
X105151702Y-99217281D01*
X105049448Y-99009153D01*
X104936748Y-98757563D01*
X104856034Y-98563754D01*
X104814054Y-98458588D01*
X108358946Y-99287695D02*
X108324257Y-99491934D01*
X108319219Y-99602882D01*
X111384343Y-98972713D02*
X111796736Y-99554698D01*
X104123239Y-97268914D02*
X104034933Y-97584894D01*
X103977178Y-97881889D01*
X103947015Y-98160108D01*
X103941486Y-98419763D01*
X103957633Y-98661062D01*
X103992497Y-98884217D01*
X104043121Y-99089437D01*
X104142137Y-99364099D01*
X104259972Y-99599590D01*
X104386644Y-99796620D01*
X104512170Y-99955898D01*
X104660498Y-100110768D01*
X104719847Y-100164034D01*
X109574167Y-101216011D02*
X109355370Y-101199456D01*
X109146935Y-101151419D01*
X108951296Y-101074336D01*
X108770893Y-100970644D01*
X108608161Y-100842781D01*
X108465538Y-100693184D01*
X108345462Y-100524291D01*
X108250370Y-100338538D01*
X108182698Y-100138364D01*
X108144885Y-99926205D01*
X108137468Y-99779312D01*
X109766398Y-102329981D02*
X109234410Y-102838166D01*
X112564626Y-106656065D02*
X112557975Y-106399542D01*
X112536622Y-106138830D01*
X112502698Y-105876894D01*
X112458339Y-105616702D01*
X112405678Y-105361222D01*
X112346848Y-105113420D01*
X112283983Y-104876266D01*
X112219218Y-104652725D01*
X112154685Y-104445765D01*
X112072691Y-104200740D01*
X112053443Y-104145739D01*
X107579000Y-99807874D02*
X107590792Y-99590373D01*
X107625332Y-99379783D01*
X107681363Y-99177285D01*
X107757629Y-98984060D01*
X107852874Y-98801287D01*
X107965842Y-98630149D01*
X108095278Y-98471825D01*
X108239924Y-98327497D01*
X105067867Y-99857697D02*
X106770564Y-100114513D01*
X113103087Y-104130359D02*
X113004058Y-103818606D01*
X112889989Y-103531638D01*
X112763838Y-103268809D01*
X112628561Y-103029476D01*
X112487114Y-102812994D01*
X112342454Y-102618718D01*
X112197539Y-102446003D01*
X112055325Y-102294205D01*
X111853536Y-102104318D01*
X111674455Y-101957869D01*
X111488254Y-101826413D01*
X111369657Y-101755491D01*
X115229975Y-100853291D02*
X112539798Y-100591998D01*
X115229975Y-99826363D02*
X111995806Y-99826363D01*
X110864475Y-101324046D02*
X110694532Y-101454884D01*
X110510854Y-101567142D01*
X110314815Y-101659348D01*
X110107792Y-101730029D01*
X109891161Y-101777715D01*
X109666299Y-101800933D01*
X109574358Y-101803040D01*
X109033035Y-105802428D02*
X109930059Y-105289058D01*
X111027799Y-105390865D02*
X111223978Y-105315293D01*
X111309659Y-105271283D01*
X110933740Y-102576592D02*
X111408213Y-101248829D01*
X109574167Y-101620309D02*
X109854533Y-101599096D01*
X110121623Y-101537540D01*
X110372315Y-101438765D01*
X110603486Y-101305894D01*
X110812012Y-101142049D01*
X110994770Y-100950354D01*
X111148637Y-100733933D01*
X111270489Y-100495908D01*
X111357204Y-100239403D01*
X111405659Y-99967542D01*
X111415164Y-99779312D01*
X112725450Y-100853291D02*
X115229975Y-100853291D01*
X111043209Y-102605486D02*
X111242166Y-102685116D01*
X111425383Y-102791900D01*
X111590362Y-102923333D01*
X111734609Y-103076909D01*
X111855628Y-103250122D01*
X111950924Y-103440467D01*
X112018001Y-103645437D01*
X112054365Y-103862529D01*
X106525936Y-101749607D02*
X106343208Y-101602151D01*
X106177547Y-101429972D01*
X105985002Y-101215444D01*
X105847817Y-101057155D01*
X105707856Y-100892426D01*
X105568788Y-100726211D01*
X105434281Y-100563464D01*
X105249099Y-100336678D01*
X105094819Y-100145554D01*
X104958581Y-99975088D01*
X104924557Y-99932183D01*
X111545478Y-103995826D02*
X111515973Y-103761612D01*
X111432365Y-103549114D01*
X111302016Y-103365692D01*
X111132286Y-103218707D01*
X110930535Y-103115519D01*
X110704125Y-103063490D01*
X110608305Y-103058652D01*
X109275341Y-101782129D02*
X109073580Y-101742096D01*
X108920563Y-101691720D01*
X115229976Y-102641230D02*
X115229976Y-101447110D01*
X110608305Y-105311488D02*
X110808667Y-105296328D01*
X111060674Y-105231653D01*
X111290525Y-105121014D01*
X111492928Y-104969701D01*
X111662593Y-104783005D01*
X111794230Y-104566217D01*
X111882548Y-104324628D01*
X111922257Y-104063528D01*
X111923969Y-103995825D01*
X110608305Y-105022558D02*
X110401381Y-105001698D01*
X110208653Y-104941871D01*
X109993993Y-104818581D01*
X109816027Y-104648921D01*
X109682818Y-104440955D01*
X109613896Y-104252420D01*
X109582907Y-104048660D01*
X109581572Y-103995825D01*
X115229975Y-100853291D02*
X115229975Y-99826363D01*
X110349083Y-102543465D02*
X110145063Y-102092190D01*
X112564626Y-106656065D02*
X111027799Y-105390865D01*
X112637785Y-105652549D02*
X115229976Y-106057276D01*
X106821261Y-100992605D02*
X107032920Y-101200895D01*
X110845824Y-100094478D02*
X110880506Y-99890251D01*
X110885545Y-99779313D01*
X112718405Y-106656063D02*
X112637785Y-105652549D01*
X109033035Y-105802428D02*
X109930059Y-105289058D01*
X111309659Y-105271283D02*
X112564626Y-106656065D01*
X115229976Y-99554698D02*
X115229976Y-98518512D01*
X106667139Y-101037401D02*
X107181055Y-101555143D01*
X104814054Y-98458588D02*
X104746991Y-98236110D01*
X104713192Y-98002951D01*
X104708664Y-97762564D01*
X104729414Y-97518405D01*
X104771450Y-97273928D01*
X104830778Y-97032586D01*
X104903406Y-96797835D01*
X104985341Y-96573129D01*
X105072590Y-96361922D01*
X105161160Y-96167668D01*
X105287758Y-95915631D01*
X105394870Y-95721171D01*
X105496731Y-95551613D01*
X110885547Y-99779312D02*
G75*
G03*
X110885547Y-99779312I-1311379J0D01*
G01*
X112396251Y-100591998D02*
X111009948Y-101195122D01*
X107962666Y-100980787D02*
X107838056Y-100787819D01*
X107735706Y-100580626D01*
X107657461Y-100360815D01*
X107605167Y-100129991D01*
X107582743Y-99930386D01*
X107579000Y-99807874D01*
X112054365Y-103862529D02*
X112296411Y-104352257D01*
X109165080Y-103717514D02*
X109225725Y-103521074D01*
X109245983Y-103463427D01*
X110608305Y-102969091D02*
X110815227Y-102989950D01*
X111007955Y-103049777D01*
X111222615Y-103173067D01*
X111400582Y-103342727D01*
X111533791Y-103550694D01*
X111602714Y-103739228D01*
X111633703Y-103942989D01*
X111635039Y-103995825D01*
X104736912Y-100501609D02*
X104924558Y-99932186D01*
X104814058Y-98458590D02*
X104896941Y-98663366D01*
X105013022Y-98930315D01*
X105118808Y-99152494D01*
X105213845Y-99333831D01*
X105323058Y-99518865D01*
X105447189Y-99693720D01*
X105540086Y-99789389D01*
X109630598Y-100914261D02*
X109832822Y-100898743D01*
X110071571Y-100838152D01*
X110290545Y-100736021D01*
X110485260Y-100596884D01*
X110651235Y-100425276D01*
X110783985Y-100225729D01*
X110845824Y-100094478D01*
X109245983Y-103463427D02*
X109348835Y-103246809D01*
X109479177Y-103051301D01*
X109635818Y-102880912D01*
X109817567Y-102739651D01*
X110023234Y-102631529D01*
X110251628Y-102560555D01*
X110349083Y-102543465D01*
X109411152Y-104835018D02*
X109033035Y-105802428D01*
X109930059Y-105289058D02*
X109102575Y-105624510D01*
X111796736Y-99554698D02*
X115229976Y-99554698D01*
X109269389Y-102698343D02*
X109664696Y-102228279D01*
X110608305Y-103058652D02*
X110394049Y-103083291D01*
X110197376Y-103153477D01*
X110023819Y-103263610D01*
X109878915Y-103408093D01*
X109768201Y-103581326D01*
X109739851Y-103644492D01*
X109110077Y-102179953D02*
X109275341Y-101782129D01*
X110885545Y-99779313D02*
X110870434Y-99579603D01*
X110805970Y-99328417D01*
X110695691Y-99099316D01*
X110544871Y-98897572D01*
X110358783Y-98728459D01*
X110142701Y-98597250D01*
X109901899Y-98509219D01*
X109641649Y-98469640D01*
X109574166Y-98467934D01*
X106560796Y-101624556D02*
X106409872Y-101455279D01*
X106260195Y-101288215D01*
X106079090Y-101085117D01*
X105880092Y-100860173D01*
X105744170Y-100705080D01*
X105610323Y-100550787D01*
X105422215Y-100330042D01*
X105261335Y-100134743D01*
X105112577Y-99938449D01*
X105067867Y-99857697D01*
X104871363Y-99686002D02*
X104662583Y-100344723D01*
X112053443Y-104145739D02*
X112014685Y-104362022D01*
X111945348Y-104565979D01*
X111847942Y-104755110D01*
X111724979Y-104926913D01*
X111578972Y-105078891D01*
X111412431Y-105208541D01*
X111227869Y-105313366D01*
X111027799Y-105390865D01*
X105850969Y-99264747D02*
X105787863Y-99486026D01*
X105731519Y-99683597D01*
X105692938Y-99818885D01*
X111009948Y-101195122D02*
X112582675Y-100851932D01*
X107622198Y-101594676D02*
X106876246Y-102489240D01*
X110648634Y-104806913D02*
X110862892Y-104782272D01*
X111059568Y-104712084D01*
X111233126Y-104601947D01*
X111378029Y-104457461D01*
X111488741Y-104284224D01*
X111517091Y-104221057D01*
X112582675Y-100851932D02*
X111535805Y-99392260D01*
X111408213Y-101248829D02*
X110864475Y-101324046D01*
X109245983Y-103463427D02*
X108920563Y-101691720D01*
X105496732Y-95551613D02*
X105362164Y-95778874D01*
X105247060Y-95993822D01*
X105116960Y-96262460D01*
X105028552Y-96465623D01*
X104943461Y-96684012D01*
X104865681Y-96914172D01*
X104799204Y-97152651D01*
X104748023Y-97395992D01*
X104716131Y-97640742D01*
X104707521Y-97883447D01*
X104726186Y-98120651D01*
X104776118Y-98348902D01*
X104814058Y-98458590D01*
X109574167Y-97938315D02*
X109293800Y-97959527D01*
X109026710Y-98021082D01*
X108776018Y-98119857D01*
X108544847Y-98252727D01*
X108336321Y-98416572D01*
X108153563Y-98608266D01*
X107999696Y-98824687D01*
X107877844Y-99062712D01*
X107791129Y-99319217D01*
X107742674Y-99591080D01*
X107733170Y-99779312D01*
X104662583Y-100344723D02*
X104505236Y-100211882D01*
X104323343Y-100013193D01*
X104172975Y-99803453D01*
X104028991Y-99540365D01*
X103944698Y-99334758D01*
X103875468Y-99104574D01*
X103826190Y-98849467D01*
X103801755Y-98569090D01*
X103807054Y-98263096D01*
X103846976Y-97931139D01*
X103926411Y-97572872D01*
X103982475Y-97383765D01*
X110608305Y-102680161D02*
X110407942Y-102695320D01*
X110155935Y-102759995D01*
X109926084Y-102870633D01*
X109723681Y-103021946D01*
X109554016Y-103208641D01*
X109422379Y-103425429D01*
X109334061Y-103667019D01*
X109294352Y-103928121D01*
X109292641Y-103995825D01*
X112725450Y-100853291D02*
X115229975Y-100853291D01*
X112850493Y-103134786D02*
X112947964Y-103315408D01*
X113039556Y-103508306D01*
X113124092Y-103713742D01*
X113200397Y-103931977D01*
X113239852Y-104062531D01*
X108137468Y-99779312D02*
X108154021Y-99560517D01*
X108202058Y-99352082D01*
X108279141Y-99156444D01*
X108382832Y-98976040D01*
X108510694Y-98813308D01*
X108660291Y-98670685D01*
X108829184Y-98550608D01*
X109014937Y-98455515D01*
X109215112Y-98387843D01*
X109427272Y-98350029D01*
X109574167Y-98342612D01*
X106228920Y-99905054D02*
X106265897Y-99685208D01*
X106287676Y-99450407D01*
X106292083Y-99241550D01*
X106278628Y-99017119D01*
X106240436Y-98788365D01*
X106170632Y-98566540D01*
X106062343Y-98362896D01*
X105908694Y-98188684D01*
X105777666Y-98094451D01*
X112718405Y-106656063D02*
X115229976Y-106923192D01*
X106770564Y-100114513D02*
X106667139Y-101037401D01*
X111027799Y-105390865D02*
X112564626Y-106656065D01*
X106250505Y-99905054D02*
X106918181Y-100018803D01*
D10*
X106992928Y-106556856D02*
X106278642Y-107056856D01*
X106992928Y-107413999D02*
X105492928Y-107413999D01*
X105492928Y-107413999D02*
X105492928Y-106842570D01*
X105492928Y-106842570D02*
X105564357Y-106699713D01*
X105564357Y-106699713D02*
X105635785Y-106628284D01*
X105635785Y-106628284D02*
X105778642Y-106556856D01*
X105778642Y-106556856D02*
X105992928Y-106556856D01*
X105992928Y-106556856D02*
X106135785Y-106628284D01*
X106135785Y-106628284D02*
X106207214Y-106699713D01*
X106207214Y-106699713D02*
X106278642Y-106842570D01*
X106278642Y-106842570D02*
X106278642Y-107413999D01*
X106564357Y-105985427D02*
X106564357Y-105271142D01*
X106992928Y-106128284D02*
X105492928Y-105628284D01*
X105492928Y-105628284D02*
X106992928Y-105128284D01*
X106921500Y-104699713D02*
X106992928Y-104485428D01*
X106992928Y-104485428D02*
X106992928Y-104128285D01*
X106992928Y-104128285D02*
X106921500Y-103985428D01*
X106921500Y-103985428D02*
X106850071Y-103913999D01*
X106850071Y-103913999D02*
X106707214Y-103842570D01*
X106707214Y-103842570D02*
X106564357Y-103842570D01*
X106564357Y-103842570D02*
X106421500Y-103913999D01*
X106421500Y-103913999D02*
X106350071Y-103985428D01*
X106350071Y-103985428D02*
X106278642Y-104128285D01*
X106278642Y-104128285D02*
X106207214Y-104413999D01*
X106207214Y-104413999D02*
X106135785Y-104556856D01*
X106135785Y-104556856D02*
X106064357Y-104628285D01*
X106064357Y-104628285D02*
X105921500Y-104699713D01*
X105921500Y-104699713D02*
X105778642Y-104699713D01*
X105778642Y-104699713D02*
X105635785Y-104628285D01*
X105635785Y-104628285D02*
X105564357Y-104556856D01*
X105564357Y-104556856D02*
X105492928Y-104413999D01*
X105492928Y-104413999D02*
X105492928Y-104056856D01*
X105492928Y-104056856D02*
X105564357Y-103842570D01*
D12*
X109575600Y-99822000D03*
X186690000Y-61772800D03*
X186690000Y-144729200D03*
D13*
X183453400Y-73537200D03*
X184453400Y-73537200D03*
X185453400Y-73537200D03*
X186453400Y-73537200D03*
X187453400Y-73537200D03*
X188453400Y-73537200D03*
D14*
X189753400Y-71012200D03*
X182153400Y-71012200D03*
D13*
X183453400Y-91774400D03*
X184453400Y-91774400D03*
X185453400Y-91774400D03*
X186453400Y-91774400D03*
X187453400Y-91774400D03*
X188453400Y-91774400D03*
D14*
X189753400Y-89249400D03*
X182153400Y-89249400D03*
D15*
X165589376Y-86360624D03*
X166310624Y-85639376D03*
D16*
X188148400Y-120242400D03*
X188148400Y-113742400D03*
X192648400Y-120242400D03*
X192648400Y-113742400D03*
D17*
X121986000Y-76156000D03*
X120966000Y-76156000D03*
D18*
X190776800Y-116332000D03*
X189816800Y-116332000D03*
X124115000Y-76156000D03*
X123155000Y-76156000D03*
D19*
X177320000Y-119634000D03*
X178280000Y-119634000D03*
D20*
X120636000Y-105385000D03*
X122936000Y-105385000D03*
D21*
X122936000Y-99085000D03*
D20*
X125236000Y-105385000D03*
D22*
X111770236Y-116733164D03*
D23*
X110500236Y-116733164D03*
X109230236Y-116733164D03*
D24*
X163601400Y-113743200D03*
X163601400Y-112723200D03*
D25*
X159207200Y-95526800D03*
X159207200Y-94566800D03*
D26*
X150493000Y-103505000D03*
X151513000Y-103505000D03*
D19*
X138585000Y-101473000D03*
X139545000Y-101473000D03*
X169093000Y-95631000D03*
X170053000Y-95631000D03*
D17*
X115362000Y-86393000D03*
X114342000Y-86393000D03*
D27*
X133121500Y-102235000D03*
X131546500Y-102235000D03*
D28*
X142240000Y-102616000D03*
D29*
X143240000Y-104161000D03*
X142840000Y-104161000D03*
X142440000Y-104161000D03*
X142040000Y-104161000D03*
X141640000Y-104161000D03*
X141240000Y-104161000D03*
D30*
X140695000Y-103616000D03*
X140695000Y-103216000D03*
X140695000Y-102816000D03*
X140695000Y-102416000D03*
X140695000Y-102016000D03*
X140695000Y-101616000D03*
D29*
X141240000Y-101071000D03*
X141640000Y-101071000D03*
X142040000Y-101071000D03*
X142440000Y-101071000D03*
X142840000Y-101071000D03*
X143240000Y-101071000D03*
D30*
X143785000Y-101616000D03*
X143785000Y-102016000D03*
X143785000Y-102416000D03*
X143785000Y-102816000D03*
X143785000Y-103216000D03*
X143785000Y-103616000D03*
D22*
X190791000Y-98400000D03*
D31*
X193041000Y-98775000D03*
D32*
X193041000Y-100500000D03*
X193041000Y-102700000D03*
D31*
X193041000Y-104425000D03*
D22*
X190791000Y-104800000D03*
D33*
X189991000Y-100300000D03*
X189991000Y-100950000D03*
X189991000Y-101600000D03*
X189991000Y-102250000D03*
X189991000Y-102900000D03*
D34*
X190941000Y-99600000D03*
X190941000Y-103600000D03*
D25*
X181000400Y-84249200D03*
X181000400Y-83289200D03*
D35*
X187413400Y-102717600D03*
X185763400Y-102717600D03*
D36*
X189140400Y-84489600D03*
X189140400Y-83839600D03*
X189140400Y-83189600D03*
X189140400Y-82539600D03*
X189140400Y-81889600D03*
X189140400Y-81239600D03*
X189140400Y-80589600D03*
X189140400Y-79939600D03*
X183540400Y-79939600D03*
X183540400Y-80589600D03*
X183540400Y-81239600D03*
X183540400Y-81889600D03*
X183540400Y-82539600D03*
X183540400Y-83189600D03*
X183540400Y-83839600D03*
X183540400Y-84489600D03*
D37*
X185590400Y-83714600D03*
X187090400Y-83714600D03*
X185590400Y-82214600D03*
D38*
X186340400Y-82214600D03*
D37*
X187090400Y-82214600D03*
X185590400Y-80714600D03*
X187090400Y-80714600D03*
D39*
X156868000Y-96647000D03*
X157838000Y-96647000D03*
D25*
X158115000Y-95504000D03*
X158115000Y-94544000D03*
D40*
X109585836Y-113429164D03*
X109585836Y-114449164D03*
D41*
X123000000Y-73870000D03*
D42*
X123000000Y-72600000D03*
X123000000Y-71330000D03*
D25*
X172339000Y-96718000D03*
X172339000Y-95758000D03*
D43*
X110989376Y-123189376D03*
X111710624Y-123910624D03*
D44*
X116210900Y-136754900D03*
D45*
X118750900Y-136754900D03*
D44*
X123576900Y-136754900D03*
D45*
X126116900Y-136754900D03*
D25*
X126549500Y-129760000D03*
X126549500Y-128800000D03*
D41*
X112052000Y-87536000D03*
D42*
X112052000Y-86266000D03*
X112052000Y-84996000D03*
D46*
X133477000Y-89749500D03*
D47*
X133477000Y-82549500D03*
D19*
X125314000Y-76156000D03*
X126274000Y-76156000D03*
D48*
X127606000Y-99314000D03*
X130556000Y-99314000D03*
D32*
X171348400Y-125722400D03*
D49*
X171348400Y-123222400D03*
X171348400Y-120722400D03*
D24*
X143205200Y-99722400D03*
X143205200Y-98702400D03*
D17*
X156821600Y-103784400D03*
X155801600Y-103784400D03*
X126304000Y-73870000D03*
X125284000Y-73870000D03*
D40*
X114056236Y-117739164D03*
X114056236Y-118759164D03*
D50*
X126162500Y-87400000D03*
X124037500Y-87400000D03*
D35*
X187413400Y-101142800D03*
X185763400Y-101142800D03*
D18*
X113050000Y-89822000D03*
X112090000Y-89822000D03*
D51*
X166442000Y-92456000D03*
X162742000Y-92456000D03*
D12*
X143774000Y-123661000D03*
X161534000Y-123661000D03*
D40*
X122866500Y-128516000D03*
X122866500Y-129536000D03*
D52*
X171460589Y-83789411D03*
X172139411Y-83110589D03*
D53*
X120929000Y-119101000D03*
D54*
X123469000Y-119101000D03*
X126009000Y-119101000D03*
X128549000Y-119101000D03*
X131089000Y-119101000D03*
X133629000Y-119101000D03*
D17*
X190857600Y-125984000D03*
X189837600Y-125984000D03*
D55*
X183134000Y-117648500D03*
X183134000Y-115523500D03*
D25*
X114056236Y-114784164D03*
X114056236Y-113824164D03*
D19*
X189867600Y-127203200D03*
X190827600Y-127203200D03*
D27*
X167208300Y-116433600D03*
X165633300Y-116433600D03*
D17*
X115360000Y-85250000D03*
X114340000Y-85250000D03*
D48*
X125271000Y-96520000D03*
X128221000Y-96520000D03*
D56*
X126549500Y-130832000D03*
X126549500Y-131792000D03*
D20*
X125236000Y-109499000D03*
X122936000Y-109499000D03*
D21*
X122936000Y-115799000D03*
D20*
X120636000Y-109499000D03*
D57*
X111599199Y-78345975D03*
D45*
X109803148Y-80142026D03*
D57*
X106390651Y-83554523D03*
D45*
X104594600Y-85350575D03*
D54*
X100279200Y-95326200D03*
X100279200Y-97866200D03*
X100279200Y-100406200D03*
X100279200Y-102946200D03*
X100279200Y-105486200D03*
X100279200Y-108026200D03*
D53*
X100279200Y-110566200D03*
D16*
X188097600Y-130504000D03*
X188097600Y-124004000D03*
X192597600Y-130504000D03*
X192597600Y-124004000D03*
D19*
X114094000Y-89822000D03*
X115054000Y-89822000D03*
X169220000Y-110109000D03*
X170180000Y-110109000D03*
D26*
X189786800Y-117754400D03*
X190806800Y-117754400D03*
D58*
X186049500Y-106207600D03*
X186049500Y-105257600D03*
X186049500Y-104307600D03*
X183774500Y-104307600D03*
X183774500Y-105257600D03*
X183774500Y-106207600D03*
D59*
X165633400Y-113119400D03*
X165633400Y-114769400D03*
D17*
X157837600Y-105714800D03*
X156817600Y-105714800D03*
D25*
X142138400Y-99692400D03*
X142138400Y-98732400D03*
X181000400Y-82217200D03*
X181000400Y-81257200D03*
D18*
X157886400Y-106781600D03*
X156926400Y-106781600D03*
D17*
X111046000Y-89822000D03*
X110026000Y-89822000D03*
D40*
X168402000Y-122121200D03*
X168402000Y-123141200D03*
D60*
X188722000Y-108965000D03*
X188722000Y-105665000D03*
D17*
X126304000Y-72600000D03*
X125284000Y-72600000D03*
D56*
X114056236Y-115739164D03*
X114056236Y-116699164D03*
D17*
X127508000Y-89408000D03*
X126488000Y-89408000D03*
D26*
X126490000Y-90551000D03*
X127510000Y-90551000D03*
D32*
X126695200Y-84574400D03*
D49*
X126695200Y-82074400D03*
X126695200Y-79574400D03*
D61*
X170850000Y-99120000D03*
X170850000Y-99620000D03*
X170850000Y-100120000D03*
X170850000Y-100620000D03*
X170850000Y-101120000D03*
X170850000Y-101620000D03*
X170850000Y-102120000D03*
X170850000Y-102620000D03*
X170850000Y-103120000D03*
X170850000Y-103620000D03*
X170850000Y-104120000D03*
X170850000Y-104620000D03*
X170850000Y-105120000D03*
X170850000Y-105620000D03*
X170850000Y-106120000D03*
X170850000Y-106620000D03*
D62*
X168850000Y-108620000D03*
X168350000Y-108620000D03*
X167850000Y-108620000D03*
X167350000Y-108620000D03*
X166850000Y-108620000D03*
X166350000Y-108620000D03*
X165850000Y-108620000D03*
X165350000Y-108620000D03*
X164850000Y-108620000D03*
X164350000Y-108620000D03*
X163850000Y-108620000D03*
X163350000Y-108620000D03*
X162850000Y-108620000D03*
X162350000Y-108620000D03*
X161850000Y-108620000D03*
X161350000Y-108620000D03*
D61*
X159350000Y-106620000D03*
X159350000Y-106120000D03*
X159350000Y-105620000D03*
X159350000Y-105120000D03*
X159350000Y-104620000D03*
X159350000Y-104120000D03*
X159350000Y-103620000D03*
X159350000Y-103120000D03*
X159350000Y-102620000D03*
X159350000Y-102120000D03*
X159350000Y-101620000D03*
X159350000Y-101120000D03*
X159350000Y-100620000D03*
X159350000Y-100120000D03*
X159350000Y-99620000D03*
X159350000Y-99120000D03*
D62*
X161350000Y-97120000D03*
X161850000Y-97120000D03*
X162350000Y-97120000D03*
X162850000Y-97120000D03*
X163350000Y-97120000D03*
X163850000Y-97120000D03*
X164350000Y-97120000D03*
X164850000Y-97120000D03*
X165350000Y-97120000D03*
X165850000Y-97120000D03*
X166350000Y-97120000D03*
X166850000Y-97120000D03*
X167350000Y-97120000D03*
X167850000Y-97120000D03*
X168350000Y-97120000D03*
X168850000Y-97120000D03*
D19*
X166271000Y-89916000D03*
X167231000Y-89916000D03*
D16*
X168650000Y-84500000D03*
X173246194Y-79903806D03*
X171831981Y-87681981D03*
X176428175Y-83085786D03*
D48*
X120392400Y-96570800D03*
X123342400Y-96570800D03*
D40*
X110906636Y-113429164D03*
X110906636Y-114449164D03*
D63*
X128207000Y-102235000D03*
X129857000Y-102235000D03*
D44*
X118779500Y-68387500D03*
D45*
X116239500Y-68387500D03*
D44*
X126145500Y-68387500D03*
D45*
X123605500Y-68387500D03*
D12*
X143774000Y-81571000D03*
X161534000Y-81571000D03*
D17*
X119210000Y-70450000D03*
X118190000Y-70450000D03*
D24*
X179882800Y-82247200D03*
X179882800Y-81227200D03*
D26*
X115890000Y-134850000D03*
X116910000Y-134850000D03*
D19*
X162969000Y-89916000D03*
X163929000Y-89916000D03*
D48*
X128016000Y-112776000D03*
X130966000Y-112776000D03*
D40*
X121596500Y-128514000D03*
X121596500Y-129534000D03*
D56*
X144272000Y-98732400D03*
X144272000Y-99692400D03*
D64*
X109781577Y-125003349D03*
D45*
X111577629Y-126799400D03*
D64*
X104573029Y-119794801D03*
D45*
X106369080Y-121590852D03*
D56*
X172212000Y-98862000D03*
X172212000Y-99822000D03*
D40*
X126549500Y-132961000D03*
X126549500Y-133981000D03*
D65*
X113260624Y-79439376D03*
X112539376Y-80160624D03*
D25*
X157861000Y-100302000D03*
X157861000Y-99342000D03*
D22*
X124136500Y-131953000D03*
D23*
X122866500Y-131953000D03*
X121596500Y-131953000D03*
D53*
X179120800Y-129794000D03*
D54*
X179120800Y-132334000D03*
X179120800Y-134874000D03*
X179120800Y-137414000D03*
D60*
X177546000Y-114936000D03*
X177546000Y-118236000D03*
M02*
