G04 #@! TF.GenerationSoftware,KiCad,Pcbnew,(6.0.7)*
G04 #@! TF.CreationDate,2022-12-27T10:26:11-05:00*
G04 #@! TF.ProjectId,Micromouse-kicad,4d696372-6f6d-46f7-9573-652d6b696361,rev?*
G04 #@! TF.SameCoordinates,Original*
G04 #@! TF.FileFunction,Legend,Top*
G04 #@! TF.FilePolarity,Positive*
%FSLAX46Y46*%
G04 Gerber Fmt 4.6, Leading zero omitted, Abs format (unit mm)*
G04 Created by KiCad (PCBNEW (6.0.7)) date 2022-12-27 10:26:11*
%MOMM*%
%LPD*%
G01*
G04 APERTURE LIST*
G04 Aperture macros list*
%AMRoundRect*
0 Rectangle with rounded corners*
0 $1 Rounding radius*
0 $2 $3 $4 $5 $6 $7 $8 $9 X,Y pos of 4 corners*
0 Add a 4 corners polygon primitive as box body*
4,1,4,$2,$3,$4,$5,$6,$7,$8,$9,$2,$3,0*
0 Add four circle primitives for the rounded corners*
1,1,$1+$1,$2,$3*
1,1,$1+$1,$4,$5*
1,1,$1+$1,$6,$7*
1,1,$1+$1,$8,$9*
0 Add four rect primitives between the rounded corners*
20,1,$1+$1,$2,$3,$4,$5,0*
20,1,$1+$1,$4,$5,$6,$7,0*
20,1,$1+$1,$6,$7,$8,$9,0*
20,1,$1+$1,$8,$9,$2,$3,0*%
%AMRotRect*
0 Rectangle, with rotation*
0 The origin of the aperture is its center*
0 $1 length*
0 $2 width*
0 $3 Rotation angle, in degrees counterclockwise*
0 Add horizontal line*
21,1,$1,$2,0,0,$3*%
G04 Aperture macros list end*
%ADD10C,0.150000*%
%ADD11C,0.125000*%
%ADD12C,0.216421*%
%ADD13C,0.298607*%
%ADD14C,0.344258*%
%ADD15C,0.015000*%
%ADD16C,0.120000*%
%ADD17C,0.100000*%
%ADD18C,0.127000*%
%ADD19C,0.200000*%
%ADD20C,0.254000*%
%ADD21C,0.300000*%
%ADD22RoundRect,0.135000X0.035355X-0.226274X0.226274X-0.035355X-0.035355X0.226274X-0.226274X0.035355X0*%
%ADD23C,2.000000*%
%ADD24RoundRect,0.135000X0.135000X0.185000X-0.135000X0.185000X-0.135000X-0.185000X0.135000X-0.185000X0*%
%ADD25RoundRect,0.140000X0.140000X0.170000X-0.140000X0.170000X-0.140000X-0.170000X0.140000X-0.170000X0*%
%ADD26RoundRect,0.140000X-0.140000X-0.170000X0.140000X-0.170000X0.140000X0.170000X-0.140000X0.170000X0*%
%ADD27R,1.500000X2.000000*%
%ADD28R,3.800000X2.000000*%
%ADD29R,1.000000X1.500000*%
%ADD30O,1.000000X1.500000*%
%ADD31RoundRect,0.135000X-0.185000X0.135000X-0.185000X-0.135000X0.185000X-0.135000X0.185000X0.135000X0*%
%ADD32RoundRect,0.140000X0.170000X-0.140000X0.170000X0.140000X-0.170000X0.140000X-0.170000X-0.140000X0*%
%ADD33RoundRect,0.135000X-0.135000X-0.185000X0.135000X-0.185000X0.135000X0.185000X-0.135000X0.185000X0*%
%ADD34RoundRect,0.218750X0.218750X0.256250X-0.218750X0.256250X-0.218750X-0.256250X0.218750X-0.256250X0*%
%ADD35RoundRect,0.006600X0.313400X0.103400X-0.313400X0.103400X-0.313400X-0.103400X0.313400X-0.103400X0*%
%ADD36RoundRect,0.006600X-0.103400X0.313400X-0.103400X-0.313400X0.103400X-0.313400X0.103400X0.313400X0*%
%ADD37R,1.540000X1.700000*%
%ADD38C,0.600000*%
%ADD39R,2.100000X0.400000*%
%ADD40R,1.900000X1.900000*%
%ADD41O,2.400000X1.100000*%
%ADD42RoundRect,0.200000X0.200000X0.275000X-0.200000X0.275000X-0.200000X-0.275000X0.200000X-0.275000X0*%
%ADD43RoundRect,0.070000X0.800000X-0.150000X0.800000X0.150000X-0.800000X0.150000X-0.800000X-0.150000X0*%
%ADD44C,0.380000*%
%ADD45RoundRect,0.000100X1.230000X-1.155000X1.230000X1.155000X-1.230000X1.155000X-1.230000X-1.155000X0*%
%ADD46RoundRect,0.147500X-0.147500X-0.172500X0.147500X-0.172500X0.147500X0.172500X-0.147500X0.172500X0*%
%ADD47R,1.500000X1.000000*%
%ADD48O,1.500000X1.000000*%
%ADD49RoundRect,0.135000X-0.226274X-0.035355X-0.035355X-0.226274X0.226274X0.035355X0.035355X0.226274X0*%
%ADD50R,1.500000X1.800000*%
%ADD51C,1.500000*%
%ADD52R,5.516000X5.516000*%
%ADD53C,5.516000*%
%ADD54RoundRect,0.250000X-0.325000X-0.650000X0.325000X-0.650000X0.325000X0.650000X-0.325000X0.650000X0*%
%ADD55C,1.900000*%
%ADD56RoundRect,0.135000X0.185000X-0.135000X0.185000X0.135000X-0.185000X0.135000X-0.185000X-0.135000X0*%
%ADD57RoundRect,0.218750X0.218750X0.381250X-0.218750X0.381250X-0.218750X-0.381250X0.218750X-0.381250X0*%
%ADD58R,2.000000X2.400000*%
%ADD59C,2.400000*%
%ADD60RoundRect,0.140000X0.021213X-0.219203X0.219203X-0.021213X-0.021213X0.219203X-0.219203X0.021213X0*%
%ADD61R,1.700000X1.700000*%
%ADD62O,1.700000X1.700000*%
%ADD63RoundRect,0.218750X0.381250X-0.218750X0.381250X0.218750X-0.381250X0.218750X-0.381250X-0.218750X0*%
%ADD64RoundRect,0.218750X0.256250X-0.218750X0.256250X0.218750X-0.256250X0.218750X-0.256250X-0.218750X0*%
%ADD65RoundRect,0.250000X-0.600000X-0.725000X0.600000X-0.725000X0.600000X0.725000X-0.600000X0.725000X0*%
%ADD66O,1.700000X1.950000*%
%ADD67RoundRect,0.140000X-0.170000X0.140000X-0.170000X-0.140000X0.170000X-0.140000X0.170000X0.140000X0*%
%ADD68RotRect,1.500000X1.800000X225.000000*%
%ADD69RoundRect,0.150000X0.512500X0.150000X-0.512500X0.150000X-0.512500X-0.150000X0.512500X-0.150000X0*%
%ADD70RoundRect,0.200000X-0.275000X0.200000X-0.275000X-0.200000X0.275000X-0.200000X0.275000X0.200000X0*%
%ADD71R,1.200000X0.900000*%
%ADD72R,0.300000X1.200000*%
%ADD73R,1.200000X0.300000*%
%ADD74RoundRect,0.200000X-0.200000X-0.275000X0.200000X-0.275000X0.200000X0.275000X-0.200000X0.275000X0*%
%ADD75RotRect,1.500000X1.800000X315.000000*%
%ADD76RoundRect,0.135000X-0.035355X0.226274X-0.226274X0.035355X0.035355X-0.226274X0.226274X-0.035355X0*%
G04 APERTURE END LIST*
D10*
X168173519Y-81025465D02*
X168308206Y-80958122D01*
X168375549Y-80958122D01*
X168476564Y-80991793D01*
X168577580Y-81092809D01*
X168611251Y-81193824D01*
X168611251Y-81261167D01*
X168577580Y-81362183D01*
X168308206Y-81631557D01*
X167601099Y-80924450D01*
X167836801Y-80688748D01*
X167937816Y-80655076D01*
X168005160Y-80655076D01*
X168106175Y-80688748D01*
X168173519Y-80756091D01*
X168207190Y-80857106D01*
X168207190Y-80924450D01*
X168173519Y-81025465D01*
X167937816Y-81261167D01*
X168442893Y-80082656D02*
X168577580Y-79947969D01*
X168678595Y-79914297D01*
X168813282Y-79914297D01*
X168981641Y-80015312D01*
X169217343Y-80251015D01*
X169318358Y-80419374D01*
X169318358Y-80554061D01*
X169284687Y-80655076D01*
X169150000Y-80789763D01*
X169048984Y-80823435D01*
X168914297Y-80823435D01*
X168745938Y-80722419D01*
X168510236Y-80486717D01*
X168409221Y-80318358D01*
X168409221Y-80183671D01*
X168442893Y-80082656D01*
X168947969Y-79577580D02*
X169352030Y-79173519D01*
X169857106Y-80082656D02*
X169150000Y-79375549D01*
X170665228Y-79274534D02*
X170261167Y-79678595D01*
X170463198Y-79476564D02*
X169756091Y-78769458D01*
X169789763Y-78937816D01*
X169789763Y-79072503D01*
X169756091Y-79173519D01*
X185778571Y-128609523D02*
X185826190Y-128466666D01*
X185873809Y-128419047D01*
X185969047Y-128371428D01*
X186111904Y-128371428D01*
X186207142Y-128419047D01*
X186254761Y-128466666D01*
X186302380Y-128561904D01*
X186302380Y-128942857D01*
X185302380Y-128942857D01*
X185302380Y-128609523D01*
X185350000Y-128514285D01*
X185397619Y-128466666D01*
X185492857Y-128419047D01*
X185588095Y-128419047D01*
X185683333Y-128466666D01*
X185730952Y-128514285D01*
X185778571Y-128609523D01*
X185778571Y-128942857D01*
X185302380Y-127752380D02*
X185302380Y-127561904D01*
X185350000Y-127466666D01*
X185445238Y-127371428D01*
X185635714Y-127323809D01*
X185969047Y-127323809D01*
X186159523Y-127371428D01*
X186254761Y-127466666D01*
X186302380Y-127561904D01*
X186302380Y-127752380D01*
X186254761Y-127847619D01*
X186159523Y-127942857D01*
X185969047Y-127990476D01*
X185635714Y-127990476D01*
X185445238Y-127942857D01*
X185350000Y-127847619D01*
X185302380Y-127752380D01*
X185302380Y-127038095D02*
X185302380Y-126466666D01*
X186302380Y-126752380D02*
X185302380Y-126752380D01*
X185397619Y-126180952D02*
X185350000Y-126133333D01*
X185302380Y-126038095D01*
X185302380Y-125800000D01*
X185350000Y-125704761D01*
X185397619Y-125657142D01*
X185492857Y-125609523D01*
X185588095Y-125609523D01*
X185730952Y-125657142D01*
X186302380Y-126228571D01*
X186302380Y-125609523D01*
X186252380Y-117097619D02*
X185776190Y-117430952D01*
X186252380Y-117669047D02*
X185252380Y-117669047D01*
X185252380Y-117288095D01*
X185300000Y-117192857D01*
X185347619Y-117145238D01*
X185442857Y-117097619D01*
X185585714Y-117097619D01*
X185680952Y-117145238D01*
X185728571Y-117192857D01*
X185776190Y-117288095D01*
X185776190Y-117669047D01*
X186204761Y-116716666D02*
X186252380Y-116573809D01*
X186252380Y-116335714D01*
X186204761Y-116240476D01*
X186157142Y-116192857D01*
X186061904Y-116145238D01*
X185966666Y-116145238D01*
X185871428Y-116192857D01*
X185823809Y-116240476D01*
X185776190Y-116335714D01*
X185728571Y-116526190D01*
X185680952Y-116621428D01*
X185633333Y-116669047D01*
X185538095Y-116716666D01*
X185442857Y-116716666D01*
X185347619Y-116669047D01*
X185300000Y-116621428D01*
X185252380Y-116526190D01*
X185252380Y-116288095D01*
X185300000Y-116145238D01*
X185252380Y-115859523D02*
X185252380Y-115288095D01*
X186252380Y-115573809D02*
X185252380Y-115573809D01*
D11*
X187988095Y-93673809D02*
X187678571Y-93673809D01*
X187845238Y-93483333D01*
X187773809Y-93483333D01*
X187726190Y-93459523D01*
X187702380Y-93435714D01*
X187678571Y-93388095D01*
X187678571Y-93269047D01*
X187702380Y-93221428D01*
X187726190Y-93197619D01*
X187773809Y-93173809D01*
X187916666Y-93173809D01*
X187964285Y-93197619D01*
X187988095Y-93221428D01*
X187464285Y-93221428D02*
X187440476Y-93197619D01*
X187464285Y-93173809D01*
X187488095Y-93197619D01*
X187464285Y-93221428D01*
X187464285Y-93173809D01*
X187273809Y-93673809D02*
X186964285Y-93673809D01*
X187130952Y-93483333D01*
X187059523Y-93483333D01*
X187011904Y-93459523D01*
X186988095Y-93435714D01*
X186964285Y-93388095D01*
X186964285Y-93269047D01*
X186988095Y-93221428D01*
X187011904Y-93197619D01*
X187059523Y-93173809D01*
X187202380Y-93173809D01*
X187250000Y-93197619D01*
X187273809Y-93221428D01*
X186821428Y-93673809D02*
X186654761Y-93173809D01*
X186488095Y-93673809D01*
X179930952Y-93550000D02*
X179978571Y-93573809D01*
X180050000Y-93573809D01*
X180121428Y-93550000D01*
X180169047Y-93502380D01*
X180192857Y-93454761D01*
X180216666Y-93359523D01*
X180216666Y-93288095D01*
X180192857Y-93192857D01*
X180169047Y-93145238D01*
X180121428Y-93097619D01*
X180050000Y-93073809D01*
X180002380Y-93073809D01*
X179930952Y-93097619D01*
X179907142Y-93121428D01*
X179907142Y-93288095D01*
X180002380Y-93288095D01*
X179692857Y-93073809D02*
X179692857Y-93573809D01*
X179407142Y-93073809D01*
X179407142Y-93573809D01*
X179169047Y-93073809D02*
X179169047Y-93573809D01*
X179050000Y-93573809D01*
X178978571Y-93550000D01*
X178930952Y-93502380D01*
X178907142Y-93454761D01*
X178883333Y-93359523D01*
X178883333Y-93288095D01*
X178907142Y-93192857D01*
X178930952Y-93145238D01*
X178978571Y-93097619D01*
X179050000Y-93073809D01*
X179169047Y-93073809D01*
X187838095Y-70523809D02*
X187528571Y-70523809D01*
X187695238Y-70333333D01*
X187623809Y-70333333D01*
X187576190Y-70309523D01*
X187552380Y-70285714D01*
X187528571Y-70238095D01*
X187528571Y-70119047D01*
X187552380Y-70071428D01*
X187576190Y-70047619D01*
X187623809Y-70023809D01*
X187766666Y-70023809D01*
X187814285Y-70047619D01*
X187838095Y-70071428D01*
X187314285Y-70071428D02*
X187290476Y-70047619D01*
X187314285Y-70023809D01*
X187338095Y-70047619D01*
X187314285Y-70071428D01*
X187314285Y-70023809D01*
X187123809Y-70523809D02*
X186814285Y-70523809D01*
X186980952Y-70333333D01*
X186909523Y-70333333D01*
X186861904Y-70309523D01*
X186838095Y-70285714D01*
X186814285Y-70238095D01*
X186814285Y-70119047D01*
X186838095Y-70071428D01*
X186861904Y-70047619D01*
X186909523Y-70023809D01*
X187052380Y-70023809D01*
X187100000Y-70047619D01*
X187123809Y-70071428D01*
X186671428Y-70523809D02*
X186504761Y-70023809D01*
X186338095Y-70523809D01*
X179980952Y-70500000D02*
X180028571Y-70523809D01*
X180100000Y-70523809D01*
X180171428Y-70500000D01*
X180219047Y-70452380D01*
X180242857Y-70404761D01*
X180266666Y-70309523D01*
X180266666Y-70238095D01*
X180242857Y-70142857D01*
X180219047Y-70095238D01*
X180171428Y-70047619D01*
X180100000Y-70023809D01*
X180052380Y-70023809D01*
X179980952Y-70047619D01*
X179957142Y-70071428D01*
X179957142Y-70238095D01*
X180052380Y-70238095D01*
X179742857Y-70023809D02*
X179742857Y-70523809D01*
X179457142Y-70023809D01*
X179457142Y-70523809D01*
X179219047Y-70023809D02*
X179219047Y-70523809D01*
X179100000Y-70523809D01*
X179028571Y-70500000D01*
X178980952Y-70452380D01*
X178957142Y-70404761D01*
X178933333Y-70309523D01*
X178933333Y-70238095D01*
X178957142Y-70142857D01*
X178980952Y-70095238D01*
X179028571Y-70047619D01*
X179100000Y-70023809D01*
X179219047Y-70023809D01*
X181602380Y-136380952D02*
X181626190Y-136309523D01*
X181626190Y-136190476D01*
X181602380Y-136142857D01*
X181578571Y-136119047D01*
X181530952Y-136095238D01*
X181483333Y-136095238D01*
X181435714Y-136119047D01*
X181411904Y-136142857D01*
X181388095Y-136190476D01*
X181364285Y-136285714D01*
X181340476Y-136333333D01*
X181316666Y-136357142D01*
X181269047Y-136380952D01*
X181221428Y-136380952D01*
X181173809Y-136357142D01*
X181150000Y-136333333D01*
X181126190Y-136285714D01*
X181126190Y-136166666D01*
X181150000Y-136095238D01*
X181126190Y-135928571D02*
X181626190Y-135809523D01*
X181269047Y-135714285D01*
X181626190Y-135619047D01*
X181126190Y-135500000D01*
X181578571Y-135023809D02*
X181602380Y-135047619D01*
X181626190Y-135119047D01*
X181626190Y-135166666D01*
X181602380Y-135238095D01*
X181554761Y-135285714D01*
X181507142Y-135309523D01*
X181411904Y-135333333D01*
X181340476Y-135333333D01*
X181245238Y-135309523D01*
X181197619Y-135285714D01*
X181150000Y-135238095D01*
X181126190Y-135166666D01*
X181126190Y-135119047D01*
X181150000Y-135047619D01*
X181173809Y-135023809D01*
X181626190Y-134571428D02*
X181626190Y-134809523D01*
X181126190Y-134809523D01*
X181626190Y-134404761D02*
X181126190Y-134404761D01*
X181626190Y-134119047D02*
X181340476Y-134333333D01*
X181126190Y-134119047D02*
X181411904Y-134404761D01*
X181552380Y-133609523D02*
X181576190Y-133538095D01*
X181576190Y-133419047D01*
X181552380Y-133371428D01*
X181528571Y-133347619D01*
X181480952Y-133323809D01*
X181433333Y-133323809D01*
X181385714Y-133347619D01*
X181361904Y-133371428D01*
X181338095Y-133419047D01*
X181314285Y-133514285D01*
X181290476Y-133561904D01*
X181266666Y-133585714D01*
X181219047Y-133609523D01*
X181171428Y-133609523D01*
X181123809Y-133585714D01*
X181100000Y-133561904D01*
X181076190Y-133514285D01*
X181076190Y-133395238D01*
X181100000Y-133323809D01*
X181076190Y-133157142D02*
X181576190Y-133038095D01*
X181219047Y-132942857D01*
X181576190Y-132847619D01*
X181076190Y-132728571D01*
X181576190Y-132538095D02*
X181076190Y-132538095D01*
X181076190Y-132419047D01*
X181100000Y-132347619D01*
X181147619Y-132300000D01*
X181195238Y-132276190D01*
X181290476Y-132252380D01*
X181361904Y-132252380D01*
X181457142Y-132276190D01*
X181504761Y-132300000D01*
X181552380Y-132347619D01*
X181576190Y-132419047D01*
X181576190Y-132538095D01*
X181576190Y-132038095D02*
X181076190Y-132038095D01*
X181076190Y-131704761D02*
X181076190Y-131609523D01*
X181100000Y-131561904D01*
X181147619Y-131514285D01*
X181242857Y-131490476D01*
X181409523Y-131490476D01*
X181504761Y-131514285D01*
X181552380Y-131561904D01*
X181576190Y-131609523D01*
X181576190Y-131704761D01*
X181552380Y-131752380D01*
X181504761Y-131800000D01*
X181409523Y-131823809D01*
X181242857Y-131823809D01*
X181147619Y-131800000D01*
X181100000Y-131752380D01*
X181076190Y-131704761D01*
X181076190Y-130895238D02*
X181576190Y-130728571D01*
X181076190Y-130561904D01*
X181576190Y-130395238D02*
X181076190Y-130395238D01*
X181076190Y-130276190D01*
X181100000Y-130204761D01*
X181147619Y-130157142D01*
X181195238Y-130133333D01*
X181290476Y-130109523D01*
X181361904Y-130109523D01*
X181457142Y-130133333D01*
X181504761Y-130157142D01*
X181552380Y-130204761D01*
X181576190Y-130276190D01*
X181576190Y-130395238D01*
X181576190Y-129895238D02*
X181242857Y-129895238D01*
X181338095Y-129895238D02*
X181290476Y-129871428D01*
X181266666Y-129847619D01*
X181242857Y-129800000D01*
X181242857Y-129752380D01*
X181576190Y-129585714D02*
X181242857Y-129585714D01*
X181076190Y-129585714D02*
X181100000Y-129609523D01*
X181123809Y-129585714D01*
X181100000Y-129561904D01*
X181076190Y-129585714D01*
X181123809Y-129585714D01*
X181242857Y-129395238D02*
X181576190Y-129276190D01*
X181242857Y-129157142D01*
X181552380Y-128776190D02*
X181576190Y-128823809D01*
X181576190Y-128919047D01*
X181552380Y-128966666D01*
X181504761Y-128990476D01*
X181314285Y-128990476D01*
X181266666Y-128966666D01*
X181242857Y-128919047D01*
X181242857Y-128823809D01*
X181266666Y-128776190D01*
X181314285Y-128752380D01*
X181361904Y-128752380D01*
X181409523Y-128990476D01*
X181150000Y-138230952D02*
X181126190Y-138278571D01*
X181126190Y-138350000D01*
X181150000Y-138421428D01*
X181197619Y-138469047D01*
X181245238Y-138492857D01*
X181340476Y-138516666D01*
X181411904Y-138516666D01*
X181507142Y-138492857D01*
X181554761Y-138469047D01*
X181602380Y-138421428D01*
X181626190Y-138350000D01*
X181626190Y-138302380D01*
X181602380Y-138230952D01*
X181578571Y-138207142D01*
X181411904Y-138207142D01*
X181411904Y-138302380D01*
X181626190Y-137992857D02*
X181126190Y-137992857D01*
X181626190Y-137707142D01*
X181126190Y-137707142D01*
X181626190Y-137469047D02*
X181126190Y-137469047D01*
X181126190Y-137350000D01*
X181150000Y-137278571D01*
X181197619Y-137230952D01*
X181245238Y-137207142D01*
X181340476Y-137183333D01*
X181411904Y-137183333D01*
X181507142Y-137207142D01*
X181554761Y-137230952D01*
X181602380Y-137278571D01*
X181626190Y-137350000D01*
X181626190Y-137469047D01*
D10*
X125188095Y-121600000D02*
X125092857Y-121552380D01*
X124950000Y-121552380D01*
X124807142Y-121600000D01*
X124711904Y-121695238D01*
X124664285Y-121790476D01*
X124616666Y-121980952D01*
X124616666Y-122123809D01*
X124664285Y-122314285D01*
X124711904Y-122409523D01*
X124807142Y-122504761D01*
X124950000Y-122552380D01*
X125045238Y-122552380D01*
X125188095Y-122504761D01*
X125235714Y-122457142D01*
X125235714Y-122123809D01*
X125045238Y-122123809D01*
X125664285Y-122552380D02*
X125664285Y-121552380D01*
X126235714Y-122552380D01*
X126235714Y-121552380D01*
X126711904Y-122552380D02*
X126711904Y-121552380D01*
X126950000Y-121552380D01*
X127092857Y-121600000D01*
X127188095Y-121695238D01*
X127235714Y-121790476D01*
X127283333Y-121980952D01*
X127283333Y-122123809D01*
X127235714Y-122314285D01*
X127188095Y-122409523D01*
X127092857Y-122504761D01*
X126950000Y-122552380D01*
X126711904Y-122552380D01*
X122959523Y-121602380D02*
X122483333Y-121602380D01*
X122435714Y-122078571D01*
X122483333Y-122030952D01*
X122578571Y-121983333D01*
X122816666Y-121983333D01*
X122911904Y-122030952D01*
X122959523Y-122078571D01*
X123007142Y-122173809D01*
X123007142Y-122411904D01*
X122959523Y-122507142D01*
X122911904Y-122554761D01*
X122816666Y-122602380D01*
X122578571Y-122602380D01*
X122483333Y-122554761D01*
X122435714Y-122507142D01*
X123292857Y-121602380D02*
X123626190Y-122602380D01*
X123959523Y-121602380D01*
X98404761Y-112064285D02*
X98452380Y-111921428D01*
X98452380Y-111683333D01*
X98404761Y-111588095D01*
X98357142Y-111540476D01*
X98261904Y-111492857D01*
X98166666Y-111492857D01*
X98071428Y-111540476D01*
X98023809Y-111588095D01*
X97976190Y-111683333D01*
X97928571Y-111873809D01*
X97880952Y-111969047D01*
X97833333Y-112016666D01*
X97738095Y-112064285D01*
X97642857Y-112064285D01*
X97547619Y-112016666D01*
X97500000Y-111969047D01*
X97452380Y-111873809D01*
X97452380Y-111635714D01*
X97500000Y-111492857D01*
X98452380Y-111064285D02*
X97452380Y-111064285D01*
X97452380Y-110826190D01*
X97500000Y-110683333D01*
X97595238Y-110588095D01*
X97690476Y-110540476D01*
X97880952Y-110492857D01*
X98023809Y-110492857D01*
X98214285Y-110540476D01*
X98309523Y-110588095D01*
X98404761Y-110683333D01*
X98452380Y-110826190D01*
X98452380Y-111064285D01*
X98166666Y-110111904D02*
X98166666Y-109635714D01*
X98452380Y-110207142D02*
X97452380Y-109873809D01*
X98452380Y-109540476D01*
X98504761Y-108640476D02*
X98552380Y-108497619D01*
X98552380Y-108259523D01*
X98504761Y-108164285D01*
X98457142Y-108116666D01*
X98361904Y-108069047D01*
X98266666Y-108069047D01*
X98171428Y-108116666D01*
X98123809Y-108164285D01*
X98076190Y-108259523D01*
X98028571Y-108450000D01*
X97980952Y-108545238D01*
X97933333Y-108592857D01*
X97838095Y-108640476D01*
X97742857Y-108640476D01*
X97647619Y-108592857D01*
X97600000Y-108545238D01*
X97552380Y-108450000D01*
X97552380Y-108211904D01*
X97600000Y-108069047D01*
X98457142Y-107069047D02*
X98504761Y-107116666D01*
X98552380Y-107259523D01*
X98552380Y-107354761D01*
X98504761Y-107497619D01*
X98409523Y-107592857D01*
X98314285Y-107640476D01*
X98123809Y-107688095D01*
X97980952Y-107688095D01*
X97790476Y-107640476D01*
X97695238Y-107592857D01*
X97600000Y-107497619D01*
X97552380Y-107354761D01*
X97552380Y-107259523D01*
X97600000Y-107116666D01*
X97647619Y-107069047D01*
X98552380Y-106164285D02*
X98552380Y-106640476D01*
X97552380Y-106640476D01*
X97400000Y-100811904D02*
X97352380Y-100907142D01*
X97352380Y-101050000D01*
X97400000Y-101192857D01*
X97495238Y-101288095D01*
X97590476Y-101335714D01*
X97780952Y-101383333D01*
X97923809Y-101383333D01*
X98114285Y-101335714D01*
X98209523Y-101288095D01*
X98304761Y-101192857D01*
X98352380Y-101050000D01*
X98352380Y-100954761D01*
X98304761Y-100811904D01*
X98257142Y-100764285D01*
X97923809Y-100764285D01*
X97923809Y-100954761D01*
X98352380Y-100335714D02*
X97352380Y-100335714D01*
X98352380Y-99764285D01*
X97352380Y-99764285D01*
X98352380Y-99288095D02*
X97352380Y-99288095D01*
X97352380Y-99050000D01*
X97400000Y-98907142D01*
X97495238Y-98811904D01*
X97590476Y-98764285D01*
X97780952Y-98716666D01*
X97923809Y-98716666D01*
X98114285Y-98764285D01*
X98209523Y-98811904D01*
X98304761Y-98907142D01*
X98352380Y-99050000D01*
X98352380Y-99288095D01*
X97302380Y-96328571D02*
X97302380Y-95709523D01*
X97683333Y-96042857D01*
X97683333Y-95900000D01*
X97730952Y-95804761D01*
X97778571Y-95757142D01*
X97873809Y-95709523D01*
X98111904Y-95709523D01*
X98207142Y-95757142D01*
X98254761Y-95804761D01*
X98302380Y-95900000D01*
X98302380Y-96185714D01*
X98254761Y-96280952D01*
X98207142Y-96328571D01*
X98207142Y-95280952D02*
X98254761Y-95233333D01*
X98302380Y-95280952D01*
X98254761Y-95328571D01*
X98207142Y-95280952D01*
X98302380Y-95280952D01*
X97302380Y-94900000D02*
X97302380Y-94280952D01*
X97683333Y-94614285D01*
X97683333Y-94471428D01*
X97730952Y-94376190D01*
X97778571Y-94328571D01*
X97873809Y-94280952D01*
X98111904Y-94280952D01*
X98207142Y-94328571D01*
X98254761Y-94376190D01*
X98302380Y-94471428D01*
X98302380Y-94757142D01*
X98254761Y-94852380D01*
X98207142Y-94900000D01*
X97635714Y-93947619D02*
X98302380Y-93709523D01*
X97635714Y-93471428D01*
X123602380Y-85319047D02*
X123602380Y-85128571D01*
X123650000Y-85033333D01*
X123745238Y-84938095D01*
X123935714Y-84890476D01*
X124269047Y-84890476D01*
X124459523Y-84938095D01*
X124554761Y-85033333D01*
X124602380Y-85128571D01*
X124602380Y-85319047D01*
X124554761Y-85414285D01*
X124459523Y-85509523D01*
X124269047Y-85557142D01*
X123935714Y-85557142D01*
X123745238Y-85509523D01*
X123650000Y-85414285D01*
X123602380Y-85319047D01*
X124602380Y-84461904D02*
X123602380Y-84461904D01*
X124602380Y-83890476D01*
X123602380Y-83890476D01*
X123502380Y-80452380D02*
X123502380Y-80261904D01*
X123550000Y-80166666D01*
X123645238Y-80071428D01*
X123835714Y-80023809D01*
X124169047Y-80023809D01*
X124359523Y-80071428D01*
X124454761Y-80166666D01*
X124502380Y-80261904D01*
X124502380Y-80452380D01*
X124454761Y-80547619D01*
X124359523Y-80642857D01*
X124169047Y-80690476D01*
X123835714Y-80690476D01*
X123645238Y-80642857D01*
X123550000Y-80547619D01*
X123502380Y-80452380D01*
X123978571Y-79261904D02*
X123978571Y-79595238D01*
X124502380Y-79595238D02*
X123502380Y-79595238D01*
X123502380Y-79119047D01*
X123978571Y-78404761D02*
X123978571Y-78738095D01*
X124502380Y-78738095D02*
X123502380Y-78738095D01*
X123502380Y-78261904D01*
X138471428Y-89980952D02*
X138471428Y-89219047D01*
X138069047Y-82421428D02*
X138830952Y-82421428D01*
X138450000Y-82802380D02*
X138450000Y-82040476D01*
D12*
X187358210Y-106400000D02*
G75*
G03*
X187358210Y-106400000I-108210J0D01*
G01*
D13*
X169749303Y-97150000D02*
G75*
G03*
X169749303Y-97150000I-149303J0D01*
G01*
D14*
X190522129Y-85350000D02*
G75*
G03*
X190522129Y-85350000I-172129J0D01*
G01*
D15*
X127890511Y-91411484D02*
X128605292Y-91411484D01*
X128748248Y-91459136D01*
X128843552Y-91554440D01*
X128891204Y-91697396D01*
X128891204Y-91792700D01*
X128224075Y-90506095D02*
X128891204Y-90506095D01*
X127842859Y-90744355D02*
X128557640Y-90982615D01*
X128557640Y-90363139D01*
D10*
X148012095Y-130073380D02*
X148012095Y-129073380D01*
X148345428Y-129787666D01*
X148678761Y-129073380D01*
X148678761Y-130073380D01*
X149297809Y-130073380D02*
X149202571Y-130025761D01*
X149154952Y-129978142D01*
X149107333Y-129882904D01*
X149107333Y-129597190D01*
X149154952Y-129501952D01*
X149202571Y-129454333D01*
X149297809Y-129406714D01*
X149440666Y-129406714D01*
X149535904Y-129454333D01*
X149583523Y-129501952D01*
X149631142Y-129597190D01*
X149631142Y-129882904D01*
X149583523Y-129978142D01*
X149535904Y-130025761D01*
X149440666Y-130073380D01*
X149297809Y-130073380D01*
X149916857Y-129406714D02*
X150297809Y-129406714D01*
X150059714Y-129073380D02*
X150059714Y-129930523D01*
X150107333Y-130025761D01*
X150202571Y-130073380D01*
X150297809Y-130073380D01*
X150774000Y-130073380D02*
X150678761Y-130025761D01*
X150631142Y-129978142D01*
X150583523Y-129882904D01*
X150583523Y-129597190D01*
X150631142Y-129501952D01*
X150678761Y-129454333D01*
X150774000Y-129406714D01*
X150916857Y-129406714D01*
X151012095Y-129454333D01*
X151059714Y-129501952D01*
X151107333Y-129597190D01*
X151107333Y-129882904D01*
X151059714Y-129978142D01*
X151012095Y-130025761D01*
X150916857Y-130073380D01*
X150774000Y-130073380D01*
X151535904Y-130073380D02*
X151535904Y-129406714D01*
X151535904Y-129597190D02*
X151583523Y-129501952D01*
X151631142Y-129454333D01*
X151726380Y-129406714D01*
X151821619Y-129406714D01*
X152154952Y-130073380D02*
X152154952Y-129073380D01*
X152154952Y-129549571D02*
X152726380Y-129549571D01*
X152726380Y-130073380D02*
X152726380Y-129073380D01*
X153345428Y-130073380D02*
X153250190Y-130025761D01*
X153202571Y-129978142D01*
X153154952Y-129882904D01*
X153154952Y-129597190D01*
X153202571Y-129501952D01*
X153250190Y-129454333D01*
X153345428Y-129406714D01*
X153488285Y-129406714D01*
X153583523Y-129454333D01*
X153631142Y-129501952D01*
X153678761Y-129597190D01*
X153678761Y-129882904D01*
X153631142Y-129978142D01*
X153583523Y-130025761D01*
X153488285Y-130073380D01*
X153345428Y-130073380D01*
X154250190Y-130073380D02*
X154154952Y-130025761D01*
X154107333Y-129930523D01*
X154107333Y-129073380D01*
X155059714Y-130073380D02*
X155059714Y-129073380D01*
X155059714Y-130025761D02*
X154964476Y-130073380D01*
X154774000Y-130073380D01*
X154678761Y-130025761D01*
X154631142Y-129978142D01*
X154583523Y-129882904D01*
X154583523Y-129597190D01*
X154631142Y-129501952D01*
X154678761Y-129454333D01*
X154774000Y-129406714D01*
X154964476Y-129406714D01*
X155059714Y-129454333D01*
X155916857Y-130025761D02*
X155821619Y-130073380D01*
X155631142Y-130073380D01*
X155535904Y-130025761D01*
X155488285Y-129930523D01*
X155488285Y-129549571D01*
X155535904Y-129454333D01*
X155631142Y-129406714D01*
X155821619Y-129406714D01*
X155916857Y-129454333D01*
X155964476Y-129549571D01*
X155964476Y-129644809D01*
X155488285Y-129740047D01*
X156393047Y-130073380D02*
X156393047Y-129406714D01*
X156393047Y-129597190D02*
X156440666Y-129501952D01*
X156488285Y-129454333D01*
X156583523Y-129406714D01*
X156678761Y-129406714D01*
X157583523Y-130073380D02*
X157250190Y-129597190D01*
X157012095Y-130073380D02*
X157012095Y-129073380D01*
X157393047Y-129073380D01*
X157488285Y-129121000D01*
X157535904Y-129168619D01*
X157583523Y-129263857D01*
X157583523Y-129406714D01*
X157535904Y-129501952D01*
X157488285Y-129549571D01*
X157393047Y-129597190D01*
X157012095Y-129597190D01*
X157200666Y-75158619D02*
X157200666Y-76158619D01*
X156867333Y-75444333D01*
X156534000Y-76158619D01*
X156534000Y-75158619D01*
X155914952Y-75158619D02*
X156010190Y-75206238D01*
X156057809Y-75253857D01*
X156105428Y-75349095D01*
X156105428Y-75634809D01*
X156057809Y-75730047D01*
X156010190Y-75777666D01*
X155914952Y-75825285D01*
X155772095Y-75825285D01*
X155676857Y-75777666D01*
X155629238Y-75730047D01*
X155581619Y-75634809D01*
X155581619Y-75349095D01*
X155629238Y-75253857D01*
X155676857Y-75206238D01*
X155772095Y-75158619D01*
X155914952Y-75158619D01*
X155295904Y-75825285D02*
X154914952Y-75825285D01*
X155153047Y-76158619D02*
X155153047Y-75301476D01*
X155105428Y-75206238D01*
X155010190Y-75158619D01*
X154914952Y-75158619D01*
X154438761Y-75158619D02*
X154534000Y-75206238D01*
X154581619Y-75253857D01*
X154629238Y-75349095D01*
X154629238Y-75634809D01*
X154581619Y-75730047D01*
X154534000Y-75777666D01*
X154438761Y-75825285D01*
X154295904Y-75825285D01*
X154200666Y-75777666D01*
X154153047Y-75730047D01*
X154105428Y-75634809D01*
X154105428Y-75349095D01*
X154153047Y-75253857D01*
X154200666Y-75206238D01*
X154295904Y-75158619D01*
X154438761Y-75158619D01*
X153676857Y-75158619D02*
X153676857Y-75825285D01*
X153676857Y-75634809D02*
X153629238Y-75730047D01*
X153581619Y-75777666D01*
X153486380Y-75825285D01*
X153391142Y-75825285D01*
X153057809Y-75158619D02*
X153057809Y-76158619D01*
X153057809Y-75682428D02*
X152486380Y-75682428D01*
X152486380Y-75158619D02*
X152486380Y-76158619D01*
X151867333Y-75158619D02*
X151962571Y-75206238D01*
X152010190Y-75253857D01*
X152057809Y-75349095D01*
X152057809Y-75634809D01*
X152010190Y-75730047D01*
X151962571Y-75777666D01*
X151867333Y-75825285D01*
X151724476Y-75825285D01*
X151629238Y-75777666D01*
X151581619Y-75730047D01*
X151534000Y-75634809D01*
X151534000Y-75349095D01*
X151581619Y-75253857D01*
X151629238Y-75206238D01*
X151724476Y-75158619D01*
X151867333Y-75158619D01*
X150962571Y-75158619D02*
X151057809Y-75206238D01*
X151105428Y-75301476D01*
X151105428Y-76158619D01*
X150153047Y-75158619D02*
X150153047Y-76158619D01*
X150153047Y-75206238D02*
X150248285Y-75158619D01*
X150438761Y-75158619D01*
X150534000Y-75206238D01*
X150581619Y-75253857D01*
X150629238Y-75349095D01*
X150629238Y-75634809D01*
X150581619Y-75730047D01*
X150534000Y-75777666D01*
X150438761Y-75825285D01*
X150248285Y-75825285D01*
X150153047Y-75777666D01*
X149295904Y-75206238D02*
X149391142Y-75158619D01*
X149581619Y-75158619D01*
X149676857Y-75206238D01*
X149724476Y-75301476D01*
X149724476Y-75682428D01*
X149676857Y-75777666D01*
X149581619Y-75825285D01*
X149391142Y-75825285D01*
X149295904Y-75777666D01*
X149248285Y-75682428D01*
X149248285Y-75587190D01*
X149724476Y-75491952D01*
X148819714Y-75158619D02*
X148819714Y-75825285D01*
X148819714Y-75634809D02*
X148772095Y-75730047D01*
X148724476Y-75777666D01*
X148629238Y-75825285D01*
X148534000Y-75825285D01*
X147724476Y-75158619D02*
X148200666Y-75158619D01*
X148200666Y-76158619D01*
D16*
X165572659Y-85839940D02*
X165789940Y-85622659D01*
X166110060Y-86377341D02*
X166327341Y-86160060D01*
X187148400Y-114742400D02*
X187148400Y-119242400D01*
X193648400Y-119242400D02*
X193648400Y-114742400D01*
X191148400Y-113492400D02*
X189648400Y-113492400D01*
X189648400Y-120492400D02*
X191148400Y-120492400D01*
X121629641Y-76536000D02*
X121322359Y-76536000D01*
X121629641Y-75776000D02*
X121322359Y-75776000D01*
X190404636Y-115972000D02*
X190188964Y-115972000D01*
X190404636Y-116692000D02*
X190188964Y-116692000D01*
X123742836Y-76516000D02*
X123527164Y-76516000D01*
X123742836Y-75796000D02*
X123527164Y-75796000D01*
X177692164Y-119274000D02*
X177907836Y-119274000D01*
X177692164Y-119994000D02*
X177907836Y-119994000D01*
X126346000Y-104085000D02*
X126346000Y-100325000D01*
X126346000Y-100325000D02*
X125086000Y-100325000D01*
X119526000Y-106335000D02*
X119526000Y-100325000D01*
X119526000Y-100325000D02*
X120786000Y-100325000D01*
D17*
X112850236Y-115133164D02*
X113000236Y-115433164D01*
X108150236Y-115133164D02*
X108000236Y-115433164D01*
X108150236Y-115133164D02*
X108450236Y-115133164D01*
X112550236Y-115133164D02*
X112850236Y-115133164D01*
D10*
X108550236Y-118283164D02*
G75*
G03*
X112400236Y-118333164I1950000J1900000D01*
G01*
D16*
X172719000Y-103224359D02*
X172719000Y-103531641D01*
X171959000Y-103224359D02*
X171959000Y-103531641D01*
X159567200Y-95154636D02*
X159567200Y-94938964D01*
X158847200Y-95154636D02*
X158847200Y-94938964D01*
X150849359Y-103125000D02*
X151156641Y-103125000D01*
X150849359Y-103885000D02*
X151156641Y-103885000D01*
X138957164Y-101113000D02*
X139172836Y-101113000D01*
X138957164Y-101833000D02*
X139172836Y-101833000D01*
X169465164Y-95991000D02*
X169680836Y-95991000D01*
X169465164Y-95271000D02*
X169680836Y-95271000D01*
X115005641Y-86013000D02*
X114698359Y-86013000D01*
X115005641Y-86773000D02*
X114698359Y-86773000D01*
X131534000Y-102970000D02*
X133819000Y-102970000D01*
X133819000Y-101500000D02*
X131534000Y-101500000D01*
X133819000Y-102970000D02*
X133819000Y-101500000D01*
D18*
X140740000Y-104116000D02*
X140810000Y-104116000D01*
X140740000Y-101116000D02*
X140810000Y-101116000D01*
X143740000Y-101116000D02*
X143740000Y-101186000D01*
X140740000Y-101116000D02*
X140740000Y-101186000D01*
X143740000Y-104116000D02*
X143670000Y-104116000D01*
X143740000Y-104116000D02*
X143740000Y-104046000D01*
X143740000Y-101116000D02*
X143670000Y-101116000D01*
X140740000Y-104116000D02*
X140740000Y-104046000D01*
D19*
X144725000Y-103616000D02*
G75*
G03*
X144725000Y-103616000I-100000J0D01*
G01*
D20*
X190191000Y-103915000D02*
X190191000Y-103300000D01*
X195175000Y-97900000D02*
X191516000Y-97917000D01*
X195183000Y-105300000D02*
X195183000Y-97908000D01*
X195183000Y-97908000D02*
X195175000Y-97900000D01*
X195175000Y-105292000D02*
X191516000Y-105309000D01*
X190191000Y-99893000D02*
X190191000Y-99375000D01*
D16*
X180640400Y-83877036D02*
X180640400Y-83661364D01*
X181360400Y-83877036D02*
X181360400Y-83661364D01*
X186825658Y-102195100D02*
X186351142Y-102195100D01*
X186825658Y-103240100D02*
X186351142Y-103240100D01*
D17*
X188340400Y-84814600D02*
X189640400Y-84814600D01*
X183940400Y-84714600D02*
X183940400Y-84914600D01*
X188740400Y-79514600D02*
X188340400Y-79514600D01*
X183940400Y-84914600D02*
X184340400Y-84914600D01*
X188740400Y-79714600D02*
X188740400Y-79514600D01*
X183940400Y-79514600D02*
X184440400Y-79514600D01*
X188240400Y-84914600D02*
X188340400Y-84814600D01*
X183940400Y-79714600D02*
X183940400Y-79514600D01*
X187940400Y-84914600D02*
X188240400Y-84914600D01*
X183940400Y-79614600D02*
X183940400Y-79714600D01*
D16*
X157755000Y-95131836D02*
X157755000Y-94916164D01*
X158475000Y-95131836D02*
X158475000Y-94916164D01*
X109205836Y-113785523D02*
X109205836Y-114092805D01*
X109965836Y-113785523D02*
X109965836Y-114092805D01*
D17*
X124600000Y-74950000D02*
X124300000Y-75100000D01*
X124600000Y-70250000D02*
X124600000Y-70550000D01*
X124600000Y-70250000D02*
X124300000Y-70100000D01*
X124600000Y-74650000D02*
X124600000Y-74950000D01*
D10*
X121450000Y-70650000D02*
G75*
G03*
X121400000Y-74500000I1900000J-1950000D01*
G01*
D16*
X171979000Y-96345836D02*
X171979000Y-96130164D01*
X172699000Y-96345836D02*
X172699000Y-96130164D01*
X111510060Y-123172659D02*
X111727341Y-123389940D01*
X110972659Y-123710060D02*
X111189940Y-123927341D01*
X122286900Y-140504900D02*
X122286900Y-146664900D01*
X126116900Y-140504900D02*
X126116900Y-140504900D01*
X118750900Y-137834900D02*
X118750900Y-140504900D01*
X123576900Y-137834900D02*
X123576900Y-137834900D01*
X127806900Y-141624900D02*
X127406900Y-141624900D01*
X123576900Y-140504900D02*
X123576900Y-137834900D01*
X114920900Y-140504900D02*
X120040900Y-140504900D01*
X126116900Y-137834900D02*
X126116900Y-137834900D01*
X118750900Y-140504900D02*
X118750900Y-140504900D01*
X127806900Y-140504900D02*
X127806900Y-141624900D01*
X120440900Y-141624900D02*
X120040900Y-141624900D01*
X116210900Y-140504900D02*
X116210900Y-137834900D01*
X116210900Y-140504900D02*
X116210900Y-140504900D01*
X127406900Y-140504900D02*
X127406900Y-146664900D01*
X127406900Y-140504900D02*
X127806900Y-140504900D01*
X123576900Y-140504900D02*
X123576900Y-140504900D01*
X120040900Y-140504900D02*
X120440900Y-140504900D01*
X118750900Y-137834900D02*
X118750900Y-137834900D01*
X127406900Y-141624900D02*
X127406900Y-140504900D01*
X114920900Y-140504900D02*
X114920900Y-146664900D01*
X116210900Y-137834900D02*
X116210900Y-140504900D01*
X123576900Y-137834900D02*
X123576900Y-140504900D01*
X122286900Y-140504900D02*
X127406900Y-140504900D01*
X118750900Y-140504900D02*
X118750900Y-137834900D01*
X120040900Y-141624900D02*
X120040900Y-140504900D01*
X116210900Y-137834900D02*
X116210900Y-137834900D01*
X126116900Y-137834900D02*
X126116900Y-140504900D01*
X120040900Y-140504900D02*
X120040900Y-146664900D01*
X120440900Y-140504900D02*
X120440900Y-141624900D01*
X126116900Y-140504900D02*
X126116900Y-137834900D01*
X114920900Y-146664900D02*
G75*
G03*
X120040900Y-146664900I2560000J0D01*
G01*
X122286900Y-146664900D02*
G75*
G03*
X127406900Y-146664900I2560000J0D01*
G01*
X126189500Y-129387836D02*
X126189500Y-129172164D01*
X126909500Y-129387836D02*
X126909500Y-129172164D01*
D17*
X113652000Y-83916000D02*
X113652000Y-84216000D01*
X113652000Y-88616000D02*
X113352000Y-88766000D01*
X113652000Y-88316000D02*
X113652000Y-88616000D01*
X113652000Y-83916000D02*
X113352000Y-83766000D01*
D10*
X110502000Y-84316000D02*
G75*
G03*
X110452000Y-88166000I1900000J-1950000D01*
G01*
D18*
X134877000Y-93899500D02*
X135777000Y-92879500D01*
X137527000Y-78399500D02*
X137527000Y-90899500D01*
X129427000Y-90899500D02*
X130427000Y-92029500D01*
X132077000Y-93899500D02*
X131177000Y-92879500D01*
X129427000Y-78399500D02*
X137527000Y-78399500D01*
X137527000Y-90899500D02*
X136527000Y-92029500D01*
X134877000Y-93899500D02*
X132077000Y-93899500D01*
X129427000Y-90899500D02*
X129427000Y-78399500D01*
D21*
X133727000Y-94549500D02*
G75*
G03*
X133727000Y-94549500I-150000J0D01*
G01*
D16*
X125686164Y-75796000D02*
X125901836Y-75796000D01*
X125686164Y-76516000D02*
X125901836Y-76516000D01*
X128369748Y-100224000D02*
X129792252Y-100224000D01*
X128369748Y-98404000D02*
X129792252Y-98404000D01*
D17*
X172948400Y-119422400D02*
X172948400Y-119922400D01*
X172948400Y-119422400D02*
X172448400Y-119422400D01*
X169748400Y-119422400D02*
X170248400Y-119422400D01*
X169748400Y-127322400D02*
X169748400Y-126822400D01*
X169748400Y-119422400D02*
X169748400Y-119922400D01*
X172948400Y-127322400D02*
X172448400Y-127322400D01*
X169748400Y-127322400D02*
X170248400Y-127322400D01*
X172948400Y-127322400D02*
X172948400Y-126822400D01*
D16*
X143585200Y-99366041D02*
X143585200Y-99058759D01*
X142825200Y-99366041D02*
X142825200Y-99058759D01*
X156465241Y-104164400D02*
X156157959Y-104164400D01*
X156465241Y-103404400D02*
X156157959Y-103404400D01*
X125947641Y-73490000D02*
X125640359Y-73490000D01*
X125947641Y-74250000D02*
X125640359Y-74250000D01*
X114436236Y-118095523D02*
X114436236Y-118402805D01*
X113676236Y-118095523D02*
X113676236Y-118402805D01*
X125499622Y-87960000D02*
X124700378Y-87960000D01*
X125499622Y-86840000D02*
X124700378Y-86840000D01*
X186825658Y-101665300D02*
X186351142Y-101665300D01*
X186825658Y-100620300D02*
X186351142Y-100620300D01*
X112677836Y-90182000D02*
X112462164Y-90182000D01*
X112677836Y-89462000D02*
X112462164Y-89462000D01*
X167642000Y-94256000D02*
X167642000Y-90656000D01*
X167642000Y-90656000D02*
X161892000Y-90656000D01*
X161892000Y-94256000D02*
X167642000Y-94256000D01*
X160154000Y-119461000D02*
X160154000Y-123661000D01*
X160154000Y-119461000D02*
X165954000Y-119461000D01*
X165954000Y-119461000D02*
X165954000Y-127861000D01*
X165954000Y-127861000D02*
X160154000Y-127861000D01*
X160154000Y-127861000D02*
X160154000Y-119461000D01*
X145154000Y-119461000D02*
X160154000Y-119461000D01*
X160154000Y-119461000D02*
X160154000Y-136761000D01*
X160154000Y-136761000D02*
X145154000Y-136761000D01*
X145154000Y-136761000D02*
X145154000Y-119461000D01*
X145154000Y-119461000D02*
X139354000Y-119461000D01*
X139354000Y-119461000D02*
X139354000Y-127861000D01*
X139354000Y-127861000D02*
X145154000Y-127861000D01*
X145154000Y-127861000D02*
X145154000Y-119461000D01*
X144874000Y-123671000D02*
G75*
G03*
X144874000Y-123671000I-1100000J0D01*
G01*
X162634000Y-123671000D02*
G75*
G03*
X162634000Y-123671000I-1100000J0D01*
G01*
X123246500Y-128872359D02*
X123246500Y-129179641D01*
X122486500Y-128872359D02*
X122486500Y-129179641D01*
X171978307Y-83780810D02*
X172130810Y-83628307D01*
X171469190Y-83271693D02*
X171621693Y-83119190D01*
X119599000Y-119101000D02*
X119599000Y-117771000D01*
X134959000Y-120431000D02*
X134959000Y-117771000D01*
X122199000Y-120431000D02*
X134959000Y-120431000D01*
X122199000Y-117771000D02*
X134959000Y-117771000D01*
X122199000Y-120431000D02*
X122199000Y-117771000D01*
X119599000Y-117771000D02*
X120929000Y-117771000D01*
X190501241Y-125604000D02*
X190193959Y-125604000D01*
X190501241Y-126364000D02*
X190193959Y-126364000D01*
X182574000Y-116985622D02*
X182574000Y-116186378D01*
X183694000Y-116985622D02*
X183694000Y-116186378D01*
X113696236Y-114412000D02*
X113696236Y-114196328D01*
X114416236Y-114412000D02*
X114416236Y-114196328D01*
X190239764Y-127563200D02*
X190455436Y-127563200D01*
X190239764Y-126843200D02*
X190455436Y-126843200D01*
X164015000Y-115600000D02*
X164015000Y-117885000D01*
X165485000Y-117885000D02*
X165485000Y-115600000D01*
X164015000Y-117885000D02*
X165485000Y-117885000D01*
X115003641Y-85630000D02*
X114696359Y-85630000D01*
X115003641Y-84870000D02*
X114696359Y-84870000D01*
X126034748Y-97430000D02*
X127457252Y-97430000D01*
X126034748Y-95610000D02*
X127457252Y-95610000D01*
X194728000Y-86331400D02*
X192928000Y-86331400D01*
X193978000Y-91531400D02*
X185928000Y-91531400D01*
X177128000Y-88581400D02*
X177878000Y-88581400D01*
X191428000Y-86331400D02*
X180428000Y-86331400D01*
X178928000Y-87081400D02*
X178928000Y-86331400D01*
X177118000Y-86321400D02*
X177118000Y-92291400D01*
X192928000Y-86331400D02*
X192928000Y-87081400D01*
X177128000Y-87081400D02*
X178928000Y-87081400D01*
X194728000Y-88581400D02*
X193978000Y-88581400D01*
X178928000Y-86331400D02*
X177128000Y-86331400D01*
X176828000Y-86031400D02*
X176828000Y-87281400D01*
X191428000Y-87081400D02*
X191428000Y-86331400D01*
X177878000Y-88581400D02*
X177878000Y-91531400D01*
X194728000Y-87081400D02*
X194728000Y-86331400D01*
X193978000Y-88581400D02*
X193978000Y-91531400D01*
X180428000Y-87081400D02*
X191428000Y-87081400D01*
X177128000Y-86331400D02*
X177128000Y-87081400D01*
X177878000Y-91531400D02*
X185928000Y-91531400D01*
X194738000Y-86321400D02*
X177118000Y-86321400D01*
X177118000Y-92291400D02*
X194738000Y-92291400D01*
X178078000Y-86031400D02*
X176828000Y-86031400D01*
X180428000Y-86331400D02*
X180428000Y-87081400D01*
X192928000Y-87081400D02*
X194728000Y-87081400D01*
X194738000Y-92291400D02*
X194738000Y-86321400D01*
X126189500Y-131204164D02*
X126189500Y-131419836D01*
X126909500Y-131204164D02*
X126909500Y-131419836D01*
X126346000Y-114559000D02*
X125086000Y-114559000D01*
X119526000Y-110799000D02*
X119526000Y-114559000D01*
X126346000Y-108549000D02*
X126346000Y-114559000D01*
X119526000Y-114559000D02*
X120786000Y-114559000D01*
X103739000Y-80902873D02*
X105626975Y-82790848D01*
X103830924Y-84586899D02*
X103830924Y-84586899D01*
X105956487Y-78685386D02*
X105164528Y-77893426D01*
X105164528Y-77893426D02*
X105447370Y-77610584D01*
X105626975Y-82790848D02*
X105626975Y-82790848D01*
X109039473Y-79378351D02*
X109039473Y-79378351D01*
X104651168Y-79990705D02*
X101030781Y-83611092D01*
X109039473Y-79378351D02*
X107151498Y-77490376D01*
X107151498Y-77490376D02*
X109039473Y-79378351D01*
X106239330Y-78402543D02*
X101883552Y-74046766D01*
X110835524Y-77582299D02*
X110835524Y-77582299D01*
X108947549Y-75694324D02*
X108947549Y-75694324D01*
X99955979Y-83101975D02*
X100238822Y-82819132D01*
X101942949Y-82698924D02*
X101942949Y-82698924D01*
X105626975Y-82790848D02*
X103739000Y-80902873D01*
X104651168Y-79990705D02*
X100295390Y-75634927D01*
X101942949Y-82698924D02*
X103830924Y-84586899D01*
X101030781Y-83611092D02*
X96675004Y-79255314D01*
X109859717Y-74782157D02*
X106239330Y-78402543D01*
X100238822Y-82819132D02*
X101030781Y-83611092D01*
X101030781Y-83611092D02*
X100747939Y-83893935D01*
X107151498Y-77490376D02*
X107151498Y-77490376D01*
X109859717Y-74782157D02*
X105503939Y-70426379D01*
X106239330Y-78402543D02*
X105956487Y-78685386D01*
X108947549Y-75694324D02*
X110835524Y-77582299D01*
X103739000Y-80902873D02*
X103739000Y-80902873D01*
X105447370Y-77610584D02*
X106239330Y-78402543D01*
X103830924Y-84586899D02*
X101942949Y-82698924D01*
X100747939Y-83893935D02*
X99955979Y-83101975D01*
X110835524Y-77582299D02*
X108947549Y-75694324D01*
X100295389Y-75634928D02*
G75*
G03*
X96675004Y-79255314I-1810192J-1810193D01*
G01*
X105503939Y-70426379D02*
G75*
G03*
X101883552Y-74046766I-1810194J-1810193D01*
G01*
X93945000Y-111840000D02*
X96605000Y-111840000D01*
X93945000Y-96540000D02*
X96605000Y-96540000D01*
X93945000Y-96540000D02*
X93945000Y-111840000D01*
X95275000Y-93940000D02*
X96605000Y-93940000D01*
X96605000Y-96540000D02*
X96605000Y-111840000D01*
X96605000Y-93940000D02*
X96605000Y-95270000D01*
X187097600Y-125004000D02*
X187097600Y-129504000D01*
X193597600Y-129504000D02*
X193597600Y-125004000D01*
X191097600Y-123754000D02*
X189597600Y-123754000D01*
X189597600Y-130754000D02*
X191097600Y-130754000D01*
X114466164Y-89462000D02*
X114681836Y-89462000D01*
X114466164Y-90182000D02*
X114681836Y-90182000D01*
X169592164Y-109749000D02*
X169807836Y-109749000D01*
X169592164Y-110469000D02*
X169807836Y-110469000D01*
X190143159Y-118134400D02*
X190450441Y-118134400D01*
X190143159Y-117374400D02*
X190450441Y-117374400D01*
X184912000Y-106817600D02*
X184112000Y-106817600D01*
X184912000Y-103697600D02*
X185712000Y-103697600D01*
X184912000Y-103697600D02*
X184112000Y-103697600D01*
X184912000Y-106817600D02*
X186712000Y-106817600D01*
X165272500Y-113037742D02*
X165272500Y-113512258D01*
X164227500Y-113037742D02*
X164227500Y-113512258D01*
X157481241Y-105334800D02*
X157173959Y-105334800D01*
X157481241Y-106094800D02*
X157173959Y-106094800D01*
X141778400Y-99320236D02*
X141778400Y-99104564D01*
X142498400Y-99320236D02*
X142498400Y-99104564D01*
X194728000Y-73646200D02*
X193978000Y-73646200D01*
X177128000Y-73646200D02*
X177878000Y-73646200D01*
X194728000Y-71396200D02*
X192928000Y-71396200D01*
X177878000Y-76596200D02*
X185928000Y-76596200D01*
X177118000Y-71386200D02*
X177118000Y-77356200D01*
X177128000Y-72146200D02*
X178928000Y-72146200D01*
X178928000Y-71396200D02*
X177128000Y-71396200D01*
X191428000Y-72146200D02*
X191428000Y-71396200D01*
X177118000Y-77356200D02*
X194738000Y-77356200D01*
X193978000Y-73646200D02*
X193978000Y-76596200D01*
X193978000Y-76596200D02*
X185928000Y-76596200D01*
X180428000Y-72146200D02*
X191428000Y-72146200D01*
X180428000Y-71396200D02*
X180428000Y-72146200D01*
X194738000Y-77356200D02*
X194738000Y-71386200D01*
X194728000Y-72146200D02*
X194728000Y-71396200D01*
X177128000Y-71396200D02*
X177128000Y-72146200D01*
X192928000Y-71396200D02*
X192928000Y-72146200D01*
X191428000Y-71396200D02*
X180428000Y-71396200D01*
X176828000Y-71096200D02*
X176828000Y-72346200D01*
X192928000Y-72146200D02*
X194728000Y-72146200D01*
X178078000Y-71096200D02*
X176828000Y-71096200D01*
X177878000Y-73646200D02*
X177878000Y-76596200D01*
X194738000Y-71386200D02*
X177118000Y-71386200D01*
X178928000Y-72146200D02*
X178928000Y-71396200D01*
X180640400Y-81845036D02*
X180640400Y-81629364D01*
X181360400Y-81845036D02*
X181360400Y-81629364D01*
X157514236Y-107141600D02*
X157298564Y-107141600D01*
X157514236Y-106421600D02*
X157298564Y-106421600D01*
X110689641Y-90202000D02*
X110382359Y-90202000D01*
X110689641Y-89442000D02*
X110382359Y-89442000D01*
X168782000Y-122477559D02*
X168782000Y-122784841D01*
X168022000Y-122477559D02*
X168022000Y-122784841D01*
X189722000Y-109565000D02*
X189722000Y-105665000D01*
X187722000Y-109565000D02*
X189722000Y-109565000D01*
X187722000Y-109565000D02*
X187722000Y-105665000D01*
X125947641Y-72980000D02*
X125640359Y-72980000D01*
X125947641Y-72220000D02*
X125640359Y-72220000D01*
X114416236Y-116111328D02*
X114416236Y-116327000D01*
X113696236Y-116111328D02*
X113696236Y-116327000D01*
X127151641Y-89028000D02*
X126844359Y-89028000D01*
X127151641Y-89788000D02*
X126844359Y-89788000D01*
X126846359Y-90931000D02*
X127153641Y-90931000D01*
X126846359Y-90171000D02*
X127153641Y-90171000D01*
D17*
X125095200Y-86174400D02*
X125595200Y-86174400D01*
X128295200Y-78274400D02*
X128295200Y-78774400D01*
X125095200Y-78274400D02*
X125095200Y-78774400D01*
X125095200Y-86174400D02*
X125095200Y-85674400D01*
X128295200Y-78274400D02*
X127795200Y-78274400D01*
X128295200Y-86174400D02*
X127795200Y-86174400D01*
X128295200Y-86174400D02*
X128295200Y-85674400D01*
X125095200Y-78274400D02*
X125595200Y-78274400D01*
X170200000Y-107970000D02*
X169700000Y-107970000D01*
X160000000Y-97770000D02*
X160500000Y-97770000D01*
X160000000Y-97770000D02*
X160000000Y-98270000D01*
X170200000Y-107970000D02*
X170200000Y-107470000D01*
X169600000Y-97770000D02*
X169100000Y-97770000D01*
X160000000Y-107970000D02*
X160000000Y-107470000D01*
X170200000Y-98370000D02*
X169600000Y-97770000D01*
X169100000Y-97770000D02*
X169100000Y-96770000D01*
X160000000Y-107970000D02*
X160500000Y-107970000D01*
X170200000Y-98670000D02*
X170200000Y-98370000D01*
D16*
X166643164Y-89556000D02*
X166858836Y-89556000D01*
X166643164Y-90276000D02*
X166858836Y-90276000D01*
X169533883Y-85737437D02*
X170594544Y-86798097D01*
X175544291Y-81848350D02*
X174483631Y-80787689D01*
X171831981Y-79903806D02*
X168650000Y-83085786D01*
X173246194Y-87681981D02*
X176428175Y-84500000D01*
X121156148Y-95660800D02*
X122578652Y-95660800D01*
X121156148Y-97480800D02*
X122578652Y-97480800D01*
X110526636Y-113785523D02*
X110526636Y-114092805D01*
X111286636Y-113785523D02*
X111286636Y-114092805D01*
X128794742Y-102757500D02*
X129269258Y-102757500D01*
X128794742Y-101712500D02*
X129269258Y-101712500D01*
X114949500Y-64637500D02*
X114949500Y-58477500D01*
X122315500Y-64637500D02*
X121915500Y-64637500D01*
X114949500Y-63517500D02*
X114949500Y-64637500D01*
X120069500Y-64637500D02*
X120069500Y-58477500D01*
X114949500Y-64637500D02*
X114549500Y-64637500D01*
X121915500Y-64637500D02*
X121915500Y-63517500D01*
X126145500Y-64637500D02*
X126145500Y-64637500D01*
X114549500Y-64637500D02*
X114549500Y-63517500D01*
X114549500Y-63517500D02*
X114949500Y-63517500D01*
X123605500Y-64637500D02*
X123605500Y-67307500D01*
X122315500Y-63517500D02*
X122315500Y-64637500D01*
X126145500Y-67307500D02*
X126145500Y-67307500D01*
X122315500Y-64637500D02*
X122315500Y-58477500D01*
X116239500Y-67307500D02*
X116239500Y-64637500D01*
X123605500Y-67307500D02*
X123605500Y-67307500D01*
X118779500Y-67307500D02*
X118779500Y-64637500D01*
X126145500Y-64637500D02*
X126145500Y-67307500D01*
X118779500Y-67307500D02*
X118779500Y-67307500D01*
X116239500Y-64637500D02*
X116239500Y-67307500D01*
X121915500Y-63517500D02*
X122315500Y-63517500D01*
X118779500Y-64637500D02*
X118779500Y-67307500D01*
X123605500Y-64637500D02*
X123605500Y-64637500D01*
X123605500Y-67307500D02*
X123605500Y-64637500D01*
X126145500Y-67307500D02*
X126145500Y-64637500D01*
X116239500Y-67307500D02*
X116239500Y-67307500D01*
X127435500Y-64637500D02*
X122315500Y-64637500D01*
X116239500Y-64637500D02*
X116239500Y-64637500D01*
X127435500Y-64637500D02*
X127435500Y-58477500D01*
X118779500Y-64637500D02*
X118779500Y-64637500D01*
X120069500Y-64637500D02*
X114949500Y-64637500D01*
X120069500Y-58477500D02*
G75*
G03*
X114949500Y-58477500I-2560000J0D01*
G01*
X127435500Y-58477500D02*
G75*
G03*
X122315500Y-58477500I-2560000J0D01*
G01*
X145154000Y-85771000D02*
X145154000Y-81571000D01*
X160154000Y-85771000D02*
X165954000Y-85771000D01*
X165954000Y-85771000D02*
X165954000Y-77371000D01*
X165954000Y-77371000D02*
X160154000Y-77371000D01*
X160154000Y-77371000D02*
X160154000Y-85771000D01*
X145154000Y-85771000D02*
X139354000Y-85771000D01*
X139354000Y-85771000D02*
X139354000Y-77371000D01*
X139354000Y-77371000D02*
X145154000Y-77371000D01*
X145154000Y-77371000D02*
X145154000Y-85771000D01*
X160154000Y-85771000D02*
X145154000Y-85771000D01*
X145154000Y-85771000D02*
X145154000Y-68471000D01*
X145154000Y-68471000D02*
X160154000Y-68471000D01*
X160154000Y-68471000D02*
X160154000Y-85771000D01*
X162634000Y-81561000D02*
G75*
G03*
X162634000Y-81561000I-1100000J0D01*
G01*
X144874000Y-81561000D02*
G75*
G03*
X144874000Y-81561000I-1100000J0D01*
G01*
X118853641Y-70070000D02*
X118546359Y-70070000D01*
X118853641Y-70830000D02*
X118546359Y-70830000D01*
X179502800Y-81890841D02*
X179502800Y-81583559D01*
X180262800Y-81890841D02*
X180262800Y-81583559D01*
X116246359Y-134470000D02*
X116553641Y-134470000D01*
X116246359Y-135230000D02*
X116553641Y-135230000D01*
X163341164Y-90276000D02*
X163556836Y-90276000D01*
X163341164Y-89556000D02*
X163556836Y-89556000D01*
X128779748Y-111866000D02*
X130202252Y-111866000D01*
X128779748Y-113686000D02*
X130202252Y-113686000D01*
X121216500Y-128870359D02*
X121216500Y-129177641D01*
X121976500Y-128870359D02*
X121976500Y-129177641D01*
X143912000Y-99104564D02*
X143912000Y-99320236D01*
X144632000Y-99104564D02*
X144632000Y-99320236D01*
X107129927Y-127655000D02*
X109017902Y-125767025D01*
X110813953Y-127563076D02*
X110813953Y-127563076D01*
X104629597Y-125154670D02*
X104912440Y-125437513D01*
X103809353Y-120558476D02*
X103809353Y-120558476D01*
X103717430Y-124242502D02*
X103717430Y-124242502D01*
X106217759Y-126742832D02*
X101861981Y-131098610D01*
X103837638Y-125946630D02*
X104629597Y-125154670D01*
X104629597Y-125154670D02*
X100273820Y-129510448D01*
X101009211Y-121534283D02*
X104629597Y-125154670D01*
X101921378Y-122446451D02*
X103809353Y-120558476D01*
X109017902Y-125767025D02*
X107129927Y-127655000D01*
X108925978Y-129451051D02*
X108925978Y-129451051D01*
X109329029Y-131438021D02*
X109046186Y-131155178D01*
X109017902Y-125767025D02*
X109017902Y-125767025D01*
X106217759Y-126742832D02*
X109838146Y-130363219D01*
X105605405Y-122354527D02*
X103717430Y-124242502D01*
X103717430Y-124242502D02*
X105605405Y-122354527D01*
X107129927Y-127655000D02*
X107129927Y-127655000D01*
X104120480Y-126229472D02*
X103837638Y-125946630D01*
X109838146Y-130363219D02*
X105482368Y-134718996D01*
X103809353Y-120558476D02*
X101921378Y-122446451D01*
X101921378Y-122446451D02*
X101921378Y-122446451D01*
X108925978Y-129451051D02*
X110813953Y-127563076D01*
X109046186Y-131155178D02*
X109838146Y-130363219D01*
X110120989Y-130646061D02*
X109329029Y-131438021D01*
X109838146Y-130363219D02*
X110120989Y-130646061D01*
X101009211Y-121534283D02*
X96653433Y-125890061D01*
X110813953Y-127563076D02*
X108925978Y-129451051D01*
X104912440Y-125437513D02*
X104120480Y-126229472D01*
X105605405Y-122354527D02*
X105605405Y-122354527D01*
X101861982Y-131098611D02*
G75*
G03*
X105482368Y-134718996I1810193J-1810192D01*
G01*
X96653433Y-125890061D02*
G75*
G03*
X100273820Y-129510448I1810193J-1810194D01*
G01*
X171852000Y-99234164D02*
X171852000Y-99449836D01*
X172572000Y-99234164D02*
X172572000Y-99449836D01*
X126929500Y-133317359D02*
X126929500Y-133624641D01*
X126169500Y-133317359D02*
X126169500Y-133624641D01*
X113277341Y-79960060D02*
X113060060Y-80177341D01*
X112739940Y-79422659D02*
X112522659Y-79639940D01*
X158221000Y-99929836D02*
X158221000Y-99714164D01*
X157501000Y-99929836D02*
X157501000Y-99714164D01*
D17*
X125216500Y-130353000D02*
X125366500Y-130653000D01*
X124916500Y-130353000D02*
X125216500Y-130353000D01*
X120516500Y-130353000D02*
X120366500Y-130653000D01*
X120516500Y-130353000D02*
X120816500Y-130353000D01*
D10*
X120916500Y-133503000D02*
G75*
G03*
X124766500Y-133553000I1950000J1900000D01*
G01*
D16*
X180450800Y-131064000D02*
X180450800Y-138744000D01*
X177790800Y-131064000D02*
X180450800Y-131064000D01*
X177790800Y-129794000D02*
X177790800Y-128464000D01*
X177790800Y-138744000D02*
X180450800Y-138744000D01*
X177790800Y-128464000D02*
X179120800Y-128464000D01*
X177790800Y-131064000D02*
X177790800Y-138744000D01*
X176546000Y-114336000D02*
X176546000Y-118236000D01*
X178546000Y-114336000D02*
X178546000Y-118236000D01*
X178546000Y-114336000D02*
X176546000Y-114336000D01*
%LPC*%
D22*
X165589376Y-86360624D03*
X166310624Y-85639376D03*
D23*
X188148400Y-113742400D03*
X188148400Y-120242400D03*
X192648400Y-120242400D03*
X192648400Y-113742400D03*
D24*
X121986000Y-76156000D03*
X120966000Y-76156000D03*
D25*
X190776800Y-116332000D03*
X189816800Y-116332000D03*
X124115000Y-76156000D03*
X123155000Y-76156000D03*
D26*
X177320000Y-119634000D03*
X178280000Y-119634000D03*
D27*
X120636000Y-105385000D03*
D28*
X122936000Y-99085000D03*
D27*
X122936000Y-105385000D03*
X125236000Y-105385000D03*
D29*
X111770236Y-116733164D03*
D30*
X110500236Y-116733164D03*
X109230236Y-116733164D03*
D31*
X172339000Y-102868000D03*
X172339000Y-103888000D03*
D32*
X159207200Y-95526800D03*
X159207200Y-94566800D03*
D33*
X150493000Y-103505000D03*
X151513000Y-103505000D03*
D26*
X138585000Y-101473000D03*
X139545000Y-101473000D03*
X169093000Y-95631000D03*
X170053000Y-95631000D03*
D24*
X115362000Y-86393000D03*
X114342000Y-86393000D03*
D34*
X133121500Y-102235000D03*
X131546500Y-102235000D03*
D35*
X143785000Y-103616000D03*
X143785000Y-103216000D03*
X143785000Y-102816000D03*
X143785000Y-102416000D03*
X143785000Y-102016000D03*
X143785000Y-101616000D03*
D36*
X143240000Y-101071000D03*
X142840000Y-101071000D03*
X142440000Y-101071000D03*
X142040000Y-101071000D03*
X141640000Y-101071000D03*
X141240000Y-101071000D03*
D35*
X140695000Y-101616000D03*
X140695000Y-102016000D03*
X140695000Y-102416000D03*
X140695000Y-102816000D03*
X140695000Y-103216000D03*
X140695000Y-103616000D03*
D36*
X141240000Y-104161000D03*
X141640000Y-104161000D03*
X142040000Y-104161000D03*
X142440000Y-104161000D03*
X142840000Y-104161000D03*
X143240000Y-104161000D03*
D37*
X142240000Y-102616000D03*
D38*
X190941000Y-99600000D03*
X190941000Y-103600000D03*
D39*
X189991000Y-102900000D03*
X189991000Y-102250000D03*
X189991000Y-101600000D03*
X189991000Y-100950000D03*
X189991000Y-100300000D03*
D29*
X190791000Y-104800000D03*
D40*
X193041000Y-102700000D03*
D41*
X193041000Y-104425000D03*
X193041000Y-98775000D03*
D40*
X193041000Y-100500000D03*
D29*
X190791000Y-98400000D03*
D32*
X181000400Y-84249200D03*
X181000400Y-83289200D03*
D42*
X187413400Y-102717600D03*
X185763400Y-102717600D03*
D43*
X189140400Y-84489600D03*
X189140400Y-83839600D03*
X189140400Y-83189600D03*
X189140400Y-82539600D03*
X189140400Y-81889600D03*
X189140400Y-81239600D03*
X189140400Y-80589600D03*
X189140400Y-79939600D03*
X183540400Y-79939600D03*
X183540400Y-80589600D03*
X183540400Y-81239600D03*
X183540400Y-81889600D03*
X183540400Y-82539600D03*
X183540400Y-83189600D03*
X183540400Y-83839600D03*
X183540400Y-84489600D03*
D44*
X185590400Y-80714600D03*
D45*
X186340400Y-82214600D03*
D44*
X187090400Y-83714600D03*
X187090400Y-82214600D03*
X185590400Y-82214600D03*
X187090400Y-80714600D03*
X185590400Y-83714600D03*
D46*
X156868000Y-96647000D03*
X157838000Y-96647000D03*
D32*
X158115000Y-95504000D03*
X158115000Y-94544000D03*
D31*
X109585836Y-113429164D03*
X109585836Y-114449164D03*
D47*
X123000000Y-73870000D03*
D48*
X123000000Y-72600000D03*
X123000000Y-71330000D03*
D32*
X172339000Y-96718000D03*
X172339000Y-95758000D03*
D49*
X110989376Y-123189376D03*
X111710624Y-123910624D03*
D50*
X116210900Y-136754900D03*
D51*
X118750900Y-136754900D03*
D50*
X123576900Y-136754900D03*
D51*
X126116900Y-136754900D03*
D32*
X126549500Y-129760000D03*
X126549500Y-128800000D03*
D47*
X112052000Y-87536000D03*
D48*
X112052000Y-86266000D03*
X112052000Y-84996000D03*
D52*
X133477000Y-89749500D03*
D53*
X133477000Y-82549500D03*
D26*
X125314000Y-76156000D03*
X126274000Y-76156000D03*
D54*
X127606000Y-99314000D03*
X130556000Y-99314000D03*
D40*
X171348400Y-125722400D03*
D55*
X171348400Y-123222400D03*
X171348400Y-120722400D03*
D56*
X143205200Y-99722400D03*
X143205200Y-98702400D03*
D24*
X156821600Y-103784400D03*
X155801600Y-103784400D03*
X126304000Y-73870000D03*
X125284000Y-73870000D03*
D31*
X114056236Y-117739164D03*
X114056236Y-118759164D03*
D57*
X126162500Y-87400000D03*
X124037500Y-87400000D03*
D42*
X187413400Y-101142800D03*
X185763400Y-101142800D03*
D25*
X113050000Y-89822000D03*
X112090000Y-89822000D03*
D58*
X166442000Y-92456000D03*
X162742000Y-92456000D03*
D59*
X161534000Y-123661000D03*
X143774000Y-123661000D03*
D31*
X122866500Y-128516000D03*
X122866500Y-129536000D03*
D60*
X171460589Y-83789411D03*
X172139411Y-83110589D03*
D61*
X120929000Y-119101000D03*
D62*
X123469000Y-119101000D03*
X126009000Y-119101000D03*
X128549000Y-119101000D03*
X131089000Y-119101000D03*
X133629000Y-119101000D03*
D24*
X190857600Y-125984000D03*
X189837600Y-125984000D03*
D63*
X183134000Y-117648500D03*
X183134000Y-115523500D03*
D32*
X114056236Y-114784164D03*
X114056236Y-113824164D03*
D26*
X189867600Y-127203200D03*
X190827600Y-127203200D03*
D64*
X164750000Y-117187500D03*
X164750000Y-115612500D03*
D24*
X115360000Y-85250000D03*
X114340000Y-85250000D03*
D54*
X125271000Y-96520000D03*
X128221000Y-96520000D03*
D65*
X179678000Y-88781400D03*
D66*
X182178000Y-88781400D03*
X184678000Y-88781400D03*
X187178000Y-88781400D03*
X189678000Y-88781400D03*
X192178000Y-88781400D03*
D67*
X126549500Y-130832000D03*
X126549500Y-131792000D03*
D27*
X125236000Y-109499000D03*
D28*
X122936000Y-115799000D03*
D27*
X122936000Y-109499000D03*
X120636000Y-109499000D03*
D68*
X111599199Y-78345975D03*
D51*
X109803148Y-80142026D03*
D68*
X106390651Y-83554523D03*
D51*
X104594600Y-85350575D03*
D61*
X95275000Y-95270000D03*
D62*
X95275000Y-97810000D03*
X95275000Y-100350000D03*
X95275000Y-102890000D03*
X95275000Y-105430000D03*
X95275000Y-107970000D03*
X95275000Y-110510000D03*
D23*
X188097600Y-124004000D03*
X188097600Y-130504000D03*
X192597600Y-124004000D03*
X192597600Y-130504000D03*
D26*
X114094000Y-89822000D03*
X115054000Y-89822000D03*
X169220000Y-110109000D03*
X170180000Y-110109000D03*
D33*
X189786800Y-117754400D03*
X190806800Y-117754400D03*
D69*
X186049500Y-106207600D03*
X186049500Y-105257600D03*
X186049500Y-104307600D03*
X183774500Y-104307600D03*
X183774500Y-105257600D03*
X183774500Y-106207600D03*
D70*
X164750000Y-112450000D03*
X164750000Y-114100000D03*
D24*
X157837600Y-105714800D03*
X156817600Y-105714800D03*
D32*
X142138400Y-99692400D03*
X142138400Y-98732400D03*
D65*
X179678000Y-73846200D03*
D66*
X182178000Y-73846200D03*
X184678000Y-73846200D03*
X187178000Y-73846200D03*
X189678000Y-73846200D03*
X192178000Y-73846200D03*
D32*
X181000400Y-82217200D03*
X181000400Y-81257200D03*
D25*
X157886400Y-106781600D03*
X156926400Y-106781600D03*
D24*
X111046000Y-89822000D03*
X110026000Y-89822000D03*
D31*
X168402000Y-122121200D03*
X168402000Y-123141200D03*
D71*
X188722000Y-108965000D03*
X188722000Y-105665000D03*
D24*
X126304000Y-72600000D03*
X125284000Y-72600000D03*
D67*
X114056236Y-115739164D03*
X114056236Y-116699164D03*
D24*
X127508000Y-89408000D03*
X126488000Y-89408000D03*
D33*
X126490000Y-90551000D03*
X127510000Y-90551000D03*
D40*
X126695200Y-84574400D03*
D55*
X126695200Y-82074400D03*
X126695200Y-79574400D03*
D72*
X168850000Y-97120000D03*
X168350000Y-97120000D03*
X167850000Y-97120000D03*
X167350000Y-97120000D03*
X166850000Y-97120000D03*
X166350000Y-97120000D03*
X165850000Y-97120000D03*
X165350000Y-97120000D03*
X164850000Y-97120000D03*
X164350000Y-97120000D03*
X163850000Y-97120000D03*
X163350000Y-97120000D03*
X162850000Y-97120000D03*
X162350000Y-97120000D03*
X161850000Y-97120000D03*
X161350000Y-97120000D03*
D73*
X159350000Y-99120000D03*
X159350000Y-99620000D03*
X159350000Y-100120000D03*
X159350000Y-100620000D03*
X159350000Y-101120000D03*
X159350000Y-101620000D03*
X159350000Y-102120000D03*
X159350000Y-102620000D03*
X159350000Y-103120000D03*
X159350000Y-103620000D03*
X159350000Y-104120000D03*
X159350000Y-104620000D03*
X159350000Y-105120000D03*
X159350000Y-105620000D03*
X159350000Y-106120000D03*
X159350000Y-106620000D03*
D72*
X161350000Y-108620000D03*
X161850000Y-108620000D03*
X162350000Y-108620000D03*
X162850000Y-108620000D03*
X163350000Y-108620000D03*
X163850000Y-108620000D03*
X164350000Y-108620000D03*
X164850000Y-108620000D03*
X165350000Y-108620000D03*
X165850000Y-108620000D03*
X166350000Y-108620000D03*
X166850000Y-108620000D03*
X167350000Y-108620000D03*
X167850000Y-108620000D03*
X168350000Y-108620000D03*
X168850000Y-108620000D03*
D73*
X170850000Y-106620000D03*
X170850000Y-106120000D03*
X170850000Y-105620000D03*
X170850000Y-105120000D03*
X170850000Y-104620000D03*
X170850000Y-104120000D03*
X170850000Y-103620000D03*
X170850000Y-103120000D03*
X170850000Y-102620000D03*
X170850000Y-102120000D03*
X170850000Y-101620000D03*
X170850000Y-101120000D03*
X170850000Y-100620000D03*
X170850000Y-100120000D03*
X170850000Y-99620000D03*
X170850000Y-99120000D03*
D26*
X166271000Y-89916000D03*
X167231000Y-89916000D03*
D23*
X168650000Y-84500000D03*
X173246194Y-79903806D03*
X171831981Y-87681981D03*
X176428175Y-83085786D03*
D54*
X120392400Y-96570800D03*
X123342400Y-96570800D03*
D31*
X110906636Y-113429164D03*
X110906636Y-114449164D03*
D74*
X128207000Y-102235000D03*
X129857000Y-102235000D03*
D50*
X118779500Y-68387500D03*
D51*
X116239500Y-68387500D03*
D50*
X126145500Y-68387500D03*
D51*
X123605500Y-68387500D03*
D59*
X161534000Y-81571000D03*
X143774000Y-81571000D03*
D24*
X119210000Y-70450000D03*
X118190000Y-70450000D03*
D56*
X179882800Y-82247200D03*
X179882800Y-81227200D03*
D33*
X115890000Y-134850000D03*
X116910000Y-134850000D03*
D26*
X162969000Y-89916000D03*
X163929000Y-89916000D03*
D54*
X128016000Y-112776000D03*
X130966000Y-112776000D03*
D31*
X121596500Y-128514000D03*
X121596500Y-129534000D03*
D67*
X144272000Y-98732400D03*
X144272000Y-99692400D03*
D75*
X109781577Y-125003349D03*
D51*
X111577629Y-126799400D03*
D75*
X104573029Y-119794801D03*
D51*
X106369080Y-121590852D03*
D67*
X172212000Y-98862000D03*
X172212000Y-99822000D03*
D31*
X126549500Y-132961000D03*
X126549500Y-133981000D03*
D76*
X113260624Y-79439376D03*
X112539376Y-80160624D03*
D32*
X157861000Y-100302000D03*
X157861000Y-99342000D03*
D29*
X124136500Y-131953000D03*
D30*
X122866500Y-131953000D03*
X121596500Y-131953000D03*
D61*
X179120800Y-129794000D03*
D62*
X179120800Y-132334000D03*
X179120800Y-134874000D03*
X179120800Y-137414000D03*
D71*
X177546000Y-114936000D03*
X177546000Y-118236000D03*
M02*
