%TF.GenerationSoftware,KiCad,Pcbnew,(6.0.7)*%
%TF.CreationDate,2022-12-26T23:07:23-05:00*%
%TF.ProjectId,Micromouse-kicad,4d696372-6f6d-46f7-9573-652d6b696361,rev?*%
%TF.SameCoordinates,Original*%
%TF.FileFunction,Drillmap*%
%TF.FilePolarity,Positive*%
%FSLAX45Y45*%
G04 Gerber Fmt 4.5, Leading zero omitted, Abs format (unit mm)*
G04 Created by KiCad (PCBNEW (6.0.7)) date 2022-12-26 23:07:23*
%MOMM*%
%LPD*%
G01*
G04 APERTURE LIST*
%ADD10C,0.200000*%
%ADD11C,0.100000*%
%ADD12C,0.060000*%
G04 APERTURE END LIST*
D10*
X16611600Y-12801600D02*
X16027400Y-12801600D01*
X16027400Y-6832600D02*
X14503400Y-6832600D01*
D11*
X12877800Y-7721600D02*
X13919200Y-7721600D01*
X19380200Y-15417800D02*
G75*
G03*
X19532600Y-15265400I0J152400D01*
G01*
X17653000Y-5232400D02*
X17653000Y-7721600D01*
D10*
X16027400Y-12801600D02*
X16027400Y-13690600D01*
D11*
X12877800Y-5105400D02*
G75*
G03*
X12877800Y-15417800I1346202J-5156200D01*
G01*
X17780000Y-5105400D02*
X19380200Y-5105400D01*
X17653000Y-12801600D02*
X17653000Y-15290800D01*
X17653000Y-15290800D02*
G75*
G03*
X17780000Y-15417800I127000J0D01*
G01*
X16611600Y-12801600D02*
X17653000Y-12801600D01*
D10*
X14503400Y-7721600D02*
X13919200Y-7721600D01*
X14503400Y-12801600D02*
X13919200Y-12801600D01*
D11*
X17780000Y-15417800D02*
X19380200Y-15417800D01*
X12877800Y-15417800D02*
X12877800Y-12801600D01*
X17780000Y-5105400D02*
G75*
G03*
X17653000Y-5232400I0J-127000D01*
G01*
D10*
X16611600Y-7721600D02*
X16027400Y-7721600D01*
D11*
X19532600Y-5257800D02*
G75*
G03*
X19380200Y-5105400I-152400J0D01*
G01*
D10*
X16027400Y-13690600D02*
X14503400Y-13690600D01*
X16027400Y-7721600D02*
X16027400Y-6832600D01*
X14503400Y-13690600D02*
X14503400Y-12801600D01*
D11*
X16611600Y-7721600D02*
X17653000Y-7721600D01*
X12877800Y-7721600D02*
X12877800Y-5105400D01*
D10*
X14503400Y-6832600D02*
X14503400Y-7721600D01*
D11*
X12877800Y-12801600D02*
X13919200Y-12801600D01*
X19532600Y-5257800D02*
X19532600Y-15265400D01*
D10*
D12*
X19064100Y-9930000D02*
X19124100Y-9990000D01*
X19124100Y-9930000D02*
X19064100Y-9990000D01*
X19064100Y-10330000D02*
X19124100Y-10390000D01*
X19124100Y-10330000D02*
X19064100Y-10390000D01*
D10*
X9147582Y-15733276D02*
X9147582Y-15533276D01*
X9195201Y-15533276D01*
X9223772Y-15542800D01*
X9242820Y-15561848D01*
X9252344Y-15580895D01*
X9261868Y-15618990D01*
X9261868Y-15647562D01*
X9252344Y-15685657D01*
X9242820Y-15704705D01*
X9223772Y-15723752D01*
X9195201Y-15733276D01*
X9147582Y-15733276D01*
X9347582Y-15733276D02*
X9347582Y-15599943D01*
X9347582Y-15638038D02*
X9357106Y-15618990D01*
X9366629Y-15609467D01*
X9385677Y-15599943D01*
X9404725Y-15599943D01*
X9471391Y-15733276D02*
X9471391Y-15599943D01*
X9471391Y-15533276D02*
X9461868Y-15542800D01*
X9471391Y-15552324D01*
X9480915Y-15542800D01*
X9471391Y-15533276D01*
X9471391Y-15552324D01*
X9595201Y-15733276D02*
X9576153Y-15723752D01*
X9566629Y-15704705D01*
X9566629Y-15533276D01*
X9699963Y-15733276D02*
X9680915Y-15723752D01*
X9671391Y-15704705D01*
X9671391Y-15533276D01*
X9928534Y-15733276D02*
X9928534Y-15533276D01*
X9995201Y-15676133D01*
X10061868Y-15533276D01*
X10061868Y-15733276D01*
X10242820Y-15733276D02*
X10242820Y-15628514D01*
X10233296Y-15609467D01*
X10214249Y-15599943D01*
X10176153Y-15599943D01*
X10157106Y-15609467D01*
X10242820Y-15723752D02*
X10223772Y-15733276D01*
X10176153Y-15733276D01*
X10157106Y-15723752D01*
X10147582Y-15704705D01*
X10147582Y-15685657D01*
X10157106Y-15666609D01*
X10176153Y-15657086D01*
X10223772Y-15657086D01*
X10242820Y-15647562D01*
X10338058Y-15599943D02*
X10338058Y-15799943D01*
X10338058Y-15609467D02*
X10357106Y-15599943D01*
X10395201Y-15599943D01*
X10414249Y-15609467D01*
X10423772Y-15618990D01*
X10433296Y-15638038D01*
X10433296Y-15695181D01*
X10423772Y-15714228D01*
X10414249Y-15723752D01*
X10395201Y-15733276D01*
X10357106Y-15733276D01*
X10338058Y-15723752D01*
X10519010Y-15714228D02*
X10528534Y-15723752D01*
X10519010Y-15733276D01*
X10509487Y-15723752D01*
X10519010Y-15714228D01*
X10519010Y-15733276D01*
X10519010Y-15609467D02*
X10528534Y-15618990D01*
X10519010Y-15628514D01*
X10509487Y-15618990D01*
X10519010Y-15609467D01*
X10519010Y-15628514D01*
D12*
X8829963Y-16032800D02*
X8889963Y-16092800D01*
X8889963Y-16032800D02*
X8829963Y-16092800D01*
D10*
X9185677Y-15953276D02*
X9204725Y-15953276D01*
X9223772Y-15962800D01*
X9233296Y-15972324D01*
X9242820Y-15991371D01*
X9252344Y-16029467D01*
X9252344Y-16077086D01*
X9242820Y-16115181D01*
X9233296Y-16134228D01*
X9223772Y-16143752D01*
X9204725Y-16153276D01*
X9185677Y-16153276D01*
X9166629Y-16143752D01*
X9157106Y-16134228D01*
X9147582Y-16115181D01*
X9138058Y-16077086D01*
X9138058Y-16029467D01*
X9147582Y-15991371D01*
X9157106Y-15972324D01*
X9166629Y-15962800D01*
X9185677Y-15953276D01*
X9338058Y-16134228D02*
X9347582Y-16143752D01*
X9338058Y-16153276D01*
X9328534Y-16143752D01*
X9338058Y-16134228D01*
X9338058Y-16153276D01*
X9519010Y-15953276D02*
X9480915Y-15953276D01*
X9461868Y-15962800D01*
X9452344Y-15972324D01*
X9433296Y-16000895D01*
X9423772Y-16038990D01*
X9423772Y-16115181D01*
X9433296Y-16134228D01*
X9442820Y-16143752D01*
X9461868Y-16153276D01*
X9499963Y-16153276D01*
X9519010Y-16143752D01*
X9528534Y-16134228D01*
X9538058Y-16115181D01*
X9538058Y-16067562D01*
X9528534Y-16048514D01*
X9519010Y-16038990D01*
X9499963Y-16029467D01*
X9461868Y-16029467D01*
X9442820Y-16038990D01*
X9433296Y-16048514D01*
X9423772Y-16067562D01*
X9661868Y-15953276D02*
X9680915Y-15953276D01*
X9699963Y-15962800D01*
X9709487Y-15972324D01*
X9719010Y-15991371D01*
X9728534Y-16029467D01*
X9728534Y-16077086D01*
X9719010Y-16115181D01*
X9709487Y-16134228D01*
X9699963Y-16143752D01*
X9680915Y-16153276D01*
X9661868Y-16153276D01*
X9642820Y-16143752D01*
X9633296Y-16134228D01*
X9623772Y-16115181D01*
X9614249Y-16077086D01*
X9614249Y-16029467D01*
X9623772Y-15991371D01*
X9633296Y-15972324D01*
X9642820Y-15962800D01*
X9661868Y-15953276D01*
X9852344Y-15953276D02*
X9871391Y-15953276D01*
X9890439Y-15962800D01*
X9899963Y-15972324D01*
X9909487Y-15991371D01*
X9919010Y-16029467D01*
X9919010Y-16077086D01*
X9909487Y-16115181D01*
X9899963Y-16134228D01*
X9890439Y-16143752D01*
X9871391Y-16153276D01*
X9852344Y-16153276D01*
X9833296Y-16143752D01*
X9823772Y-16134228D01*
X9814249Y-16115181D01*
X9804725Y-16077086D01*
X9804725Y-16029467D01*
X9814249Y-15991371D01*
X9823772Y-15972324D01*
X9833296Y-15962800D01*
X9852344Y-15953276D01*
X10004725Y-16153276D02*
X10004725Y-16019943D01*
X10004725Y-16038990D02*
X10014249Y-16029467D01*
X10033296Y-16019943D01*
X10061868Y-16019943D01*
X10080915Y-16029467D01*
X10090439Y-16048514D01*
X10090439Y-16153276D01*
X10090439Y-16048514D02*
X10099963Y-16029467D01*
X10119010Y-16019943D01*
X10147582Y-16019943D01*
X10166629Y-16029467D01*
X10176153Y-16048514D01*
X10176153Y-16153276D01*
X10271391Y-16153276D02*
X10271391Y-16019943D01*
X10271391Y-16038990D02*
X10280915Y-16029467D01*
X10299963Y-16019943D01*
X10328534Y-16019943D01*
X10347582Y-16029467D01*
X10357106Y-16048514D01*
X10357106Y-16153276D01*
X10357106Y-16048514D02*
X10366629Y-16029467D01*
X10385677Y-16019943D01*
X10414249Y-16019943D01*
X10433296Y-16029467D01*
X10442820Y-16048514D01*
X10442820Y-16153276D01*
X10833296Y-15943752D02*
X10661868Y-16200895D01*
X11090439Y-15953276D02*
X11109487Y-15953276D01*
X11128534Y-15962800D01*
X11138058Y-15972324D01*
X11147582Y-15991371D01*
X11157106Y-16029467D01*
X11157106Y-16077086D01*
X11147582Y-16115181D01*
X11138058Y-16134228D01*
X11128534Y-16143752D01*
X11109487Y-16153276D01*
X11090439Y-16153276D01*
X11071391Y-16143752D01*
X11061868Y-16134228D01*
X11052344Y-16115181D01*
X11042820Y-16077086D01*
X11042820Y-16029467D01*
X11052344Y-15991371D01*
X11061868Y-15972324D01*
X11071391Y-15962800D01*
X11090439Y-15953276D01*
X11242820Y-16134228D02*
X11252344Y-16143752D01*
X11242820Y-16153276D01*
X11233296Y-16143752D01*
X11242820Y-16134228D01*
X11242820Y-16153276D01*
X11376153Y-15953276D02*
X11395201Y-15953276D01*
X11414248Y-15962800D01*
X11423772Y-15972324D01*
X11433296Y-15991371D01*
X11442820Y-16029467D01*
X11442820Y-16077086D01*
X11433296Y-16115181D01*
X11423772Y-16134228D01*
X11414248Y-16143752D01*
X11395201Y-16153276D01*
X11376153Y-16153276D01*
X11357106Y-16143752D01*
X11347582Y-16134228D01*
X11338058Y-16115181D01*
X11328534Y-16077086D01*
X11328534Y-16029467D01*
X11338058Y-15991371D01*
X11347582Y-15972324D01*
X11357106Y-15962800D01*
X11376153Y-15953276D01*
X11519010Y-15972324D02*
X11528534Y-15962800D01*
X11547582Y-15953276D01*
X11595201Y-15953276D01*
X11614248Y-15962800D01*
X11623772Y-15972324D01*
X11633296Y-15991371D01*
X11633296Y-16010419D01*
X11623772Y-16038990D01*
X11509487Y-16153276D01*
X11633296Y-16153276D01*
X11699963Y-15953276D02*
X11823772Y-15953276D01*
X11757106Y-16029467D01*
X11785677Y-16029467D01*
X11804725Y-16038990D01*
X11814248Y-16048514D01*
X11823772Y-16067562D01*
X11823772Y-16115181D01*
X11814248Y-16134228D01*
X11804725Y-16143752D01*
X11785677Y-16153276D01*
X11728534Y-16153276D01*
X11709487Y-16143752D01*
X11699963Y-16134228D01*
X11995201Y-15953276D02*
X11957106Y-15953276D01*
X11938058Y-15962800D01*
X11928534Y-15972324D01*
X11909487Y-16000895D01*
X11899963Y-16038990D01*
X11899963Y-16115181D01*
X11909487Y-16134228D01*
X11919010Y-16143752D01*
X11938058Y-16153276D01*
X11976153Y-16153276D01*
X11995201Y-16143752D01*
X12004725Y-16134228D01*
X12014248Y-16115181D01*
X12014248Y-16067562D01*
X12004725Y-16048514D01*
X11995201Y-16038990D01*
X11976153Y-16029467D01*
X11938058Y-16029467D01*
X11919010Y-16038990D01*
X11909487Y-16048514D01*
X11899963Y-16067562D01*
X12090439Y-15953276D02*
X12090439Y-15991371D01*
X12166629Y-15953276D02*
X12166629Y-15991371D01*
X12461867Y-16229467D02*
X12452344Y-16219943D01*
X12433296Y-16191371D01*
X12423772Y-16172324D01*
X12414248Y-16143752D01*
X12404725Y-16096133D01*
X12404725Y-16058038D01*
X12414248Y-16010419D01*
X12423772Y-15981848D01*
X12433296Y-15962800D01*
X12452344Y-15934228D01*
X12461867Y-15924705D01*
X12528534Y-15972324D02*
X12538058Y-15962800D01*
X12557106Y-15953276D01*
X12604725Y-15953276D01*
X12623772Y-15962800D01*
X12633296Y-15972324D01*
X12642820Y-15991371D01*
X12642820Y-16010419D01*
X12633296Y-16038990D01*
X12519010Y-16153276D01*
X12642820Y-16153276D01*
X12880915Y-16153276D02*
X12880915Y-15953276D01*
X12966629Y-16153276D02*
X12966629Y-16048514D01*
X12957106Y-16029467D01*
X12938058Y-16019943D01*
X12909487Y-16019943D01*
X12890439Y-16029467D01*
X12880915Y-16038990D01*
X13090439Y-16153276D02*
X13071391Y-16143752D01*
X13061867Y-16134228D01*
X13052344Y-16115181D01*
X13052344Y-16058038D01*
X13061867Y-16038990D01*
X13071391Y-16029467D01*
X13090439Y-16019943D01*
X13119010Y-16019943D01*
X13138058Y-16029467D01*
X13147582Y-16038990D01*
X13157106Y-16058038D01*
X13157106Y-16115181D01*
X13147582Y-16134228D01*
X13138058Y-16143752D01*
X13119010Y-16153276D01*
X13090439Y-16153276D01*
X13271391Y-16153276D02*
X13252344Y-16143752D01*
X13242820Y-16124705D01*
X13242820Y-15953276D01*
X13423772Y-16143752D02*
X13404725Y-16153276D01*
X13366629Y-16153276D01*
X13347582Y-16143752D01*
X13338058Y-16124705D01*
X13338058Y-16048514D01*
X13347582Y-16029467D01*
X13366629Y-16019943D01*
X13404725Y-16019943D01*
X13423772Y-16029467D01*
X13433296Y-16048514D01*
X13433296Y-16067562D01*
X13338058Y-16086609D01*
X13509487Y-16143752D02*
X13528534Y-16153276D01*
X13566629Y-16153276D01*
X13585677Y-16143752D01*
X13595201Y-16124705D01*
X13595201Y-16115181D01*
X13585677Y-16096133D01*
X13566629Y-16086609D01*
X13538058Y-16086609D01*
X13519010Y-16077086D01*
X13509487Y-16058038D01*
X13509487Y-16048514D01*
X13519010Y-16029467D01*
X13538058Y-16019943D01*
X13566629Y-16019943D01*
X13585677Y-16029467D01*
X13661867Y-16229467D02*
X13671391Y-16219943D01*
X13690439Y-16191371D01*
X13699963Y-16172324D01*
X13709487Y-16143752D01*
X13719010Y-16096133D01*
X13719010Y-16058038D01*
X13709487Y-16010419D01*
X13699963Y-15981848D01*
X13690439Y-15962800D01*
X13671391Y-15934228D01*
X13661867Y-15924705D01*
X14023772Y-16229467D02*
X14014248Y-16219943D01*
X13995201Y-16191371D01*
X13985677Y-16172324D01*
X13976153Y-16143752D01*
X13966629Y-16096133D01*
X13966629Y-16058038D01*
X13976153Y-16010419D01*
X13985677Y-15981848D01*
X13995201Y-15962800D01*
X14014248Y-15934228D01*
X14023772Y-15924705D01*
X14099963Y-16019943D02*
X14099963Y-16153276D01*
X14099963Y-16038990D02*
X14109487Y-16029467D01*
X14128534Y-16019943D01*
X14157106Y-16019943D01*
X14176153Y-16029467D01*
X14185677Y-16048514D01*
X14185677Y-16153276D01*
X14309487Y-16153276D02*
X14290439Y-16143752D01*
X14280915Y-16134228D01*
X14271391Y-16115181D01*
X14271391Y-16058038D01*
X14280915Y-16038990D01*
X14290439Y-16029467D01*
X14309487Y-16019943D01*
X14338058Y-16019943D01*
X14357106Y-16029467D01*
X14366629Y-16038990D01*
X14376153Y-16058038D01*
X14376153Y-16115181D01*
X14366629Y-16134228D01*
X14357106Y-16143752D01*
X14338058Y-16153276D01*
X14309487Y-16153276D01*
X14433296Y-16019943D02*
X14509487Y-16019943D01*
X14461867Y-15953276D02*
X14461867Y-16124705D01*
X14471391Y-16143752D01*
X14490439Y-16153276D01*
X14509487Y-16153276D01*
X14728534Y-16019943D02*
X14728534Y-16219943D01*
X14728534Y-16029467D02*
X14747582Y-16019943D01*
X14785677Y-16019943D01*
X14804725Y-16029467D01*
X14814248Y-16038990D01*
X14823772Y-16058038D01*
X14823772Y-16115181D01*
X14814248Y-16134228D01*
X14804725Y-16143752D01*
X14785677Y-16153276D01*
X14747582Y-16153276D01*
X14728534Y-16143752D01*
X14938058Y-16153276D02*
X14919010Y-16143752D01*
X14909487Y-16124705D01*
X14909487Y-15953276D01*
X15099963Y-16153276D02*
X15099963Y-16048514D01*
X15090439Y-16029467D01*
X15071391Y-16019943D01*
X15033296Y-16019943D01*
X15014248Y-16029467D01*
X15099963Y-16143752D02*
X15080915Y-16153276D01*
X15033296Y-16153276D01*
X15014248Y-16143752D01*
X15004725Y-16124705D01*
X15004725Y-16105657D01*
X15014248Y-16086609D01*
X15033296Y-16077086D01*
X15080915Y-16077086D01*
X15099963Y-16067562D01*
X15166629Y-16019943D02*
X15242820Y-16019943D01*
X15195201Y-15953276D02*
X15195201Y-16124705D01*
X15204725Y-16143752D01*
X15223772Y-16153276D01*
X15242820Y-16153276D01*
X15385677Y-16143752D02*
X15366629Y-16153276D01*
X15328534Y-16153276D01*
X15309487Y-16143752D01*
X15299963Y-16124705D01*
X15299963Y-16048514D01*
X15309487Y-16029467D01*
X15328534Y-16019943D01*
X15366629Y-16019943D01*
X15385677Y-16029467D01*
X15395201Y-16048514D01*
X15395201Y-16067562D01*
X15299963Y-16086609D01*
X15566629Y-16153276D02*
X15566629Y-15953276D01*
X15566629Y-16143752D02*
X15547582Y-16153276D01*
X15509487Y-16153276D01*
X15490439Y-16143752D01*
X15480915Y-16134228D01*
X15471391Y-16115181D01*
X15471391Y-16058038D01*
X15480915Y-16038990D01*
X15490439Y-16029467D01*
X15509487Y-16019943D01*
X15547582Y-16019943D01*
X15566629Y-16029467D01*
X15642820Y-16229467D02*
X15652344Y-16219943D01*
X15671391Y-16191371D01*
X15680915Y-16172324D01*
X15690439Y-16143752D01*
X15699963Y-16096133D01*
X15699963Y-16058038D01*
X15690439Y-16010419D01*
X15680915Y-15981848D01*
X15671391Y-15962800D01*
X15652344Y-15934228D01*
X15642820Y-15924705D01*
M02*
