%TF.GenerationSoftware,KiCad,Pcbnew,7.0.1*%
%TF.CreationDate,2023-06-07T22:50:30-05:00*%
%TF.ProjectId,Micromouse-kicad,4d696372-6f6d-46f7-9573-652d6b696361,rev?*%
%TF.SameCoordinates,Original*%
%TF.FileFunction,Drillmap*%
%TF.FilePolarity,Positive*%
%FSLAX45Y45*%
G04 Gerber Fmt 4.5, Leading zero omitted, Abs format (unit mm)*
G04 Created by KiCad (PCBNEW 7.0.1) date 2023-06-07 22:50:30*
%MOMM*%
%LPD*%
G01*
G04 APERTURE LIST*
%ADD10C,0.200000*%
%ADD11C,0.100000*%
%ADD12C,0.033000*%
%ADD13C,0.040000*%
%ADD14C,0.055000*%
%ADD15C,0.060000*%
%ADD16C,0.090000*%
%ADD17C,0.095000*%
%ADD18C,0.110000*%
%ADD19C,0.220000*%
%ADD20C,0.450000*%
G04 APERTURE END LIST*
D10*
X16611600Y-12801600D02*
X16027400Y-12801600D01*
X16027400Y-6832600D02*
X14503400Y-6832600D01*
D11*
X12877800Y-7721600D02*
X13919200Y-7721600D01*
X19380200Y-15201900D02*
G75*
G03*
X19532600Y-15049500I0J152400D01*
G01*
X17653000Y-5422514D02*
X17653000Y-7721600D01*
D10*
X16027400Y-12801600D02*
X16027400Y-13690600D01*
D11*
X12878874Y-5845525D02*
G75*
G03*
X12890500Y-14681200I1345128J-4416075D01*
G01*
X17767300Y-5308214D02*
X19380200Y-5308600D01*
X19532600Y-5461000D02*
G75*
G03*
X19380200Y-5308600I-152400J0D01*
G01*
X17653000Y-12801600D02*
X17653903Y-15073997D01*
X17653903Y-15073997D02*
G75*
G03*
X17780903Y-15200997I126997J-3D01*
G01*
X16611600Y-12801600D02*
X17653000Y-12801600D01*
D10*
X14503400Y-7721600D02*
X13919200Y-7721600D01*
X14503400Y-12801600D02*
X13919200Y-12801600D01*
D11*
X17780903Y-15200997D02*
X19380200Y-15201900D01*
X12890500Y-14681200D02*
X12877800Y-12801600D01*
D10*
X16611600Y-7721600D02*
X16027400Y-7721600D01*
D11*
X17767300Y-5308210D02*
G75*
G03*
X17653000Y-5422514I0J-114300D01*
G01*
D10*
X16027400Y-13690600D02*
X14503400Y-13690600D01*
X16027400Y-7721600D02*
X16027400Y-6832600D01*
X14503400Y-13690600D02*
X14503400Y-12801600D01*
D11*
X16611600Y-7721600D02*
X17653000Y-7721600D01*
X12877800Y-7721600D02*
X12878874Y-5845525D01*
D10*
X14503400Y-6832600D02*
X14503400Y-7721600D01*
D11*
X12877800Y-12801600D02*
X13919200Y-12801600D01*
X19532600Y-5461000D02*
X19532600Y-15049500D01*
D10*
D12*
X18542540Y-8054960D02*
X18575540Y-8087960D01*
X18575540Y-8054960D02*
X18542540Y-8087960D01*
X18542540Y-8204960D02*
X18575540Y-8237960D01*
X18575540Y-8204960D02*
X18542540Y-8237960D01*
X18542540Y-8354960D02*
X18575540Y-8387960D01*
X18575540Y-8354960D02*
X18542540Y-8387960D01*
X18692540Y-8054960D02*
X18725540Y-8087960D01*
X18725540Y-8054960D02*
X18692540Y-8087960D01*
X18692540Y-8204960D02*
X18725540Y-8237960D01*
X18725540Y-8204960D02*
X18692540Y-8237960D01*
X18692540Y-8354960D02*
X18725540Y-8387960D01*
X18725540Y-8354960D02*
X18692540Y-8387960D01*
D13*
X11133524Y-11266316D02*
G75*
G03*
X11133524Y-11266316I-20000J0D01*
G01*
X11162300Y-9045700D02*
G75*
G03*
X11162300Y-9045700I-20000J0D01*
G01*
X11270000Y-12410000D02*
G75*
G03*
X11270000Y-12410000I-20000J0D01*
G01*
X11290000Y-8105000D02*
G75*
G03*
X11290000Y-8105000I-20000J0D01*
G01*
X11352800Y-9033000D02*
G75*
G03*
X11352800Y-9033000I-20000J0D01*
G01*
X11387524Y-11342516D02*
G75*
G03*
X11387524Y-11342516I-20000J0D01*
G01*
X11503094Y-11646046D02*
G75*
G03*
X11503094Y-11646046I-20000J0D01*
G01*
X11523414Y-11442846D02*
G75*
G03*
X11523414Y-11442846I-20000J0D01*
G01*
X11568700Y-9007600D02*
G75*
G03*
X11568700Y-9007600I-20000J0D01*
G01*
X11820000Y-7135000D02*
G75*
G03*
X11820000Y-7135000I-20000J0D01*
G01*
X11840000Y-13460000D02*
G75*
G03*
X11840000Y-13460000I-20000J0D01*
G01*
X11905000Y-9405000D02*
G75*
G03*
X11905000Y-9405000I-20000J0D01*
G01*
X12044360Y-10429240D02*
G75*
G03*
X12044360Y-10429240I-20000J0D01*
G01*
X12044360Y-11521440D02*
G75*
G03*
X12044360Y-11521440I-20000J0D01*
G01*
X12306650Y-12801000D02*
G75*
G03*
X12306650Y-12801000I-20000J0D01*
G01*
X12345400Y-7679100D02*
G75*
G03*
X12345400Y-7679100I-20000J0D01*
G01*
X12360000Y-11045000D02*
G75*
G03*
X12360000Y-11045000I-20000J0D01*
G01*
X12394880Y-10093960D02*
G75*
G03*
X12394880Y-10093960I-20000J0D01*
G01*
X12399960Y-12049760D02*
G75*
G03*
X12399960Y-12049760I-20000J0D01*
G01*
X12545000Y-11160000D02*
G75*
G03*
X12545000Y-11160000I-20000J0D01*
G01*
X12560000Y-11300000D02*
G75*
G03*
X12560000Y-11300000I-20000J0D01*
G01*
X12569127Y-7669173D02*
G75*
G03*
X12569127Y-7669173I-20000J0D01*
G01*
X12577760Y-9093200D02*
G75*
G03*
X12577760Y-9093200I-20000J0D01*
G01*
X12634070Y-8906070D02*
G75*
G03*
X12634070Y-8906070I-20000J0D01*
G01*
X12669200Y-12070080D02*
G75*
G03*
X12669200Y-12070080I-20000J0D01*
G01*
X12701000Y-7425100D02*
G75*
G03*
X12701000Y-7425100I-20000J0D01*
G01*
X12725750Y-12839100D02*
G75*
G03*
X12725750Y-12839100I-20000J0D01*
G01*
X12735000Y-6610000D02*
G75*
G03*
X12735000Y-6610000I-20000J0D01*
G01*
X12763850Y-13283600D02*
G75*
G03*
X12763850Y-13283600I-20000J0D01*
G01*
X12806360Y-10022840D02*
G75*
G03*
X12806360Y-10022840I-20000J0D01*
G01*
X12836840Y-10769600D02*
G75*
G03*
X12836840Y-10769600I-20000J0D01*
G01*
X12925700Y-10949900D02*
G75*
G03*
X12925700Y-10949900I-20000J0D01*
G01*
X12955000Y-12685000D02*
G75*
G03*
X12955000Y-12685000I-20000J0D01*
G01*
X13136560Y-9850120D02*
G75*
G03*
X13136560Y-9850120I-20000J0D01*
G01*
X13713902Y-12601098D02*
G75*
G03*
X13713902Y-12601098I-20000J0D01*
G01*
X13863000Y-12374880D02*
G75*
G03*
X13863000Y-12374880I-20000J0D01*
G01*
X13974760Y-10241280D02*
G75*
G03*
X13974760Y-10241280I-20000J0D01*
G01*
X13974760Y-10408920D02*
G75*
G03*
X13974760Y-10408920I-20000J0D01*
G01*
X14155000Y-10530000D02*
G75*
G03*
X14155000Y-10530000I-20000J0D01*
G01*
X14270000Y-9585000D02*
G75*
G03*
X14270000Y-9585000I-20000J0D01*
G01*
X14528480Y-9860280D02*
G75*
G03*
X14528480Y-9860280I-20000J0D01*
G01*
X14548800Y-9997440D02*
G75*
G03*
X14548800Y-9997440I-20000J0D01*
G01*
X14696120Y-10567810D02*
G75*
G03*
X14696120Y-10567810I-20000J0D01*
G01*
X14823120Y-10432910D02*
G75*
G03*
X14823120Y-10432910I-20000J0D01*
G01*
X15272700Y-10337800D02*
G75*
G03*
X15272700Y-10337800I-20000J0D01*
G01*
X15440000Y-9790000D02*
G75*
G03*
X15440000Y-9790000I-20000J0D01*
G01*
X15483520Y-10342880D02*
G75*
G03*
X15483520Y-10342880I-20000J0D01*
G01*
X15605440Y-10601960D02*
G75*
G03*
X15605440Y-10601960I-20000J0D01*
G01*
X15660000Y-9505000D02*
G75*
G03*
X15660000Y-9505000I-20000J0D01*
G01*
X15686720Y-10739120D02*
G75*
G03*
X15686720Y-10739120I-20000J0D01*
G01*
X15738045Y-9717550D02*
G75*
G03*
X15738045Y-9717550I-20000J0D01*
G01*
X15760000Y-9955000D02*
G75*
G03*
X15760000Y-9955000I-20000J0D01*
G01*
X15798480Y-9423400D02*
G75*
G03*
X15798480Y-9423400I-20000J0D01*
G01*
X15818800Y-10058400D02*
G75*
G03*
X15818800Y-10058400I-20000J0D01*
G01*
X15818800Y-10744200D02*
G75*
G03*
X15818800Y-10744200I-20000J0D01*
G01*
X15920000Y-9852450D02*
G75*
G03*
X15920000Y-9852450I-20000J0D01*
G01*
X15971200Y-9428480D02*
G75*
G03*
X15971200Y-9428480I-20000J0D01*
G01*
X16098200Y-9220200D02*
G75*
G03*
X16098200Y-9220200I-20000J0D01*
G01*
X16098200Y-9423400D02*
G75*
G03*
X16098200Y-9423400I-20000J0D01*
G01*
X16110900Y-9017000D02*
G75*
G03*
X16110900Y-9017000I-20000J0D01*
G01*
X16155000Y-9925000D02*
G75*
G03*
X16155000Y-9925000I-20000J0D01*
G01*
X16286160Y-9479280D02*
G75*
G03*
X16286160Y-9479280I-20000J0D01*
G01*
X16295000Y-10640000D02*
G75*
G03*
X16295000Y-10640000I-20000J0D01*
G01*
X16315000Y-9920000D02*
G75*
G03*
X16315000Y-9920000I-20000J0D01*
G01*
X16339500Y-8775700D02*
G75*
G03*
X16339500Y-8775700I-20000J0D01*
G01*
X16420000Y-11175000D02*
G75*
G03*
X16420000Y-11175000I-20000J0D01*
G01*
X16425000Y-10635000D02*
G75*
G03*
X16425000Y-10635000I-20000J0D01*
G01*
X16441100Y-8953500D02*
G75*
G03*
X16441100Y-8953500I-20000J0D01*
G01*
X16465000Y-8630000D02*
G75*
G03*
X16465000Y-8630000I-20000J0D01*
G01*
X16492563Y-9610258D02*
G75*
G03*
X16492563Y-9610258I-20000J0D01*
G01*
X16530000Y-9875000D02*
G75*
G03*
X16530000Y-9875000I-20000J0D01*
G01*
X16535584Y-10994416D02*
G75*
G03*
X16535584Y-10994416I-20000J0D01*
G01*
X16620000Y-11765000D02*
G75*
G03*
X16620000Y-11765000I-20000J0D01*
G01*
X16636680Y-10749280D02*
G75*
G03*
X16636680Y-10749280I-20000J0D01*
G01*
X16636680Y-11038840D02*
G75*
G03*
X16636680Y-11038840I-20000J0D01*
G01*
X16650000Y-9835000D02*
G75*
G03*
X16650000Y-9835000I-20000J0D01*
G01*
X16695100Y-8775700D02*
G75*
G03*
X16695100Y-8775700I-20000J0D01*
G01*
X16743360Y-9839960D02*
G75*
G03*
X16743360Y-9839960I-20000J0D01*
G01*
X16771300Y-8953500D02*
G75*
G03*
X16771300Y-8953500I-20000J0D01*
G01*
X16809400Y-10734040D02*
G75*
G03*
X16809400Y-10734040I-20000J0D01*
G01*
X16814480Y-11221720D02*
G75*
G03*
X16814480Y-11221720I-20000J0D01*
G01*
X16834800Y-11036550D02*
G75*
G03*
X16834800Y-11036550I-20000J0D01*
G01*
X16847500Y-9461500D02*
G75*
G03*
X16847500Y-9461500I-20000J0D01*
G01*
X16855120Y-10017760D02*
G75*
G03*
X16855120Y-10017760I-20000J0D01*
G01*
X16865280Y-9880600D02*
G75*
G03*
X16865280Y-9880600I-20000J0D01*
G01*
X16885600Y-9334500D02*
G75*
G03*
X16885600Y-9334500I-20000J0D01*
G01*
X16923700Y-8966200D02*
G75*
G03*
X16923700Y-8966200I-20000J0D01*
G01*
X16936400Y-11023600D02*
G75*
G03*
X16936400Y-11023600I-20000J0D01*
G01*
X16946560Y-9611360D02*
G75*
G03*
X16946560Y-9611360I-20000J0D01*
G01*
X16955000Y-12000000D02*
G75*
G03*
X16955000Y-12000000I-20000J0D01*
G01*
X16961800Y-8686800D02*
G75*
G03*
X16961800Y-8686800I-20000J0D01*
G01*
X16987200Y-9850120D02*
G75*
G03*
X16987200Y-9850120I-20000J0D01*
G01*
X17022760Y-9362440D02*
G75*
G03*
X17022760Y-9362440I-20000J0D01*
G01*
X17038000Y-9631680D02*
G75*
G03*
X17038000Y-9631680I-20000J0D01*
G01*
X17063400Y-11049000D02*
G75*
G03*
X17063400Y-11049000I-20000J0D01*
G01*
X17246280Y-11861800D02*
G75*
G03*
X17246280Y-11861800I-20000J0D01*
G01*
X17256440Y-10088880D02*
G75*
G03*
X17256440Y-10088880I-20000J0D01*
G01*
X17266600Y-9880600D02*
G75*
G03*
X17266600Y-9880600I-20000J0D01*
G01*
X17266600Y-9982200D02*
G75*
G03*
X17266600Y-9982200I-20000J0D01*
G01*
X17285000Y-8250000D02*
G75*
G03*
X17285000Y-8250000I-20000J0D01*
G01*
X17286920Y-9540240D02*
G75*
G03*
X17286920Y-9540240I-20000J0D01*
G01*
X17292000Y-9702800D02*
G75*
G03*
X17292000Y-9702800I-20000J0D01*
G01*
X17317400Y-10266680D02*
G75*
G03*
X17317400Y-10266680I-20000J0D01*
G01*
X17322480Y-10744200D02*
G75*
G03*
X17322480Y-10744200I-20000J0D01*
G01*
X17378360Y-12532360D02*
G75*
G03*
X17378360Y-12532360I-20000J0D01*
G01*
X17444400Y-10073640D02*
G75*
G03*
X17444400Y-10073640I-20000J0D01*
G01*
X17474880Y-10723880D02*
G75*
G03*
X17474880Y-10723880I-20000J0D01*
G01*
X17505360Y-10490200D02*
G75*
G03*
X17505360Y-10490200I-20000J0D01*
G01*
X17510440Y-11958320D02*
G75*
G03*
X17510440Y-11958320I-20000J0D01*
G01*
X17619007Y-10481927D02*
G75*
G03*
X17619007Y-10481927I-20000J0D01*
G01*
X17622200Y-10713720D02*
G75*
G03*
X17622200Y-10713720I-20000J0D01*
G01*
X17835560Y-11445240D02*
G75*
G03*
X17835560Y-11445240I-20000J0D01*
G01*
X17871120Y-11130280D02*
G75*
G03*
X17871120Y-11130280I-20000J0D01*
G01*
X17896520Y-10988040D02*
G75*
G03*
X17896520Y-10988040I-20000J0D01*
G01*
X17952400Y-13959840D02*
G75*
G03*
X17952400Y-13959840I-20000J0D01*
G01*
X18008280Y-8295640D02*
G75*
G03*
X18008280Y-8295640I-20000J0D01*
G01*
X18013360Y-8366760D02*
G75*
G03*
X18013360Y-8366760I-20000J0D01*
G01*
X18084480Y-10292080D02*
G75*
G03*
X18084480Y-10292080I-20000J0D01*
G01*
X18236880Y-8056880D02*
G75*
G03*
X18236880Y-8056880I-20000J0D01*
G01*
X18253099Y-8408379D02*
G75*
G03*
X18253099Y-8408379I-20000J0D01*
G01*
X18257200Y-8487190D02*
G75*
G03*
X18257200Y-8487190I-20000J0D01*
G01*
X18257200Y-10556240D02*
G75*
G03*
X18257200Y-10556240I-20000J0D01*
G01*
X18429920Y-11805920D02*
G75*
G03*
X18429920Y-11805920I-20000J0D01*
G01*
X18455320Y-11460480D02*
G75*
G03*
X18455320Y-11460480I-20000J0D01*
G01*
X18536600Y-10510520D02*
G75*
G03*
X18536600Y-10510520I-20000J0D01*
G01*
X18654040Y-8221460D02*
G75*
G03*
X18654040Y-8221460I-20000J0D01*
G01*
X18810920Y-11744960D02*
G75*
G03*
X18810920Y-11744960I-20000J0D01*
G01*
X18897280Y-11597640D02*
G75*
G03*
X18897280Y-11597640I-20000J0D01*
G01*
X18932840Y-10002520D02*
G75*
G03*
X18932840Y-10002520I-20000J0D01*
G01*
X19024280Y-8121410D02*
G75*
G03*
X19024280Y-8121410I-20000J0D01*
G01*
X19025071Y-8321510D02*
G75*
G03*
X19025071Y-8321510I-20000J0D01*
G01*
X19064920Y-10927080D02*
G75*
G03*
X19064920Y-10927080I-20000J0D01*
G01*
D14*
X10923024Y-11645816D02*
X10923024Y-11700816D01*
X10895524Y-11673316D02*
X10950524Y-11673316D01*
X11050024Y-11645816D02*
X11050024Y-11700816D01*
X11022524Y-11673316D02*
X11077524Y-11673316D01*
X11177024Y-11645816D02*
X11177024Y-11700816D01*
X11149524Y-11673316D02*
X11204524Y-11673316D01*
X11205200Y-8472100D02*
X11205200Y-8527100D01*
X11177700Y-8499600D02*
X11232700Y-8499600D01*
X11205200Y-8599100D02*
X11205200Y-8654100D01*
X11177700Y-8626600D02*
X11232700Y-8626600D01*
X11205200Y-8726100D02*
X11205200Y-8781100D01*
X11177700Y-8753600D02*
X11232700Y-8753600D01*
X12159650Y-13167800D02*
X12159650Y-13222800D01*
X12132150Y-13195300D02*
X12187150Y-13195300D01*
X12286650Y-13167800D02*
X12286650Y-13222800D01*
X12259150Y-13195300D02*
X12314150Y-13195300D01*
X12300000Y-7105500D02*
X12300000Y-7160500D01*
X12272500Y-7133000D02*
X12327500Y-7133000D01*
X12300000Y-7232500D02*
X12300000Y-7287500D01*
X12272500Y-7260000D02*
X12327500Y-7260000D01*
X12300000Y-7359500D02*
X12300000Y-7414500D01*
X12272500Y-7387000D02*
X12327500Y-7387000D01*
X12413650Y-13167800D02*
X12413650Y-13222800D01*
X12386150Y-13195300D02*
X12441150Y-13195300D01*
D15*
X19325313Y-9898713D02*
X19325313Y-9856287D01*
X19282887Y-9856287D01*
X19282887Y-9898713D01*
X19325313Y-9898713D01*
D10*
X19244100Y-9907500D02*
X19364100Y-9907500D01*
X19364100Y-9907500D02*
G75*
G03*
X19364100Y-9847500I0J30000D01*
G01*
X19364100Y-9847500D02*
X19244100Y-9847500D01*
X19244100Y-9847500D02*
G75*
G03*
X19244100Y-9907500I0J-30000D01*
G01*
D15*
X19325313Y-10463713D02*
X19325313Y-10421287D01*
X19282887Y-10421287D01*
X19282887Y-10463713D01*
X19325313Y-10463713D01*
D10*
X19244100Y-10472500D02*
X19364100Y-10472500D01*
X19364100Y-10472500D02*
G75*
G03*
X19364100Y-10412500I0J30000D01*
G01*
X19364100Y-10412500D02*
X19244100Y-10412500D01*
X19244100Y-10412500D02*
G75*
G03*
X19244100Y-10472500I0J-30000D01*
G01*
D16*
X12669520Y-8002440D02*
X12714520Y-7957440D01*
X12669520Y-7912440D01*
X12624520Y-7957440D01*
X12669520Y-8002440D01*
X12669520Y-8252440D02*
X12714520Y-8207440D01*
X12669520Y-8162440D01*
X12624520Y-8207440D01*
X12669520Y-8252440D01*
X12669520Y-8502440D02*
X12714520Y-8457440D01*
X12669520Y-8412440D01*
X12624520Y-8457440D01*
X12669520Y-8502440D01*
X17134840Y-12117240D02*
X17179840Y-12072240D01*
X17134840Y-12027240D01*
X17089840Y-12072240D01*
X17134840Y-12117240D01*
X17134840Y-12367240D02*
X17179840Y-12322240D01*
X17134840Y-12277240D01*
X17089840Y-12322240D01*
X17134840Y-12367240D01*
X17134840Y-12617240D02*
X17179840Y-12572240D01*
X17134840Y-12527240D01*
X17089840Y-12572240D01*
X17134840Y-12617240D01*
D17*
X17920300Y-7337120D02*
X18015300Y-7432120D01*
X18015300Y-7337120D02*
X17920300Y-7432120D01*
X18015300Y-7384620D02*
G75*
G03*
X18015300Y-7384620I-47500J0D01*
G01*
X17920300Y-8830640D02*
X18015300Y-8925640D01*
X18015300Y-8830640D02*
X17920300Y-8925640D01*
X18015300Y-8878140D02*
G75*
G03*
X18015300Y-8878140I-47500J0D01*
G01*
X18170300Y-7337120D02*
X18265300Y-7432120D01*
X18265300Y-7337120D02*
X18170300Y-7432120D01*
X18265300Y-7384620D02*
G75*
G03*
X18265300Y-7384620I-47500J0D01*
G01*
X18170300Y-8830640D02*
X18265300Y-8925640D01*
X18265300Y-8830640D02*
X18170300Y-8925640D01*
X18265300Y-8878140D02*
G75*
G03*
X18265300Y-8878140I-47500J0D01*
G01*
X18420300Y-7337120D02*
X18515300Y-7432120D01*
X18515300Y-7337120D02*
X18420300Y-7432120D01*
X18515300Y-7384620D02*
G75*
G03*
X18515300Y-7384620I-47500J0D01*
G01*
X18420300Y-8830640D02*
X18515300Y-8925640D01*
X18515300Y-8830640D02*
X18420300Y-8925640D01*
X18515300Y-8878140D02*
G75*
G03*
X18515300Y-8878140I-47500J0D01*
G01*
X18670300Y-7337120D02*
X18765300Y-7432120D01*
X18765300Y-7337120D02*
X18670300Y-7432120D01*
X18765300Y-7384620D02*
G75*
G03*
X18765300Y-7384620I-47500J0D01*
G01*
X18670300Y-8830640D02*
X18765300Y-8925640D01*
X18765300Y-8830640D02*
X18670300Y-8925640D01*
X18765300Y-8878140D02*
G75*
G03*
X18765300Y-8878140I-47500J0D01*
G01*
X18920300Y-7337120D02*
X19015300Y-7432120D01*
X19015300Y-7337120D02*
X18920300Y-7432120D01*
X19015300Y-7384620D02*
G75*
G03*
X19015300Y-7384620I-47500J0D01*
G01*
X18920300Y-8830640D02*
X19015300Y-8925640D01*
X19015300Y-8830640D02*
X18920300Y-8925640D01*
X19015300Y-8878140D02*
G75*
G03*
X19015300Y-8878140I-47500J0D01*
G01*
X19170300Y-7337120D02*
X19265300Y-7432120D01*
X19265300Y-7337120D02*
X19170300Y-7432120D01*
X19265300Y-7384620D02*
G75*
G03*
X19265300Y-7384620I-47500J0D01*
G01*
X19170300Y-8830640D02*
X19265300Y-8925640D01*
X19265300Y-8830640D02*
X19170300Y-8925640D01*
X19265300Y-8878140D02*
G75*
G03*
X19265300Y-8878140I-47500J0D01*
G01*
D11*
X9977920Y-9490240D02*
X10077920Y-9590240D01*
X10077920Y-9490240D02*
X9977920Y-9590240D01*
X10027920Y-9490240D02*
X10027920Y-9590240D01*
X9977920Y-9540240D02*
X10077920Y-9540240D01*
X9977920Y-9744240D02*
X10077920Y-9844240D01*
X10077920Y-9744240D02*
X9977920Y-9844240D01*
X10027920Y-9744240D02*
X10027920Y-9844240D01*
X9977920Y-9794240D02*
X10077920Y-9794240D01*
X9977920Y-9998240D02*
X10077920Y-10098240D01*
X10077920Y-9998240D02*
X9977920Y-10098240D01*
X10027920Y-9998240D02*
X10027920Y-10098240D01*
X9977920Y-10048240D02*
X10077920Y-10048240D01*
X9977920Y-10252240D02*
X10077920Y-10352240D01*
X10077920Y-10252240D02*
X9977920Y-10352240D01*
X10027920Y-10252240D02*
X10027920Y-10352240D01*
X9977920Y-10302240D02*
X10077920Y-10302240D01*
X9977920Y-10506240D02*
X10077920Y-10606240D01*
X10077920Y-10506240D02*
X9977920Y-10606240D01*
X10027920Y-10506240D02*
X10027920Y-10606240D01*
X9977920Y-10556240D02*
X10077920Y-10556240D01*
X9977920Y-10760240D02*
X10077920Y-10860240D01*
X10077920Y-10760240D02*
X9977920Y-10860240D01*
X10027920Y-10760240D02*
X10027920Y-10860240D01*
X9977920Y-10810240D02*
X10077920Y-10810240D01*
X9977920Y-11014240D02*
X10077920Y-11114240D01*
X10077920Y-11014240D02*
X9977920Y-11114240D01*
X10027920Y-11014240D02*
X10027920Y-11114240D01*
X9977920Y-11064240D02*
X10077920Y-11064240D01*
X10407303Y-11929480D02*
X10507303Y-12029480D01*
X10507303Y-11929480D02*
X10407303Y-12029480D01*
X10457303Y-11929480D02*
X10457303Y-12029480D01*
X10407303Y-11979480D02*
X10507303Y-11979480D01*
X10409460Y-8485058D02*
X10509460Y-8585058D01*
X10509460Y-8485058D02*
X10409460Y-8585058D01*
X10459460Y-8485058D02*
X10459460Y-8585058D01*
X10409460Y-8535058D02*
X10509460Y-8535058D01*
X10586908Y-12109085D02*
X10686908Y-12209085D01*
X10686908Y-12109085D02*
X10586908Y-12209085D01*
X10636908Y-12109085D02*
X10636908Y-12209085D01*
X10586908Y-12159085D02*
X10686908Y-12159085D01*
X10589065Y-8305452D02*
X10689065Y-8405452D01*
X10689065Y-8305452D02*
X10589065Y-8405452D01*
X10639065Y-8305452D02*
X10639065Y-8405452D01*
X10589065Y-8355452D02*
X10689065Y-8355452D01*
X10928158Y-12450335D02*
X11028158Y-12550335D01*
X11028158Y-12450335D02*
X10928158Y-12550335D01*
X10978158Y-12450335D02*
X10978158Y-12550335D01*
X10928158Y-12500335D02*
X11028158Y-12500335D01*
X10930315Y-7964203D02*
X11030315Y-8064203D01*
X11030315Y-7964203D02*
X10930315Y-8064203D01*
X10980315Y-7964203D02*
X10980315Y-8064203D01*
X10930315Y-8014203D02*
X11030315Y-8014203D01*
X11107763Y-12629940D02*
X11207763Y-12729940D01*
X11207763Y-12629940D02*
X11107763Y-12729940D01*
X11157763Y-12629940D02*
X11157763Y-12729940D01*
X11107763Y-12679940D02*
X11207763Y-12679940D01*
X11109920Y-7784597D02*
X11209920Y-7884597D01*
X11209920Y-7784597D02*
X11109920Y-7884597D01*
X11159920Y-7784597D02*
X11159920Y-7884597D01*
X11109920Y-7834597D02*
X11209920Y-7834597D01*
X11571090Y-13625490D02*
X11671090Y-13725490D01*
X11671090Y-13625490D02*
X11571090Y-13725490D01*
X11621090Y-13625490D02*
X11621090Y-13725490D01*
X11571090Y-13675490D02*
X11671090Y-13675490D01*
X11573950Y-6788750D02*
X11673950Y-6888750D01*
X11673950Y-6788750D02*
X11573950Y-6888750D01*
X11623950Y-6788750D02*
X11623950Y-6888750D01*
X11573950Y-6838750D02*
X11673950Y-6838750D01*
X11825090Y-13625490D02*
X11925090Y-13725490D01*
X11925090Y-13625490D02*
X11825090Y-13725490D01*
X11875090Y-13625490D02*
X11875090Y-13725490D01*
X11825090Y-13675490D02*
X11925090Y-13675490D01*
X11827950Y-6788750D02*
X11927950Y-6888750D01*
X11927950Y-6788750D02*
X11827950Y-6888750D01*
X11877950Y-6788750D02*
X11877950Y-6888750D01*
X11827950Y-6838750D02*
X11927950Y-6838750D01*
X12042900Y-11860100D02*
X12142900Y-11960100D01*
X12142900Y-11860100D02*
X12042900Y-11960100D01*
X12092900Y-11860100D02*
X12092900Y-11960100D01*
X12042900Y-11910100D02*
X12142900Y-11910100D01*
X12296900Y-11860100D02*
X12396900Y-11960100D01*
X12396900Y-11860100D02*
X12296900Y-11960100D01*
X12346900Y-11860100D02*
X12346900Y-11960100D01*
X12296900Y-11910100D02*
X12396900Y-11910100D01*
X12307690Y-13625490D02*
X12407690Y-13725490D01*
X12407690Y-13625490D02*
X12307690Y-13725490D01*
X12357690Y-13625490D02*
X12357690Y-13725490D01*
X12307690Y-13675490D02*
X12407690Y-13675490D01*
X12310550Y-6788750D02*
X12410550Y-6888750D01*
X12410550Y-6788750D02*
X12310550Y-6888750D01*
X12360550Y-6788750D02*
X12360550Y-6888750D01*
X12310550Y-6838750D02*
X12410550Y-6838750D01*
X12550900Y-11860100D02*
X12650900Y-11960100D01*
X12650900Y-11860100D02*
X12550900Y-11960100D01*
X12600900Y-11860100D02*
X12600900Y-11960100D01*
X12550900Y-11910100D02*
X12650900Y-11910100D01*
X12561690Y-13625490D02*
X12661690Y-13725490D01*
X12661690Y-13625490D02*
X12561690Y-13725490D01*
X12611690Y-13625490D02*
X12611690Y-13725490D01*
X12561690Y-13675490D02*
X12661690Y-13675490D01*
X12564550Y-6788750D02*
X12664550Y-6888750D01*
X12664550Y-6788750D02*
X12564550Y-6888750D01*
X12614550Y-6788750D02*
X12614550Y-6888750D01*
X12564550Y-6838750D02*
X12664550Y-6838750D01*
X12804900Y-11860100D02*
X12904900Y-11960100D01*
X12904900Y-11860100D02*
X12804900Y-11960100D01*
X12854900Y-11860100D02*
X12854900Y-11960100D01*
X12804900Y-11910100D02*
X12904900Y-11910100D01*
X13058900Y-11860100D02*
X13158900Y-11960100D01*
X13158900Y-11860100D02*
X13058900Y-11960100D01*
X13108900Y-11860100D02*
X13108900Y-11960100D01*
X13058900Y-11910100D02*
X13158900Y-11910100D01*
X13312900Y-11860100D02*
X13412900Y-11960100D01*
X13412900Y-11860100D02*
X13312900Y-11960100D01*
X13362900Y-11860100D02*
X13362900Y-11960100D01*
X13312900Y-11910100D02*
X13412900Y-11910100D01*
X17862080Y-12929400D02*
X17962080Y-13029400D01*
X17962080Y-12929400D02*
X17862080Y-13029400D01*
X17912080Y-12929400D02*
X17912080Y-13029400D01*
X17862080Y-12979400D02*
X17962080Y-12979400D01*
X17862080Y-13183400D02*
X17962080Y-13283400D01*
X17962080Y-13183400D02*
X17862080Y-13283400D01*
X17912080Y-13183400D02*
X17912080Y-13283400D01*
X17862080Y-13233400D02*
X17962080Y-13233400D01*
X17862080Y-13437400D02*
X17962080Y-13537400D01*
X17962080Y-13437400D02*
X17862080Y-13537400D01*
X17912080Y-13437400D02*
X17912080Y-13537400D01*
X17862080Y-13487400D02*
X17962080Y-13487400D01*
X17862080Y-13691400D02*
X17962080Y-13791400D01*
X17962080Y-13691400D02*
X17862080Y-13791400D01*
X17912080Y-13691400D02*
X17912080Y-13791400D01*
X17862080Y-13741400D02*
X17962080Y-13741400D01*
D18*
X16810000Y-8395000D02*
X16920000Y-8505000D01*
X16920000Y-8395000D02*
X16810000Y-8505000D01*
X16903891Y-8488891D02*
X16903891Y-8411109D01*
X16826109Y-8411109D01*
X16826109Y-8488891D01*
X16903891Y-8488891D01*
X17128198Y-8713198D02*
X17238198Y-8823198D01*
X17238198Y-8713198D02*
X17128198Y-8823198D01*
X17222089Y-8807089D02*
X17222089Y-8729307D01*
X17144307Y-8729307D01*
X17144307Y-8807089D01*
X17222089Y-8807089D01*
X17269619Y-7935381D02*
X17379619Y-8045381D01*
X17379619Y-7935381D02*
X17269619Y-8045381D01*
X17363511Y-8029272D02*
X17363511Y-7951489D01*
X17285728Y-7951489D01*
X17285728Y-8029272D01*
X17363511Y-8029272D01*
X17587818Y-8253579D02*
X17697818Y-8363579D01*
X17697818Y-8253579D02*
X17587818Y-8363579D01*
X17681709Y-8347470D02*
X17681709Y-8269687D01*
X17603926Y-8269687D01*
X17603926Y-8347470D01*
X17681709Y-8347470D01*
X18754760Y-12345400D02*
X18864760Y-12455400D01*
X18864760Y-12345400D02*
X18754760Y-12455400D01*
X18848651Y-12439291D02*
X18848651Y-12361509D01*
X18770869Y-12361509D01*
X18770869Y-12439291D01*
X18848651Y-12439291D01*
X18754760Y-12995400D02*
X18864760Y-13105400D01*
X18864760Y-12995400D02*
X18754760Y-13105400D01*
X18848651Y-13089291D02*
X18848651Y-13011509D01*
X18770869Y-13011509D01*
X18770869Y-13089291D01*
X18848651Y-13089291D01*
X18759840Y-11319240D02*
X18869840Y-11429240D01*
X18869840Y-11319240D02*
X18759840Y-11429240D01*
X18853731Y-11413131D02*
X18853731Y-11335349D01*
X18775949Y-11335349D01*
X18775949Y-11413131D01*
X18853731Y-11413131D01*
X18759840Y-11969240D02*
X18869840Y-12079240D01*
X18869840Y-11969240D02*
X18759840Y-12079240D01*
X18853731Y-12063131D02*
X18853731Y-11985349D01*
X18775949Y-11985349D01*
X18775949Y-12063131D01*
X18853731Y-12063131D01*
X19204760Y-12345400D02*
X19314760Y-12455400D01*
X19314760Y-12345400D02*
X19204760Y-12455400D01*
X19298651Y-12439291D02*
X19298651Y-12361509D01*
X19220869Y-12361509D01*
X19220869Y-12439291D01*
X19298651Y-12439291D01*
X19204760Y-12995400D02*
X19314760Y-13105400D01*
X19314760Y-12995400D02*
X19204760Y-13105400D01*
X19298651Y-13089291D02*
X19298651Y-13011509D01*
X19220869Y-13011509D01*
X19220869Y-13089291D01*
X19298651Y-13089291D01*
X19209840Y-11319240D02*
X19319840Y-11429240D01*
X19319840Y-11319240D02*
X19209840Y-11429240D01*
X19303731Y-11413131D02*
X19303731Y-11335349D01*
X19225949Y-11335349D01*
X19225949Y-11413131D01*
X19303731Y-11413131D01*
X19209840Y-11969240D02*
X19319840Y-12079240D01*
X19319840Y-11969240D02*
X19209840Y-12079240D01*
X19303731Y-12063131D02*
X19303731Y-11985349D01*
X19225949Y-11985349D01*
X19225949Y-12063131D01*
X19303731Y-12063131D01*
D19*
X14267400Y-8047100D02*
X14487400Y-8267100D01*
X14487400Y-8047100D02*
X14267400Y-8267100D01*
X14377400Y-8267100D02*
X14487400Y-8157100D01*
X14377400Y-8047100D01*
X14267400Y-8157100D01*
X14377400Y-8267100D01*
X14267400Y-12256100D02*
X14487400Y-12476100D01*
X14487400Y-12256100D02*
X14267400Y-12476100D01*
X14377400Y-12476100D02*
X14487400Y-12366100D01*
X14377400Y-12256100D01*
X14267400Y-12366100D01*
X14377400Y-12476100D01*
X16043400Y-8047100D02*
X16263400Y-8267100D01*
X16263400Y-8047100D02*
X16043400Y-8267100D01*
X16153400Y-8267100D02*
X16263400Y-8157100D01*
X16153400Y-8047100D01*
X16043400Y-8157100D01*
X16153400Y-8267100D01*
X16043400Y-12256100D02*
X16263400Y-12476100D01*
X16263400Y-12256100D02*
X16043400Y-12476100D01*
X16153400Y-12476100D02*
X16263400Y-12366100D01*
X16153400Y-12256100D01*
X16043400Y-12366100D01*
X16153400Y-12476100D01*
D20*
X13347700Y-8029950D02*
X13347700Y-8479950D01*
X13122700Y-8254950D02*
X13572700Y-8254950D01*
X13572700Y-8254950D02*
G75*
G03*
X13572700Y-8254950I-225000J0D01*
G01*
X13347700Y-8749950D02*
X13347700Y-9199950D01*
X13122700Y-8974950D02*
X13572700Y-8974950D01*
X13572700Y-8974950D02*
G75*
G03*
X13572700Y-8974950I-225000J0D01*
G01*
D10*
X9850227Y-15519424D02*
X9850227Y-15319424D01*
X9850227Y-15319424D02*
X9897846Y-15319424D01*
X9897846Y-15319424D02*
X9926418Y-15328948D01*
X9926418Y-15328948D02*
X9945465Y-15347995D01*
X9945465Y-15347995D02*
X9954989Y-15367043D01*
X9954989Y-15367043D02*
X9964513Y-15405138D01*
X9964513Y-15405138D02*
X9964513Y-15433709D01*
X9964513Y-15433709D02*
X9954989Y-15471805D01*
X9954989Y-15471805D02*
X9945465Y-15490852D01*
X9945465Y-15490852D02*
X9926418Y-15509900D01*
X9926418Y-15509900D02*
X9897846Y-15519424D01*
X9897846Y-15519424D02*
X9850227Y-15519424D01*
X10050227Y-15519424D02*
X10050227Y-15386090D01*
X10050227Y-15424186D02*
X10059751Y-15405138D01*
X10059751Y-15405138D02*
X10069275Y-15395614D01*
X10069275Y-15395614D02*
X10088323Y-15386090D01*
X10088323Y-15386090D02*
X10107370Y-15386090D01*
X10174037Y-15519424D02*
X10174037Y-15386090D01*
X10174037Y-15319424D02*
X10164513Y-15328948D01*
X10164513Y-15328948D02*
X10174037Y-15338471D01*
X10174037Y-15338471D02*
X10183561Y-15328948D01*
X10183561Y-15328948D02*
X10174037Y-15319424D01*
X10174037Y-15319424D02*
X10174037Y-15338471D01*
X10297846Y-15519424D02*
X10278799Y-15509900D01*
X10278799Y-15509900D02*
X10269275Y-15490852D01*
X10269275Y-15490852D02*
X10269275Y-15319424D01*
X10402608Y-15519424D02*
X10383561Y-15509900D01*
X10383561Y-15509900D02*
X10374037Y-15490852D01*
X10374037Y-15490852D02*
X10374037Y-15319424D01*
X10631180Y-15519424D02*
X10631180Y-15319424D01*
X10631180Y-15319424D02*
X10697846Y-15462281D01*
X10697846Y-15462281D02*
X10764513Y-15319424D01*
X10764513Y-15319424D02*
X10764513Y-15519424D01*
X10945465Y-15519424D02*
X10945465Y-15414662D01*
X10945465Y-15414662D02*
X10935942Y-15395614D01*
X10935942Y-15395614D02*
X10916894Y-15386090D01*
X10916894Y-15386090D02*
X10878799Y-15386090D01*
X10878799Y-15386090D02*
X10859751Y-15395614D01*
X10945465Y-15509900D02*
X10926418Y-15519424D01*
X10926418Y-15519424D02*
X10878799Y-15519424D01*
X10878799Y-15519424D02*
X10859751Y-15509900D01*
X10859751Y-15509900D02*
X10850227Y-15490852D01*
X10850227Y-15490852D02*
X10850227Y-15471805D01*
X10850227Y-15471805D02*
X10859751Y-15452757D01*
X10859751Y-15452757D02*
X10878799Y-15443233D01*
X10878799Y-15443233D02*
X10926418Y-15443233D01*
X10926418Y-15443233D02*
X10945465Y-15433709D01*
X11040704Y-15386090D02*
X11040704Y-15586090D01*
X11040704Y-15395614D02*
X11059751Y-15386090D01*
X11059751Y-15386090D02*
X11097846Y-15386090D01*
X11097846Y-15386090D02*
X11116894Y-15395614D01*
X11116894Y-15395614D02*
X11126418Y-15405138D01*
X11126418Y-15405138D02*
X11135942Y-15424186D01*
X11135942Y-15424186D02*
X11135942Y-15481328D01*
X11135942Y-15481328D02*
X11126418Y-15500376D01*
X11126418Y-15500376D02*
X11116894Y-15509900D01*
X11116894Y-15509900D02*
X11097846Y-15519424D01*
X11097846Y-15519424D02*
X11059751Y-15519424D01*
X11059751Y-15519424D02*
X11040704Y-15509900D01*
X11221656Y-15500376D02*
X11231180Y-15509900D01*
X11231180Y-15509900D02*
X11221656Y-15519424D01*
X11221656Y-15519424D02*
X11212132Y-15509900D01*
X11212132Y-15509900D02*
X11221656Y-15500376D01*
X11221656Y-15500376D02*
X11221656Y-15519424D01*
X11221656Y-15395614D02*
X11231180Y-15405138D01*
X11231180Y-15405138D02*
X11221656Y-15414662D01*
X11221656Y-15414662D02*
X11212132Y-15405138D01*
X11212132Y-15405138D02*
X11221656Y-15395614D01*
X11221656Y-15395614D02*
X11221656Y-15414662D01*
D12*
X9569608Y-15830400D02*
X9602608Y-15863400D01*
X9602608Y-15830400D02*
X9569608Y-15863400D01*
D10*
X9888323Y-15739424D02*
X9907370Y-15739424D01*
X9907370Y-15739424D02*
X9926418Y-15748948D01*
X9926418Y-15748948D02*
X9935942Y-15758471D01*
X9935942Y-15758471D02*
X9945465Y-15777519D01*
X9945465Y-15777519D02*
X9954989Y-15815614D01*
X9954989Y-15815614D02*
X9954989Y-15863233D01*
X9954989Y-15863233D02*
X9945465Y-15901328D01*
X9945465Y-15901328D02*
X9935942Y-15920376D01*
X9935942Y-15920376D02*
X9926418Y-15929900D01*
X9926418Y-15929900D02*
X9907370Y-15939424D01*
X9907370Y-15939424D02*
X9888323Y-15939424D01*
X9888323Y-15939424D02*
X9869275Y-15929900D01*
X9869275Y-15929900D02*
X9859751Y-15920376D01*
X9859751Y-15920376D02*
X9850227Y-15901328D01*
X9850227Y-15901328D02*
X9840704Y-15863233D01*
X9840704Y-15863233D02*
X9840704Y-15815614D01*
X9840704Y-15815614D02*
X9850227Y-15777519D01*
X9850227Y-15777519D02*
X9859751Y-15758471D01*
X9859751Y-15758471D02*
X9869275Y-15748948D01*
X9869275Y-15748948D02*
X9888323Y-15739424D01*
X10040704Y-15920376D02*
X10050227Y-15929900D01*
X10050227Y-15929900D02*
X10040704Y-15939424D01*
X10040704Y-15939424D02*
X10031180Y-15929900D01*
X10031180Y-15929900D02*
X10040704Y-15920376D01*
X10040704Y-15920376D02*
X10040704Y-15939424D01*
X10116894Y-15739424D02*
X10240704Y-15739424D01*
X10240704Y-15739424D02*
X10174037Y-15815614D01*
X10174037Y-15815614D02*
X10202608Y-15815614D01*
X10202608Y-15815614D02*
X10221656Y-15825138D01*
X10221656Y-15825138D02*
X10231180Y-15834662D01*
X10231180Y-15834662D02*
X10240704Y-15853709D01*
X10240704Y-15853709D02*
X10240704Y-15901328D01*
X10240704Y-15901328D02*
X10231180Y-15920376D01*
X10231180Y-15920376D02*
X10221656Y-15929900D01*
X10221656Y-15929900D02*
X10202608Y-15939424D01*
X10202608Y-15939424D02*
X10145465Y-15939424D01*
X10145465Y-15939424D02*
X10126418Y-15929900D01*
X10126418Y-15929900D02*
X10116894Y-15920376D01*
X10307370Y-15739424D02*
X10431180Y-15739424D01*
X10431180Y-15739424D02*
X10364513Y-15815614D01*
X10364513Y-15815614D02*
X10393085Y-15815614D01*
X10393085Y-15815614D02*
X10412132Y-15825138D01*
X10412132Y-15825138D02*
X10421656Y-15834662D01*
X10421656Y-15834662D02*
X10431180Y-15853709D01*
X10431180Y-15853709D02*
X10431180Y-15901328D01*
X10431180Y-15901328D02*
X10421656Y-15920376D01*
X10421656Y-15920376D02*
X10412132Y-15929900D01*
X10412132Y-15929900D02*
X10393085Y-15939424D01*
X10393085Y-15939424D02*
X10335942Y-15939424D01*
X10335942Y-15939424D02*
X10316894Y-15929900D01*
X10316894Y-15929900D02*
X10307370Y-15920376D01*
X10554989Y-15739424D02*
X10574037Y-15739424D01*
X10574037Y-15739424D02*
X10593085Y-15748948D01*
X10593085Y-15748948D02*
X10602608Y-15758471D01*
X10602608Y-15758471D02*
X10612132Y-15777519D01*
X10612132Y-15777519D02*
X10621656Y-15815614D01*
X10621656Y-15815614D02*
X10621656Y-15863233D01*
X10621656Y-15863233D02*
X10612132Y-15901328D01*
X10612132Y-15901328D02*
X10602608Y-15920376D01*
X10602608Y-15920376D02*
X10593085Y-15929900D01*
X10593085Y-15929900D02*
X10574037Y-15939424D01*
X10574037Y-15939424D02*
X10554989Y-15939424D01*
X10554989Y-15939424D02*
X10535942Y-15929900D01*
X10535942Y-15929900D02*
X10526418Y-15920376D01*
X10526418Y-15920376D02*
X10516894Y-15901328D01*
X10516894Y-15901328D02*
X10507370Y-15863233D01*
X10507370Y-15863233D02*
X10507370Y-15815614D01*
X10507370Y-15815614D02*
X10516894Y-15777519D01*
X10516894Y-15777519D02*
X10526418Y-15758471D01*
X10526418Y-15758471D02*
X10535942Y-15748948D01*
X10535942Y-15748948D02*
X10554989Y-15739424D01*
X10707370Y-15939424D02*
X10707370Y-15806090D01*
X10707370Y-15825138D02*
X10716894Y-15815614D01*
X10716894Y-15815614D02*
X10735942Y-15806090D01*
X10735942Y-15806090D02*
X10764513Y-15806090D01*
X10764513Y-15806090D02*
X10783561Y-15815614D01*
X10783561Y-15815614D02*
X10793085Y-15834662D01*
X10793085Y-15834662D02*
X10793085Y-15939424D01*
X10793085Y-15834662D02*
X10802608Y-15815614D01*
X10802608Y-15815614D02*
X10821656Y-15806090D01*
X10821656Y-15806090D02*
X10850227Y-15806090D01*
X10850227Y-15806090D02*
X10869275Y-15815614D01*
X10869275Y-15815614D02*
X10878799Y-15834662D01*
X10878799Y-15834662D02*
X10878799Y-15939424D01*
X10974037Y-15939424D02*
X10974037Y-15806090D01*
X10974037Y-15825138D02*
X10983561Y-15815614D01*
X10983561Y-15815614D02*
X11002608Y-15806090D01*
X11002608Y-15806090D02*
X11031180Y-15806090D01*
X11031180Y-15806090D02*
X11050227Y-15815614D01*
X11050227Y-15815614D02*
X11059751Y-15834662D01*
X11059751Y-15834662D02*
X11059751Y-15939424D01*
X11059751Y-15834662D02*
X11069275Y-15815614D01*
X11069275Y-15815614D02*
X11088323Y-15806090D01*
X11088323Y-15806090D02*
X11116894Y-15806090D01*
X11116894Y-15806090D02*
X11135942Y-15815614D01*
X11135942Y-15815614D02*
X11145466Y-15834662D01*
X11145466Y-15834662D02*
X11145466Y-15939424D01*
X11535942Y-15729900D02*
X11364513Y-15987043D01*
X11793085Y-15739424D02*
X11812132Y-15739424D01*
X11812132Y-15739424D02*
X11831180Y-15748948D01*
X11831180Y-15748948D02*
X11840704Y-15758471D01*
X11840704Y-15758471D02*
X11850227Y-15777519D01*
X11850227Y-15777519D02*
X11859751Y-15815614D01*
X11859751Y-15815614D02*
X11859751Y-15863233D01*
X11859751Y-15863233D02*
X11850227Y-15901328D01*
X11850227Y-15901328D02*
X11840704Y-15920376D01*
X11840704Y-15920376D02*
X11831180Y-15929900D01*
X11831180Y-15929900D02*
X11812132Y-15939424D01*
X11812132Y-15939424D02*
X11793085Y-15939424D01*
X11793085Y-15939424D02*
X11774037Y-15929900D01*
X11774037Y-15929900D02*
X11764513Y-15920376D01*
X11764513Y-15920376D02*
X11754989Y-15901328D01*
X11754989Y-15901328D02*
X11745466Y-15863233D01*
X11745466Y-15863233D02*
X11745466Y-15815614D01*
X11745466Y-15815614D02*
X11754989Y-15777519D01*
X11754989Y-15777519D02*
X11764513Y-15758471D01*
X11764513Y-15758471D02*
X11774037Y-15748948D01*
X11774037Y-15748948D02*
X11793085Y-15739424D01*
X11945466Y-15920376D02*
X11954989Y-15929900D01*
X11954989Y-15929900D02*
X11945466Y-15939424D01*
X11945466Y-15939424D02*
X11935942Y-15929900D01*
X11935942Y-15929900D02*
X11945466Y-15920376D01*
X11945466Y-15920376D02*
X11945466Y-15939424D01*
X12078799Y-15739424D02*
X12097847Y-15739424D01*
X12097847Y-15739424D02*
X12116894Y-15748948D01*
X12116894Y-15748948D02*
X12126418Y-15758471D01*
X12126418Y-15758471D02*
X12135942Y-15777519D01*
X12135942Y-15777519D02*
X12145466Y-15815614D01*
X12145466Y-15815614D02*
X12145466Y-15863233D01*
X12145466Y-15863233D02*
X12135942Y-15901328D01*
X12135942Y-15901328D02*
X12126418Y-15920376D01*
X12126418Y-15920376D02*
X12116894Y-15929900D01*
X12116894Y-15929900D02*
X12097847Y-15939424D01*
X12097847Y-15939424D02*
X12078799Y-15939424D01*
X12078799Y-15939424D02*
X12059751Y-15929900D01*
X12059751Y-15929900D02*
X12050227Y-15920376D01*
X12050227Y-15920376D02*
X12040704Y-15901328D01*
X12040704Y-15901328D02*
X12031180Y-15863233D01*
X12031180Y-15863233D02*
X12031180Y-15815614D01*
X12031180Y-15815614D02*
X12040704Y-15777519D01*
X12040704Y-15777519D02*
X12050227Y-15758471D01*
X12050227Y-15758471D02*
X12059751Y-15748948D01*
X12059751Y-15748948D02*
X12078799Y-15739424D01*
X12335942Y-15939424D02*
X12221656Y-15939424D01*
X12278799Y-15939424D02*
X12278799Y-15739424D01*
X12278799Y-15739424D02*
X12259751Y-15767995D01*
X12259751Y-15767995D02*
X12240704Y-15787043D01*
X12240704Y-15787043D02*
X12221656Y-15796567D01*
X12402608Y-15739424D02*
X12526418Y-15739424D01*
X12526418Y-15739424D02*
X12459751Y-15815614D01*
X12459751Y-15815614D02*
X12488323Y-15815614D01*
X12488323Y-15815614D02*
X12507370Y-15825138D01*
X12507370Y-15825138D02*
X12516894Y-15834662D01*
X12516894Y-15834662D02*
X12526418Y-15853709D01*
X12526418Y-15853709D02*
X12526418Y-15901328D01*
X12526418Y-15901328D02*
X12516894Y-15920376D01*
X12516894Y-15920376D02*
X12507370Y-15929900D01*
X12507370Y-15929900D02*
X12488323Y-15939424D01*
X12488323Y-15939424D02*
X12431180Y-15939424D01*
X12431180Y-15939424D02*
X12412132Y-15929900D01*
X12412132Y-15929900D02*
X12402608Y-15920376D01*
X12650227Y-15739424D02*
X12669275Y-15739424D01*
X12669275Y-15739424D02*
X12688323Y-15748948D01*
X12688323Y-15748948D02*
X12697847Y-15758471D01*
X12697847Y-15758471D02*
X12707370Y-15777519D01*
X12707370Y-15777519D02*
X12716894Y-15815614D01*
X12716894Y-15815614D02*
X12716894Y-15863233D01*
X12716894Y-15863233D02*
X12707370Y-15901328D01*
X12707370Y-15901328D02*
X12697847Y-15920376D01*
X12697847Y-15920376D02*
X12688323Y-15929900D01*
X12688323Y-15929900D02*
X12669275Y-15939424D01*
X12669275Y-15939424D02*
X12650227Y-15939424D01*
X12650227Y-15939424D02*
X12631180Y-15929900D01*
X12631180Y-15929900D02*
X12621656Y-15920376D01*
X12621656Y-15920376D02*
X12612132Y-15901328D01*
X12612132Y-15901328D02*
X12602608Y-15863233D01*
X12602608Y-15863233D02*
X12602608Y-15815614D01*
X12602608Y-15815614D02*
X12612132Y-15777519D01*
X12612132Y-15777519D02*
X12621656Y-15758471D01*
X12621656Y-15758471D02*
X12631180Y-15748948D01*
X12631180Y-15748948D02*
X12650227Y-15739424D01*
X12793085Y-15739424D02*
X12793085Y-15777519D01*
X12869275Y-15739424D02*
X12869275Y-15777519D01*
X13164513Y-16015614D02*
X13154989Y-16006090D01*
X13154989Y-16006090D02*
X13135942Y-15977519D01*
X13135942Y-15977519D02*
X13126418Y-15958471D01*
X13126418Y-15958471D02*
X13116894Y-15929900D01*
X13116894Y-15929900D02*
X13107370Y-15882281D01*
X13107370Y-15882281D02*
X13107370Y-15844186D01*
X13107370Y-15844186D02*
X13116894Y-15796567D01*
X13116894Y-15796567D02*
X13126418Y-15767995D01*
X13126418Y-15767995D02*
X13135942Y-15748948D01*
X13135942Y-15748948D02*
X13154989Y-15720376D01*
X13154989Y-15720376D02*
X13164513Y-15710852D01*
X13326418Y-15739424D02*
X13288323Y-15739424D01*
X13288323Y-15739424D02*
X13269275Y-15748948D01*
X13269275Y-15748948D02*
X13259751Y-15758471D01*
X13259751Y-15758471D02*
X13240704Y-15787043D01*
X13240704Y-15787043D02*
X13231180Y-15825138D01*
X13231180Y-15825138D02*
X13231180Y-15901328D01*
X13231180Y-15901328D02*
X13240704Y-15920376D01*
X13240704Y-15920376D02*
X13250228Y-15929900D01*
X13250228Y-15929900D02*
X13269275Y-15939424D01*
X13269275Y-15939424D02*
X13307370Y-15939424D01*
X13307370Y-15939424D02*
X13326418Y-15929900D01*
X13326418Y-15929900D02*
X13335942Y-15920376D01*
X13335942Y-15920376D02*
X13345466Y-15901328D01*
X13345466Y-15901328D02*
X13345466Y-15853709D01*
X13345466Y-15853709D02*
X13335942Y-15834662D01*
X13335942Y-15834662D02*
X13326418Y-15825138D01*
X13326418Y-15825138D02*
X13307370Y-15815614D01*
X13307370Y-15815614D02*
X13269275Y-15815614D01*
X13269275Y-15815614D02*
X13250228Y-15825138D01*
X13250228Y-15825138D02*
X13240704Y-15834662D01*
X13240704Y-15834662D02*
X13231180Y-15853709D01*
X13583561Y-15939424D02*
X13583561Y-15739424D01*
X13669275Y-15939424D02*
X13669275Y-15834662D01*
X13669275Y-15834662D02*
X13659751Y-15815614D01*
X13659751Y-15815614D02*
X13640704Y-15806090D01*
X13640704Y-15806090D02*
X13612132Y-15806090D01*
X13612132Y-15806090D02*
X13593085Y-15815614D01*
X13593085Y-15815614D02*
X13583561Y-15825138D01*
X13793085Y-15939424D02*
X13774037Y-15929900D01*
X13774037Y-15929900D02*
X13764513Y-15920376D01*
X13764513Y-15920376D02*
X13754990Y-15901328D01*
X13754990Y-15901328D02*
X13754990Y-15844186D01*
X13754990Y-15844186D02*
X13764513Y-15825138D01*
X13764513Y-15825138D02*
X13774037Y-15815614D01*
X13774037Y-15815614D02*
X13793085Y-15806090D01*
X13793085Y-15806090D02*
X13821656Y-15806090D01*
X13821656Y-15806090D02*
X13840704Y-15815614D01*
X13840704Y-15815614D02*
X13850228Y-15825138D01*
X13850228Y-15825138D02*
X13859751Y-15844186D01*
X13859751Y-15844186D02*
X13859751Y-15901328D01*
X13859751Y-15901328D02*
X13850228Y-15920376D01*
X13850228Y-15920376D02*
X13840704Y-15929900D01*
X13840704Y-15929900D02*
X13821656Y-15939424D01*
X13821656Y-15939424D02*
X13793085Y-15939424D01*
X13974037Y-15939424D02*
X13954990Y-15929900D01*
X13954990Y-15929900D02*
X13945466Y-15910852D01*
X13945466Y-15910852D02*
X13945466Y-15739424D01*
X14126418Y-15929900D02*
X14107371Y-15939424D01*
X14107371Y-15939424D02*
X14069275Y-15939424D01*
X14069275Y-15939424D02*
X14050228Y-15929900D01*
X14050228Y-15929900D02*
X14040704Y-15910852D01*
X14040704Y-15910852D02*
X14040704Y-15834662D01*
X14040704Y-15834662D02*
X14050228Y-15815614D01*
X14050228Y-15815614D02*
X14069275Y-15806090D01*
X14069275Y-15806090D02*
X14107371Y-15806090D01*
X14107371Y-15806090D02*
X14126418Y-15815614D01*
X14126418Y-15815614D02*
X14135942Y-15834662D01*
X14135942Y-15834662D02*
X14135942Y-15853709D01*
X14135942Y-15853709D02*
X14040704Y-15872757D01*
X14212132Y-15929900D02*
X14231180Y-15939424D01*
X14231180Y-15939424D02*
X14269275Y-15939424D01*
X14269275Y-15939424D02*
X14288323Y-15929900D01*
X14288323Y-15929900D02*
X14297847Y-15910852D01*
X14297847Y-15910852D02*
X14297847Y-15901328D01*
X14297847Y-15901328D02*
X14288323Y-15882281D01*
X14288323Y-15882281D02*
X14269275Y-15872757D01*
X14269275Y-15872757D02*
X14240704Y-15872757D01*
X14240704Y-15872757D02*
X14221656Y-15863233D01*
X14221656Y-15863233D02*
X14212132Y-15844186D01*
X14212132Y-15844186D02*
X14212132Y-15834662D01*
X14212132Y-15834662D02*
X14221656Y-15815614D01*
X14221656Y-15815614D02*
X14240704Y-15806090D01*
X14240704Y-15806090D02*
X14269275Y-15806090D01*
X14269275Y-15806090D02*
X14288323Y-15815614D01*
X14364513Y-16015614D02*
X14374037Y-16006090D01*
X14374037Y-16006090D02*
X14393085Y-15977519D01*
X14393085Y-15977519D02*
X14402609Y-15958471D01*
X14402609Y-15958471D02*
X14412132Y-15929900D01*
X14412132Y-15929900D02*
X14421656Y-15882281D01*
X14421656Y-15882281D02*
X14421656Y-15844186D01*
X14421656Y-15844186D02*
X14412132Y-15796567D01*
X14412132Y-15796567D02*
X14402609Y-15767995D01*
X14402609Y-15767995D02*
X14393085Y-15748948D01*
X14393085Y-15748948D02*
X14374037Y-15720376D01*
X14374037Y-15720376D02*
X14364513Y-15710852D01*
D13*
X9602608Y-16110900D02*
G75*
G03*
X9602608Y-16110900I-20000J0D01*
G01*
D10*
X9888323Y-16003424D02*
X9907370Y-16003424D01*
X9907370Y-16003424D02*
X9926418Y-16012948D01*
X9926418Y-16012948D02*
X9935942Y-16022471D01*
X9935942Y-16022471D02*
X9945465Y-16041519D01*
X9945465Y-16041519D02*
X9954989Y-16079614D01*
X9954989Y-16079614D02*
X9954989Y-16127233D01*
X9954989Y-16127233D02*
X9945465Y-16165328D01*
X9945465Y-16165328D02*
X9935942Y-16184376D01*
X9935942Y-16184376D02*
X9926418Y-16193900D01*
X9926418Y-16193900D02*
X9907370Y-16203424D01*
X9907370Y-16203424D02*
X9888323Y-16203424D01*
X9888323Y-16203424D02*
X9869275Y-16193900D01*
X9869275Y-16193900D02*
X9859751Y-16184376D01*
X9859751Y-16184376D02*
X9850227Y-16165328D01*
X9850227Y-16165328D02*
X9840704Y-16127233D01*
X9840704Y-16127233D02*
X9840704Y-16079614D01*
X9840704Y-16079614D02*
X9850227Y-16041519D01*
X9850227Y-16041519D02*
X9859751Y-16022471D01*
X9859751Y-16022471D02*
X9869275Y-16012948D01*
X9869275Y-16012948D02*
X9888323Y-16003424D01*
X10040704Y-16184376D02*
X10050227Y-16193900D01*
X10050227Y-16193900D02*
X10040704Y-16203424D01*
X10040704Y-16203424D02*
X10031180Y-16193900D01*
X10031180Y-16193900D02*
X10040704Y-16184376D01*
X10040704Y-16184376D02*
X10040704Y-16203424D01*
X10221656Y-16070090D02*
X10221656Y-16203424D01*
X10174037Y-15993900D02*
X10126418Y-16136757D01*
X10126418Y-16136757D02*
X10250227Y-16136757D01*
X10364513Y-16003424D02*
X10383561Y-16003424D01*
X10383561Y-16003424D02*
X10402608Y-16012948D01*
X10402608Y-16012948D02*
X10412132Y-16022471D01*
X10412132Y-16022471D02*
X10421656Y-16041519D01*
X10421656Y-16041519D02*
X10431180Y-16079614D01*
X10431180Y-16079614D02*
X10431180Y-16127233D01*
X10431180Y-16127233D02*
X10421656Y-16165328D01*
X10421656Y-16165328D02*
X10412132Y-16184376D01*
X10412132Y-16184376D02*
X10402608Y-16193900D01*
X10402608Y-16193900D02*
X10383561Y-16203424D01*
X10383561Y-16203424D02*
X10364513Y-16203424D01*
X10364513Y-16203424D02*
X10345465Y-16193900D01*
X10345465Y-16193900D02*
X10335942Y-16184376D01*
X10335942Y-16184376D02*
X10326418Y-16165328D01*
X10326418Y-16165328D02*
X10316894Y-16127233D01*
X10316894Y-16127233D02*
X10316894Y-16079614D01*
X10316894Y-16079614D02*
X10326418Y-16041519D01*
X10326418Y-16041519D02*
X10335942Y-16022471D01*
X10335942Y-16022471D02*
X10345465Y-16012948D01*
X10345465Y-16012948D02*
X10364513Y-16003424D01*
X10554989Y-16003424D02*
X10574037Y-16003424D01*
X10574037Y-16003424D02*
X10593085Y-16012948D01*
X10593085Y-16012948D02*
X10602608Y-16022471D01*
X10602608Y-16022471D02*
X10612132Y-16041519D01*
X10612132Y-16041519D02*
X10621656Y-16079614D01*
X10621656Y-16079614D02*
X10621656Y-16127233D01*
X10621656Y-16127233D02*
X10612132Y-16165328D01*
X10612132Y-16165328D02*
X10602608Y-16184376D01*
X10602608Y-16184376D02*
X10593085Y-16193900D01*
X10593085Y-16193900D02*
X10574037Y-16203424D01*
X10574037Y-16203424D02*
X10554989Y-16203424D01*
X10554989Y-16203424D02*
X10535942Y-16193900D01*
X10535942Y-16193900D02*
X10526418Y-16184376D01*
X10526418Y-16184376D02*
X10516894Y-16165328D01*
X10516894Y-16165328D02*
X10507370Y-16127233D01*
X10507370Y-16127233D02*
X10507370Y-16079614D01*
X10507370Y-16079614D02*
X10516894Y-16041519D01*
X10516894Y-16041519D02*
X10526418Y-16022471D01*
X10526418Y-16022471D02*
X10535942Y-16012948D01*
X10535942Y-16012948D02*
X10554989Y-16003424D01*
X10707370Y-16203424D02*
X10707370Y-16070090D01*
X10707370Y-16089138D02*
X10716894Y-16079614D01*
X10716894Y-16079614D02*
X10735942Y-16070090D01*
X10735942Y-16070090D02*
X10764513Y-16070090D01*
X10764513Y-16070090D02*
X10783561Y-16079614D01*
X10783561Y-16079614D02*
X10793085Y-16098662D01*
X10793085Y-16098662D02*
X10793085Y-16203424D01*
X10793085Y-16098662D02*
X10802608Y-16079614D01*
X10802608Y-16079614D02*
X10821656Y-16070090D01*
X10821656Y-16070090D02*
X10850227Y-16070090D01*
X10850227Y-16070090D02*
X10869275Y-16079614D01*
X10869275Y-16079614D02*
X10878799Y-16098662D01*
X10878799Y-16098662D02*
X10878799Y-16203424D01*
X10974037Y-16203424D02*
X10974037Y-16070090D01*
X10974037Y-16089138D02*
X10983561Y-16079614D01*
X10983561Y-16079614D02*
X11002608Y-16070090D01*
X11002608Y-16070090D02*
X11031180Y-16070090D01*
X11031180Y-16070090D02*
X11050227Y-16079614D01*
X11050227Y-16079614D02*
X11059751Y-16098662D01*
X11059751Y-16098662D02*
X11059751Y-16203424D01*
X11059751Y-16098662D02*
X11069275Y-16079614D01*
X11069275Y-16079614D02*
X11088323Y-16070090D01*
X11088323Y-16070090D02*
X11116894Y-16070090D01*
X11116894Y-16070090D02*
X11135942Y-16079614D01*
X11135942Y-16079614D02*
X11145466Y-16098662D01*
X11145466Y-16098662D02*
X11145466Y-16203424D01*
X11535942Y-15993900D02*
X11364513Y-16251043D01*
X11793085Y-16003424D02*
X11812132Y-16003424D01*
X11812132Y-16003424D02*
X11831180Y-16012948D01*
X11831180Y-16012948D02*
X11840704Y-16022471D01*
X11840704Y-16022471D02*
X11850227Y-16041519D01*
X11850227Y-16041519D02*
X11859751Y-16079614D01*
X11859751Y-16079614D02*
X11859751Y-16127233D01*
X11859751Y-16127233D02*
X11850227Y-16165328D01*
X11850227Y-16165328D02*
X11840704Y-16184376D01*
X11840704Y-16184376D02*
X11831180Y-16193900D01*
X11831180Y-16193900D02*
X11812132Y-16203424D01*
X11812132Y-16203424D02*
X11793085Y-16203424D01*
X11793085Y-16203424D02*
X11774037Y-16193900D01*
X11774037Y-16193900D02*
X11764513Y-16184376D01*
X11764513Y-16184376D02*
X11754989Y-16165328D01*
X11754989Y-16165328D02*
X11745466Y-16127233D01*
X11745466Y-16127233D02*
X11745466Y-16079614D01*
X11745466Y-16079614D02*
X11754989Y-16041519D01*
X11754989Y-16041519D02*
X11764513Y-16022471D01*
X11764513Y-16022471D02*
X11774037Y-16012948D01*
X11774037Y-16012948D02*
X11793085Y-16003424D01*
X11945466Y-16184376D02*
X11954989Y-16193900D01*
X11954989Y-16193900D02*
X11945466Y-16203424D01*
X11945466Y-16203424D02*
X11935942Y-16193900D01*
X11935942Y-16193900D02*
X11945466Y-16184376D01*
X11945466Y-16184376D02*
X11945466Y-16203424D01*
X12078799Y-16003424D02*
X12097847Y-16003424D01*
X12097847Y-16003424D02*
X12116894Y-16012948D01*
X12116894Y-16012948D02*
X12126418Y-16022471D01*
X12126418Y-16022471D02*
X12135942Y-16041519D01*
X12135942Y-16041519D02*
X12145466Y-16079614D01*
X12145466Y-16079614D02*
X12145466Y-16127233D01*
X12145466Y-16127233D02*
X12135942Y-16165328D01*
X12135942Y-16165328D02*
X12126418Y-16184376D01*
X12126418Y-16184376D02*
X12116894Y-16193900D01*
X12116894Y-16193900D02*
X12097847Y-16203424D01*
X12097847Y-16203424D02*
X12078799Y-16203424D01*
X12078799Y-16203424D02*
X12059751Y-16193900D01*
X12059751Y-16193900D02*
X12050227Y-16184376D01*
X12050227Y-16184376D02*
X12040704Y-16165328D01*
X12040704Y-16165328D02*
X12031180Y-16127233D01*
X12031180Y-16127233D02*
X12031180Y-16079614D01*
X12031180Y-16079614D02*
X12040704Y-16041519D01*
X12040704Y-16041519D02*
X12050227Y-16022471D01*
X12050227Y-16022471D02*
X12059751Y-16012948D01*
X12059751Y-16012948D02*
X12078799Y-16003424D01*
X12335942Y-16203424D02*
X12221656Y-16203424D01*
X12278799Y-16203424D02*
X12278799Y-16003424D01*
X12278799Y-16003424D02*
X12259751Y-16031995D01*
X12259751Y-16031995D02*
X12240704Y-16051043D01*
X12240704Y-16051043D02*
X12221656Y-16060567D01*
X12516894Y-16003424D02*
X12421656Y-16003424D01*
X12421656Y-16003424D02*
X12412132Y-16098662D01*
X12412132Y-16098662D02*
X12421656Y-16089138D01*
X12421656Y-16089138D02*
X12440704Y-16079614D01*
X12440704Y-16079614D02*
X12488323Y-16079614D01*
X12488323Y-16079614D02*
X12507370Y-16089138D01*
X12507370Y-16089138D02*
X12516894Y-16098662D01*
X12516894Y-16098662D02*
X12526418Y-16117709D01*
X12526418Y-16117709D02*
X12526418Y-16165328D01*
X12526418Y-16165328D02*
X12516894Y-16184376D01*
X12516894Y-16184376D02*
X12507370Y-16193900D01*
X12507370Y-16193900D02*
X12488323Y-16203424D01*
X12488323Y-16203424D02*
X12440704Y-16203424D01*
X12440704Y-16203424D02*
X12421656Y-16193900D01*
X12421656Y-16193900D02*
X12412132Y-16184376D01*
X12593085Y-16003424D02*
X12726418Y-16003424D01*
X12726418Y-16003424D02*
X12640704Y-16203424D01*
X12793085Y-16003424D02*
X12793085Y-16041519D01*
X12869275Y-16003424D02*
X12869275Y-16041519D01*
X13164513Y-16279614D02*
X13154989Y-16270090D01*
X13154989Y-16270090D02*
X13135942Y-16241519D01*
X13135942Y-16241519D02*
X13126418Y-16222471D01*
X13126418Y-16222471D02*
X13116894Y-16193900D01*
X13116894Y-16193900D02*
X13107370Y-16146281D01*
X13107370Y-16146281D02*
X13107370Y-16108186D01*
X13107370Y-16108186D02*
X13116894Y-16060567D01*
X13116894Y-16060567D02*
X13126418Y-16031995D01*
X13126418Y-16031995D02*
X13135942Y-16012948D01*
X13135942Y-16012948D02*
X13154989Y-15984376D01*
X13154989Y-15984376D02*
X13164513Y-15974852D01*
X13345466Y-16203424D02*
X13231180Y-16203424D01*
X13288323Y-16203424D02*
X13288323Y-16003424D01*
X13288323Y-16003424D02*
X13269275Y-16031995D01*
X13269275Y-16031995D02*
X13250228Y-16051043D01*
X13250228Y-16051043D02*
X13231180Y-16060567D01*
X13412132Y-16003424D02*
X13535942Y-16003424D01*
X13535942Y-16003424D02*
X13469275Y-16079614D01*
X13469275Y-16079614D02*
X13497847Y-16079614D01*
X13497847Y-16079614D02*
X13516894Y-16089138D01*
X13516894Y-16089138D02*
X13526418Y-16098662D01*
X13526418Y-16098662D02*
X13535942Y-16117709D01*
X13535942Y-16117709D02*
X13535942Y-16165328D01*
X13535942Y-16165328D02*
X13526418Y-16184376D01*
X13526418Y-16184376D02*
X13516894Y-16193900D01*
X13516894Y-16193900D02*
X13497847Y-16203424D01*
X13497847Y-16203424D02*
X13440704Y-16203424D01*
X13440704Y-16203424D02*
X13421656Y-16193900D01*
X13421656Y-16193900D02*
X13412132Y-16184376D01*
X13612132Y-16022471D02*
X13621656Y-16012948D01*
X13621656Y-16012948D02*
X13640704Y-16003424D01*
X13640704Y-16003424D02*
X13688323Y-16003424D01*
X13688323Y-16003424D02*
X13707370Y-16012948D01*
X13707370Y-16012948D02*
X13716894Y-16022471D01*
X13716894Y-16022471D02*
X13726418Y-16041519D01*
X13726418Y-16041519D02*
X13726418Y-16060567D01*
X13726418Y-16060567D02*
X13716894Y-16089138D01*
X13716894Y-16089138D02*
X13602609Y-16203424D01*
X13602609Y-16203424D02*
X13726418Y-16203424D01*
X13964513Y-16203424D02*
X13964513Y-16003424D01*
X14050228Y-16203424D02*
X14050228Y-16098662D01*
X14050228Y-16098662D02*
X14040704Y-16079614D01*
X14040704Y-16079614D02*
X14021656Y-16070090D01*
X14021656Y-16070090D02*
X13993085Y-16070090D01*
X13993085Y-16070090D02*
X13974037Y-16079614D01*
X13974037Y-16079614D02*
X13964513Y-16089138D01*
X14174037Y-16203424D02*
X14154990Y-16193900D01*
X14154990Y-16193900D02*
X14145466Y-16184376D01*
X14145466Y-16184376D02*
X14135942Y-16165328D01*
X14135942Y-16165328D02*
X14135942Y-16108186D01*
X14135942Y-16108186D02*
X14145466Y-16089138D01*
X14145466Y-16089138D02*
X14154990Y-16079614D01*
X14154990Y-16079614D02*
X14174037Y-16070090D01*
X14174037Y-16070090D02*
X14202609Y-16070090D01*
X14202609Y-16070090D02*
X14221656Y-16079614D01*
X14221656Y-16079614D02*
X14231180Y-16089138D01*
X14231180Y-16089138D02*
X14240704Y-16108186D01*
X14240704Y-16108186D02*
X14240704Y-16165328D01*
X14240704Y-16165328D02*
X14231180Y-16184376D01*
X14231180Y-16184376D02*
X14221656Y-16193900D01*
X14221656Y-16193900D02*
X14202609Y-16203424D01*
X14202609Y-16203424D02*
X14174037Y-16203424D01*
X14354990Y-16203424D02*
X14335942Y-16193900D01*
X14335942Y-16193900D02*
X14326418Y-16174852D01*
X14326418Y-16174852D02*
X14326418Y-16003424D01*
X14507371Y-16193900D02*
X14488323Y-16203424D01*
X14488323Y-16203424D02*
X14450228Y-16203424D01*
X14450228Y-16203424D02*
X14431180Y-16193900D01*
X14431180Y-16193900D02*
X14421656Y-16174852D01*
X14421656Y-16174852D02*
X14421656Y-16098662D01*
X14421656Y-16098662D02*
X14431180Y-16079614D01*
X14431180Y-16079614D02*
X14450228Y-16070090D01*
X14450228Y-16070090D02*
X14488323Y-16070090D01*
X14488323Y-16070090D02*
X14507371Y-16079614D01*
X14507371Y-16079614D02*
X14516894Y-16098662D01*
X14516894Y-16098662D02*
X14516894Y-16117709D01*
X14516894Y-16117709D02*
X14421656Y-16136757D01*
X14593085Y-16193900D02*
X14612132Y-16203424D01*
X14612132Y-16203424D02*
X14650228Y-16203424D01*
X14650228Y-16203424D02*
X14669275Y-16193900D01*
X14669275Y-16193900D02*
X14678799Y-16174852D01*
X14678799Y-16174852D02*
X14678799Y-16165328D01*
X14678799Y-16165328D02*
X14669275Y-16146281D01*
X14669275Y-16146281D02*
X14650228Y-16136757D01*
X14650228Y-16136757D02*
X14621656Y-16136757D01*
X14621656Y-16136757D02*
X14602609Y-16127233D01*
X14602609Y-16127233D02*
X14593085Y-16108186D01*
X14593085Y-16108186D02*
X14593085Y-16098662D01*
X14593085Y-16098662D02*
X14602609Y-16079614D01*
X14602609Y-16079614D02*
X14621656Y-16070090D01*
X14621656Y-16070090D02*
X14650228Y-16070090D01*
X14650228Y-16070090D02*
X14669275Y-16079614D01*
X14745466Y-16279614D02*
X14754990Y-16270090D01*
X14754990Y-16270090D02*
X14774037Y-16241519D01*
X14774037Y-16241519D02*
X14783561Y-16222471D01*
X14783561Y-16222471D02*
X14793085Y-16193900D01*
X14793085Y-16193900D02*
X14802609Y-16146281D01*
X14802609Y-16146281D02*
X14802609Y-16108186D01*
X14802609Y-16108186D02*
X14793085Y-16060567D01*
X14793085Y-16060567D02*
X14783561Y-16031995D01*
X14783561Y-16031995D02*
X14774037Y-16012948D01*
X14774037Y-16012948D02*
X14754990Y-15984376D01*
X14754990Y-15984376D02*
X14745466Y-15974852D01*
D14*
X9575108Y-16347400D02*
X9575108Y-16402400D01*
X9547608Y-16374900D02*
X9602608Y-16374900D01*
D10*
X9888323Y-16267424D02*
X9907370Y-16267424D01*
X9907370Y-16267424D02*
X9926418Y-16276948D01*
X9926418Y-16276948D02*
X9935942Y-16286471D01*
X9935942Y-16286471D02*
X9945465Y-16305519D01*
X9945465Y-16305519D02*
X9954989Y-16343614D01*
X9954989Y-16343614D02*
X9954989Y-16391233D01*
X9954989Y-16391233D02*
X9945465Y-16429328D01*
X9945465Y-16429328D02*
X9935942Y-16448376D01*
X9935942Y-16448376D02*
X9926418Y-16457900D01*
X9926418Y-16457900D02*
X9907370Y-16467424D01*
X9907370Y-16467424D02*
X9888323Y-16467424D01*
X9888323Y-16467424D02*
X9869275Y-16457900D01*
X9869275Y-16457900D02*
X9859751Y-16448376D01*
X9859751Y-16448376D02*
X9850227Y-16429328D01*
X9850227Y-16429328D02*
X9840704Y-16391233D01*
X9840704Y-16391233D02*
X9840704Y-16343614D01*
X9840704Y-16343614D02*
X9850227Y-16305519D01*
X9850227Y-16305519D02*
X9859751Y-16286471D01*
X9859751Y-16286471D02*
X9869275Y-16276948D01*
X9869275Y-16276948D02*
X9888323Y-16267424D01*
X10040704Y-16448376D02*
X10050227Y-16457900D01*
X10050227Y-16457900D02*
X10040704Y-16467424D01*
X10040704Y-16467424D02*
X10031180Y-16457900D01*
X10031180Y-16457900D02*
X10040704Y-16448376D01*
X10040704Y-16448376D02*
X10040704Y-16467424D01*
X10231180Y-16267424D02*
X10135942Y-16267424D01*
X10135942Y-16267424D02*
X10126418Y-16362662D01*
X10126418Y-16362662D02*
X10135942Y-16353138D01*
X10135942Y-16353138D02*
X10154989Y-16343614D01*
X10154989Y-16343614D02*
X10202608Y-16343614D01*
X10202608Y-16343614D02*
X10221656Y-16353138D01*
X10221656Y-16353138D02*
X10231180Y-16362662D01*
X10231180Y-16362662D02*
X10240704Y-16381709D01*
X10240704Y-16381709D02*
X10240704Y-16429328D01*
X10240704Y-16429328D02*
X10231180Y-16448376D01*
X10231180Y-16448376D02*
X10221656Y-16457900D01*
X10221656Y-16457900D02*
X10202608Y-16467424D01*
X10202608Y-16467424D02*
X10154989Y-16467424D01*
X10154989Y-16467424D02*
X10135942Y-16457900D01*
X10135942Y-16457900D02*
X10126418Y-16448376D01*
X10421656Y-16267424D02*
X10326418Y-16267424D01*
X10326418Y-16267424D02*
X10316894Y-16362662D01*
X10316894Y-16362662D02*
X10326418Y-16353138D01*
X10326418Y-16353138D02*
X10345465Y-16343614D01*
X10345465Y-16343614D02*
X10393085Y-16343614D01*
X10393085Y-16343614D02*
X10412132Y-16353138D01*
X10412132Y-16353138D02*
X10421656Y-16362662D01*
X10421656Y-16362662D02*
X10431180Y-16381709D01*
X10431180Y-16381709D02*
X10431180Y-16429328D01*
X10431180Y-16429328D02*
X10421656Y-16448376D01*
X10421656Y-16448376D02*
X10412132Y-16457900D01*
X10412132Y-16457900D02*
X10393085Y-16467424D01*
X10393085Y-16467424D02*
X10345465Y-16467424D01*
X10345465Y-16467424D02*
X10326418Y-16457900D01*
X10326418Y-16457900D02*
X10316894Y-16448376D01*
X10554989Y-16267424D02*
X10574037Y-16267424D01*
X10574037Y-16267424D02*
X10593085Y-16276948D01*
X10593085Y-16276948D02*
X10602608Y-16286471D01*
X10602608Y-16286471D02*
X10612132Y-16305519D01*
X10612132Y-16305519D02*
X10621656Y-16343614D01*
X10621656Y-16343614D02*
X10621656Y-16391233D01*
X10621656Y-16391233D02*
X10612132Y-16429328D01*
X10612132Y-16429328D02*
X10602608Y-16448376D01*
X10602608Y-16448376D02*
X10593085Y-16457900D01*
X10593085Y-16457900D02*
X10574037Y-16467424D01*
X10574037Y-16467424D02*
X10554989Y-16467424D01*
X10554989Y-16467424D02*
X10535942Y-16457900D01*
X10535942Y-16457900D02*
X10526418Y-16448376D01*
X10526418Y-16448376D02*
X10516894Y-16429328D01*
X10516894Y-16429328D02*
X10507370Y-16391233D01*
X10507370Y-16391233D02*
X10507370Y-16343614D01*
X10507370Y-16343614D02*
X10516894Y-16305519D01*
X10516894Y-16305519D02*
X10526418Y-16286471D01*
X10526418Y-16286471D02*
X10535942Y-16276948D01*
X10535942Y-16276948D02*
X10554989Y-16267424D01*
X10707370Y-16467424D02*
X10707370Y-16334090D01*
X10707370Y-16353138D02*
X10716894Y-16343614D01*
X10716894Y-16343614D02*
X10735942Y-16334090D01*
X10735942Y-16334090D02*
X10764513Y-16334090D01*
X10764513Y-16334090D02*
X10783561Y-16343614D01*
X10783561Y-16343614D02*
X10793085Y-16362662D01*
X10793085Y-16362662D02*
X10793085Y-16467424D01*
X10793085Y-16362662D02*
X10802608Y-16343614D01*
X10802608Y-16343614D02*
X10821656Y-16334090D01*
X10821656Y-16334090D02*
X10850227Y-16334090D01*
X10850227Y-16334090D02*
X10869275Y-16343614D01*
X10869275Y-16343614D02*
X10878799Y-16362662D01*
X10878799Y-16362662D02*
X10878799Y-16467424D01*
X10974037Y-16467424D02*
X10974037Y-16334090D01*
X10974037Y-16353138D02*
X10983561Y-16343614D01*
X10983561Y-16343614D02*
X11002608Y-16334090D01*
X11002608Y-16334090D02*
X11031180Y-16334090D01*
X11031180Y-16334090D02*
X11050227Y-16343614D01*
X11050227Y-16343614D02*
X11059751Y-16362662D01*
X11059751Y-16362662D02*
X11059751Y-16467424D01*
X11059751Y-16362662D02*
X11069275Y-16343614D01*
X11069275Y-16343614D02*
X11088323Y-16334090D01*
X11088323Y-16334090D02*
X11116894Y-16334090D01*
X11116894Y-16334090D02*
X11135942Y-16343614D01*
X11135942Y-16343614D02*
X11145466Y-16362662D01*
X11145466Y-16362662D02*
X11145466Y-16467424D01*
X11535942Y-16257900D02*
X11364513Y-16515043D01*
X11793085Y-16267424D02*
X11812132Y-16267424D01*
X11812132Y-16267424D02*
X11831180Y-16276948D01*
X11831180Y-16276948D02*
X11840704Y-16286471D01*
X11840704Y-16286471D02*
X11850227Y-16305519D01*
X11850227Y-16305519D02*
X11859751Y-16343614D01*
X11859751Y-16343614D02*
X11859751Y-16391233D01*
X11859751Y-16391233D02*
X11850227Y-16429328D01*
X11850227Y-16429328D02*
X11840704Y-16448376D01*
X11840704Y-16448376D02*
X11831180Y-16457900D01*
X11831180Y-16457900D02*
X11812132Y-16467424D01*
X11812132Y-16467424D02*
X11793085Y-16467424D01*
X11793085Y-16467424D02*
X11774037Y-16457900D01*
X11774037Y-16457900D02*
X11764513Y-16448376D01*
X11764513Y-16448376D02*
X11754989Y-16429328D01*
X11754989Y-16429328D02*
X11745466Y-16391233D01*
X11745466Y-16391233D02*
X11745466Y-16343614D01*
X11745466Y-16343614D02*
X11754989Y-16305519D01*
X11754989Y-16305519D02*
X11764513Y-16286471D01*
X11764513Y-16286471D02*
X11774037Y-16276948D01*
X11774037Y-16276948D02*
X11793085Y-16267424D01*
X11945466Y-16448376D02*
X11954989Y-16457900D01*
X11954989Y-16457900D02*
X11945466Y-16467424D01*
X11945466Y-16467424D02*
X11935942Y-16457900D01*
X11935942Y-16457900D02*
X11945466Y-16448376D01*
X11945466Y-16448376D02*
X11945466Y-16467424D01*
X12078799Y-16267424D02*
X12097847Y-16267424D01*
X12097847Y-16267424D02*
X12116894Y-16276948D01*
X12116894Y-16276948D02*
X12126418Y-16286471D01*
X12126418Y-16286471D02*
X12135942Y-16305519D01*
X12135942Y-16305519D02*
X12145466Y-16343614D01*
X12145466Y-16343614D02*
X12145466Y-16391233D01*
X12145466Y-16391233D02*
X12135942Y-16429328D01*
X12135942Y-16429328D02*
X12126418Y-16448376D01*
X12126418Y-16448376D02*
X12116894Y-16457900D01*
X12116894Y-16457900D02*
X12097847Y-16467424D01*
X12097847Y-16467424D02*
X12078799Y-16467424D01*
X12078799Y-16467424D02*
X12059751Y-16457900D01*
X12059751Y-16457900D02*
X12050227Y-16448376D01*
X12050227Y-16448376D02*
X12040704Y-16429328D01*
X12040704Y-16429328D02*
X12031180Y-16391233D01*
X12031180Y-16391233D02*
X12031180Y-16343614D01*
X12031180Y-16343614D02*
X12040704Y-16305519D01*
X12040704Y-16305519D02*
X12050227Y-16286471D01*
X12050227Y-16286471D02*
X12059751Y-16276948D01*
X12059751Y-16276948D02*
X12078799Y-16267424D01*
X12221656Y-16286471D02*
X12231180Y-16276948D01*
X12231180Y-16276948D02*
X12250227Y-16267424D01*
X12250227Y-16267424D02*
X12297847Y-16267424D01*
X12297847Y-16267424D02*
X12316894Y-16276948D01*
X12316894Y-16276948D02*
X12326418Y-16286471D01*
X12326418Y-16286471D02*
X12335942Y-16305519D01*
X12335942Y-16305519D02*
X12335942Y-16324567D01*
X12335942Y-16324567D02*
X12326418Y-16353138D01*
X12326418Y-16353138D02*
X12212132Y-16467424D01*
X12212132Y-16467424D02*
X12335942Y-16467424D01*
X12526418Y-16467424D02*
X12412132Y-16467424D01*
X12469275Y-16467424D02*
X12469275Y-16267424D01*
X12469275Y-16267424D02*
X12450227Y-16295995D01*
X12450227Y-16295995D02*
X12431180Y-16315043D01*
X12431180Y-16315043D02*
X12412132Y-16324567D01*
X12593085Y-16267424D02*
X12726418Y-16267424D01*
X12726418Y-16267424D02*
X12640704Y-16467424D01*
X12793085Y-16267424D02*
X12793085Y-16305519D01*
X12869275Y-16267424D02*
X12869275Y-16305519D01*
X13164513Y-16543614D02*
X13154989Y-16534090D01*
X13154989Y-16534090D02*
X13135942Y-16505519D01*
X13135942Y-16505519D02*
X13126418Y-16486471D01*
X13126418Y-16486471D02*
X13116894Y-16457900D01*
X13116894Y-16457900D02*
X13107370Y-16410281D01*
X13107370Y-16410281D02*
X13107370Y-16372186D01*
X13107370Y-16372186D02*
X13116894Y-16324567D01*
X13116894Y-16324567D02*
X13126418Y-16295995D01*
X13126418Y-16295995D02*
X13135942Y-16276948D01*
X13135942Y-16276948D02*
X13154989Y-16248376D01*
X13154989Y-16248376D02*
X13164513Y-16238852D01*
X13345466Y-16467424D02*
X13231180Y-16467424D01*
X13288323Y-16467424D02*
X13288323Y-16267424D01*
X13288323Y-16267424D02*
X13269275Y-16295995D01*
X13269275Y-16295995D02*
X13250228Y-16315043D01*
X13250228Y-16315043D02*
X13231180Y-16324567D01*
X13421656Y-16286471D02*
X13431180Y-16276948D01*
X13431180Y-16276948D02*
X13450228Y-16267424D01*
X13450228Y-16267424D02*
X13497847Y-16267424D01*
X13497847Y-16267424D02*
X13516894Y-16276948D01*
X13516894Y-16276948D02*
X13526418Y-16286471D01*
X13526418Y-16286471D02*
X13535942Y-16305519D01*
X13535942Y-16305519D02*
X13535942Y-16324567D01*
X13535942Y-16324567D02*
X13526418Y-16353138D01*
X13526418Y-16353138D02*
X13412132Y-16467424D01*
X13412132Y-16467424D02*
X13535942Y-16467424D01*
X13774037Y-16467424D02*
X13774037Y-16267424D01*
X13859751Y-16467424D02*
X13859751Y-16362662D01*
X13859751Y-16362662D02*
X13850228Y-16343614D01*
X13850228Y-16343614D02*
X13831180Y-16334090D01*
X13831180Y-16334090D02*
X13802609Y-16334090D01*
X13802609Y-16334090D02*
X13783561Y-16343614D01*
X13783561Y-16343614D02*
X13774037Y-16353138D01*
X13983561Y-16467424D02*
X13964513Y-16457900D01*
X13964513Y-16457900D02*
X13954990Y-16448376D01*
X13954990Y-16448376D02*
X13945466Y-16429328D01*
X13945466Y-16429328D02*
X13945466Y-16372186D01*
X13945466Y-16372186D02*
X13954990Y-16353138D01*
X13954990Y-16353138D02*
X13964513Y-16343614D01*
X13964513Y-16343614D02*
X13983561Y-16334090D01*
X13983561Y-16334090D02*
X14012132Y-16334090D01*
X14012132Y-16334090D02*
X14031180Y-16343614D01*
X14031180Y-16343614D02*
X14040704Y-16353138D01*
X14040704Y-16353138D02*
X14050228Y-16372186D01*
X14050228Y-16372186D02*
X14050228Y-16429328D01*
X14050228Y-16429328D02*
X14040704Y-16448376D01*
X14040704Y-16448376D02*
X14031180Y-16457900D01*
X14031180Y-16457900D02*
X14012132Y-16467424D01*
X14012132Y-16467424D02*
X13983561Y-16467424D01*
X14164513Y-16467424D02*
X14145466Y-16457900D01*
X14145466Y-16457900D02*
X14135942Y-16438852D01*
X14135942Y-16438852D02*
X14135942Y-16267424D01*
X14316894Y-16457900D02*
X14297847Y-16467424D01*
X14297847Y-16467424D02*
X14259751Y-16467424D01*
X14259751Y-16467424D02*
X14240704Y-16457900D01*
X14240704Y-16457900D02*
X14231180Y-16438852D01*
X14231180Y-16438852D02*
X14231180Y-16362662D01*
X14231180Y-16362662D02*
X14240704Y-16343614D01*
X14240704Y-16343614D02*
X14259751Y-16334090D01*
X14259751Y-16334090D02*
X14297847Y-16334090D01*
X14297847Y-16334090D02*
X14316894Y-16343614D01*
X14316894Y-16343614D02*
X14326418Y-16362662D01*
X14326418Y-16362662D02*
X14326418Y-16381709D01*
X14326418Y-16381709D02*
X14231180Y-16400757D01*
X14402609Y-16457900D02*
X14421656Y-16467424D01*
X14421656Y-16467424D02*
X14459751Y-16467424D01*
X14459751Y-16467424D02*
X14478799Y-16457900D01*
X14478799Y-16457900D02*
X14488323Y-16438852D01*
X14488323Y-16438852D02*
X14488323Y-16429328D01*
X14488323Y-16429328D02*
X14478799Y-16410281D01*
X14478799Y-16410281D02*
X14459751Y-16400757D01*
X14459751Y-16400757D02*
X14431180Y-16400757D01*
X14431180Y-16400757D02*
X14412132Y-16391233D01*
X14412132Y-16391233D02*
X14402609Y-16372186D01*
X14402609Y-16372186D02*
X14402609Y-16362662D01*
X14402609Y-16362662D02*
X14412132Y-16343614D01*
X14412132Y-16343614D02*
X14431180Y-16334090D01*
X14431180Y-16334090D02*
X14459751Y-16334090D01*
X14459751Y-16334090D02*
X14478799Y-16343614D01*
X14554990Y-16543614D02*
X14564513Y-16534090D01*
X14564513Y-16534090D02*
X14583561Y-16505519D01*
X14583561Y-16505519D02*
X14593085Y-16486471D01*
X14593085Y-16486471D02*
X14602609Y-16457900D01*
X14602609Y-16457900D02*
X14612132Y-16410281D01*
X14612132Y-16410281D02*
X14612132Y-16372186D01*
X14612132Y-16372186D02*
X14602609Y-16324567D01*
X14602609Y-16324567D02*
X14593085Y-16295995D01*
X14593085Y-16295995D02*
X14583561Y-16276948D01*
X14583561Y-16276948D02*
X14564513Y-16248376D01*
X14564513Y-16248376D02*
X14554990Y-16238852D01*
D15*
X9593822Y-16660113D02*
X9593822Y-16617687D01*
X9551395Y-16617687D01*
X9551395Y-16660113D01*
X9593822Y-16660113D01*
D10*
X9888323Y-16531424D02*
X9907370Y-16531424D01*
X9907370Y-16531424D02*
X9926418Y-16540948D01*
X9926418Y-16540948D02*
X9935942Y-16550471D01*
X9935942Y-16550471D02*
X9945465Y-16569519D01*
X9945465Y-16569519D02*
X9954989Y-16607614D01*
X9954989Y-16607614D02*
X9954989Y-16655233D01*
X9954989Y-16655233D02*
X9945465Y-16693328D01*
X9945465Y-16693328D02*
X9935942Y-16712376D01*
X9935942Y-16712376D02*
X9926418Y-16721900D01*
X9926418Y-16721900D02*
X9907370Y-16731424D01*
X9907370Y-16731424D02*
X9888323Y-16731424D01*
X9888323Y-16731424D02*
X9869275Y-16721900D01*
X9869275Y-16721900D02*
X9859751Y-16712376D01*
X9859751Y-16712376D02*
X9850227Y-16693328D01*
X9850227Y-16693328D02*
X9840704Y-16655233D01*
X9840704Y-16655233D02*
X9840704Y-16607614D01*
X9840704Y-16607614D02*
X9850227Y-16569519D01*
X9850227Y-16569519D02*
X9859751Y-16550471D01*
X9859751Y-16550471D02*
X9869275Y-16540948D01*
X9869275Y-16540948D02*
X9888323Y-16531424D01*
X10040704Y-16712376D02*
X10050227Y-16721900D01*
X10050227Y-16721900D02*
X10040704Y-16731424D01*
X10040704Y-16731424D02*
X10031180Y-16721900D01*
X10031180Y-16721900D02*
X10040704Y-16712376D01*
X10040704Y-16712376D02*
X10040704Y-16731424D01*
X10221656Y-16531424D02*
X10183561Y-16531424D01*
X10183561Y-16531424D02*
X10164513Y-16540948D01*
X10164513Y-16540948D02*
X10154989Y-16550471D01*
X10154989Y-16550471D02*
X10135942Y-16579043D01*
X10135942Y-16579043D02*
X10126418Y-16617138D01*
X10126418Y-16617138D02*
X10126418Y-16693328D01*
X10126418Y-16693328D02*
X10135942Y-16712376D01*
X10135942Y-16712376D02*
X10145465Y-16721900D01*
X10145465Y-16721900D02*
X10164513Y-16731424D01*
X10164513Y-16731424D02*
X10202608Y-16731424D01*
X10202608Y-16731424D02*
X10221656Y-16721900D01*
X10221656Y-16721900D02*
X10231180Y-16712376D01*
X10231180Y-16712376D02*
X10240704Y-16693328D01*
X10240704Y-16693328D02*
X10240704Y-16645709D01*
X10240704Y-16645709D02*
X10231180Y-16626662D01*
X10231180Y-16626662D02*
X10221656Y-16617138D01*
X10221656Y-16617138D02*
X10202608Y-16607614D01*
X10202608Y-16607614D02*
X10164513Y-16607614D01*
X10164513Y-16607614D02*
X10145465Y-16617138D01*
X10145465Y-16617138D02*
X10135942Y-16626662D01*
X10135942Y-16626662D02*
X10126418Y-16645709D01*
X10364513Y-16531424D02*
X10383561Y-16531424D01*
X10383561Y-16531424D02*
X10402608Y-16540948D01*
X10402608Y-16540948D02*
X10412132Y-16550471D01*
X10412132Y-16550471D02*
X10421656Y-16569519D01*
X10421656Y-16569519D02*
X10431180Y-16607614D01*
X10431180Y-16607614D02*
X10431180Y-16655233D01*
X10431180Y-16655233D02*
X10421656Y-16693328D01*
X10421656Y-16693328D02*
X10412132Y-16712376D01*
X10412132Y-16712376D02*
X10402608Y-16721900D01*
X10402608Y-16721900D02*
X10383561Y-16731424D01*
X10383561Y-16731424D02*
X10364513Y-16731424D01*
X10364513Y-16731424D02*
X10345465Y-16721900D01*
X10345465Y-16721900D02*
X10335942Y-16712376D01*
X10335942Y-16712376D02*
X10326418Y-16693328D01*
X10326418Y-16693328D02*
X10316894Y-16655233D01*
X10316894Y-16655233D02*
X10316894Y-16607614D01*
X10316894Y-16607614D02*
X10326418Y-16569519D01*
X10326418Y-16569519D02*
X10335942Y-16550471D01*
X10335942Y-16550471D02*
X10345465Y-16540948D01*
X10345465Y-16540948D02*
X10364513Y-16531424D01*
X10554989Y-16531424D02*
X10574037Y-16531424D01*
X10574037Y-16531424D02*
X10593085Y-16540948D01*
X10593085Y-16540948D02*
X10602608Y-16550471D01*
X10602608Y-16550471D02*
X10612132Y-16569519D01*
X10612132Y-16569519D02*
X10621656Y-16607614D01*
X10621656Y-16607614D02*
X10621656Y-16655233D01*
X10621656Y-16655233D02*
X10612132Y-16693328D01*
X10612132Y-16693328D02*
X10602608Y-16712376D01*
X10602608Y-16712376D02*
X10593085Y-16721900D01*
X10593085Y-16721900D02*
X10574037Y-16731424D01*
X10574037Y-16731424D02*
X10554989Y-16731424D01*
X10554989Y-16731424D02*
X10535942Y-16721900D01*
X10535942Y-16721900D02*
X10526418Y-16712376D01*
X10526418Y-16712376D02*
X10516894Y-16693328D01*
X10516894Y-16693328D02*
X10507370Y-16655233D01*
X10507370Y-16655233D02*
X10507370Y-16607614D01*
X10507370Y-16607614D02*
X10516894Y-16569519D01*
X10516894Y-16569519D02*
X10526418Y-16550471D01*
X10526418Y-16550471D02*
X10535942Y-16540948D01*
X10535942Y-16540948D02*
X10554989Y-16531424D01*
X10707370Y-16731424D02*
X10707370Y-16598090D01*
X10707370Y-16617138D02*
X10716894Y-16607614D01*
X10716894Y-16607614D02*
X10735942Y-16598090D01*
X10735942Y-16598090D02*
X10764513Y-16598090D01*
X10764513Y-16598090D02*
X10783561Y-16607614D01*
X10783561Y-16607614D02*
X10793085Y-16626662D01*
X10793085Y-16626662D02*
X10793085Y-16731424D01*
X10793085Y-16626662D02*
X10802608Y-16607614D01*
X10802608Y-16607614D02*
X10821656Y-16598090D01*
X10821656Y-16598090D02*
X10850227Y-16598090D01*
X10850227Y-16598090D02*
X10869275Y-16607614D01*
X10869275Y-16607614D02*
X10878799Y-16626662D01*
X10878799Y-16626662D02*
X10878799Y-16731424D01*
X10974037Y-16731424D02*
X10974037Y-16598090D01*
X10974037Y-16617138D02*
X10983561Y-16607614D01*
X10983561Y-16607614D02*
X11002608Y-16598090D01*
X11002608Y-16598090D02*
X11031180Y-16598090D01*
X11031180Y-16598090D02*
X11050227Y-16607614D01*
X11050227Y-16607614D02*
X11059751Y-16626662D01*
X11059751Y-16626662D02*
X11059751Y-16731424D01*
X11059751Y-16626662D02*
X11069275Y-16607614D01*
X11069275Y-16607614D02*
X11088323Y-16598090D01*
X11088323Y-16598090D02*
X11116894Y-16598090D01*
X11116894Y-16598090D02*
X11135942Y-16607614D01*
X11135942Y-16607614D02*
X11145466Y-16626662D01*
X11145466Y-16626662D02*
X11145466Y-16731424D01*
X11535942Y-16521900D02*
X11364513Y-16779043D01*
X11793085Y-16531424D02*
X11812132Y-16531424D01*
X11812132Y-16531424D02*
X11831180Y-16540948D01*
X11831180Y-16540948D02*
X11840704Y-16550471D01*
X11840704Y-16550471D02*
X11850227Y-16569519D01*
X11850227Y-16569519D02*
X11859751Y-16607614D01*
X11859751Y-16607614D02*
X11859751Y-16655233D01*
X11859751Y-16655233D02*
X11850227Y-16693328D01*
X11850227Y-16693328D02*
X11840704Y-16712376D01*
X11840704Y-16712376D02*
X11831180Y-16721900D01*
X11831180Y-16721900D02*
X11812132Y-16731424D01*
X11812132Y-16731424D02*
X11793085Y-16731424D01*
X11793085Y-16731424D02*
X11774037Y-16721900D01*
X11774037Y-16721900D02*
X11764513Y-16712376D01*
X11764513Y-16712376D02*
X11754989Y-16693328D01*
X11754989Y-16693328D02*
X11745466Y-16655233D01*
X11745466Y-16655233D02*
X11745466Y-16607614D01*
X11745466Y-16607614D02*
X11754989Y-16569519D01*
X11754989Y-16569519D02*
X11764513Y-16550471D01*
X11764513Y-16550471D02*
X11774037Y-16540948D01*
X11774037Y-16540948D02*
X11793085Y-16531424D01*
X11945466Y-16712376D02*
X11954989Y-16721900D01*
X11954989Y-16721900D02*
X11945466Y-16731424D01*
X11945466Y-16731424D02*
X11935942Y-16721900D01*
X11935942Y-16721900D02*
X11945466Y-16712376D01*
X11945466Y-16712376D02*
X11945466Y-16731424D01*
X12078799Y-16531424D02*
X12097847Y-16531424D01*
X12097847Y-16531424D02*
X12116894Y-16540948D01*
X12116894Y-16540948D02*
X12126418Y-16550471D01*
X12126418Y-16550471D02*
X12135942Y-16569519D01*
X12135942Y-16569519D02*
X12145466Y-16607614D01*
X12145466Y-16607614D02*
X12145466Y-16655233D01*
X12145466Y-16655233D02*
X12135942Y-16693328D01*
X12135942Y-16693328D02*
X12126418Y-16712376D01*
X12126418Y-16712376D02*
X12116894Y-16721900D01*
X12116894Y-16721900D02*
X12097847Y-16731424D01*
X12097847Y-16731424D02*
X12078799Y-16731424D01*
X12078799Y-16731424D02*
X12059751Y-16721900D01*
X12059751Y-16721900D02*
X12050227Y-16712376D01*
X12050227Y-16712376D02*
X12040704Y-16693328D01*
X12040704Y-16693328D02*
X12031180Y-16655233D01*
X12031180Y-16655233D02*
X12031180Y-16607614D01*
X12031180Y-16607614D02*
X12040704Y-16569519D01*
X12040704Y-16569519D02*
X12050227Y-16550471D01*
X12050227Y-16550471D02*
X12059751Y-16540948D01*
X12059751Y-16540948D02*
X12078799Y-16531424D01*
X12221656Y-16550471D02*
X12231180Y-16540948D01*
X12231180Y-16540948D02*
X12250227Y-16531424D01*
X12250227Y-16531424D02*
X12297847Y-16531424D01*
X12297847Y-16531424D02*
X12316894Y-16540948D01*
X12316894Y-16540948D02*
X12326418Y-16550471D01*
X12326418Y-16550471D02*
X12335942Y-16569519D01*
X12335942Y-16569519D02*
X12335942Y-16588567D01*
X12335942Y-16588567D02*
X12326418Y-16617138D01*
X12326418Y-16617138D02*
X12212132Y-16731424D01*
X12212132Y-16731424D02*
X12335942Y-16731424D01*
X12402608Y-16531424D02*
X12526418Y-16531424D01*
X12526418Y-16531424D02*
X12459751Y-16607614D01*
X12459751Y-16607614D02*
X12488323Y-16607614D01*
X12488323Y-16607614D02*
X12507370Y-16617138D01*
X12507370Y-16617138D02*
X12516894Y-16626662D01*
X12516894Y-16626662D02*
X12526418Y-16645709D01*
X12526418Y-16645709D02*
X12526418Y-16693328D01*
X12526418Y-16693328D02*
X12516894Y-16712376D01*
X12516894Y-16712376D02*
X12507370Y-16721900D01*
X12507370Y-16721900D02*
X12488323Y-16731424D01*
X12488323Y-16731424D02*
X12431180Y-16731424D01*
X12431180Y-16731424D02*
X12412132Y-16721900D01*
X12412132Y-16721900D02*
X12402608Y-16712376D01*
X12697847Y-16531424D02*
X12659751Y-16531424D01*
X12659751Y-16531424D02*
X12640704Y-16540948D01*
X12640704Y-16540948D02*
X12631180Y-16550471D01*
X12631180Y-16550471D02*
X12612132Y-16579043D01*
X12612132Y-16579043D02*
X12602608Y-16617138D01*
X12602608Y-16617138D02*
X12602608Y-16693328D01*
X12602608Y-16693328D02*
X12612132Y-16712376D01*
X12612132Y-16712376D02*
X12621656Y-16721900D01*
X12621656Y-16721900D02*
X12640704Y-16731424D01*
X12640704Y-16731424D02*
X12678799Y-16731424D01*
X12678799Y-16731424D02*
X12697847Y-16721900D01*
X12697847Y-16721900D02*
X12707370Y-16712376D01*
X12707370Y-16712376D02*
X12716894Y-16693328D01*
X12716894Y-16693328D02*
X12716894Y-16645709D01*
X12716894Y-16645709D02*
X12707370Y-16626662D01*
X12707370Y-16626662D02*
X12697847Y-16617138D01*
X12697847Y-16617138D02*
X12678799Y-16607614D01*
X12678799Y-16607614D02*
X12640704Y-16607614D01*
X12640704Y-16607614D02*
X12621656Y-16617138D01*
X12621656Y-16617138D02*
X12612132Y-16626662D01*
X12612132Y-16626662D02*
X12602608Y-16645709D01*
X12793085Y-16531424D02*
X12793085Y-16569519D01*
X12869275Y-16531424D02*
X12869275Y-16569519D01*
X13164513Y-16807614D02*
X13154989Y-16798090D01*
X13154989Y-16798090D02*
X13135942Y-16769519D01*
X13135942Y-16769519D02*
X13126418Y-16750471D01*
X13126418Y-16750471D02*
X13116894Y-16721900D01*
X13116894Y-16721900D02*
X13107370Y-16674281D01*
X13107370Y-16674281D02*
X13107370Y-16636186D01*
X13107370Y-16636186D02*
X13116894Y-16588567D01*
X13116894Y-16588567D02*
X13126418Y-16559995D01*
X13126418Y-16559995D02*
X13135942Y-16540948D01*
X13135942Y-16540948D02*
X13154989Y-16512376D01*
X13154989Y-16512376D02*
X13164513Y-16502852D01*
X13278799Y-16531424D02*
X13297847Y-16531424D01*
X13297847Y-16531424D02*
X13316894Y-16540948D01*
X13316894Y-16540948D02*
X13326418Y-16550471D01*
X13326418Y-16550471D02*
X13335942Y-16569519D01*
X13335942Y-16569519D02*
X13345466Y-16607614D01*
X13345466Y-16607614D02*
X13345466Y-16655233D01*
X13345466Y-16655233D02*
X13335942Y-16693328D01*
X13335942Y-16693328D02*
X13326418Y-16712376D01*
X13326418Y-16712376D02*
X13316894Y-16721900D01*
X13316894Y-16721900D02*
X13297847Y-16731424D01*
X13297847Y-16731424D02*
X13278799Y-16731424D01*
X13278799Y-16731424D02*
X13259751Y-16721900D01*
X13259751Y-16721900D02*
X13250228Y-16712376D01*
X13250228Y-16712376D02*
X13240704Y-16693328D01*
X13240704Y-16693328D02*
X13231180Y-16655233D01*
X13231180Y-16655233D02*
X13231180Y-16607614D01*
X13231180Y-16607614D02*
X13240704Y-16569519D01*
X13240704Y-16569519D02*
X13250228Y-16550471D01*
X13250228Y-16550471D02*
X13259751Y-16540948D01*
X13259751Y-16540948D02*
X13278799Y-16531424D01*
X13583561Y-16731424D02*
X13583561Y-16531424D01*
X13669275Y-16731424D02*
X13669275Y-16626662D01*
X13669275Y-16626662D02*
X13659751Y-16607614D01*
X13659751Y-16607614D02*
X13640704Y-16598090D01*
X13640704Y-16598090D02*
X13612132Y-16598090D01*
X13612132Y-16598090D02*
X13593085Y-16607614D01*
X13593085Y-16607614D02*
X13583561Y-16617138D01*
X13793085Y-16731424D02*
X13774037Y-16721900D01*
X13774037Y-16721900D02*
X13764513Y-16712376D01*
X13764513Y-16712376D02*
X13754990Y-16693328D01*
X13754990Y-16693328D02*
X13754990Y-16636186D01*
X13754990Y-16636186D02*
X13764513Y-16617138D01*
X13764513Y-16617138D02*
X13774037Y-16607614D01*
X13774037Y-16607614D02*
X13793085Y-16598090D01*
X13793085Y-16598090D02*
X13821656Y-16598090D01*
X13821656Y-16598090D02*
X13840704Y-16607614D01*
X13840704Y-16607614D02*
X13850228Y-16617138D01*
X13850228Y-16617138D02*
X13859751Y-16636186D01*
X13859751Y-16636186D02*
X13859751Y-16693328D01*
X13859751Y-16693328D02*
X13850228Y-16712376D01*
X13850228Y-16712376D02*
X13840704Y-16721900D01*
X13840704Y-16721900D02*
X13821656Y-16731424D01*
X13821656Y-16731424D02*
X13793085Y-16731424D01*
X13974037Y-16731424D02*
X13954990Y-16721900D01*
X13954990Y-16721900D02*
X13945466Y-16702852D01*
X13945466Y-16702852D02*
X13945466Y-16531424D01*
X14126418Y-16721900D02*
X14107371Y-16731424D01*
X14107371Y-16731424D02*
X14069275Y-16731424D01*
X14069275Y-16731424D02*
X14050228Y-16721900D01*
X14050228Y-16721900D02*
X14040704Y-16702852D01*
X14040704Y-16702852D02*
X14040704Y-16626662D01*
X14040704Y-16626662D02*
X14050228Y-16607614D01*
X14050228Y-16607614D02*
X14069275Y-16598090D01*
X14069275Y-16598090D02*
X14107371Y-16598090D01*
X14107371Y-16598090D02*
X14126418Y-16607614D01*
X14126418Y-16607614D02*
X14135942Y-16626662D01*
X14135942Y-16626662D02*
X14135942Y-16645709D01*
X14135942Y-16645709D02*
X14040704Y-16664757D01*
X14212132Y-16721900D02*
X14231180Y-16731424D01*
X14231180Y-16731424D02*
X14269275Y-16731424D01*
X14269275Y-16731424D02*
X14288323Y-16721900D01*
X14288323Y-16721900D02*
X14297847Y-16702852D01*
X14297847Y-16702852D02*
X14297847Y-16693328D01*
X14297847Y-16693328D02*
X14288323Y-16674281D01*
X14288323Y-16674281D02*
X14269275Y-16664757D01*
X14269275Y-16664757D02*
X14240704Y-16664757D01*
X14240704Y-16664757D02*
X14221656Y-16655233D01*
X14221656Y-16655233D02*
X14212132Y-16636186D01*
X14212132Y-16636186D02*
X14212132Y-16626662D01*
X14212132Y-16626662D02*
X14221656Y-16607614D01*
X14221656Y-16607614D02*
X14240704Y-16598090D01*
X14240704Y-16598090D02*
X14269275Y-16598090D01*
X14269275Y-16598090D02*
X14288323Y-16607614D01*
X14535942Y-16655233D02*
X14688323Y-16655233D01*
X14612133Y-16731424D02*
X14612133Y-16579043D01*
X14926418Y-16550471D02*
X14935942Y-16540948D01*
X14935942Y-16540948D02*
X14954990Y-16531424D01*
X14954990Y-16531424D02*
X15002609Y-16531424D01*
X15002609Y-16531424D02*
X15021656Y-16540948D01*
X15021656Y-16540948D02*
X15031180Y-16550471D01*
X15031180Y-16550471D02*
X15040704Y-16569519D01*
X15040704Y-16569519D02*
X15040704Y-16588567D01*
X15040704Y-16588567D02*
X15031180Y-16617138D01*
X15031180Y-16617138D02*
X14916894Y-16731424D01*
X14916894Y-16731424D02*
X15040704Y-16731424D01*
X15269275Y-16721900D02*
X15288323Y-16731424D01*
X15288323Y-16731424D02*
X15326418Y-16731424D01*
X15326418Y-16731424D02*
X15345466Y-16721900D01*
X15345466Y-16721900D02*
X15354990Y-16702852D01*
X15354990Y-16702852D02*
X15354990Y-16693328D01*
X15354990Y-16693328D02*
X15345466Y-16674281D01*
X15345466Y-16674281D02*
X15326418Y-16664757D01*
X15326418Y-16664757D02*
X15297847Y-16664757D01*
X15297847Y-16664757D02*
X15278799Y-16655233D01*
X15278799Y-16655233D02*
X15269275Y-16636186D01*
X15269275Y-16636186D02*
X15269275Y-16626662D01*
X15269275Y-16626662D02*
X15278799Y-16607614D01*
X15278799Y-16607614D02*
X15297847Y-16598090D01*
X15297847Y-16598090D02*
X15326418Y-16598090D01*
X15326418Y-16598090D02*
X15345466Y-16607614D01*
X15469275Y-16731424D02*
X15450228Y-16721900D01*
X15450228Y-16721900D02*
X15440704Y-16702852D01*
X15440704Y-16702852D02*
X15440704Y-16531424D01*
X15574037Y-16731424D02*
X15554990Y-16721900D01*
X15554990Y-16721900D02*
X15545466Y-16712376D01*
X15545466Y-16712376D02*
X15535942Y-16693328D01*
X15535942Y-16693328D02*
X15535942Y-16636186D01*
X15535942Y-16636186D02*
X15545466Y-16617138D01*
X15545466Y-16617138D02*
X15554990Y-16607614D01*
X15554990Y-16607614D02*
X15574037Y-16598090D01*
X15574037Y-16598090D02*
X15602609Y-16598090D01*
X15602609Y-16598090D02*
X15621656Y-16607614D01*
X15621656Y-16607614D02*
X15631180Y-16617138D01*
X15631180Y-16617138D02*
X15640704Y-16636186D01*
X15640704Y-16636186D02*
X15640704Y-16693328D01*
X15640704Y-16693328D02*
X15631180Y-16712376D01*
X15631180Y-16712376D02*
X15621656Y-16721900D01*
X15621656Y-16721900D02*
X15602609Y-16731424D01*
X15602609Y-16731424D02*
X15574037Y-16731424D01*
X15697847Y-16598090D02*
X15774037Y-16598090D01*
X15726418Y-16531424D02*
X15726418Y-16702852D01*
X15726418Y-16702852D02*
X15735942Y-16721900D01*
X15735942Y-16721900D02*
X15754990Y-16731424D01*
X15754990Y-16731424D02*
X15774037Y-16731424D01*
X15831180Y-16721900D02*
X15850228Y-16731424D01*
X15850228Y-16731424D02*
X15888323Y-16731424D01*
X15888323Y-16731424D02*
X15907371Y-16721900D01*
X15907371Y-16721900D02*
X15916895Y-16702852D01*
X15916895Y-16702852D02*
X15916895Y-16693328D01*
X15916895Y-16693328D02*
X15907371Y-16674281D01*
X15907371Y-16674281D02*
X15888323Y-16664757D01*
X15888323Y-16664757D02*
X15859752Y-16664757D01*
X15859752Y-16664757D02*
X15840704Y-16655233D01*
X15840704Y-16655233D02*
X15831180Y-16636186D01*
X15831180Y-16636186D02*
X15831180Y-16626662D01*
X15831180Y-16626662D02*
X15840704Y-16607614D01*
X15840704Y-16607614D02*
X15859752Y-16598090D01*
X15859752Y-16598090D02*
X15888323Y-16598090D01*
X15888323Y-16598090D02*
X15907371Y-16607614D01*
X15983561Y-16807614D02*
X15993085Y-16798090D01*
X15993085Y-16798090D02*
X16012133Y-16769519D01*
X16012133Y-16769519D02*
X16021656Y-16750471D01*
X16021656Y-16750471D02*
X16031180Y-16721900D01*
X16031180Y-16721900D02*
X16040704Y-16674281D01*
X16040704Y-16674281D02*
X16040704Y-16636186D01*
X16040704Y-16636186D02*
X16031180Y-16588567D01*
X16031180Y-16588567D02*
X16021656Y-16559995D01*
X16021656Y-16559995D02*
X16012133Y-16540948D01*
X16012133Y-16540948D02*
X15993085Y-16512376D01*
X15993085Y-16512376D02*
X15983561Y-16502852D01*
D16*
X9557608Y-16947900D02*
X9602608Y-16902900D01*
X9557608Y-16857900D01*
X9512608Y-16902900D01*
X9557608Y-16947900D01*
D10*
X9888323Y-16795424D02*
X9907370Y-16795424D01*
X9907370Y-16795424D02*
X9926418Y-16804948D01*
X9926418Y-16804948D02*
X9935942Y-16814471D01*
X9935942Y-16814471D02*
X9945465Y-16833519D01*
X9945465Y-16833519D02*
X9954989Y-16871614D01*
X9954989Y-16871614D02*
X9954989Y-16919233D01*
X9954989Y-16919233D02*
X9945465Y-16957329D01*
X9945465Y-16957329D02*
X9935942Y-16976376D01*
X9935942Y-16976376D02*
X9926418Y-16985900D01*
X9926418Y-16985900D02*
X9907370Y-16995424D01*
X9907370Y-16995424D02*
X9888323Y-16995424D01*
X9888323Y-16995424D02*
X9869275Y-16985900D01*
X9869275Y-16985900D02*
X9859751Y-16976376D01*
X9859751Y-16976376D02*
X9850227Y-16957329D01*
X9850227Y-16957329D02*
X9840704Y-16919233D01*
X9840704Y-16919233D02*
X9840704Y-16871614D01*
X9840704Y-16871614D02*
X9850227Y-16833519D01*
X9850227Y-16833519D02*
X9859751Y-16814471D01*
X9859751Y-16814471D02*
X9869275Y-16804948D01*
X9869275Y-16804948D02*
X9888323Y-16795424D01*
X10040704Y-16976376D02*
X10050227Y-16985900D01*
X10050227Y-16985900D02*
X10040704Y-16995424D01*
X10040704Y-16995424D02*
X10031180Y-16985900D01*
X10031180Y-16985900D02*
X10040704Y-16976376D01*
X10040704Y-16976376D02*
X10040704Y-16995424D01*
X10145465Y-16995424D02*
X10183561Y-16995424D01*
X10183561Y-16995424D02*
X10202608Y-16985900D01*
X10202608Y-16985900D02*
X10212132Y-16976376D01*
X10212132Y-16976376D02*
X10231180Y-16947805D01*
X10231180Y-16947805D02*
X10240704Y-16909710D01*
X10240704Y-16909710D02*
X10240704Y-16833519D01*
X10240704Y-16833519D02*
X10231180Y-16814471D01*
X10231180Y-16814471D02*
X10221656Y-16804948D01*
X10221656Y-16804948D02*
X10202608Y-16795424D01*
X10202608Y-16795424D02*
X10164513Y-16795424D01*
X10164513Y-16795424D02*
X10145465Y-16804948D01*
X10145465Y-16804948D02*
X10135942Y-16814471D01*
X10135942Y-16814471D02*
X10126418Y-16833519D01*
X10126418Y-16833519D02*
X10126418Y-16881138D01*
X10126418Y-16881138D02*
X10135942Y-16900186D01*
X10135942Y-16900186D02*
X10145465Y-16909710D01*
X10145465Y-16909710D02*
X10164513Y-16919233D01*
X10164513Y-16919233D02*
X10202608Y-16919233D01*
X10202608Y-16919233D02*
X10221656Y-16909710D01*
X10221656Y-16909710D02*
X10231180Y-16900186D01*
X10231180Y-16900186D02*
X10240704Y-16881138D01*
X10364513Y-16795424D02*
X10383561Y-16795424D01*
X10383561Y-16795424D02*
X10402608Y-16804948D01*
X10402608Y-16804948D02*
X10412132Y-16814471D01*
X10412132Y-16814471D02*
X10421656Y-16833519D01*
X10421656Y-16833519D02*
X10431180Y-16871614D01*
X10431180Y-16871614D02*
X10431180Y-16919233D01*
X10431180Y-16919233D02*
X10421656Y-16957329D01*
X10421656Y-16957329D02*
X10412132Y-16976376D01*
X10412132Y-16976376D02*
X10402608Y-16985900D01*
X10402608Y-16985900D02*
X10383561Y-16995424D01*
X10383561Y-16995424D02*
X10364513Y-16995424D01*
X10364513Y-16995424D02*
X10345465Y-16985900D01*
X10345465Y-16985900D02*
X10335942Y-16976376D01*
X10335942Y-16976376D02*
X10326418Y-16957329D01*
X10326418Y-16957329D02*
X10316894Y-16919233D01*
X10316894Y-16919233D02*
X10316894Y-16871614D01*
X10316894Y-16871614D02*
X10326418Y-16833519D01*
X10326418Y-16833519D02*
X10335942Y-16814471D01*
X10335942Y-16814471D02*
X10345465Y-16804948D01*
X10345465Y-16804948D02*
X10364513Y-16795424D01*
X10554989Y-16795424D02*
X10574037Y-16795424D01*
X10574037Y-16795424D02*
X10593085Y-16804948D01*
X10593085Y-16804948D02*
X10602608Y-16814471D01*
X10602608Y-16814471D02*
X10612132Y-16833519D01*
X10612132Y-16833519D02*
X10621656Y-16871614D01*
X10621656Y-16871614D02*
X10621656Y-16919233D01*
X10621656Y-16919233D02*
X10612132Y-16957329D01*
X10612132Y-16957329D02*
X10602608Y-16976376D01*
X10602608Y-16976376D02*
X10593085Y-16985900D01*
X10593085Y-16985900D02*
X10574037Y-16995424D01*
X10574037Y-16995424D02*
X10554989Y-16995424D01*
X10554989Y-16995424D02*
X10535942Y-16985900D01*
X10535942Y-16985900D02*
X10526418Y-16976376D01*
X10526418Y-16976376D02*
X10516894Y-16957329D01*
X10516894Y-16957329D02*
X10507370Y-16919233D01*
X10507370Y-16919233D02*
X10507370Y-16871614D01*
X10507370Y-16871614D02*
X10516894Y-16833519D01*
X10516894Y-16833519D02*
X10526418Y-16814471D01*
X10526418Y-16814471D02*
X10535942Y-16804948D01*
X10535942Y-16804948D02*
X10554989Y-16795424D01*
X10707370Y-16995424D02*
X10707370Y-16862090D01*
X10707370Y-16881138D02*
X10716894Y-16871614D01*
X10716894Y-16871614D02*
X10735942Y-16862090D01*
X10735942Y-16862090D02*
X10764513Y-16862090D01*
X10764513Y-16862090D02*
X10783561Y-16871614D01*
X10783561Y-16871614D02*
X10793085Y-16890662D01*
X10793085Y-16890662D02*
X10793085Y-16995424D01*
X10793085Y-16890662D02*
X10802608Y-16871614D01*
X10802608Y-16871614D02*
X10821656Y-16862090D01*
X10821656Y-16862090D02*
X10850227Y-16862090D01*
X10850227Y-16862090D02*
X10869275Y-16871614D01*
X10869275Y-16871614D02*
X10878799Y-16890662D01*
X10878799Y-16890662D02*
X10878799Y-16995424D01*
X10974037Y-16995424D02*
X10974037Y-16862090D01*
X10974037Y-16881138D02*
X10983561Y-16871614D01*
X10983561Y-16871614D02*
X11002608Y-16862090D01*
X11002608Y-16862090D02*
X11031180Y-16862090D01*
X11031180Y-16862090D02*
X11050227Y-16871614D01*
X11050227Y-16871614D02*
X11059751Y-16890662D01*
X11059751Y-16890662D02*
X11059751Y-16995424D01*
X11059751Y-16890662D02*
X11069275Y-16871614D01*
X11069275Y-16871614D02*
X11088323Y-16862090D01*
X11088323Y-16862090D02*
X11116894Y-16862090D01*
X11116894Y-16862090D02*
X11135942Y-16871614D01*
X11135942Y-16871614D02*
X11145466Y-16890662D01*
X11145466Y-16890662D02*
X11145466Y-16995424D01*
X11535942Y-16785900D02*
X11364513Y-17043043D01*
X11793085Y-16795424D02*
X11812132Y-16795424D01*
X11812132Y-16795424D02*
X11831180Y-16804948D01*
X11831180Y-16804948D02*
X11840704Y-16814471D01*
X11840704Y-16814471D02*
X11850227Y-16833519D01*
X11850227Y-16833519D02*
X11859751Y-16871614D01*
X11859751Y-16871614D02*
X11859751Y-16919233D01*
X11859751Y-16919233D02*
X11850227Y-16957329D01*
X11850227Y-16957329D02*
X11840704Y-16976376D01*
X11840704Y-16976376D02*
X11831180Y-16985900D01*
X11831180Y-16985900D02*
X11812132Y-16995424D01*
X11812132Y-16995424D02*
X11793085Y-16995424D01*
X11793085Y-16995424D02*
X11774037Y-16985900D01*
X11774037Y-16985900D02*
X11764513Y-16976376D01*
X11764513Y-16976376D02*
X11754989Y-16957329D01*
X11754989Y-16957329D02*
X11745466Y-16919233D01*
X11745466Y-16919233D02*
X11745466Y-16871614D01*
X11745466Y-16871614D02*
X11754989Y-16833519D01*
X11754989Y-16833519D02*
X11764513Y-16814471D01*
X11764513Y-16814471D02*
X11774037Y-16804948D01*
X11774037Y-16804948D02*
X11793085Y-16795424D01*
X11945466Y-16976376D02*
X11954989Y-16985900D01*
X11954989Y-16985900D02*
X11945466Y-16995424D01*
X11945466Y-16995424D02*
X11935942Y-16985900D01*
X11935942Y-16985900D02*
X11945466Y-16976376D01*
X11945466Y-16976376D02*
X11945466Y-16995424D01*
X12078799Y-16795424D02*
X12097847Y-16795424D01*
X12097847Y-16795424D02*
X12116894Y-16804948D01*
X12116894Y-16804948D02*
X12126418Y-16814471D01*
X12126418Y-16814471D02*
X12135942Y-16833519D01*
X12135942Y-16833519D02*
X12145466Y-16871614D01*
X12145466Y-16871614D02*
X12145466Y-16919233D01*
X12145466Y-16919233D02*
X12135942Y-16957329D01*
X12135942Y-16957329D02*
X12126418Y-16976376D01*
X12126418Y-16976376D02*
X12116894Y-16985900D01*
X12116894Y-16985900D02*
X12097847Y-16995424D01*
X12097847Y-16995424D02*
X12078799Y-16995424D01*
X12078799Y-16995424D02*
X12059751Y-16985900D01*
X12059751Y-16985900D02*
X12050227Y-16976376D01*
X12050227Y-16976376D02*
X12040704Y-16957329D01*
X12040704Y-16957329D02*
X12031180Y-16919233D01*
X12031180Y-16919233D02*
X12031180Y-16871614D01*
X12031180Y-16871614D02*
X12040704Y-16833519D01*
X12040704Y-16833519D02*
X12050227Y-16814471D01*
X12050227Y-16814471D02*
X12059751Y-16804948D01*
X12059751Y-16804948D02*
X12078799Y-16795424D01*
X12212132Y-16795424D02*
X12335942Y-16795424D01*
X12335942Y-16795424D02*
X12269275Y-16871614D01*
X12269275Y-16871614D02*
X12297847Y-16871614D01*
X12297847Y-16871614D02*
X12316894Y-16881138D01*
X12316894Y-16881138D02*
X12326418Y-16890662D01*
X12326418Y-16890662D02*
X12335942Y-16909710D01*
X12335942Y-16909710D02*
X12335942Y-16957329D01*
X12335942Y-16957329D02*
X12326418Y-16976376D01*
X12326418Y-16976376D02*
X12316894Y-16985900D01*
X12316894Y-16985900D02*
X12297847Y-16995424D01*
X12297847Y-16995424D02*
X12240704Y-16995424D01*
X12240704Y-16995424D02*
X12221656Y-16985900D01*
X12221656Y-16985900D02*
X12212132Y-16976376D01*
X12516894Y-16795424D02*
X12421656Y-16795424D01*
X12421656Y-16795424D02*
X12412132Y-16890662D01*
X12412132Y-16890662D02*
X12421656Y-16881138D01*
X12421656Y-16881138D02*
X12440704Y-16871614D01*
X12440704Y-16871614D02*
X12488323Y-16871614D01*
X12488323Y-16871614D02*
X12507370Y-16881138D01*
X12507370Y-16881138D02*
X12516894Y-16890662D01*
X12516894Y-16890662D02*
X12526418Y-16909710D01*
X12526418Y-16909710D02*
X12526418Y-16957329D01*
X12526418Y-16957329D02*
X12516894Y-16976376D01*
X12516894Y-16976376D02*
X12507370Y-16985900D01*
X12507370Y-16985900D02*
X12488323Y-16995424D01*
X12488323Y-16995424D02*
X12440704Y-16995424D01*
X12440704Y-16995424D02*
X12421656Y-16985900D01*
X12421656Y-16985900D02*
X12412132Y-16976376D01*
X12697847Y-16862090D02*
X12697847Y-16995424D01*
X12650227Y-16785900D02*
X12602608Y-16928757D01*
X12602608Y-16928757D02*
X12726418Y-16928757D01*
X12793085Y-16795424D02*
X12793085Y-16833519D01*
X12869275Y-16795424D02*
X12869275Y-16833519D01*
X13164513Y-17071614D02*
X13154989Y-17062090D01*
X13154989Y-17062090D02*
X13135942Y-17033519D01*
X13135942Y-17033519D02*
X13126418Y-17014471D01*
X13126418Y-17014471D02*
X13116894Y-16985900D01*
X13116894Y-16985900D02*
X13107370Y-16938281D01*
X13107370Y-16938281D02*
X13107370Y-16900186D01*
X13107370Y-16900186D02*
X13116894Y-16852567D01*
X13116894Y-16852567D02*
X13126418Y-16823995D01*
X13126418Y-16823995D02*
X13135942Y-16804948D01*
X13135942Y-16804948D02*
X13154989Y-16776376D01*
X13154989Y-16776376D02*
X13164513Y-16766852D01*
X13326418Y-16795424D02*
X13288323Y-16795424D01*
X13288323Y-16795424D02*
X13269275Y-16804948D01*
X13269275Y-16804948D02*
X13259751Y-16814471D01*
X13259751Y-16814471D02*
X13240704Y-16843043D01*
X13240704Y-16843043D02*
X13231180Y-16881138D01*
X13231180Y-16881138D02*
X13231180Y-16957329D01*
X13231180Y-16957329D02*
X13240704Y-16976376D01*
X13240704Y-16976376D02*
X13250228Y-16985900D01*
X13250228Y-16985900D02*
X13269275Y-16995424D01*
X13269275Y-16995424D02*
X13307370Y-16995424D01*
X13307370Y-16995424D02*
X13326418Y-16985900D01*
X13326418Y-16985900D02*
X13335942Y-16976376D01*
X13335942Y-16976376D02*
X13345466Y-16957329D01*
X13345466Y-16957329D02*
X13345466Y-16909710D01*
X13345466Y-16909710D02*
X13335942Y-16890662D01*
X13335942Y-16890662D02*
X13326418Y-16881138D01*
X13326418Y-16881138D02*
X13307370Y-16871614D01*
X13307370Y-16871614D02*
X13269275Y-16871614D01*
X13269275Y-16871614D02*
X13250228Y-16881138D01*
X13250228Y-16881138D02*
X13240704Y-16890662D01*
X13240704Y-16890662D02*
X13231180Y-16909710D01*
X13583561Y-16995424D02*
X13583561Y-16795424D01*
X13669275Y-16995424D02*
X13669275Y-16890662D01*
X13669275Y-16890662D02*
X13659751Y-16871614D01*
X13659751Y-16871614D02*
X13640704Y-16862090D01*
X13640704Y-16862090D02*
X13612132Y-16862090D01*
X13612132Y-16862090D02*
X13593085Y-16871614D01*
X13593085Y-16871614D02*
X13583561Y-16881138D01*
X13793085Y-16995424D02*
X13774037Y-16985900D01*
X13774037Y-16985900D02*
X13764513Y-16976376D01*
X13764513Y-16976376D02*
X13754990Y-16957329D01*
X13754990Y-16957329D02*
X13754990Y-16900186D01*
X13754990Y-16900186D02*
X13764513Y-16881138D01*
X13764513Y-16881138D02*
X13774037Y-16871614D01*
X13774037Y-16871614D02*
X13793085Y-16862090D01*
X13793085Y-16862090D02*
X13821656Y-16862090D01*
X13821656Y-16862090D02*
X13840704Y-16871614D01*
X13840704Y-16871614D02*
X13850228Y-16881138D01*
X13850228Y-16881138D02*
X13859751Y-16900186D01*
X13859751Y-16900186D02*
X13859751Y-16957329D01*
X13859751Y-16957329D02*
X13850228Y-16976376D01*
X13850228Y-16976376D02*
X13840704Y-16985900D01*
X13840704Y-16985900D02*
X13821656Y-16995424D01*
X13821656Y-16995424D02*
X13793085Y-16995424D01*
X13974037Y-16995424D02*
X13954990Y-16985900D01*
X13954990Y-16985900D02*
X13945466Y-16966852D01*
X13945466Y-16966852D02*
X13945466Y-16795424D01*
X14126418Y-16985900D02*
X14107371Y-16995424D01*
X14107371Y-16995424D02*
X14069275Y-16995424D01*
X14069275Y-16995424D02*
X14050228Y-16985900D01*
X14050228Y-16985900D02*
X14040704Y-16966852D01*
X14040704Y-16966852D02*
X14040704Y-16890662D01*
X14040704Y-16890662D02*
X14050228Y-16871614D01*
X14050228Y-16871614D02*
X14069275Y-16862090D01*
X14069275Y-16862090D02*
X14107371Y-16862090D01*
X14107371Y-16862090D02*
X14126418Y-16871614D01*
X14126418Y-16871614D02*
X14135942Y-16890662D01*
X14135942Y-16890662D02*
X14135942Y-16909710D01*
X14135942Y-16909710D02*
X14040704Y-16928757D01*
X14212132Y-16985900D02*
X14231180Y-16995424D01*
X14231180Y-16995424D02*
X14269275Y-16995424D01*
X14269275Y-16995424D02*
X14288323Y-16985900D01*
X14288323Y-16985900D02*
X14297847Y-16966852D01*
X14297847Y-16966852D02*
X14297847Y-16957329D01*
X14297847Y-16957329D02*
X14288323Y-16938281D01*
X14288323Y-16938281D02*
X14269275Y-16928757D01*
X14269275Y-16928757D02*
X14240704Y-16928757D01*
X14240704Y-16928757D02*
X14221656Y-16919233D01*
X14221656Y-16919233D02*
X14212132Y-16900186D01*
X14212132Y-16900186D02*
X14212132Y-16890662D01*
X14212132Y-16890662D02*
X14221656Y-16871614D01*
X14221656Y-16871614D02*
X14240704Y-16862090D01*
X14240704Y-16862090D02*
X14269275Y-16862090D01*
X14269275Y-16862090D02*
X14288323Y-16871614D01*
X14364513Y-17071614D02*
X14374037Y-17062090D01*
X14374037Y-17062090D02*
X14393085Y-17033519D01*
X14393085Y-17033519D02*
X14402609Y-17014471D01*
X14402609Y-17014471D02*
X14412132Y-16985900D01*
X14412132Y-16985900D02*
X14421656Y-16938281D01*
X14421656Y-16938281D02*
X14421656Y-16900186D01*
X14421656Y-16900186D02*
X14412132Y-16852567D01*
X14412132Y-16852567D02*
X14402609Y-16823995D01*
X14402609Y-16823995D02*
X14393085Y-16804948D01*
X14393085Y-16804948D02*
X14374037Y-16776376D01*
X14374037Y-16776376D02*
X14364513Y-16766852D01*
D17*
X9507608Y-17119400D02*
X9602608Y-17214400D01*
X9602608Y-17119400D02*
X9507608Y-17214400D01*
X9602608Y-17166900D02*
G75*
G03*
X9602608Y-17166900I-47500J0D01*
G01*
D10*
X9888323Y-17059424D02*
X9907370Y-17059424D01*
X9907370Y-17059424D02*
X9926418Y-17068948D01*
X9926418Y-17068948D02*
X9935942Y-17078471D01*
X9935942Y-17078471D02*
X9945465Y-17097519D01*
X9945465Y-17097519D02*
X9954989Y-17135614D01*
X9954989Y-17135614D02*
X9954989Y-17183233D01*
X9954989Y-17183233D02*
X9945465Y-17221329D01*
X9945465Y-17221329D02*
X9935942Y-17240376D01*
X9935942Y-17240376D02*
X9926418Y-17249900D01*
X9926418Y-17249900D02*
X9907370Y-17259424D01*
X9907370Y-17259424D02*
X9888323Y-17259424D01*
X9888323Y-17259424D02*
X9869275Y-17249900D01*
X9869275Y-17249900D02*
X9859751Y-17240376D01*
X9859751Y-17240376D02*
X9850227Y-17221329D01*
X9850227Y-17221329D02*
X9840704Y-17183233D01*
X9840704Y-17183233D02*
X9840704Y-17135614D01*
X9840704Y-17135614D02*
X9850227Y-17097519D01*
X9850227Y-17097519D02*
X9859751Y-17078471D01*
X9859751Y-17078471D02*
X9869275Y-17068948D01*
X9869275Y-17068948D02*
X9888323Y-17059424D01*
X10040704Y-17240376D02*
X10050227Y-17249900D01*
X10050227Y-17249900D02*
X10040704Y-17259424D01*
X10040704Y-17259424D02*
X10031180Y-17249900D01*
X10031180Y-17249900D02*
X10040704Y-17240376D01*
X10040704Y-17240376D02*
X10040704Y-17259424D01*
X10145465Y-17259424D02*
X10183561Y-17259424D01*
X10183561Y-17259424D02*
X10202608Y-17249900D01*
X10202608Y-17249900D02*
X10212132Y-17240376D01*
X10212132Y-17240376D02*
X10231180Y-17211805D01*
X10231180Y-17211805D02*
X10240704Y-17173710D01*
X10240704Y-17173710D02*
X10240704Y-17097519D01*
X10240704Y-17097519D02*
X10231180Y-17078471D01*
X10231180Y-17078471D02*
X10221656Y-17068948D01*
X10221656Y-17068948D02*
X10202608Y-17059424D01*
X10202608Y-17059424D02*
X10164513Y-17059424D01*
X10164513Y-17059424D02*
X10145465Y-17068948D01*
X10145465Y-17068948D02*
X10135942Y-17078471D01*
X10135942Y-17078471D02*
X10126418Y-17097519D01*
X10126418Y-17097519D02*
X10126418Y-17145138D01*
X10126418Y-17145138D02*
X10135942Y-17164186D01*
X10135942Y-17164186D02*
X10145465Y-17173710D01*
X10145465Y-17173710D02*
X10164513Y-17183233D01*
X10164513Y-17183233D02*
X10202608Y-17183233D01*
X10202608Y-17183233D02*
X10221656Y-17173710D01*
X10221656Y-17173710D02*
X10231180Y-17164186D01*
X10231180Y-17164186D02*
X10240704Y-17145138D01*
X10421656Y-17059424D02*
X10326418Y-17059424D01*
X10326418Y-17059424D02*
X10316894Y-17154662D01*
X10316894Y-17154662D02*
X10326418Y-17145138D01*
X10326418Y-17145138D02*
X10345465Y-17135614D01*
X10345465Y-17135614D02*
X10393085Y-17135614D01*
X10393085Y-17135614D02*
X10412132Y-17145138D01*
X10412132Y-17145138D02*
X10421656Y-17154662D01*
X10421656Y-17154662D02*
X10431180Y-17173710D01*
X10431180Y-17173710D02*
X10431180Y-17221329D01*
X10431180Y-17221329D02*
X10421656Y-17240376D01*
X10421656Y-17240376D02*
X10412132Y-17249900D01*
X10412132Y-17249900D02*
X10393085Y-17259424D01*
X10393085Y-17259424D02*
X10345465Y-17259424D01*
X10345465Y-17259424D02*
X10326418Y-17249900D01*
X10326418Y-17249900D02*
X10316894Y-17240376D01*
X10554989Y-17059424D02*
X10574037Y-17059424D01*
X10574037Y-17059424D02*
X10593085Y-17068948D01*
X10593085Y-17068948D02*
X10602608Y-17078471D01*
X10602608Y-17078471D02*
X10612132Y-17097519D01*
X10612132Y-17097519D02*
X10621656Y-17135614D01*
X10621656Y-17135614D02*
X10621656Y-17183233D01*
X10621656Y-17183233D02*
X10612132Y-17221329D01*
X10612132Y-17221329D02*
X10602608Y-17240376D01*
X10602608Y-17240376D02*
X10593085Y-17249900D01*
X10593085Y-17249900D02*
X10574037Y-17259424D01*
X10574037Y-17259424D02*
X10554989Y-17259424D01*
X10554989Y-17259424D02*
X10535942Y-17249900D01*
X10535942Y-17249900D02*
X10526418Y-17240376D01*
X10526418Y-17240376D02*
X10516894Y-17221329D01*
X10516894Y-17221329D02*
X10507370Y-17183233D01*
X10507370Y-17183233D02*
X10507370Y-17135614D01*
X10507370Y-17135614D02*
X10516894Y-17097519D01*
X10516894Y-17097519D02*
X10526418Y-17078471D01*
X10526418Y-17078471D02*
X10535942Y-17068948D01*
X10535942Y-17068948D02*
X10554989Y-17059424D01*
X10707370Y-17259424D02*
X10707370Y-17126090D01*
X10707370Y-17145138D02*
X10716894Y-17135614D01*
X10716894Y-17135614D02*
X10735942Y-17126090D01*
X10735942Y-17126090D02*
X10764513Y-17126090D01*
X10764513Y-17126090D02*
X10783561Y-17135614D01*
X10783561Y-17135614D02*
X10793085Y-17154662D01*
X10793085Y-17154662D02*
X10793085Y-17259424D01*
X10793085Y-17154662D02*
X10802608Y-17135614D01*
X10802608Y-17135614D02*
X10821656Y-17126090D01*
X10821656Y-17126090D02*
X10850227Y-17126090D01*
X10850227Y-17126090D02*
X10869275Y-17135614D01*
X10869275Y-17135614D02*
X10878799Y-17154662D01*
X10878799Y-17154662D02*
X10878799Y-17259424D01*
X10974037Y-17259424D02*
X10974037Y-17126090D01*
X10974037Y-17145138D02*
X10983561Y-17135614D01*
X10983561Y-17135614D02*
X11002608Y-17126090D01*
X11002608Y-17126090D02*
X11031180Y-17126090D01*
X11031180Y-17126090D02*
X11050227Y-17135614D01*
X11050227Y-17135614D02*
X11059751Y-17154662D01*
X11059751Y-17154662D02*
X11059751Y-17259424D01*
X11059751Y-17154662D02*
X11069275Y-17135614D01*
X11069275Y-17135614D02*
X11088323Y-17126090D01*
X11088323Y-17126090D02*
X11116894Y-17126090D01*
X11116894Y-17126090D02*
X11135942Y-17135614D01*
X11135942Y-17135614D02*
X11145466Y-17154662D01*
X11145466Y-17154662D02*
X11145466Y-17259424D01*
X11535942Y-17049900D02*
X11364513Y-17307043D01*
X11793085Y-17059424D02*
X11812132Y-17059424D01*
X11812132Y-17059424D02*
X11831180Y-17068948D01*
X11831180Y-17068948D02*
X11840704Y-17078471D01*
X11840704Y-17078471D02*
X11850227Y-17097519D01*
X11850227Y-17097519D02*
X11859751Y-17135614D01*
X11859751Y-17135614D02*
X11859751Y-17183233D01*
X11859751Y-17183233D02*
X11850227Y-17221329D01*
X11850227Y-17221329D02*
X11840704Y-17240376D01*
X11840704Y-17240376D02*
X11831180Y-17249900D01*
X11831180Y-17249900D02*
X11812132Y-17259424D01*
X11812132Y-17259424D02*
X11793085Y-17259424D01*
X11793085Y-17259424D02*
X11774037Y-17249900D01*
X11774037Y-17249900D02*
X11764513Y-17240376D01*
X11764513Y-17240376D02*
X11754989Y-17221329D01*
X11754989Y-17221329D02*
X11745466Y-17183233D01*
X11745466Y-17183233D02*
X11745466Y-17135614D01*
X11745466Y-17135614D02*
X11754989Y-17097519D01*
X11754989Y-17097519D02*
X11764513Y-17078471D01*
X11764513Y-17078471D02*
X11774037Y-17068948D01*
X11774037Y-17068948D02*
X11793085Y-17059424D01*
X11945466Y-17240376D02*
X11954989Y-17249900D01*
X11954989Y-17249900D02*
X11945466Y-17259424D01*
X11945466Y-17259424D02*
X11935942Y-17249900D01*
X11935942Y-17249900D02*
X11945466Y-17240376D01*
X11945466Y-17240376D02*
X11945466Y-17259424D01*
X12078799Y-17059424D02*
X12097847Y-17059424D01*
X12097847Y-17059424D02*
X12116894Y-17068948D01*
X12116894Y-17068948D02*
X12126418Y-17078471D01*
X12126418Y-17078471D02*
X12135942Y-17097519D01*
X12135942Y-17097519D02*
X12145466Y-17135614D01*
X12145466Y-17135614D02*
X12145466Y-17183233D01*
X12145466Y-17183233D02*
X12135942Y-17221329D01*
X12135942Y-17221329D02*
X12126418Y-17240376D01*
X12126418Y-17240376D02*
X12116894Y-17249900D01*
X12116894Y-17249900D02*
X12097847Y-17259424D01*
X12097847Y-17259424D02*
X12078799Y-17259424D01*
X12078799Y-17259424D02*
X12059751Y-17249900D01*
X12059751Y-17249900D02*
X12050227Y-17240376D01*
X12050227Y-17240376D02*
X12040704Y-17221329D01*
X12040704Y-17221329D02*
X12031180Y-17183233D01*
X12031180Y-17183233D02*
X12031180Y-17135614D01*
X12031180Y-17135614D02*
X12040704Y-17097519D01*
X12040704Y-17097519D02*
X12050227Y-17078471D01*
X12050227Y-17078471D02*
X12059751Y-17068948D01*
X12059751Y-17068948D02*
X12078799Y-17059424D01*
X12212132Y-17059424D02*
X12335942Y-17059424D01*
X12335942Y-17059424D02*
X12269275Y-17135614D01*
X12269275Y-17135614D02*
X12297847Y-17135614D01*
X12297847Y-17135614D02*
X12316894Y-17145138D01*
X12316894Y-17145138D02*
X12326418Y-17154662D01*
X12326418Y-17154662D02*
X12335942Y-17173710D01*
X12335942Y-17173710D02*
X12335942Y-17221329D01*
X12335942Y-17221329D02*
X12326418Y-17240376D01*
X12326418Y-17240376D02*
X12316894Y-17249900D01*
X12316894Y-17249900D02*
X12297847Y-17259424D01*
X12297847Y-17259424D02*
X12240704Y-17259424D01*
X12240704Y-17259424D02*
X12221656Y-17249900D01*
X12221656Y-17249900D02*
X12212132Y-17240376D01*
X12402608Y-17059424D02*
X12535942Y-17059424D01*
X12535942Y-17059424D02*
X12450227Y-17259424D01*
X12697847Y-17126090D02*
X12697847Y-17259424D01*
X12650227Y-17049900D02*
X12602608Y-17192757D01*
X12602608Y-17192757D02*
X12726418Y-17192757D01*
X12793085Y-17059424D02*
X12793085Y-17097519D01*
X12869275Y-17059424D02*
X12869275Y-17097519D01*
X13164513Y-17335614D02*
X13154989Y-17326090D01*
X13154989Y-17326090D02*
X13135942Y-17297519D01*
X13135942Y-17297519D02*
X13126418Y-17278471D01*
X13126418Y-17278471D02*
X13116894Y-17249900D01*
X13116894Y-17249900D02*
X13107370Y-17202281D01*
X13107370Y-17202281D02*
X13107370Y-17164186D01*
X13107370Y-17164186D02*
X13116894Y-17116567D01*
X13116894Y-17116567D02*
X13126418Y-17087995D01*
X13126418Y-17087995D02*
X13135942Y-17068948D01*
X13135942Y-17068948D02*
X13154989Y-17040376D01*
X13154989Y-17040376D02*
X13164513Y-17030852D01*
X13345466Y-17259424D02*
X13231180Y-17259424D01*
X13288323Y-17259424D02*
X13288323Y-17059424D01*
X13288323Y-17059424D02*
X13269275Y-17087995D01*
X13269275Y-17087995D02*
X13250228Y-17107043D01*
X13250228Y-17107043D02*
X13231180Y-17116567D01*
X13421656Y-17078471D02*
X13431180Y-17068948D01*
X13431180Y-17068948D02*
X13450228Y-17059424D01*
X13450228Y-17059424D02*
X13497847Y-17059424D01*
X13497847Y-17059424D02*
X13516894Y-17068948D01*
X13516894Y-17068948D02*
X13526418Y-17078471D01*
X13526418Y-17078471D02*
X13535942Y-17097519D01*
X13535942Y-17097519D02*
X13535942Y-17116567D01*
X13535942Y-17116567D02*
X13526418Y-17145138D01*
X13526418Y-17145138D02*
X13412132Y-17259424D01*
X13412132Y-17259424D02*
X13535942Y-17259424D01*
X13774037Y-17259424D02*
X13774037Y-17059424D01*
X13859751Y-17259424D02*
X13859751Y-17154662D01*
X13859751Y-17154662D02*
X13850228Y-17135614D01*
X13850228Y-17135614D02*
X13831180Y-17126090D01*
X13831180Y-17126090D02*
X13802609Y-17126090D01*
X13802609Y-17126090D02*
X13783561Y-17135614D01*
X13783561Y-17135614D02*
X13774037Y-17145138D01*
X13983561Y-17259424D02*
X13964513Y-17249900D01*
X13964513Y-17249900D02*
X13954990Y-17240376D01*
X13954990Y-17240376D02*
X13945466Y-17221329D01*
X13945466Y-17221329D02*
X13945466Y-17164186D01*
X13945466Y-17164186D02*
X13954990Y-17145138D01*
X13954990Y-17145138D02*
X13964513Y-17135614D01*
X13964513Y-17135614D02*
X13983561Y-17126090D01*
X13983561Y-17126090D02*
X14012132Y-17126090D01*
X14012132Y-17126090D02*
X14031180Y-17135614D01*
X14031180Y-17135614D02*
X14040704Y-17145138D01*
X14040704Y-17145138D02*
X14050228Y-17164186D01*
X14050228Y-17164186D02*
X14050228Y-17221329D01*
X14050228Y-17221329D02*
X14040704Y-17240376D01*
X14040704Y-17240376D02*
X14031180Y-17249900D01*
X14031180Y-17249900D02*
X14012132Y-17259424D01*
X14012132Y-17259424D02*
X13983561Y-17259424D01*
X14164513Y-17259424D02*
X14145466Y-17249900D01*
X14145466Y-17249900D02*
X14135942Y-17230852D01*
X14135942Y-17230852D02*
X14135942Y-17059424D01*
X14316894Y-17249900D02*
X14297847Y-17259424D01*
X14297847Y-17259424D02*
X14259751Y-17259424D01*
X14259751Y-17259424D02*
X14240704Y-17249900D01*
X14240704Y-17249900D02*
X14231180Y-17230852D01*
X14231180Y-17230852D02*
X14231180Y-17154662D01*
X14231180Y-17154662D02*
X14240704Y-17135614D01*
X14240704Y-17135614D02*
X14259751Y-17126090D01*
X14259751Y-17126090D02*
X14297847Y-17126090D01*
X14297847Y-17126090D02*
X14316894Y-17135614D01*
X14316894Y-17135614D02*
X14326418Y-17154662D01*
X14326418Y-17154662D02*
X14326418Y-17173710D01*
X14326418Y-17173710D02*
X14231180Y-17192757D01*
X14402609Y-17249900D02*
X14421656Y-17259424D01*
X14421656Y-17259424D02*
X14459751Y-17259424D01*
X14459751Y-17259424D02*
X14478799Y-17249900D01*
X14478799Y-17249900D02*
X14488323Y-17230852D01*
X14488323Y-17230852D02*
X14488323Y-17221329D01*
X14488323Y-17221329D02*
X14478799Y-17202281D01*
X14478799Y-17202281D02*
X14459751Y-17192757D01*
X14459751Y-17192757D02*
X14431180Y-17192757D01*
X14431180Y-17192757D02*
X14412132Y-17183233D01*
X14412132Y-17183233D02*
X14402609Y-17164186D01*
X14402609Y-17164186D02*
X14402609Y-17154662D01*
X14402609Y-17154662D02*
X14412132Y-17135614D01*
X14412132Y-17135614D02*
X14431180Y-17126090D01*
X14431180Y-17126090D02*
X14459751Y-17126090D01*
X14459751Y-17126090D02*
X14478799Y-17135614D01*
X14554990Y-17335614D02*
X14564513Y-17326090D01*
X14564513Y-17326090D02*
X14583561Y-17297519D01*
X14583561Y-17297519D02*
X14593085Y-17278471D01*
X14593085Y-17278471D02*
X14602609Y-17249900D01*
X14602609Y-17249900D02*
X14612132Y-17202281D01*
X14612132Y-17202281D02*
X14612132Y-17164186D01*
X14612132Y-17164186D02*
X14602609Y-17116567D01*
X14602609Y-17116567D02*
X14593085Y-17087995D01*
X14593085Y-17087995D02*
X14583561Y-17068948D01*
X14583561Y-17068948D02*
X14564513Y-17040376D01*
X14564513Y-17040376D02*
X14554990Y-17030852D01*
D11*
X9502608Y-17380900D02*
X9602608Y-17480900D01*
X9602608Y-17380900D02*
X9502608Y-17480900D01*
X9552608Y-17380900D02*
X9552608Y-17480900D01*
X9502608Y-17430900D02*
X9602608Y-17430900D01*
D10*
X9954989Y-17523424D02*
X9840704Y-17523424D01*
X9897846Y-17523424D02*
X9897846Y-17323424D01*
X9897846Y-17323424D02*
X9878799Y-17351995D01*
X9878799Y-17351995D02*
X9859751Y-17371043D01*
X9859751Y-17371043D02*
X9840704Y-17380567D01*
X10040704Y-17504376D02*
X10050227Y-17513900D01*
X10050227Y-17513900D02*
X10040704Y-17523424D01*
X10040704Y-17523424D02*
X10031180Y-17513900D01*
X10031180Y-17513900D02*
X10040704Y-17504376D01*
X10040704Y-17504376D02*
X10040704Y-17523424D01*
X10174037Y-17323424D02*
X10193085Y-17323424D01*
X10193085Y-17323424D02*
X10212132Y-17332948D01*
X10212132Y-17332948D02*
X10221656Y-17342471D01*
X10221656Y-17342471D02*
X10231180Y-17361519D01*
X10231180Y-17361519D02*
X10240704Y-17399614D01*
X10240704Y-17399614D02*
X10240704Y-17447233D01*
X10240704Y-17447233D02*
X10231180Y-17485329D01*
X10231180Y-17485329D02*
X10221656Y-17504376D01*
X10221656Y-17504376D02*
X10212132Y-17513900D01*
X10212132Y-17513900D02*
X10193085Y-17523424D01*
X10193085Y-17523424D02*
X10174037Y-17523424D01*
X10174037Y-17523424D02*
X10154989Y-17513900D01*
X10154989Y-17513900D02*
X10145465Y-17504376D01*
X10145465Y-17504376D02*
X10135942Y-17485329D01*
X10135942Y-17485329D02*
X10126418Y-17447233D01*
X10126418Y-17447233D02*
X10126418Y-17399614D01*
X10126418Y-17399614D02*
X10135942Y-17361519D01*
X10135942Y-17361519D02*
X10145465Y-17342471D01*
X10145465Y-17342471D02*
X10154989Y-17332948D01*
X10154989Y-17332948D02*
X10174037Y-17323424D01*
X10364513Y-17323424D02*
X10383561Y-17323424D01*
X10383561Y-17323424D02*
X10402608Y-17332948D01*
X10402608Y-17332948D02*
X10412132Y-17342471D01*
X10412132Y-17342471D02*
X10421656Y-17361519D01*
X10421656Y-17361519D02*
X10431180Y-17399614D01*
X10431180Y-17399614D02*
X10431180Y-17447233D01*
X10431180Y-17447233D02*
X10421656Y-17485329D01*
X10421656Y-17485329D02*
X10412132Y-17504376D01*
X10412132Y-17504376D02*
X10402608Y-17513900D01*
X10402608Y-17513900D02*
X10383561Y-17523424D01*
X10383561Y-17523424D02*
X10364513Y-17523424D01*
X10364513Y-17523424D02*
X10345465Y-17513900D01*
X10345465Y-17513900D02*
X10335942Y-17504376D01*
X10335942Y-17504376D02*
X10326418Y-17485329D01*
X10326418Y-17485329D02*
X10316894Y-17447233D01*
X10316894Y-17447233D02*
X10316894Y-17399614D01*
X10316894Y-17399614D02*
X10326418Y-17361519D01*
X10326418Y-17361519D02*
X10335942Y-17342471D01*
X10335942Y-17342471D02*
X10345465Y-17332948D01*
X10345465Y-17332948D02*
X10364513Y-17323424D01*
X10554989Y-17323424D02*
X10574037Y-17323424D01*
X10574037Y-17323424D02*
X10593085Y-17332948D01*
X10593085Y-17332948D02*
X10602608Y-17342471D01*
X10602608Y-17342471D02*
X10612132Y-17361519D01*
X10612132Y-17361519D02*
X10621656Y-17399614D01*
X10621656Y-17399614D02*
X10621656Y-17447233D01*
X10621656Y-17447233D02*
X10612132Y-17485329D01*
X10612132Y-17485329D02*
X10602608Y-17504376D01*
X10602608Y-17504376D02*
X10593085Y-17513900D01*
X10593085Y-17513900D02*
X10574037Y-17523424D01*
X10574037Y-17523424D02*
X10554989Y-17523424D01*
X10554989Y-17523424D02*
X10535942Y-17513900D01*
X10535942Y-17513900D02*
X10526418Y-17504376D01*
X10526418Y-17504376D02*
X10516894Y-17485329D01*
X10516894Y-17485329D02*
X10507370Y-17447233D01*
X10507370Y-17447233D02*
X10507370Y-17399614D01*
X10507370Y-17399614D02*
X10516894Y-17361519D01*
X10516894Y-17361519D02*
X10526418Y-17342471D01*
X10526418Y-17342471D02*
X10535942Y-17332948D01*
X10535942Y-17332948D02*
X10554989Y-17323424D01*
X10707370Y-17523424D02*
X10707370Y-17390090D01*
X10707370Y-17409138D02*
X10716894Y-17399614D01*
X10716894Y-17399614D02*
X10735942Y-17390090D01*
X10735942Y-17390090D02*
X10764513Y-17390090D01*
X10764513Y-17390090D02*
X10783561Y-17399614D01*
X10783561Y-17399614D02*
X10793085Y-17418662D01*
X10793085Y-17418662D02*
X10793085Y-17523424D01*
X10793085Y-17418662D02*
X10802608Y-17399614D01*
X10802608Y-17399614D02*
X10821656Y-17390090D01*
X10821656Y-17390090D02*
X10850227Y-17390090D01*
X10850227Y-17390090D02*
X10869275Y-17399614D01*
X10869275Y-17399614D02*
X10878799Y-17418662D01*
X10878799Y-17418662D02*
X10878799Y-17523424D01*
X10974037Y-17523424D02*
X10974037Y-17390090D01*
X10974037Y-17409138D02*
X10983561Y-17399614D01*
X10983561Y-17399614D02*
X11002608Y-17390090D01*
X11002608Y-17390090D02*
X11031180Y-17390090D01*
X11031180Y-17390090D02*
X11050227Y-17399614D01*
X11050227Y-17399614D02*
X11059751Y-17418662D01*
X11059751Y-17418662D02*
X11059751Y-17523424D01*
X11059751Y-17418662D02*
X11069275Y-17399614D01*
X11069275Y-17399614D02*
X11088323Y-17390090D01*
X11088323Y-17390090D02*
X11116894Y-17390090D01*
X11116894Y-17390090D02*
X11135942Y-17399614D01*
X11135942Y-17399614D02*
X11145466Y-17418662D01*
X11145466Y-17418662D02*
X11145466Y-17523424D01*
X11535942Y-17313900D02*
X11364513Y-17571043D01*
X11793085Y-17323424D02*
X11812132Y-17323424D01*
X11812132Y-17323424D02*
X11831180Y-17332948D01*
X11831180Y-17332948D02*
X11840704Y-17342471D01*
X11840704Y-17342471D02*
X11850227Y-17361519D01*
X11850227Y-17361519D02*
X11859751Y-17399614D01*
X11859751Y-17399614D02*
X11859751Y-17447233D01*
X11859751Y-17447233D02*
X11850227Y-17485329D01*
X11850227Y-17485329D02*
X11840704Y-17504376D01*
X11840704Y-17504376D02*
X11831180Y-17513900D01*
X11831180Y-17513900D02*
X11812132Y-17523424D01*
X11812132Y-17523424D02*
X11793085Y-17523424D01*
X11793085Y-17523424D02*
X11774037Y-17513900D01*
X11774037Y-17513900D02*
X11764513Y-17504376D01*
X11764513Y-17504376D02*
X11754989Y-17485329D01*
X11754989Y-17485329D02*
X11745466Y-17447233D01*
X11745466Y-17447233D02*
X11745466Y-17399614D01*
X11745466Y-17399614D02*
X11754989Y-17361519D01*
X11754989Y-17361519D02*
X11764513Y-17342471D01*
X11764513Y-17342471D02*
X11774037Y-17332948D01*
X11774037Y-17332948D02*
X11793085Y-17323424D01*
X11945466Y-17504376D02*
X11954989Y-17513900D01*
X11954989Y-17513900D02*
X11945466Y-17523424D01*
X11945466Y-17523424D02*
X11935942Y-17513900D01*
X11935942Y-17513900D02*
X11945466Y-17504376D01*
X11945466Y-17504376D02*
X11945466Y-17523424D01*
X12078799Y-17323424D02*
X12097847Y-17323424D01*
X12097847Y-17323424D02*
X12116894Y-17332948D01*
X12116894Y-17332948D02*
X12126418Y-17342471D01*
X12126418Y-17342471D02*
X12135942Y-17361519D01*
X12135942Y-17361519D02*
X12145466Y-17399614D01*
X12145466Y-17399614D02*
X12145466Y-17447233D01*
X12145466Y-17447233D02*
X12135942Y-17485329D01*
X12135942Y-17485329D02*
X12126418Y-17504376D01*
X12126418Y-17504376D02*
X12116894Y-17513900D01*
X12116894Y-17513900D02*
X12097847Y-17523424D01*
X12097847Y-17523424D02*
X12078799Y-17523424D01*
X12078799Y-17523424D02*
X12059751Y-17513900D01*
X12059751Y-17513900D02*
X12050227Y-17504376D01*
X12050227Y-17504376D02*
X12040704Y-17485329D01*
X12040704Y-17485329D02*
X12031180Y-17447233D01*
X12031180Y-17447233D02*
X12031180Y-17399614D01*
X12031180Y-17399614D02*
X12040704Y-17361519D01*
X12040704Y-17361519D02*
X12050227Y-17342471D01*
X12050227Y-17342471D02*
X12059751Y-17332948D01*
X12059751Y-17332948D02*
X12078799Y-17323424D01*
X12212132Y-17323424D02*
X12335942Y-17323424D01*
X12335942Y-17323424D02*
X12269275Y-17399614D01*
X12269275Y-17399614D02*
X12297847Y-17399614D01*
X12297847Y-17399614D02*
X12316894Y-17409138D01*
X12316894Y-17409138D02*
X12326418Y-17418662D01*
X12326418Y-17418662D02*
X12335942Y-17437710D01*
X12335942Y-17437710D02*
X12335942Y-17485329D01*
X12335942Y-17485329D02*
X12326418Y-17504376D01*
X12326418Y-17504376D02*
X12316894Y-17513900D01*
X12316894Y-17513900D02*
X12297847Y-17523424D01*
X12297847Y-17523424D02*
X12240704Y-17523424D01*
X12240704Y-17523424D02*
X12221656Y-17513900D01*
X12221656Y-17513900D02*
X12212132Y-17504376D01*
X12431180Y-17523424D02*
X12469275Y-17523424D01*
X12469275Y-17523424D02*
X12488323Y-17513900D01*
X12488323Y-17513900D02*
X12497847Y-17504376D01*
X12497847Y-17504376D02*
X12516894Y-17475805D01*
X12516894Y-17475805D02*
X12526418Y-17437710D01*
X12526418Y-17437710D02*
X12526418Y-17361519D01*
X12526418Y-17361519D02*
X12516894Y-17342471D01*
X12516894Y-17342471D02*
X12507370Y-17332948D01*
X12507370Y-17332948D02*
X12488323Y-17323424D01*
X12488323Y-17323424D02*
X12450227Y-17323424D01*
X12450227Y-17323424D02*
X12431180Y-17332948D01*
X12431180Y-17332948D02*
X12421656Y-17342471D01*
X12421656Y-17342471D02*
X12412132Y-17361519D01*
X12412132Y-17361519D02*
X12412132Y-17409138D01*
X12412132Y-17409138D02*
X12421656Y-17428186D01*
X12421656Y-17428186D02*
X12431180Y-17437710D01*
X12431180Y-17437710D02*
X12450227Y-17447233D01*
X12450227Y-17447233D02*
X12488323Y-17447233D01*
X12488323Y-17447233D02*
X12507370Y-17437710D01*
X12507370Y-17437710D02*
X12516894Y-17428186D01*
X12516894Y-17428186D02*
X12526418Y-17409138D01*
X12697847Y-17390090D02*
X12697847Y-17523424D01*
X12650227Y-17313900D02*
X12602608Y-17456757D01*
X12602608Y-17456757D02*
X12726418Y-17456757D01*
X12793085Y-17323424D02*
X12793085Y-17361519D01*
X12869275Y-17323424D02*
X12869275Y-17361519D01*
X13164513Y-17599614D02*
X13154989Y-17590090D01*
X13154989Y-17590090D02*
X13135942Y-17561519D01*
X13135942Y-17561519D02*
X13126418Y-17542471D01*
X13126418Y-17542471D02*
X13116894Y-17513900D01*
X13116894Y-17513900D02*
X13107370Y-17466281D01*
X13107370Y-17466281D02*
X13107370Y-17428186D01*
X13107370Y-17428186D02*
X13116894Y-17380567D01*
X13116894Y-17380567D02*
X13126418Y-17351995D01*
X13126418Y-17351995D02*
X13135942Y-17332948D01*
X13135942Y-17332948D02*
X13154989Y-17304376D01*
X13154989Y-17304376D02*
X13164513Y-17294852D01*
X13221656Y-17323424D02*
X13345466Y-17323424D01*
X13345466Y-17323424D02*
X13278799Y-17399614D01*
X13278799Y-17399614D02*
X13307370Y-17399614D01*
X13307370Y-17399614D02*
X13326418Y-17409138D01*
X13326418Y-17409138D02*
X13335942Y-17418662D01*
X13335942Y-17418662D02*
X13345466Y-17437710D01*
X13345466Y-17437710D02*
X13345466Y-17485329D01*
X13345466Y-17485329D02*
X13335942Y-17504376D01*
X13335942Y-17504376D02*
X13326418Y-17513900D01*
X13326418Y-17513900D02*
X13307370Y-17523424D01*
X13307370Y-17523424D02*
X13250228Y-17523424D01*
X13250228Y-17523424D02*
X13231180Y-17513900D01*
X13231180Y-17513900D02*
X13221656Y-17504376D01*
X13412132Y-17323424D02*
X13535942Y-17323424D01*
X13535942Y-17323424D02*
X13469275Y-17399614D01*
X13469275Y-17399614D02*
X13497847Y-17399614D01*
X13497847Y-17399614D02*
X13516894Y-17409138D01*
X13516894Y-17409138D02*
X13526418Y-17418662D01*
X13526418Y-17418662D02*
X13535942Y-17437710D01*
X13535942Y-17437710D02*
X13535942Y-17485329D01*
X13535942Y-17485329D02*
X13526418Y-17504376D01*
X13526418Y-17504376D02*
X13516894Y-17513900D01*
X13516894Y-17513900D02*
X13497847Y-17523424D01*
X13497847Y-17523424D02*
X13440704Y-17523424D01*
X13440704Y-17523424D02*
X13421656Y-17513900D01*
X13421656Y-17513900D02*
X13412132Y-17504376D01*
X13774037Y-17523424D02*
X13774037Y-17323424D01*
X13859751Y-17523424D02*
X13859751Y-17418662D01*
X13859751Y-17418662D02*
X13850228Y-17399614D01*
X13850228Y-17399614D02*
X13831180Y-17390090D01*
X13831180Y-17390090D02*
X13802609Y-17390090D01*
X13802609Y-17390090D02*
X13783561Y-17399614D01*
X13783561Y-17399614D02*
X13774037Y-17409138D01*
X13983561Y-17523424D02*
X13964513Y-17513900D01*
X13964513Y-17513900D02*
X13954990Y-17504376D01*
X13954990Y-17504376D02*
X13945466Y-17485329D01*
X13945466Y-17485329D02*
X13945466Y-17428186D01*
X13945466Y-17428186D02*
X13954990Y-17409138D01*
X13954990Y-17409138D02*
X13964513Y-17399614D01*
X13964513Y-17399614D02*
X13983561Y-17390090D01*
X13983561Y-17390090D02*
X14012132Y-17390090D01*
X14012132Y-17390090D02*
X14031180Y-17399614D01*
X14031180Y-17399614D02*
X14040704Y-17409138D01*
X14040704Y-17409138D02*
X14050228Y-17428186D01*
X14050228Y-17428186D02*
X14050228Y-17485329D01*
X14050228Y-17485329D02*
X14040704Y-17504376D01*
X14040704Y-17504376D02*
X14031180Y-17513900D01*
X14031180Y-17513900D02*
X14012132Y-17523424D01*
X14012132Y-17523424D02*
X13983561Y-17523424D01*
X14164513Y-17523424D02*
X14145466Y-17513900D01*
X14145466Y-17513900D02*
X14135942Y-17494852D01*
X14135942Y-17494852D02*
X14135942Y-17323424D01*
X14316894Y-17513900D02*
X14297847Y-17523424D01*
X14297847Y-17523424D02*
X14259751Y-17523424D01*
X14259751Y-17523424D02*
X14240704Y-17513900D01*
X14240704Y-17513900D02*
X14231180Y-17494852D01*
X14231180Y-17494852D02*
X14231180Y-17418662D01*
X14231180Y-17418662D02*
X14240704Y-17399614D01*
X14240704Y-17399614D02*
X14259751Y-17390090D01*
X14259751Y-17390090D02*
X14297847Y-17390090D01*
X14297847Y-17390090D02*
X14316894Y-17399614D01*
X14316894Y-17399614D02*
X14326418Y-17418662D01*
X14326418Y-17418662D02*
X14326418Y-17437710D01*
X14326418Y-17437710D02*
X14231180Y-17456757D01*
X14402609Y-17513900D02*
X14421656Y-17523424D01*
X14421656Y-17523424D02*
X14459751Y-17523424D01*
X14459751Y-17523424D02*
X14478799Y-17513900D01*
X14478799Y-17513900D02*
X14488323Y-17494852D01*
X14488323Y-17494852D02*
X14488323Y-17485329D01*
X14488323Y-17485329D02*
X14478799Y-17466281D01*
X14478799Y-17466281D02*
X14459751Y-17456757D01*
X14459751Y-17456757D02*
X14431180Y-17456757D01*
X14431180Y-17456757D02*
X14412132Y-17447233D01*
X14412132Y-17447233D02*
X14402609Y-17428186D01*
X14402609Y-17428186D02*
X14402609Y-17418662D01*
X14402609Y-17418662D02*
X14412132Y-17399614D01*
X14412132Y-17399614D02*
X14431180Y-17390090D01*
X14431180Y-17390090D02*
X14459751Y-17390090D01*
X14459751Y-17390090D02*
X14478799Y-17399614D01*
X14554990Y-17599614D02*
X14564513Y-17590090D01*
X14564513Y-17590090D02*
X14583561Y-17561519D01*
X14583561Y-17561519D02*
X14593085Y-17542471D01*
X14593085Y-17542471D02*
X14602609Y-17513900D01*
X14602609Y-17513900D02*
X14612132Y-17466281D01*
X14612132Y-17466281D02*
X14612132Y-17428186D01*
X14612132Y-17428186D02*
X14602609Y-17380567D01*
X14602609Y-17380567D02*
X14593085Y-17351995D01*
X14593085Y-17351995D02*
X14583561Y-17332948D01*
X14583561Y-17332948D02*
X14564513Y-17304376D01*
X14564513Y-17304376D02*
X14554990Y-17294852D01*
D18*
X9492608Y-17639900D02*
X9602608Y-17749900D01*
X9602608Y-17639900D02*
X9492608Y-17749900D01*
X9586500Y-17733791D02*
X9586500Y-17656009D01*
X9508717Y-17656009D01*
X9508717Y-17733791D01*
X9586500Y-17733791D01*
D10*
X9954989Y-17787424D02*
X9840704Y-17787424D01*
X9897846Y-17787424D02*
X9897846Y-17587424D01*
X9897846Y-17587424D02*
X9878799Y-17615995D01*
X9878799Y-17615995D02*
X9859751Y-17635043D01*
X9859751Y-17635043D02*
X9840704Y-17644567D01*
X10040704Y-17768376D02*
X10050227Y-17777900D01*
X10050227Y-17777900D02*
X10040704Y-17787424D01*
X10040704Y-17787424D02*
X10031180Y-17777900D01*
X10031180Y-17777900D02*
X10040704Y-17768376D01*
X10040704Y-17768376D02*
X10040704Y-17787424D01*
X10240704Y-17787424D02*
X10126418Y-17787424D01*
X10183561Y-17787424D02*
X10183561Y-17587424D01*
X10183561Y-17587424D02*
X10164513Y-17615995D01*
X10164513Y-17615995D02*
X10145465Y-17635043D01*
X10145465Y-17635043D02*
X10126418Y-17644567D01*
X10364513Y-17587424D02*
X10383561Y-17587424D01*
X10383561Y-17587424D02*
X10402608Y-17596948D01*
X10402608Y-17596948D02*
X10412132Y-17606471D01*
X10412132Y-17606471D02*
X10421656Y-17625519D01*
X10421656Y-17625519D02*
X10431180Y-17663614D01*
X10431180Y-17663614D02*
X10431180Y-17711233D01*
X10431180Y-17711233D02*
X10421656Y-17749329D01*
X10421656Y-17749329D02*
X10412132Y-17768376D01*
X10412132Y-17768376D02*
X10402608Y-17777900D01*
X10402608Y-17777900D02*
X10383561Y-17787424D01*
X10383561Y-17787424D02*
X10364513Y-17787424D01*
X10364513Y-17787424D02*
X10345465Y-17777900D01*
X10345465Y-17777900D02*
X10335942Y-17768376D01*
X10335942Y-17768376D02*
X10326418Y-17749329D01*
X10326418Y-17749329D02*
X10316894Y-17711233D01*
X10316894Y-17711233D02*
X10316894Y-17663614D01*
X10316894Y-17663614D02*
X10326418Y-17625519D01*
X10326418Y-17625519D02*
X10335942Y-17606471D01*
X10335942Y-17606471D02*
X10345465Y-17596948D01*
X10345465Y-17596948D02*
X10364513Y-17587424D01*
X10554989Y-17587424D02*
X10574037Y-17587424D01*
X10574037Y-17587424D02*
X10593085Y-17596948D01*
X10593085Y-17596948D02*
X10602608Y-17606471D01*
X10602608Y-17606471D02*
X10612132Y-17625519D01*
X10612132Y-17625519D02*
X10621656Y-17663614D01*
X10621656Y-17663614D02*
X10621656Y-17711233D01*
X10621656Y-17711233D02*
X10612132Y-17749329D01*
X10612132Y-17749329D02*
X10602608Y-17768376D01*
X10602608Y-17768376D02*
X10593085Y-17777900D01*
X10593085Y-17777900D02*
X10574037Y-17787424D01*
X10574037Y-17787424D02*
X10554989Y-17787424D01*
X10554989Y-17787424D02*
X10535942Y-17777900D01*
X10535942Y-17777900D02*
X10526418Y-17768376D01*
X10526418Y-17768376D02*
X10516894Y-17749329D01*
X10516894Y-17749329D02*
X10507370Y-17711233D01*
X10507370Y-17711233D02*
X10507370Y-17663614D01*
X10507370Y-17663614D02*
X10516894Y-17625519D01*
X10516894Y-17625519D02*
X10526418Y-17606471D01*
X10526418Y-17606471D02*
X10535942Y-17596948D01*
X10535942Y-17596948D02*
X10554989Y-17587424D01*
X10707370Y-17787424D02*
X10707370Y-17654090D01*
X10707370Y-17673138D02*
X10716894Y-17663614D01*
X10716894Y-17663614D02*
X10735942Y-17654090D01*
X10735942Y-17654090D02*
X10764513Y-17654090D01*
X10764513Y-17654090D02*
X10783561Y-17663614D01*
X10783561Y-17663614D02*
X10793085Y-17682662D01*
X10793085Y-17682662D02*
X10793085Y-17787424D01*
X10793085Y-17682662D02*
X10802608Y-17663614D01*
X10802608Y-17663614D02*
X10821656Y-17654090D01*
X10821656Y-17654090D02*
X10850227Y-17654090D01*
X10850227Y-17654090D02*
X10869275Y-17663614D01*
X10869275Y-17663614D02*
X10878799Y-17682662D01*
X10878799Y-17682662D02*
X10878799Y-17787424D01*
X10974037Y-17787424D02*
X10974037Y-17654090D01*
X10974037Y-17673138D02*
X10983561Y-17663614D01*
X10983561Y-17663614D02*
X11002608Y-17654090D01*
X11002608Y-17654090D02*
X11031180Y-17654090D01*
X11031180Y-17654090D02*
X11050227Y-17663614D01*
X11050227Y-17663614D02*
X11059751Y-17682662D01*
X11059751Y-17682662D02*
X11059751Y-17787424D01*
X11059751Y-17682662D02*
X11069275Y-17663614D01*
X11069275Y-17663614D02*
X11088323Y-17654090D01*
X11088323Y-17654090D02*
X11116894Y-17654090D01*
X11116894Y-17654090D02*
X11135942Y-17663614D01*
X11135942Y-17663614D02*
X11145466Y-17682662D01*
X11145466Y-17682662D02*
X11145466Y-17787424D01*
X11535942Y-17577900D02*
X11364513Y-17835043D01*
X11793085Y-17587424D02*
X11812132Y-17587424D01*
X11812132Y-17587424D02*
X11831180Y-17596948D01*
X11831180Y-17596948D02*
X11840704Y-17606471D01*
X11840704Y-17606471D02*
X11850227Y-17625519D01*
X11850227Y-17625519D02*
X11859751Y-17663614D01*
X11859751Y-17663614D02*
X11859751Y-17711233D01*
X11859751Y-17711233D02*
X11850227Y-17749329D01*
X11850227Y-17749329D02*
X11840704Y-17768376D01*
X11840704Y-17768376D02*
X11831180Y-17777900D01*
X11831180Y-17777900D02*
X11812132Y-17787424D01*
X11812132Y-17787424D02*
X11793085Y-17787424D01*
X11793085Y-17787424D02*
X11774037Y-17777900D01*
X11774037Y-17777900D02*
X11764513Y-17768376D01*
X11764513Y-17768376D02*
X11754989Y-17749329D01*
X11754989Y-17749329D02*
X11745466Y-17711233D01*
X11745466Y-17711233D02*
X11745466Y-17663614D01*
X11745466Y-17663614D02*
X11754989Y-17625519D01*
X11754989Y-17625519D02*
X11764513Y-17606471D01*
X11764513Y-17606471D02*
X11774037Y-17596948D01*
X11774037Y-17596948D02*
X11793085Y-17587424D01*
X11945466Y-17768376D02*
X11954989Y-17777900D01*
X11954989Y-17777900D02*
X11945466Y-17787424D01*
X11945466Y-17787424D02*
X11935942Y-17777900D01*
X11935942Y-17777900D02*
X11945466Y-17768376D01*
X11945466Y-17768376D02*
X11945466Y-17787424D01*
X12078799Y-17587424D02*
X12097847Y-17587424D01*
X12097847Y-17587424D02*
X12116894Y-17596948D01*
X12116894Y-17596948D02*
X12126418Y-17606471D01*
X12126418Y-17606471D02*
X12135942Y-17625519D01*
X12135942Y-17625519D02*
X12145466Y-17663614D01*
X12145466Y-17663614D02*
X12145466Y-17711233D01*
X12145466Y-17711233D02*
X12135942Y-17749329D01*
X12135942Y-17749329D02*
X12126418Y-17768376D01*
X12126418Y-17768376D02*
X12116894Y-17777900D01*
X12116894Y-17777900D02*
X12097847Y-17787424D01*
X12097847Y-17787424D02*
X12078799Y-17787424D01*
X12078799Y-17787424D02*
X12059751Y-17777900D01*
X12059751Y-17777900D02*
X12050227Y-17768376D01*
X12050227Y-17768376D02*
X12040704Y-17749329D01*
X12040704Y-17749329D02*
X12031180Y-17711233D01*
X12031180Y-17711233D02*
X12031180Y-17663614D01*
X12031180Y-17663614D02*
X12040704Y-17625519D01*
X12040704Y-17625519D02*
X12050227Y-17606471D01*
X12050227Y-17606471D02*
X12059751Y-17596948D01*
X12059751Y-17596948D02*
X12078799Y-17587424D01*
X12316894Y-17654090D02*
X12316894Y-17787424D01*
X12269275Y-17577900D02*
X12221656Y-17720757D01*
X12221656Y-17720757D02*
X12345466Y-17720757D01*
X12402608Y-17587424D02*
X12526418Y-17587424D01*
X12526418Y-17587424D02*
X12459751Y-17663614D01*
X12459751Y-17663614D02*
X12488323Y-17663614D01*
X12488323Y-17663614D02*
X12507370Y-17673138D01*
X12507370Y-17673138D02*
X12516894Y-17682662D01*
X12516894Y-17682662D02*
X12526418Y-17701710D01*
X12526418Y-17701710D02*
X12526418Y-17749329D01*
X12526418Y-17749329D02*
X12516894Y-17768376D01*
X12516894Y-17768376D02*
X12507370Y-17777900D01*
X12507370Y-17777900D02*
X12488323Y-17787424D01*
X12488323Y-17787424D02*
X12431180Y-17787424D01*
X12431180Y-17787424D02*
X12412132Y-17777900D01*
X12412132Y-17777900D02*
X12402608Y-17768376D01*
X12593085Y-17587424D02*
X12716894Y-17587424D01*
X12716894Y-17587424D02*
X12650227Y-17663614D01*
X12650227Y-17663614D02*
X12678799Y-17663614D01*
X12678799Y-17663614D02*
X12697847Y-17673138D01*
X12697847Y-17673138D02*
X12707370Y-17682662D01*
X12707370Y-17682662D02*
X12716894Y-17701710D01*
X12716894Y-17701710D02*
X12716894Y-17749329D01*
X12716894Y-17749329D02*
X12707370Y-17768376D01*
X12707370Y-17768376D02*
X12697847Y-17777900D01*
X12697847Y-17777900D02*
X12678799Y-17787424D01*
X12678799Y-17787424D02*
X12621656Y-17787424D01*
X12621656Y-17787424D02*
X12602608Y-17777900D01*
X12602608Y-17777900D02*
X12593085Y-17768376D01*
X12793085Y-17587424D02*
X12793085Y-17625519D01*
X12869275Y-17587424D02*
X12869275Y-17625519D01*
X13164513Y-17863614D02*
X13154989Y-17854090D01*
X13154989Y-17854090D02*
X13135942Y-17825519D01*
X13135942Y-17825519D02*
X13126418Y-17806471D01*
X13126418Y-17806471D02*
X13116894Y-17777900D01*
X13116894Y-17777900D02*
X13107370Y-17730281D01*
X13107370Y-17730281D02*
X13107370Y-17692186D01*
X13107370Y-17692186D02*
X13116894Y-17644567D01*
X13116894Y-17644567D02*
X13126418Y-17615995D01*
X13126418Y-17615995D02*
X13135942Y-17596948D01*
X13135942Y-17596948D02*
X13154989Y-17568376D01*
X13154989Y-17568376D02*
X13164513Y-17558852D01*
X13345466Y-17787424D02*
X13231180Y-17787424D01*
X13288323Y-17787424D02*
X13288323Y-17587424D01*
X13288323Y-17587424D02*
X13269275Y-17615995D01*
X13269275Y-17615995D02*
X13250228Y-17635043D01*
X13250228Y-17635043D02*
X13231180Y-17644567D01*
X13421656Y-17606471D02*
X13431180Y-17596948D01*
X13431180Y-17596948D02*
X13450228Y-17587424D01*
X13450228Y-17587424D02*
X13497847Y-17587424D01*
X13497847Y-17587424D02*
X13516894Y-17596948D01*
X13516894Y-17596948D02*
X13526418Y-17606471D01*
X13526418Y-17606471D02*
X13535942Y-17625519D01*
X13535942Y-17625519D02*
X13535942Y-17644567D01*
X13535942Y-17644567D02*
X13526418Y-17673138D01*
X13526418Y-17673138D02*
X13412132Y-17787424D01*
X13412132Y-17787424D02*
X13535942Y-17787424D01*
X13774037Y-17787424D02*
X13774037Y-17587424D01*
X13859751Y-17787424D02*
X13859751Y-17682662D01*
X13859751Y-17682662D02*
X13850228Y-17663614D01*
X13850228Y-17663614D02*
X13831180Y-17654090D01*
X13831180Y-17654090D02*
X13802609Y-17654090D01*
X13802609Y-17654090D02*
X13783561Y-17663614D01*
X13783561Y-17663614D02*
X13774037Y-17673138D01*
X13983561Y-17787424D02*
X13964513Y-17777900D01*
X13964513Y-17777900D02*
X13954990Y-17768376D01*
X13954990Y-17768376D02*
X13945466Y-17749329D01*
X13945466Y-17749329D02*
X13945466Y-17692186D01*
X13945466Y-17692186D02*
X13954990Y-17673138D01*
X13954990Y-17673138D02*
X13964513Y-17663614D01*
X13964513Y-17663614D02*
X13983561Y-17654090D01*
X13983561Y-17654090D02*
X14012132Y-17654090D01*
X14012132Y-17654090D02*
X14031180Y-17663614D01*
X14031180Y-17663614D02*
X14040704Y-17673138D01*
X14040704Y-17673138D02*
X14050228Y-17692186D01*
X14050228Y-17692186D02*
X14050228Y-17749329D01*
X14050228Y-17749329D02*
X14040704Y-17768376D01*
X14040704Y-17768376D02*
X14031180Y-17777900D01*
X14031180Y-17777900D02*
X14012132Y-17787424D01*
X14012132Y-17787424D02*
X13983561Y-17787424D01*
X14164513Y-17787424D02*
X14145466Y-17777900D01*
X14145466Y-17777900D02*
X14135942Y-17758852D01*
X14135942Y-17758852D02*
X14135942Y-17587424D01*
X14316894Y-17777900D02*
X14297847Y-17787424D01*
X14297847Y-17787424D02*
X14259751Y-17787424D01*
X14259751Y-17787424D02*
X14240704Y-17777900D01*
X14240704Y-17777900D02*
X14231180Y-17758852D01*
X14231180Y-17758852D02*
X14231180Y-17682662D01*
X14231180Y-17682662D02*
X14240704Y-17663614D01*
X14240704Y-17663614D02*
X14259751Y-17654090D01*
X14259751Y-17654090D02*
X14297847Y-17654090D01*
X14297847Y-17654090D02*
X14316894Y-17663614D01*
X14316894Y-17663614D02*
X14326418Y-17682662D01*
X14326418Y-17682662D02*
X14326418Y-17701710D01*
X14326418Y-17701710D02*
X14231180Y-17720757D01*
X14402609Y-17777900D02*
X14421656Y-17787424D01*
X14421656Y-17787424D02*
X14459751Y-17787424D01*
X14459751Y-17787424D02*
X14478799Y-17777900D01*
X14478799Y-17777900D02*
X14488323Y-17758852D01*
X14488323Y-17758852D02*
X14488323Y-17749329D01*
X14488323Y-17749329D02*
X14478799Y-17730281D01*
X14478799Y-17730281D02*
X14459751Y-17720757D01*
X14459751Y-17720757D02*
X14431180Y-17720757D01*
X14431180Y-17720757D02*
X14412132Y-17711233D01*
X14412132Y-17711233D02*
X14402609Y-17692186D01*
X14402609Y-17692186D02*
X14402609Y-17682662D01*
X14402609Y-17682662D02*
X14412132Y-17663614D01*
X14412132Y-17663614D02*
X14431180Y-17654090D01*
X14431180Y-17654090D02*
X14459751Y-17654090D01*
X14459751Y-17654090D02*
X14478799Y-17663614D01*
X14554990Y-17863614D02*
X14564513Y-17854090D01*
X14564513Y-17854090D02*
X14583561Y-17825519D01*
X14583561Y-17825519D02*
X14593085Y-17806471D01*
X14593085Y-17806471D02*
X14602609Y-17777900D01*
X14602609Y-17777900D02*
X14612132Y-17730281D01*
X14612132Y-17730281D02*
X14612132Y-17692186D01*
X14612132Y-17692186D02*
X14602609Y-17644567D01*
X14602609Y-17644567D02*
X14593085Y-17615995D01*
X14593085Y-17615995D02*
X14583561Y-17596948D01*
X14583561Y-17596948D02*
X14564513Y-17568376D01*
X14564513Y-17568376D02*
X14554990Y-17558852D01*
X9402608Y-17858900D02*
X9602608Y-18058900D01*
X9602608Y-17858900D02*
X9402608Y-18058900D01*
X9502608Y-18058900D02*
X9602608Y-17958900D01*
X9502608Y-17858900D01*
X9402608Y-17958900D01*
X9502608Y-18058900D01*
X9840704Y-17870471D02*
X9850227Y-17860948D01*
X9850227Y-17860948D02*
X9869275Y-17851424D01*
X9869275Y-17851424D02*
X9916894Y-17851424D01*
X9916894Y-17851424D02*
X9935942Y-17860948D01*
X9935942Y-17860948D02*
X9945465Y-17870471D01*
X9945465Y-17870471D02*
X9954989Y-17889519D01*
X9954989Y-17889519D02*
X9954989Y-17908567D01*
X9954989Y-17908567D02*
X9945465Y-17937138D01*
X9945465Y-17937138D02*
X9831180Y-18051424D01*
X9831180Y-18051424D02*
X9954989Y-18051424D01*
X10040704Y-18032376D02*
X10050227Y-18041900D01*
X10050227Y-18041900D02*
X10040704Y-18051424D01*
X10040704Y-18051424D02*
X10031180Y-18041900D01*
X10031180Y-18041900D02*
X10040704Y-18032376D01*
X10040704Y-18032376D02*
X10040704Y-18051424D01*
X10126418Y-17870471D02*
X10135942Y-17860948D01*
X10135942Y-17860948D02*
X10154989Y-17851424D01*
X10154989Y-17851424D02*
X10202608Y-17851424D01*
X10202608Y-17851424D02*
X10221656Y-17860948D01*
X10221656Y-17860948D02*
X10231180Y-17870471D01*
X10231180Y-17870471D02*
X10240704Y-17889519D01*
X10240704Y-17889519D02*
X10240704Y-17908567D01*
X10240704Y-17908567D02*
X10231180Y-17937138D01*
X10231180Y-17937138D02*
X10116894Y-18051424D01*
X10116894Y-18051424D02*
X10240704Y-18051424D01*
X10364513Y-17851424D02*
X10383561Y-17851424D01*
X10383561Y-17851424D02*
X10402608Y-17860948D01*
X10402608Y-17860948D02*
X10412132Y-17870471D01*
X10412132Y-17870471D02*
X10421656Y-17889519D01*
X10421656Y-17889519D02*
X10431180Y-17927614D01*
X10431180Y-17927614D02*
X10431180Y-17975233D01*
X10431180Y-17975233D02*
X10421656Y-18013329D01*
X10421656Y-18013329D02*
X10412132Y-18032376D01*
X10412132Y-18032376D02*
X10402608Y-18041900D01*
X10402608Y-18041900D02*
X10383561Y-18051424D01*
X10383561Y-18051424D02*
X10364513Y-18051424D01*
X10364513Y-18051424D02*
X10345465Y-18041900D01*
X10345465Y-18041900D02*
X10335942Y-18032376D01*
X10335942Y-18032376D02*
X10326418Y-18013329D01*
X10326418Y-18013329D02*
X10316894Y-17975233D01*
X10316894Y-17975233D02*
X10316894Y-17927614D01*
X10316894Y-17927614D02*
X10326418Y-17889519D01*
X10326418Y-17889519D02*
X10335942Y-17870471D01*
X10335942Y-17870471D02*
X10345465Y-17860948D01*
X10345465Y-17860948D02*
X10364513Y-17851424D01*
X10554989Y-17851424D02*
X10574037Y-17851424D01*
X10574037Y-17851424D02*
X10593085Y-17860948D01*
X10593085Y-17860948D02*
X10602608Y-17870471D01*
X10602608Y-17870471D02*
X10612132Y-17889519D01*
X10612132Y-17889519D02*
X10621656Y-17927614D01*
X10621656Y-17927614D02*
X10621656Y-17975233D01*
X10621656Y-17975233D02*
X10612132Y-18013329D01*
X10612132Y-18013329D02*
X10602608Y-18032376D01*
X10602608Y-18032376D02*
X10593085Y-18041900D01*
X10593085Y-18041900D02*
X10574037Y-18051424D01*
X10574037Y-18051424D02*
X10554989Y-18051424D01*
X10554989Y-18051424D02*
X10535942Y-18041900D01*
X10535942Y-18041900D02*
X10526418Y-18032376D01*
X10526418Y-18032376D02*
X10516894Y-18013329D01*
X10516894Y-18013329D02*
X10507370Y-17975233D01*
X10507370Y-17975233D02*
X10507370Y-17927614D01*
X10507370Y-17927614D02*
X10516894Y-17889519D01*
X10516894Y-17889519D02*
X10526418Y-17870471D01*
X10526418Y-17870471D02*
X10535942Y-17860948D01*
X10535942Y-17860948D02*
X10554989Y-17851424D01*
X10707370Y-18051424D02*
X10707370Y-17918090D01*
X10707370Y-17937138D02*
X10716894Y-17927614D01*
X10716894Y-17927614D02*
X10735942Y-17918090D01*
X10735942Y-17918090D02*
X10764513Y-17918090D01*
X10764513Y-17918090D02*
X10783561Y-17927614D01*
X10783561Y-17927614D02*
X10793085Y-17946662D01*
X10793085Y-17946662D02*
X10793085Y-18051424D01*
X10793085Y-17946662D02*
X10802608Y-17927614D01*
X10802608Y-17927614D02*
X10821656Y-17918090D01*
X10821656Y-17918090D02*
X10850227Y-17918090D01*
X10850227Y-17918090D02*
X10869275Y-17927614D01*
X10869275Y-17927614D02*
X10878799Y-17946662D01*
X10878799Y-17946662D02*
X10878799Y-18051424D01*
X10974037Y-18051424D02*
X10974037Y-17918090D01*
X10974037Y-17937138D02*
X10983561Y-17927614D01*
X10983561Y-17927614D02*
X11002608Y-17918090D01*
X11002608Y-17918090D02*
X11031180Y-17918090D01*
X11031180Y-17918090D02*
X11050227Y-17927614D01*
X11050227Y-17927614D02*
X11059751Y-17946662D01*
X11059751Y-17946662D02*
X11059751Y-18051424D01*
X11059751Y-17946662D02*
X11069275Y-17927614D01*
X11069275Y-17927614D02*
X11088323Y-17918090D01*
X11088323Y-17918090D02*
X11116894Y-17918090D01*
X11116894Y-17918090D02*
X11135942Y-17927614D01*
X11135942Y-17927614D02*
X11145466Y-17946662D01*
X11145466Y-17946662D02*
X11145466Y-18051424D01*
X11535942Y-17841900D02*
X11364513Y-18099043D01*
X11793085Y-17851424D02*
X11812132Y-17851424D01*
X11812132Y-17851424D02*
X11831180Y-17860948D01*
X11831180Y-17860948D02*
X11840704Y-17870471D01*
X11840704Y-17870471D02*
X11850227Y-17889519D01*
X11850227Y-17889519D02*
X11859751Y-17927614D01*
X11859751Y-17927614D02*
X11859751Y-17975233D01*
X11859751Y-17975233D02*
X11850227Y-18013329D01*
X11850227Y-18013329D02*
X11840704Y-18032376D01*
X11840704Y-18032376D02*
X11831180Y-18041900D01*
X11831180Y-18041900D02*
X11812132Y-18051424D01*
X11812132Y-18051424D02*
X11793085Y-18051424D01*
X11793085Y-18051424D02*
X11774037Y-18041900D01*
X11774037Y-18041900D02*
X11764513Y-18032376D01*
X11764513Y-18032376D02*
X11754989Y-18013329D01*
X11754989Y-18013329D02*
X11745466Y-17975233D01*
X11745466Y-17975233D02*
X11745466Y-17927614D01*
X11745466Y-17927614D02*
X11754989Y-17889519D01*
X11754989Y-17889519D02*
X11764513Y-17870471D01*
X11764513Y-17870471D02*
X11774037Y-17860948D01*
X11774037Y-17860948D02*
X11793085Y-17851424D01*
X11945466Y-18032376D02*
X11954989Y-18041900D01*
X11954989Y-18041900D02*
X11945466Y-18051424D01*
X11945466Y-18051424D02*
X11935942Y-18041900D01*
X11935942Y-18041900D02*
X11945466Y-18032376D01*
X11945466Y-18032376D02*
X11945466Y-18051424D01*
X12078799Y-17851424D02*
X12097847Y-17851424D01*
X12097847Y-17851424D02*
X12116894Y-17860948D01*
X12116894Y-17860948D02*
X12126418Y-17870471D01*
X12126418Y-17870471D02*
X12135942Y-17889519D01*
X12135942Y-17889519D02*
X12145466Y-17927614D01*
X12145466Y-17927614D02*
X12145466Y-17975233D01*
X12145466Y-17975233D02*
X12135942Y-18013329D01*
X12135942Y-18013329D02*
X12126418Y-18032376D01*
X12126418Y-18032376D02*
X12116894Y-18041900D01*
X12116894Y-18041900D02*
X12097847Y-18051424D01*
X12097847Y-18051424D02*
X12078799Y-18051424D01*
X12078799Y-18051424D02*
X12059751Y-18041900D01*
X12059751Y-18041900D02*
X12050227Y-18032376D01*
X12050227Y-18032376D02*
X12040704Y-18013329D01*
X12040704Y-18013329D02*
X12031180Y-17975233D01*
X12031180Y-17975233D02*
X12031180Y-17927614D01*
X12031180Y-17927614D02*
X12040704Y-17889519D01*
X12040704Y-17889519D02*
X12050227Y-17870471D01*
X12050227Y-17870471D02*
X12059751Y-17860948D01*
X12059751Y-17860948D02*
X12078799Y-17851424D01*
X12259751Y-17937138D02*
X12240704Y-17927614D01*
X12240704Y-17927614D02*
X12231180Y-17918090D01*
X12231180Y-17918090D02*
X12221656Y-17899043D01*
X12221656Y-17899043D02*
X12221656Y-17889519D01*
X12221656Y-17889519D02*
X12231180Y-17870471D01*
X12231180Y-17870471D02*
X12240704Y-17860948D01*
X12240704Y-17860948D02*
X12259751Y-17851424D01*
X12259751Y-17851424D02*
X12297847Y-17851424D01*
X12297847Y-17851424D02*
X12316894Y-17860948D01*
X12316894Y-17860948D02*
X12326418Y-17870471D01*
X12326418Y-17870471D02*
X12335942Y-17889519D01*
X12335942Y-17889519D02*
X12335942Y-17899043D01*
X12335942Y-17899043D02*
X12326418Y-17918090D01*
X12326418Y-17918090D02*
X12316894Y-17927614D01*
X12316894Y-17927614D02*
X12297847Y-17937138D01*
X12297847Y-17937138D02*
X12259751Y-17937138D01*
X12259751Y-17937138D02*
X12240704Y-17946662D01*
X12240704Y-17946662D02*
X12231180Y-17956186D01*
X12231180Y-17956186D02*
X12221656Y-17975233D01*
X12221656Y-17975233D02*
X12221656Y-18013329D01*
X12221656Y-18013329D02*
X12231180Y-18032376D01*
X12231180Y-18032376D02*
X12240704Y-18041900D01*
X12240704Y-18041900D02*
X12259751Y-18051424D01*
X12259751Y-18051424D02*
X12297847Y-18051424D01*
X12297847Y-18051424D02*
X12316894Y-18041900D01*
X12316894Y-18041900D02*
X12326418Y-18032376D01*
X12326418Y-18032376D02*
X12335942Y-18013329D01*
X12335942Y-18013329D02*
X12335942Y-17975233D01*
X12335942Y-17975233D02*
X12326418Y-17956186D01*
X12326418Y-17956186D02*
X12316894Y-17946662D01*
X12316894Y-17946662D02*
X12297847Y-17937138D01*
X12507370Y-17851424D02*
X12469275Y-17851424D01*
X12469275Y-17851424D02*
X12450227Y-17860948D01*
X12450227Y-17860948D02*
X12440704Y-17870471D01*
X12440704Y-17870471D02*
X12421656Y-17899043D01*
X12421656Y-17899043D02*
X12412132Y-17937138D01*
X12412132Y-17937138D02*
X12412132Y-18013329D01*
X12412132Y-18013329D02*
X12421656Y-18032376D01*
X12421656Y-18032376D02*
X12431180Y-18041900D01*
X12431180Y-18041900D02*
X12450227Y-18051424D01*
X12450227Y-18051424D02*
X12488323Y-18051424D01*
X12488323Y-18051424D02*
X12507370Y-18041900D01*
X12507370Y-18041900D02*
X12516894Y-18032376D01*
X12516894Y-18032376D02*
X12526418Y-18013329D01*
X12526418Y-18013329D02*
X12526418Y-17965710D01*
X12526418Y-17965710D02*
X12516894Y-17946662D01*
X12516894Y-17946662D02*
X12507370Y-17937138D01*
X12507370Y-17937138D02*
X12488323Y-17927614D01*
X12488323Y-17927614D02*
X12450227Y-17927614D01*
X12450227Y-17927614D02*
X12431180Y-17937138D01*
X12431180Y-17937138D02*
X12421656Y-17946662D01*
X12421656Y-17946662D02*
X12412132Y-17965710D01*
X12697847Y-17851424D02*
X12659751Y-17851424D01*
X12659751Y-17851424D02*
X12640704Y-17860948D01*
X12640704Y-17860948D02*
X12631180Y-17870471D01*
X12631180Y-17870471D02*
X12612132Y-17899043D01*
X12612132Y-17899043D02*
X12602608Y-17937138D01*
X12602608Y-17937138D02*
X12602608Y-18013329D01*
X12602608Y-18013329D02*
X12612132Y-18032376D01*
X12612132Y-18032376D02*
X12621656Y-18041900D01*
X12621656Y-18041900D02*
X12640704Y-18051424D01*
X12640704Y-18051424D02*
X12678799Y-18051424D01*
X12678799Y-18051424D02*
X12697847Y-18041900D01*
X12697847Y-18041900D02*
X12707370Y-18032376D01*
X12707370Y-18032376D02*
X12716894Y-18013329D01*
X12716894Y-18013329D02*
X12716894Y-17965710D01*
X12716894Y-17965710D02*
X12707370Y-17946662D01*
X12707370Y-17946662D02*
X12697847Y-17937138D01*
X12697847Y-17937138D02*
X12678799Y-17927614D01*
X12678799Y-17927614D02*
X12640704Y-17927614D01*
X12640704Y-17927614D02*
X12621656Y-17937138D01*
X12621656Y-17937138D02*
X12612132Y-17946662D01*
X12612132Y-17946662D02*
X12602608Y-17965710D01*
X12793085Y-17851424D02*
X12793085Y-17889519D01*
X12869275Y-17851424D02*
X12869275Y-17889519D01*
X13164513Y-18127614D02*
X13154989Y-18118090D01*
X13154989Y-18118090D02*
X13135942Y-18089519D01*
X13135942Y-18089519D02*
X13126418Y-18070471D01*
X13126418Y-18070471D02*
X13116894Y-18041900D01*
X13116894Y-18041900D02*
X13107370Y-17994281D01*
X13107370Y-17994281D02*
X13107370Y-17956186D01*
X13107370Y-17956186D02*
X13116894Y-17908567D01*
X13116894Y-17908567D02*
X13126418Y-17879995D01*
X13126418Y-17879995D02*
X13135942Y-17860948D01*
X13135942Y-17860948D02*
X13154989Y-17832376D01*
X13154989Y-17832376D02*
X13164513Y-17822852D01*
X13326418Y-17918090D02*
X13326418Y-18051424D01*
X13278799Y-17841900D02*
X13231180Y-17984757D01*
X13231180Y-17984757D02*
X13354989Y-17984757D01*
X13583561Y-18051424D02*
X13583561Y-17851424D01*
X13669275Y-18051424D02*
X13669275Y-17946662D01*
X13669275Y-17946662D02*
X13659751Y-17927614D01*
X13659751Y-17927614D02*
X13640704Y-17918090D01*
X13640704Y-17918090D02*
X13612132Y-17918090D01*
X13612132Y-17918090D02*
X13593085Y-17927614D01*
X13593085Y-17927614D02*
X13583561Y-17937138D01*
X13793085Y-18051424D02*
X13774037Y-18041900D01*
X13774037Y-18041900D02*
X13764513Y-18032376D01*
X13764513Y-18032376D02*
X13754990Y-18013329D01*
X13754990Y-18013329D02*
X13754990Y-17956186D01*
X13754990Y-17956186D02*
X13764513Y-17937138D01*
X13764513Y-17937138D02*
X13774037Y-17927614D01*
X13774037Y-17927614D02*
X13793085Y-17918090D01*
X13793085Y-17918090D02*
X13821656Y-17918090D01*
X13821656Y-17918090D02*
X13840704Y-17927614D01*
X13840704Y-17927614D02*
X13850228Y-17937138D01*
X13850228Y-17937138D02*
X13859751Y-17956186D01*
X13859751Y-17956186D02*
X13859751Y-18013329D01*
X13859751Y-18013329D02*
X13850228Y-18032376D01*
X13850228Y-18032376D02*
X13840704Y-18041900D01*
X13840704Y-18041900D02*
X13821656Y-18051424D01*
X13821656Y-18051424D02*
X13793085Y-18051424D01*
X13974037Y-18051424D02*
X13954990Y-18041900D01*
X13954990Y-18041900D02*
X13945466Y-18022852D01*
X13945466Y-18022852D02*
X13945466Y-17851424D01*
X14126418Y-18041900D02*
X14107371Y-18051424D01*
X14107371Y-18051424D02*
X14069275Y-18051424D01*
X14069275Y-18051424D02*
X14050228Y-18041900D01*
X14050228Y-18041900D02*
X14040704Y-18022852D01*
X14040704Y-18022852D02*
X14040704Y-17946662D01*
X14040704Y-17946662D02*
X14050228Y-17927614D01*
X14050228Y-17927614D02*
X14069275Y-17918090D01*
X14069275Y-17918090D02*
X14107371Y-17918090D01*
X14107371Y-17918090D02*
X14126418Y-17927614D01*
X14126418Y-17927614D02*
X14135942Y-17946662D01*
X14135942Y-17946662D02*
X14135942Y-17965710D01*
X14135942Y-17965710D02*
X14040704Y-17984757D01*
X14212132Y-18041900D02*
X14231180Y-18051424D01*
X14231180Y-18051424D02*
X14269275Y-18051424D01*
X14269275Y-18051424D02*
X14288323Y-18041900D01*
X14288323Y-18041900D02*
X14297847Y-18022852D01*
X14297847Y-18022852D02*
X14297847Y-18013329D01*
X14297847Y-18013329D02*
X14288323Y-17994281D01*
X14288323Y-17994281D02*
X14269275Y-17984757D01*
X14269275Y-17984757D02*
X14240704Y-17984757D01*
X14240704Y-17984757D02*
X14221656Y-17975233D01*
X14221656Y-17975233D02*
X14212132Y-17956186D01*
X14212132Y-17956186D02*
X14212132Y-17946662D01*
X14212132Y-17946662D02*
X14221656Y-17927614D01*
X14221656Y-17927614D02*
X14240704Y-17918090D01*
X14240704Y-17918090D02*
X14269275Y-17918090D01*
X14269275Y-17918090D02*
X14288323Y-17927614D01*
X14364513Y-18127614D02*
X14374037Y-18118090D01*
X14374037Y-18118090D02*
X14393085Y-18089519D01*
X14393085Y-18089519D02*
X14402609Y-18070471D01*
X14402609Y-18070471D02*
X14412132Y-18041900D01*
X14412132Y-18041900D02*
X14421656Y-17994281D01*
X14421656Y-17994281D02*
X14421656Y-17956186D01*
X14421656Y-17956186D02*
X14412132Y-17908567D01*
X14412132Y-17908567D02*
X14402609Y-17879995D01*
X14402609Y-17879995D02*
X14393085Y-17860948D01*
X14393085Y-17860948D02*
X14374037Y-17832376D01*
X14374037Y-17832376D02*
X14364513Y-17822852D01*
X9502608Y-18178900D02*
X9502608Y-18378900D01*
X9402608Y-18278900D02*
X9602608Y-18278900D01*
X9602608Y-18278900D02*
G75*
G03*
X9602608Y-18278900I-100000J0D01*
G01*
X9935942Y-18238090D02*
X9935942Y-18371424D01*
X9888323Y-18161900D02*
X9840704Y-18304757D01*
X9840704Y-18304757D02*
X9964513Y-18304757D01*
X10040704Y-18352376D02*
X10050227Y-18361900D01*
X10050227Y-18361900D02*
X10040704Y-18371424D01*
X10040704Y-18371424D02*
X10031180Y-18361900D01*
X10031180Y-18361900D02*
X10040704Y-18352376D01*
X10040704Y-18352376D02*
X10040704Y-18371424D01*
X10231180Y-18171424D02*
X10135942Y-18171424D01*
X10135942Y-18171424D02*
X10126418Y-18266662D01*
X10126418Y-18266662D02*
X10135942Y-18257138D01*
X10135942Y-18257138D02*
X10154989Y-18247614D01*
X10154989Y-18247614D02*
X10202608Y-18247614D01*
X10202608Y-18247614D02*
X10221656Y-18257138D01*
X10221656Y-18257138D02*
X10231180Y-18266662D01*
X10231180Y-18266662D02*
X10240704Y-18285710D01*
X10240704Y-18285710D02*
X10240704Y-18333329D01*
X10240704Y-18333329D02*
X10231180Y-18352376D01*
X10231180Y-18352376D02*
X10221656Y-18361900D01*
X10221656Y-18361900D02*
X10202608Y-18371424D01*
X10202608Y-18371424D02*
X10154989Y-18371424D01*
X10154989Y-18371424D02*
X10135942Y-18361900D01*
X10135942Y-18361900D02*
X10126418Y-18352376D01*
X10364513Y-18171424D02*
X10383561Y-18171424D01*
X10383561Y-18171424D02*
X10402608Y-18180948D01*
X10402608Y-18180948D02*
X10412132Y-18190471D01*
X10412132Y-18190471D02*
X10421656Y-18209519D01*
X10421656Y-18209519D02*
X10431180Y-18247614D01*
X10431180Y-18247614D02*
X10431180Y-18295233D01*
X10431180Y-18295233D02*
X10421656Y-18333329D01*
X10421656Y-18333329D02*
X10412132Y-18352376D01*
X10412132Y-18352376D02*
X10402608Y-18361900D01*
X10402608Y-18361900D02*
X10383561Y-18371424D01*
X10383561Y-18371424D02*
X10364513Y-18371424D01*
X10364513Y-18371424D02*
X10345465Y-18361900D01*
X10345465Y-18361900D02*
X10335942Y-18352376D01*
X10335942Y-18352376D02*
X10326418Y-18333329D01*
X10326418Y-18333329D02*
X10316894Y-18295233D01*
X10316894Y-18295233D02*
X10316894Y-18247614D01*
X10316894Y-18247614D02*
X10326418Y-18209519D01*
X10326418Y-18209519D02*
X10335942Y-18190471D01*
X10335942Y-18190471D02*
X10345465Y-18180948D01*
X10345465Y-18180948D02*
X10364513Y-18171424D01*
X10554989Y-18171424D02*
X10574037Y-18171424D01*
X10574037Y-18171424D02*
X10593085Y-18180948D01*
X10593085Y-18180948D02*
X10602608Y-18190471D01*
X10602608Y-18190471D02*
X10612132Y-18209519D01*
X10612132Y-18209519D02*
X10621656Y-18247614D01*
X10621656Y-18247614D02*
X10621656Y-18295233D01*
X10621656Y-18295233D02*
X10612132Y-18333329D01*
X10612132Y-18333329D02*
X10602608Y-18352376D01*
X10602608Y-18352376D02*
X10593085Y-18361900D01*
X10593085Y-18361900D02*
X10574037Y-18371424D01*
X10574037Y-18371424D02*
X10554989Y-18371424D01*
X10554989Y-18371424D02*
X10535942Y-18361900D01*
X10535942Y-18361900D02*
X10526418Y-18352376D01*
X10526418Y-18352376D02*
X10516894Y-18333329D01*
X10516894Y-18333329D02*
X10507370Y-18295233D01*
X10507370Y-18295233D02*
X10507370Y-18247614D01*
X10507370Y-18247614D02*
X10516894Y-18209519D01*
X10516894Y-18209519D02*
X10526418Y-18190471D01*
X10526418Y-18190471D02*
X10535942Y-18180948D01*
X10535942Y-18180948D02*
X10554989Y-18171424D01*
X10707370Y-18371424D02*
X10707370Y-18238090D01*
X10707370Y-18257138D02*
X10716894Y-18247614D01*
X10716894Y-18247614D02*
X10735942Y-18238090D01*
X10735942Y-18238090D02*
X10764513Y-18238090D01*
X10764513Y-18238090D02*
X10783561Y-18247614D01*
X10783561Y-18247614D02*
X10793085Y-18266662D01*
X10793085Y-18266662D02*
X10793085Y-18371424D01*
X10793085Y-18266662D02*
X10802608Y-18247614D01*
X10802608Y-18247614D02*
X10821656Y-18238090D01*
X10821656Y-18238090D02*
X10850227Y-18238090D01*
X10850227Y-18238090D02*
X10869275Y-18247614D01*
X10869275Y-18247614D02*
X10878799Y-18266662D01*
X10878799Y-18266662D02*
X10878799Y-18371424D01*
X10974037Y-18371424D02*
X10974037Y-18238090D01*
X10974037Y-18257138D02*
X10983561Y-18247614D01*
X10983561Y-18247614D02*
X11002608Y-18238090D01*
X11002608Y-18238090D02*
X11031180Y-18238090D01*
X11031180Y-18238090D02*
X11050227Y-18247614D01*
X11050227Y-18247614D02*
X11059751Y-18266662D01*
X11059751Y-18266662D02*
X11059751Y-18371424D01*
X11059751Y-18266662D02*
X11069275Y-18247614D01*
X11069275Y-18247614D02*
X11088323Y-18238090D01*
X11088323Y-18238090D02*
X11116894Y-18238090D01*
X11116894Y-18238090D02*
X11135942Y-18247614D01*
X11135942Y-18247614D02*
X11145466Y-18266662D01*
X11145466Y-18266662D02*
X11145466Y-18371424D01*
X11535942Y-18161900D02*
X11364513Y-18419043D01*
X11793085Y-18171424D02*
X11812132Y-18171424D01*
X11812132Y-18171424D02*
X11831180Y-18180948D01*
X11831180Y-18180948D02*
X11840704Y-18190471D01*
X11840704Y-18190471D02*
X11850227Y-18209519D01*
X11850227Y-18209519D02*
X11859751Y-18247614D01*
X11859751Y-18247614D02*
X11859751Y-18295233D01*
X11859751Y-18295233D02*
X11850227Y-18333329D01*
X11850227Y-18333329D02*
X11840704Y-18352376D01*
X11840704Y-18352376D02*
X11831180Y-18361900D01*
X11831180Y-18361900D02*
X11812132Y-18371424D01*
X11812132Y-18371424D02*
X11793085Y-18371424D01*
X11793085Y-18371424D02*
X11774037Y-18361900D01*
X11774037Y-18361900D02*
X11764513Y-18352376D01*
X11764513Y-18352376D02*
X11754989Y-18333329D01*
X11754989Y-18333329D02*
X11745466Y-18295233D01*
X11745466Y-18295233D02*
X11745466Y-18247614D01*
X11745466Y-18247614D02*
X11754989Y-18209519D01*
X11754989Y-18209519D02*
X11764513Y-18190471D01*
X11764513Y-18190471D02*
X11774037Y-18180948D01*
X11774037Y-18180948D02*
X11793085Y-18171424D01*
X11945466Y-18352376D02*
X11954989Y-18361900D01*
X11954989Y-18361900D02*
X11945466Y-18371424D01*
X11945466Y-18371424D02*
X11935942Y-18361900D01*
X11935942Y-18361900D02*
X11945466Y-18352376D01*
X11945466Y-18352376D02*
X11945466Y-18371424D01*
X12145466Y-18371424D02*
X12031180Y-18371424D01*
X12088323Y-18371424D02*
X12088323Y-18171424D01*
X12088323Y-18171424D02*
X12069275Y-18199995D01*
X12069275Y-18199995D02*
X12050227Y-18219043D01*
X12050227Y-18219043D02*
X12031180Y-18228567D01*
X12212132Y-18171424D02*
X12345466Y-18171424D01*
X12345466Y-18171424D02*
X12259751Y-18371424D01*
X12402608Y-18171424D02*
X12535942Y-18171424D01*
X12535942Y-18171424D02*
X12450227Y-18371424D01*
X12602608Y-18190471D02*
X12612132Y-18180948D01*
X12612132Y-18180948D02*
X12631180Y-18171424D01*
X12631180Y-18171424D02*
X12678799Y-18171424D01*
X12678799Y-18171424D02*
X12697847Y-18180948D01*
X12697847Y-18180948D02*
X12707370Y-18190471D01*
X12707370Y-18190471D02*
X12716894Y-18209519D01*
X12716894Y-18209519D02*
X12716894Y-18228567D01*
X12716894Y-18228567D02*
X12707370Y-18257138D01*
X12707370Y-18257138D02*
X12593085Y-18371424D01*
X12593085Y-18371424D02*
X12716894Y-18371424D01*
X12793085Y-18171424D02*
X12793085Y-18209519D01*
X12869275Y-18171424D02*
X12869275Y-18209519D01*
X13164513Y-18447614D02*
X13154989Y-18438090D01*
X13154989Y-18438090D02*
X13135942Y-18409519D01*
X13135942Y-18409519D02*
X13126418Y-18390471D01*
X13126418Y-18390471D02*
X13116894Y-18361900D01*
X13116894Y-18361900D02*
X13107370Y-18314281D01*
X13107370Y-18314281D02*
X13107370Y-18276186D01*
X13107370Y-18276186D02*
X13116894Y-18228567D01*
X13116894Y-18228567D02*
X13126418Y-18199995D01*
X13126418Y-18199995D02*
X13135942Y-18180948D01*
X13135942Y-18180948D02*
X13154989Y-18152376D01*
X13154989Y-18152376D02*
X13164513Y-18142852D01*
X13231180Y-18190471D02*
X13240704Y-18180948D01*
X13240704Y-18180948D02*
X13259751Y-18171424D01*
X13259751Y-18171424D02*
X13307370Y-18171424D01*
X13307370Y-18171424D02*
X13326418Y-18180948D01*
X13326418Y-18180948D02*
X13335942Y-18190471D01*
X13335942Y-18190471D02*
X13345466Y-18209519D01*
X13345466Y-18209519D02*
X13345466Y-18228567D01*
X13345466Y-18228567D02*
X13335942Y-18257138D01*
X13335942Y-18257138D02*
X13221656Y-18371424D01*
X13221656Y-18371424D02*
X13345466Y-18371424D01*
X13583561Y-18371424D02*
X13583561Y-18171424D01*
X13669275Y-18371424D02*
X13669275Y-18266662D01*
X13669275Y-18266662D02*
X13659751Y-18247614D01*
X13659751Y-18247614D02*
X13640704Y-18238090D01*
X13640704Y-18238090D02*
X13612132Y-18238090D01*
X13612132Y-18238090D02*
X13593085Y-18247614D01*
X13593085Y-18247614D02*
X13583561Y-18257138D01*
X13793085Y-18371424D02*
X13774037Y-18361900D01*
X13774037Y-18361900D02*
X13764513Y-18352376D01*
X13764513Y-18352376D02*
X13754990Y-18333329D01*
X13754990Y-18333329D02*
X13754990Y-18276186D01*
X13754990Y-18276186D02*
X13764513Y-18257138D01*
X13764513Y-18257138D02*
X13774037Y-18247614D01*
X13774037Y-18247614D02*
X13793085Y-18238090D01*
X13793085Y-18238090D02*
X13821656Y-18238090D01*
X13821656Y-18238090D02*
X13840704Y-18247614D01*
X13840704Y-18247614D02*
X13850228Y-18257138D01*
X13850228Y-18257138D02*
X13859751Y-18276186D01*
X13859751Y-18276186D02*
X13859751Y-18333329D01*
X13859751Y-18333329D02*
X13850228Y-18352376D01*
X13850228Y-18352376D02*
X13840704Y-18361900D01*
X13840704Y-18361900D02*
X13821656Y-18371424D01*
X13821656Y-18371424D02*
X13793085Y-18371424D01*
X13974037Y-18371424D02*
X13954990Y-18361900D01*
X13954990Y-18361900D02*
X13945466Y-18342852D01*
X13945466Y-18342852D02*
X13945466Y-18171424D01*
X14126418Y-18361900D02*
X14107371Y-18371424D01*
X14107371Y-18371424D02*
X14069275Y-18371424D01*
X14069275Y-18371424D02*
X14050228Y-18361900D01*
X14050228Y-18361900D02*
X14040704Y-18342852D01*
X14040704Y-18342852D02*
X14040704Y-18266662D01*
X14040704Y-18266662D02*
X14050228Y-18247614D01*
X14050228Y-18247614D02*
X14069275Y-18238090D01*
X14069275Y-18238090D02*
X14107371Y-18238090D01*
X14107371Y-18238090D02*
X14126418Y-18247614D01*
X14126418Y-18247614D02*
X14135942Y-18266662D01*
X14135942Y-18266662D02*
X14135942Y-18285710D01*
X14135942Y-18285710D02*
X14040704Y-18304757D01*
X14212132Y-18361900D02*
X14231180Y-18371424D01*
X14231180Y-18371424D02*
X14269275Y-18371424D01*
X14269275Y-18371424D02*
X14288323Y-18361900D01*
X14288323Y-18361900D02*
X14297847Y-18342852D01*
X14297847Y-18342852D02*
X14297847Y-18333329D01*
X14297847Y-18333329D02*
X14288323Y-18314281D01*
X14288323Y-18314281D02*
X14269275Y-18304757D01*
X14269275Y-18304757D02*
X14240704Y-18304757D01*
X14240704Y-18304757D02*
X14221656Y-18295233D01*
X14221656Y-18295233D02*
X14212132Y-18276186D01*
X14212132Y-18276186D02*
X14212132Y-18266662D01*
X14212132Y-18266662D02*
X14221656Y-18247614D01*
X14221656Y-18247614D02*
X14240704Y-18238090D01*
X14240704Y-18238090D02*
X14269275Y-18238090D01*
X14269275Y-18238090D02*
X14288323Y-18247614D01*
X14364513Y-18447614D02*
X14374037Y-18438090D01*
X14374037Y-18438090D02*
X14393085Y-18409519D01*
X14393085Y-18409519D02*
X14402609Y-18390471D01*
X14402609Y-18390471D02*
X14412132Y-18361900D01*
X14412132Y-18361900D02*
X14421656Y-18314281D01*
X14421656Y-18314281D02*
X14421656Y-18276186D01*
X14421656Y-18276186D02*
X14412132Y-18228567D01*
X14412132Y-18228567D02*
X14402609Y-18199995D01*
X14402609Y-18199995D02*
X14393085Y-18180948D01*
X14393085Y-18180948D02*
X14374037Y-18152376D01*
X14374037Y-18152376D02*
X14364513Y-18142852D01*
M02*
